<?xml version="1.0" encoding="utf-8"?>
<!-- Generator: Adobe Illustrator 27.1.0, SVG Export Plug-In . SVG Version: 6.00 Build 0)  -->
<svg version="1.1" id="Capa_1" xmlns="http://www.w3.org/2000/svg" xmlns:xlink="http://www.w3.org/1999/xlink" x="0px" y="0px"
	 viewBox="0 0 683 768" style="enable-background:new 0 0 683 768;" xml:space="preserve">
<style type="text/css">
	.st0{fill:#002E6D;}
	.st1{fill:#FFFFFF;}
</style>
<g>
	<g>
		<g>
			<path class="st0" d="M587.94,649.64H95.06C84,649.64,75,640.63,75,629.53V138.47c0-11.09,9-20.12,20.06-20.12h492.88
				c11.08,0,20.06,9.02,20.06,20.12v491.06C608,640.63,599.02,649.64,587.94,649.64z M95.06,129.84c-4.75,0-8.6,3.87-8.6,8.63
				v491.06c0,4.74,3.85,8.62,8.6,8.62h492.88c4.75,0,8.6-3.88,8.6-8.62V138.47c0-4.76-3.85-8.63-8.6-8.63H95.06z"/>
		</g>
		<g>
			<g>
				<path class="st0" d="M169.88,600.87c-0.11-0.25-0.3-0.71-0.57-1.37c-0.27-0.66-0.61-1.46-1.01-2.41c-0.4-0.95-0.84-2-1.31-3.15
					c-0.47-1.15-0.96-2.35-1.47-3.59H151.8l-4.37,10.52h-6.61c0.15-0.33,0.49-1.14,1.04-2.44c0.55-1.3,1.23-2.9,2.05-4.82
					c0.82-1.92,1.73-4.05,2.73-6.41c1-2.36,2.03-4.76,3.09-7.2c1.06-2.45,2.09-4.85,3.09-7.2c1-2.35,1.91-4.49,2.73-6.41
					c0.82-1.92,1.5-3.52,2.05-4.82c0.55-1.3,0.89-2.11,1.04-2.44c0.15,0.33,0.5,1.14,1.07,2.44c0.56,1.3,1.26,2.9,2.08,4.82
					c0.82,1.92,1.73,4.05,2.73,6.41c1,2.36,2.03,4.76,3.09,7.2c1.06,2.45,2.08,4.85,3.09,7.2c1,2.36,1.91,4.49,2.73,6.41
					c0.82,1.92,1.5,3.52,2.05,4.82c0.55,1.3,0.89,2.11,1.04,2.44H169.88z M154.09,584.71h9.07l-3.93-9.53
					c-0.04-0.04-0.13-0.28-0.27-0.74c-0.15-0.46-0.26-0.87-0.33-1.23c-0.07,0.37-0.18,0.78-0.33,1.23c-0.15,0.46-0.22,0.7-0.22,0.74
					L154.09,584.71z"/>
				<path class="st0" d="M181.08,600.87v-39.93h11.26c2.19,0,4.18,0.29,5.98,0.88c1.8,0.58,3.33,1.42,4.59,2.52
					c1.26,1.09,2.23,2.45,2.92,4.05c0.69,1.61,1.04,3.41,1.04,5.42c0,1.1-0.11,2.19-0.33,3.29c-0.22,1.1-0.57,2.16-1.04,3.18
					c-0.47,1.02-1.09,1.96-1.86,2.82c-0.76,0.86-1.68,1.6-2.73,2.22c0.8,1.28,1.58,2.53,2.35,3.75c0.76,1.22,1.54,2.46,2.32,3.7
					c0.78,1.24,1.59,2.52,2.43,3.83c0.84,1.31,1.75,2.74,2.73,4.27h-8.03c-1.64-2.56-3.19-4.97-4.64-7.26
					c-1.46-2.28-2.86-4.45-4.21-6.49h-0.55h-5.57v13.75H181.08z M187.75,580.82h5.35c1.38,0,2.53-0.24,3.44-0.71
					c0.91-0.47,1.64-1.05,2.19-1.73c0.55-0.67,0.93-1.41,1.15-2.19c0.22-0.79,0.33-1.51,0.33-2.16c0-0.62-0.1-1.32-0.3-2.11
					c-0.2-0.79-0.57-1.52-1.09-2.22c-0.53-0.69-1.25-1.28-2.16-1.75c-0.91-0.47-2.08-0.71-3.5-0.71h-5.41V580.82z"/>
				<path class="st0" d="M212.55,580.98c0-2.78,0.53-5.4,1.58-7.89c1.06-2.48,2.5-4.66,4.34-6.52c1.84-1.86,3.99-3.34,6.45-4.44
					c2.46-1.1,5.09-1.64,7.9-1.64c2.77,0,5.39,0.55,7.87,1.64c2.48,1.1,4.64,2.57,6.5,4.44c1.86,1.86,3.32,4.04,4.4,6.52
					c1.07,2.48,1.61,5.11,1.61,7.89c0,2.59-0.38,5.05-1.15,7.37c-0.76,2.32-1.89,4.54-3.39,6.65l5.85-0.49v6.35h-17.43
					c-0.73,0.15-1.44,0.25-2.13,0.33c-0.69,0.07-1.4,0.11-2.13,0.11c-2.81,0-5.44-0.53-7.9-1.59c-2.46-1.06-4.61-2.51-6.45-4.35
					c-1.84-1.84-3.29-4-4.34-6.46C213.08,586.43,212.55,583.8,212.55,580.98z M219.22,580.98c0,1.94,0.36,3.75,1.09,5.45
					c0.73,1.7,1.71,3.18,2.95,4.44c1.24,1.26,2.69,2.25,4.37,2.99c1.67,0.73,3.46,1.09,5.35,1.09c1.89,0,3.66-0.36,5.3-1.09
					c1.64-0.73,3.07-1.73,4.29-2.99c1.22-1.26,2.19-2.74,2.9-4.44c0.71-1.7,1.07-3.51,1.07-5.45s-0.35-3.75-1.07-5.45
					c-0.71-1.7-1.68-3.19-2.92-4.46c-1.24-1.28-2.69-2.28-4.34-3.01c-1.66-0.73-3.43-1.1-5.33-1.1c-1.89,0-3.67,0.37-5.33,1.1
					c-1.66,0.73-3.11,1.73-4.34,3.01c-1.24,1.28-2.21,2.77-2.92,4.46C219.58,577.23,219.22,579.05,219.22,580.98z"/>
				<path class="st0" d="M275.12,601.31c-2.15,0-4.16-0.36-6.04-1.07c-1.88-0.71-3.51-1.71-4.89-2.99
					c-1.38-1.28-2.48-2.82-3.28-4.63c-0.8-1.81-1.2-3.81-1.2-6v-25.69h6.67v25.53c0,1.17,0.23,2.26,0.68,3.29
					c0.46,1.02,1.07,1.92,1.86,2.68c0.78,0.77,1.7,1.38,2.76,1.83c1.06,0.46,2.2,0.68,3.44,0.68s2.39-0.23,3.47-0.68
					c1.07-0.46,2.01-1.07,2.81-1.83c0.8-0.77,1.43-1.66,1.88-2.68c0.45-1.02,0.68-2.12,0.68-3.29v-25.53h6.67v25.69
					c0,2.19-0.4,4.19-1.2,6c-0.8,1.81-1.9,3.35-3.31,4.63c-1.4,1.28-3.05,2.27-4.94,2.99C279.29,600.95,277.27,601.31,275.12,601.31
					z"/>
				<path class="st0" d="M299.43,560.94h6.72v39.93h-6.72V560.94z"/>
				<path class="st0" d="M339.21,560.94v6.41h-9.83v33.52h-6.72v-33.52h-9.62v-6.41H339.21z"/>
				<path class="st0" d="M346.09,600.87v-39.93h26.45v6.08h-19.78v10.74h17.59V584h-17.59v10.63h20.54v6.24H346.09z"/>
				<path class="st0" d="M409.2,597.91c-0.44,0.29-1.05,0.64-1.83,1.04c-0.78,0.4-1.71,0.78-2.79,1.12
					c-1.08,0.35-2.29,0.64-3.63,0.88c-1.35,0.24-2.79,0.36-4.32,0.36c-3.13,0-5.94-0.54-8.41-1.62c-2.48-1.08-4.57-2.53-6.28-4.35
					c-1.71-1.83-3.02-3.96-3.93-6.41c-0.91-2.45-1.37-5.02-1.37-7.72c0-2.99,0.55-5.76,1.64-8.3c1.09-2.54,2.58-4.73,4.45-6.57
					c1.88-1.84,4.06-3.28,6.56-4.3c2.49-1.02,5.16-1.53,8-1.53c1.09,0,2.19,0.08,3.31,0.25c1.11,0.16,2.16,0.38,3.14,0.63
					c0.98,0.26,1.85,0.55,2.59,0.88c0.75,0.33,1.28,0.68,1.61,1.04c-0.33,0.51-0.58,0.93-0.76,1.26c-0.18,0.33-0.37,0.67-0.57,1.01
					c-0.2,0.35-0.42,0.74-0.66,1.18c-0.24,0.44-0.57,1.04-1.01,1.81c-0.44-0.29-0.97-0.55-1.59-0.77c-0.62-0.22-1.27-0.39-1.94-0.52
					c-0.67-0.13-1.36-0.23-2.05-0.3c-0.69-0.07-1.31-0.11-1.86-0.11c-2.04,0-3.92,0.38-5.66,1.15c-1.73,0.77-3.22,1.78-4.48,3.04
					c-1.26,1.26-2.24,2.73-2.95,4.41c-0.71,1.68-1.07,3.41-1.07,5.2c0,1.75,0.34,3.46,1.01,5.12c0.67,1.66,1.62,3.13,2.84,4.41
					c1.22,1.28,2.67,2.31,4.34,3.09c1.67,0.79,3.53,1.18,5.57,1.18c1.17,0,2.29-0.12,3.39-0.36c1.09-0.24,2.06-0.5,2.9-0.79
					c0.84-0.29,1.52-0.58,2.05-0.88c0.53-0.29,0.81-0.49,0.85-0.6L409.2,597.91z"/>
				<path class="st0" d="M438.05,560.94v6.41h-9.83v33.52h-6.72v-33.52h-9.62v-6.41H438.05z"/>
				<path class="st0" d="M459.96,601.31c-2.15,0-4.16-0.36-6.04-1.07c-1.88-0.71-3.51-1.71-4.89-2.99
					c-1.38-1.28-2.48-2.82-3.28-4.63c-0.8-1.81-1.2-3.81-1.2-6v-25.69h6.67v25.53c0,1.17,0.23,2.26,0.68,3.29
					c0.46,1.02,1.07,1.92,1.86,2.68c0.78,0.77,1.7,1.38,2.76,1.83c1.06,0.46,2.2,0.68,3.44,0.68c1.24,0,2.39-0.23,3.47-0.68
					c1.07-0.46,2.01-1.07,2.81-1.83c0.8-0.77,1.43-1.66,1.88-2.68c0.46-1.02,0.68-2.12,0.68-3.29v-25.53h6.67v25.69
					c0,2.19-0.4,4.19-1.2,6c-0.8,1.81-1.9,3.35-3.31,4.63c-1.4,1.28-3.05,2.27-4.94,2.99C464.13,600.95,462.11,601.31,459.96,601.31
					z"/>
				<path class="st0" d="M484.27,600.87v-39.93h11.26c2.19,0,4.18,0.29,5.98,0.88c1.8,0.58,3.33,1.42,4.59,2.52
					c1.26,1.09,2.23,2.45,2.92,4.05c0.69,1.61,1.04,3.41,1.04,5.42c0,1.1-0.11,2.19-0.33,3.29c-0.22,1.1-0.57,2.16-1.04,3.18
					c-0.47,1.02-1.09,1.96-1.86,2.82c-0.76,0.86-1.68,1.6-2.73,2.22c0.8,1.28,1.58,2.53,2.35,3.75c0.76,1.22,1.54,2.46,2.32,3.7
					c0.78,1.24,1.59,2.52,2.43,3.83c0.84,1.31,1.75,2.74,2.73,4.27h-8.03c-1.64-2.56-3.19-4.97-4.64-7.26
					c-1.46-2.28-2.86-4.45-4.21-6.49h-0.55h-5.57v13.75H484.27z M490.94,580.82h5.35c1.38,0,2.53-0.24,3.44-0.71
					c0.91-0.47,1.64-1.05,2.19-1.73c0.55-0.67,0.93-1.41,1.15-2.19c0.22-0.79,0.33-1.51,0.33-2.16c0-0.62-0.1-1.32-0.3-2.11
					c-0.2-0.79-0.57-1.52-1.09-2.22c-0.53-0.69-1.25-1.28-2.16-1.75c-0.91-0.47-2.08-0.71-3.5-0.71h-5.41V580.82z"/>
				<path class="st0" d="M543.5,600.87c-0.11-0.25-0.3-0.71-0.57-1.37c-0.27-0.66-0.61-1.46-1.01-2.41c-0.4-0.95-0.84-2-1.31-3.15
					c-0.47-1.15-0.96-2.35-1.47-3.59h-13.71l-4.37,10.52h-6.61c0.15-0.33,0.49-1.14,1.04-2.44c0.55-1.3,1.23-2.9,2.05-4.82
					c0.82-1.92,1.73-4.05,2.73-6.41c1-2.36,2.03-4.76,3.09-7.2c1.06-2.45,2.09-4.85,3.09-7.2c1-2.35,1.91-4.49,2.73-6.41
					c0.82-1.92,1.5-3.52,2.05-4.82c0.55-1.3,0.89-2.11,1.04-2.44c0.15,0.33,0.5,1.14,1.07,2.44c0.56,1.3,1.26,2.9,2.08,4.82
					c0.82,1.92,1.73,4.05,2.73,6.41c1,2.36,2.03,4.76,3.09,7.2c1.06,2.45,2.09,4.85,3.09,7.2c1,2.36,1.91,4.49,2.73,6.41
					c0.82,1.92,1.5,3.52,2.05,4.82c0.55,1.3,0.89,2.11,1.04,2.44H543.5z M527.71,584.71h9.07l-3.93-9.53
					c-0.04-0.04-0.13-0.28-0.27-0.74c-0.15-0.46-0.26-0.87-0.33-1.23c-0.07,0.37-0.18,0.78-0.33,1.23c-0.15,0.46-0.22,0.7-0.22,0.74
					L527.71,584.71z"/>
			</g>
		</g>
		<g>
			<polygon class="st0" points="294.4,454.69 189.69,454.36 258.62,195.74 294.4,176.32 			"/>
			<polygon class="st0" points="531.38,503.39 506.44,490.89 159.5,490.56 159.5,472.13 507.75,472.46 531.38,481.67 			"/>
			<polygon class="st0" points="388.27,304.65 346.26,284.91 304.25,284.91 304.25,255.29 346.26,255.29 388.27,276.35 			"/>
			<polygon class="st0" points="387.62,354 345.6,334.26 303.59,334.26 303.59,304.65 345.6,304.65 387.62,325.71 			"/>
			<polygon class="st0" points="387.62,404.68 345.6,384.93 303.59,384.93 303.59,355.32 345.6,355.32 387.62,376.38 			"/>
			<polygon class="st0" points="387.62,454.03 345.6,434.29 303.59,434.29 303.59,404.68 345.6,404.68 387.62,425.74 			"/>
		</g>
	</g>
</g>
</svg>
