<?xml version="1.0" encoding="utf-8"?>
<!-- Generator: Adobe Illustrator 27.1.0, SVG Export Plug-In . SVG Version: 6.00 Build 0)  -->
<svg version="1.1" id="Capa_1" xmlns="http://www.w3.org/2000/svg" xmlns:xlink="http://www.w3.org/1999/xlink" x="0px" y="0px"
	 viewBox="0 0 683 768" style="enable-background:new 0 0 683 768;" xml:space="preserve">
<style type="text/css">
	.st0{fill:#002E6D;}
	.st1{fill:#FFFFFF;}
</style>
<g>
	<g>
		<g>
			<path class="st0" d="M587.86,648.9H95.14c-11.05,0-20.05-8.99-20.05-20.05V139.16c0-11.06,9-20.06,20.05-20.06h492.72
				c11.07,0,20.05,9,20.05,20.06v489.69C607.91,639.91,598.93,648.9,587.86,648.9z M95.14,130.55c-4.75,0-8.6,3.86-8.6,8.61v489.69
				c0,4.73,3.85,8.6,8.6,8.6h492.72c4.75,0,8.6-3.87,8.6-8.6V139.16c0-4.75-3.85-8.61-8.6-8.61H95.14z"/>
		</g>
		<g>
			<path class="st0" d="M136.44,567.59h8.19c3.18,0,5.87,0.48,8.08,1.45c2.21,0.97,4.01,2.22,5.4,3.75
				c1.39,1.53,2.39,3.27,3.01,5.22c0.62,1.95,0.93,3.89,0.93,5.83c0,2.37-0.43,4.5-1.28,6.39c-0.85,1.89-2,3.5-3.45,4.83
				c-1.45,1.33-3.13,2.35-5.05,3.06c-1.92,0.71-3.95,1.06-6.09,1.06h-9.75V567.59z M145.37,594.17c1.65,0,3.17-0.23,4.55-0.69
				c1.39-0.46,2.59-1.15,3.6-2.06c1.01-0.91,1.8-2.02,2.36-3.34c0.56-1.32,0.85-2.84,0.85-4.57c0-1.96-0.34-3.63-1.02-5.01
				c-0.68-1.37-1.54-2.49-2.58-3.34c-1.04-0.85-2.2-1.47-3.47-1.86c-1.27-0.39-2.49-0.58-3.64-0.58h-4.25v21.46H145.37z"/>
			<path class="st0" d="M167.35,567.59h5.33v31.6h-5.33V567.59z"/>
			<path class="st0" d="M198.6,569.37l-1.91,4.33c-1.21-0.43-2.41-0.78-3.6-1.04c-1.19-0.26-2.28-0.39-3.29-0.39
				c-1.76,0-3.16,0.35-4.18,1.04c-1.03,0.69-1.54,1.58-1.54,2.64c0,0.93,0.38,1.68,1.15,2.25c0.76,0.58,1.73,1.1,2.88,1.56
				c1.16,0.46,2.41,0.93,3.75,1.41c1.34,0.48,2.59,1.09,3.75,1.84c1.16,0.75,2.12,1.71,2.88,2.86c0.77,1.16,1.15,2.63,1.15,4.42
				c0,1.39-0.25,2.64-0.76,3.77c-0.51,1.13-1.26,2.1-2.28,2.9c-1.01,0.81-2.29,1.44-3.84,1.89c-1.55,0.45-3.36,0.67-5.44,0.67
				c-1.27,0-2.43-0.09-3.47-0.26c-1.04-0.17-1.97-0.39-2.8-0.65c-0.82-0.26-1.55-0.54-2.19-0.85c-0.64-0.3-1.19-0.6-1.65-0.89
				l2.3-4.64c1.21,0.67,2.51,1.18,3.9,1.54c1.39,0.36,2.61,0.54,3.68,0.54c0.52,0,1.19-0.06,2.02-0.17
				c0.82-0.12,1.62-0.33,2.41-0.65c0.78-0.32,1.45-0.75,2.02-1.3c0.56-0.55,0.85-1.26,0.85-2.12c0-1.01-0.38-1.84-1.15-2.49
				c-0.77-0.65-1.73-1.23-2.88-1.73c-1.16-0.51-2.41-1-3.75-1.5c-1.34-0.49-2.59-1.08-3.75-1.75c-1.16-0.68-2.12-1.52-2.88-2.51
				c-0.77-1-1.15-2.26-1.15-3.79c0-1.1,0.22-2.17,0.65-3.23c0.43-1.05,1.09-2,1.97-2.84c0.88-0.84,1.98-1.52,3.29-2.04
				c1.32-0.52,2.87-0.78,4.66-0.78c1.13,0,2.22,0.09,3.27,0.28c1.05,0.19,2,0.4,2.84,0.63c0.84,0.23,1.53,0.46,2.08,0.67
				C198.15,569.22,198.48,569.34,198.6,569.37z"/>
			<path class="st0" d="M204.71,599.2v-31.6h20.98v4.81H210v8.5h13.96v4.94H210v8.41h16.3v4.94H204.71z"/>
			<path class="st0" d="M259.46,567.59v33.07c-0.2-0.26-0.65-0.74-1.34-1.43c-0.69-0.69-1.55-1.52-2.56-2.49
				c-1.01-0.97-2.13-2.04-3.36-3.21c-1.23-1.17-2.48-2.35-3.75-3.55c-1.27-1.2-2.51-2.38-3.73-3.53c-1.21-1.16-2.32-2.22-3.32-3.19
				c-1-0.97-1.84-1.79-2.51-2.47c-0.68-0.68-1.12-1.15-1.32-1.41c-0.03-0.06-0.14-0.21-0.35-0.45c-0.2-0.25-0.38-0.47-0.52-0.67
				l0.13,1.39v19.55h-5.29v-33.03c0.2,0.26,0.65,0.73,1.34,1.41c0.69,0.68,1.54,1.5,2.56,2.45c1.01,0.95,2.13,1.99,3.36,3.12
				c1.23,1.13,2.48,2.28,3.75,3.45c1.27,1.17,2.51,2.33,3.73,3.47c1.21,1.14,2.33,2.18,3.34,3.12c1.01,0.94,1.86,1.74,2.54,2.41
				c0.68,0.67,1.12,1.13,1.32,1.39l0.82,1.21l-0.13-1.47v-19.12H259.46z M244.94,564.99c-0.46-0.4-0.85-0.69-1.17-0.84
				c-0.32-0.16-0.68-0.24-1.08-0.24c-0.2,0-0.42,0.02-0.65,0.07c-0.23,0.04-0.46,0.14-0.67,0.28c-0.22,0.14-0.41,0.34-0.58,0.58
				c-0.17,0.25-0.27,0.57-0.3,0.98l-2.34-0.09c0.03-0.61,0.17-1.16,0.43-1.67c0.26-0.51,0.59-0.94,0.98-1.3
				c0.39-0.36,0.82-0.64,1.3-0.84c0.48-0.2,0.95-0.3,1.41-0.3c0.72,0,1.36,0.12,1.91,0.35c0.55,0.23,1.07,0.58,1.56,1.04
				c0.46,0.43,0.85,0.72,1.17,0.87c0.32,0.15,0.68,0.22,1.08,0.22c0.2,0,0.42-0.02,0.65-0.07c0.23-0.04,0.46-0.14,0.67-0.28
				c0.22-0.14,0.4-0.34,0.56-0.59c0.16-0.25,0.27-0.57,0.33-0.98l2.34,0.09c-0.03,0.61-0.17,1.16-0.43,1.67
				c-0.26,0.51-0.59,0.94-0.97,1.3c-0.39,0.36-0.82,0.64-1.3,0.85c-0.48,0.2-0.95,0.3-1.41,0.3c-0.69,0-1.32-0.12-1.89-0.37
				C245.96,565.77,245.43,565.43,244.94,564.99z"/>
			<path class="st0" d="M264.66,583.46c0-2.2,0.43-4.28,1.28-6.24c0.85-1.96,2.01-3.68,3.47-5.16c1.46-1.47,3.17-2.64,5.12-3.51
				c1.95-0.87,4.04-1.3,6.26-1.3c2.2,0,4.28,0.43,6.24,1.3c1.96,0.87,3.68,2.04,5.16,3.51c1.47,1.47,2.64,3.19,3.49,5.16
				c0.85,1.97,1.28,4.05,1.28,6.24c0,2.23-0.43,4.31-1.28,6.26c-0.85,1.95-2.02,3.66-3.49,5.12c-1.47,1.46-3.19,2.61-5.16,3.45
				c-1.97,0.84-4.05,1.26-6.24,1.26c-2.23,0-4.31-0.42-6.26-1.26c-1.95-0.84-3.66-1.99-5.12-3.45c-1.46-1.46-2.62-3.16-3.47-5.12
				C265.09,587.77,264.66,585.69,264.66,583.46z M269.99,583.46c0,1.53,0.28,2.97,0.84,4.31c0.56,1.34,1.34,2.51,2.34,3.51
				c1,1,2.15,1.79,3.47,2.36c1.31,0.58,2.74,0.87,4.27,0.87c1.47,0,2.87-0.29,4.18-0.87c1.31-0.58,2.46-1.37,3.42-2.36
				c0.97-1,1.73-2.17,2.3-3.51c0.56-1.34,0.84-2.78,0.84-4.31c0-1.53-0.29-2.97-0.87-4.31c-0.58-1.34-1.36-2.52-2.34-3.53
				c-0.98-1.01-2.13-1.81-3.45-2.38c-1.32-0.58-2.72-0.87-4.23-0.87c-1.5,0-2.91,0.29-4.23,0.87c-1.32,0.58-2.46,1.37-3.42,2.38
				c-0.97,1.01-1.73,2.19-2.3,3.53C270.27,580.49,269.99,581.93,269.99,583.46z"/>
			<path class="st0" d="M312.04,567.59h5.33v31.6h-5.33V567.59z"/>
			<path class="st0" d="M352.57,567.59v33.07c-0.2-0.26-0.65-0.74-1.34-1.43c-0.69-0.69-1.55-1.52-2.56-2.49
				c-1.01-0.97-2.13-2.04-3.36-3.21c-1.23-1.17-2.48-2.35-3.75-3.55c-1.27-1.2-2.51-2.38-3.73-3.53c-1.21-1.16-2.32-2.22-3.32-3.19
				c-1-0.97-1.84-1.79-2.51-2.47c-0.68-0.68-1.12-1.15-1.32-1.41c-0.03-0.06-0.14-0.21-0.35-0.45c-0.2-0.25-0.38-0.47-0.52-0.67
				l0.13,1.39v19.55h-5.29v-33.03c0.2,0.26,0.65,0.73,1.34,1.41c0.69,0.68,1.54,1.5,2.56,2.45c1.01,0.95,2.13,1.99,3.36,3.12
				c1.23,1.13,2.48,2.28,3.75,3.45c1.27,1.17,2.51,2.33,3.73,3.47c1.21,1.14,2.33,2.18,3.34,3.12c1.01,0.94,1.86,1.74,2.54,2.41
				c0.68,0.67,1.12,1.13,1.32,1.39l0.82,1.21l-0.13-1.47v-19.12H352.57z"/>
			<path class="st0" d="M359.85,567.59h8.19c3.18,0,5.87,0.48,8.08,1.45c2.21,0.97,4.01,2.22,5.4,3.75
				c1.39,1.53,2.39,3.27,3.01,5.22c0.62,1.95,0.93,3.89,0.93,5.83c0,2.37-0.43,4.5-1.28,6.39c-0.85,1.89-2,3.5-3.45,4.83
				c-1.45,1.33-3.13,2.35-5.05,3.06c-1.92,0.71-3.95,1.06-6.09,1.06h-9.75V567.59z M368.78,594.17c1.65,0,3.17-0.23,4.55-0.69
				c1.39-0.46,2.59-1.15,3.6-2.06c1.01-0.91,1.8-2.02,2.36-3.34c0.56-1.32,0.85-2.84,0.85-4.57c0-1.96-0.34-3.63-1.02-5.01
				c-0.68-1.37-1.54-2.49-2.58-3.34c-1.04-0.85-2.2-1.47-3.47-1.86c-1.27-0.39-2.49-0.58-3.64-0.58h-4.25v21.46H368.78z"/>
			<path class="st0" d="M402.68,599.54c-1.71,0-3.3-0.28-4.79-0.84c-1.49-0.56-2.78-1.35-3.88-2.36c-1.1-1.01-1.97-2.23-2.6-3.66
				c-0.64-1.43-0.95-3.01-0.95-4.75v-20.33h5.29v20.2c0,0.92,0.18,1.79,0.54,2.6c0.36,0.81,0.85,1.52,1.47,2.12
				c0.62,0.61,1.35,1.09,2.19,1.45c0.84,0.36,1.75,0.54,2.73,0.54c0.98,0,1.9-0.18,2.75-0.54c0.85-0.36,1.6-0.84,2.23-1.45
				c0.63-0.61,1.13-1.31,1.5-2.12c0.36-0.81,0.54-1.68,0.54-2.6v-20.2h5.29v20.33c0,1.73-0.32,3.32-0.95,4.75
				c-0.64,1.43-1.51,2.65-2.62,3.66c-1.11,1.01-2.42,1.8-3.92,2.36C405.98,599.26,404.38,599.54,402.68,599.54z"/>
			<path class="st0" d="M440.6,569.37l-1.91,4.33c-1.21-0.43-2.41-0.78-3.6-1.04c-1.19-0.26-2.28-0.39-3.29-0.39
				c-1.76,0-3.16,0.35-4.18,1.04c-1.03,0.69-1.54,1.58-1.54,2.64c0,0.93,0.38,1.68,1.15,2.25c0.76,0.58,1.73,1.1,2.88,1.56
				c1.16,0.46,2.41,0.93,3.75,1.41c1.34,0.48,2.59,1.09,3.75,1.84c1.16,0.75,2.12,1.71,2.88,2.86c0.77,1.16,1.15,2.63,1.15,4.42
				c0,1.39-0.25,2.64-0.76,3.77c-0.51,1.13-1.26,2.1-2.28,2.9c-1.01,0.81-2.29,1.44-3.84,1.89c-1.55,0.45-3.36,0.67-5.44,0.67
				c-1.27,0-2.43-0.09-3.47-0.26c-1.04-0.17-1.97-0.39-2.8-0.65c-0.82-0.26-1.55-0.54-2.19-0.85c-0.64-0.3-1.19-0.6-1.65-0.89
				l2.3-4.64c1.21,0.67,2.51,1.18,3.9,1.54c1.39,0.36,2.61,0.54,3.68,0.54c0.52,0,1.19-0.06,2.02-0.17
				c0.82-0.12,1.62-0.33,2.41-0.65c0.78-0.32,1.45-0.75,2.02-1.3c0.56-0.55,0.85-1.26,0.85-2.12c0-1.01-0.38-1.84-1.15-2.49
				c-0.77-0.65-1.73-1.23-2.88-1.73c-1.16-0.51-2.41-1-3.75-1.5c-1.34-0.49-2.59-1.08-3.75-1.75c-1.16-0.68-2.12-1.52-2.88-2.51
				c-0.77-1-1.15-2.26-1.15-3.79c0-1.1,0.22-2.17,0.65-3.23c0.43-1.05,1.09-2,1.97-2.84c0.88-0.84,1.98-1.52,3.29-2.04
				c1.32-0.52,2.87-0.78,4.66-0.78c1.13,0,2.22,0.09,3.27,0.28c1.05,0.19,2,0.4,2.84,0.63c0.84,0.23,1.53,0.46,2.08,0.67
				C440.16,569.22,440.49,569.34,440.6,569.37z"/>
			<path class="st0" d="M465.66,567.59v5.07h-7.8v26.53h-5.33v-26.53h-7.63v-5.07H465.66z"/>
			<path class="st0" d="M471.12,599.2v-31.6h8.93c1.73,0,3.32,0.23,4.75,0.69c1.43,0.46,2.64,1.13,3.64,1.99
				c1,0.87,1.77,1.94,2.32,3.21c0.55,1.27,0.82,2.7,0.82,4.29c0,0.87-0.09,1.73-0.26,2.6c-0.17,0.87-0.45,1.71-0.82,2.51
				c-0.38,0.81-0.87,1.55-1.47,2.23c-0.61,0.68-1.33,1.26-2.17,1.76c0.64,1.01,1.26,2,1.86,2.97c0.61,0.97,1.22,1.94,1.84,2.93
				c0.62,0.98,1.26,1.99,1.93,3.03c0.66,1.04,1.39,2.17,2.17,3.38h-6.37c-1.3-2.02-2.53-3.94-3.68-5.74
				c-1.16-1.81-2.27-3.52-3.34-5.14h-0.43h-4.42v10.88H471.12z M476.41,583.33h4.25c1.1,0,2.01-0.19,2.73-0.56
				c0.72-0.38,1.3-0.83,1.73-1.37c0.43-0.53,0.74-1.11,0.91-1.73c0.17-0.62,0.26-1.19,0.26-1.71c0-0.49-0.08-1.05-0.24-1.67
				c-0.16-0.62-0.45-1.21-0.87-1.76c-0.42-0.55-0.99-1.01-1.71-1.39c-0.72-0.38-1.65-0.56-2.77-0.56h-4.29V583.33z"/>
			<path class="st0" d="M498.69,567.59h5.33v31.6h-5.33V567.59z"/>
			<path class="st0" d="M530.72,599.2c-0.09-0.2-0.24-0.56-0.46-1.08c-0.22-0.52-0.48-1.16-0.8-1.91c-0.32-0.75-0.67-1.58-1.04-2.49
				c-0.38-0.91-0.77-1.86-1.17-2.84h-10.88l-3.47,8.32h-5.25c0.12-0.26,0.39-0.9,0.82-1.93s0.98-2.3,1.63-3.81
				c0.65-1.52,1.37-3.21,2.17-5.07c0.79-1.86,1.61-3.76,2.45-5.7c0.84-1.94,1.65-3.84,2.45-5.7c0.79-1.86,1.52-3.55,2.17-5.07
				c0.65-1.52,1.19-2.79,1.63-3.81c0.43-1.03,0.71-1.67,0.82-1.93c0.12,0.26,0.4,0.9,0.85,1.93c0.45,1.03,1,2.3,1.65,3.81
				c0.65,1.52,1.37,3.21,2.17,5.07c0.79,1.86,1.61,3.76,2.45,5.7c0.84,1.94,1.65,3.84,2.45,5.7c0.79,1.86,1.52,3.55,2.17,5.07
				c0.65,1.52,1.19,2.79,1.63,3.81s0.71,1.67,0.82,1.93H530.72z M518.19,586.41h7.2l-3.12-7.54c-0.03-0.03-0.1-0.22-0.22-0.58
				c-0.12-0.36-0.2-0.69-0.26-0.98c-0.06,0.29-0.14,0.61-0.26,0.98c-0.12,0.36-0.17,0.56-0.17,0.58L518.19,586.41z"/>
			<path class="st0" d="M539.61,599.2v-31.6h5.29v26.57h15.34v5.03H539.61z"/>
		</g>
		<path class="st0" d="M471.93,285.89c-7.73-28.27-23.85-53.23-45.62-72.23c-21.37-19.8-47.57-32.72-76.18-35.92
			c-8.53-1.43-17.3-2.18-26.24-2.18c-48.57,0-91.86,21.92-119.91,56.11l0.15,0.12l-0.04,234.67
			c30.51,42.29,70.83,56.37,118.75,56.37c73.83,0,135.46-49.26,149.93-114.82c5.9-18.61,9.13-38.75,9.13-59.78
			C481.89,326.24,478.35,305.21,471.93,285.89z M322.17,501.23c-41.55,0-79.5-14.32-102.51-46.97V320.63l17.99,15.41V440.6
			C255.3,465.25,291.71,480,323.89,480c52.94,0,99.26-31.62,126.77-74.54C436.17,460.53,384.2,501.23,322.17,501.23z M218.78,299.41
			l0.12-35.99l18.71,14.71l-0.11,35.99L218.78,299.41z M322.62,458.67c-26.25,0-56.87-7.69-70.83-29.85l0.03-85.59l19.14-17.24
			v87.85c10.68,12.3,34.35,24.38,53.87,24.38c62.35,0,112.9-55.11,112.9-112.78c0-57.67-50.54-104.42-112.9-104.42
			c-34.94,0-65.68,14.57-86.39,37.63l-19.7-15.22c24.29-29.48,61.74-48.39,103.87-48.39c73.24,0,132.6,57.14,132.6,127.64
			C455.23,398.74,395.86,458.67,322.62,458.67z M331,270.14c-28.34,1.61-55.14,26.61-79.15,47.5v-41.51
			c20.47-20.05,40.72-32.87,71.6-32.87c48.09,0,88.03,34.54,95.95,79.95C407.68,296.13,371.93,267.82,331,270.14z M409.96,345.58
			c-0.67,22.43-20,52.74-56.81,62.67c-24.73,6.67-51.06,3.39-63.7-9v-78.27c9.98-11.78,23.82-24.46,49.16-26.57
			C367.6,291.99,403.65,324.34,409.96,345.58z"/>
	</g>
</g>
</svg>
