<?xml version="1.0" encoding="utf-8"?>
<!-- Generator: Adobe Illustrator 27.1.0, SVG Export Plug-In . SVG Version: 6.00 Build 0)  -->
<svg version="1.1" id="Capa_1" xmlns="http://www.w3.org/2000/svg" xmlns:xlink="http://www.w3.org/1999/xlink" x="0px" y="0px"
	 viewBox="0 0 683 768" style="enable-background:new 0 0 683 768;" xml:space="preserve">
<style type="text/css">
	.st0{fill:#002E6D;}
	.st1{fill:#FFFFFF;}
</style>
<g>
	<g>
		<rect x="241.06" y="295.88" width="36.97" height="149.29"/>
		<rect x="320.74" y="295.88" width="36.97" height="149.29"/>
		<rect x="407.2" y="295.9" width="36.97" height="149.29"/>
		<path d="M338.28,186.72l-163.03,97.97l334.01-0.33L338.28,186.72z M350.39,263.79h-31.23l27.42-20.48l-27.89-22.07h32.48v4.64
			h-19.13l22.16,17.54l-21.07,15.74h17.26V263.79z"/>
		<path d="M189.94,468.13c12.39-2.86,25.03-4.58,37.71-5.71c12.69-1.08,25.47-1.42,38.23-0.83c6.38,0.3,12.76,0.82,19.11,1.62
			c6.35,0.8,12.67,1.93,18.94,3.29c6.27,1.38,12.46,3.18,18.55,5.25c6.07,2.15,12.02,4.68,17.8,7.57l-2.23,0.07
			c1.6-0.92,3.11-1.7,4.68-2.49c1.56-0.78,3.14-1.5,4.72-2.21c3.17-1.4,6.39-2.69,9.62-3.91c6.49-2.39,13.1-4.43,19.79-6.12
			c6.7-1.67,13.49-2.97,20.32-3.94c1.71-0.22,3.41-0.49,5.13-0.67l5.14-0.54c3.44-0.27,6.87-0.53,10.32-0.62
			c3.44-0.17,6.89-0.12,10.33-0.14c3.44,0.12,6.88,0.14,10.32,0.43c6.87,0.42,13.7,1.31,20.47,2.4
			c13.53,2.38,26.82,5.98,39.56,10.92c-13.09-3.93-26.43-6.9-39.91-8.6c-6.74-0.82-13.51-1.45-20.29-1.6
			c-3.39-0.17-6.78-0.11-10.16-0.13c-3.39,0.12-6.77,0.15-10.15,0.42c-13.51,0.81-26.93,2.96-39.99,6.39
			c-6.54,1.69-12.98,3.72-19.3,6.08c-3.15,1.21-6.27,2.47-9.34,3.85c-1.53,0.69-3.05,1.41-4.55,2.15c-1.49,0.73-3.02,1.52-4.38,2.29
			l-1.11,0.63l-1.12-0.57c-5.56-2.82-11.29-5.3-17.18-7.42c-1.48-0.52-2.97-0.99-4.45-1.48c-0.74-0.24-1.48-0.5-2.23-0.73
			l-2.26-0.65c-1.51-0.41-3-0.91-4.52-1.28l-4.56-1.16c-12.21-2.91-24.72-4.62-37.29-5.59c-6.29-0.45-12.6-0.68-18.92-0.8
			c-6.32-0.1-12.64,0.04-18.97,0.29C215.14,465.13,202.5,466.23,189.94,468.13z"/>
		<path d="M162.49,488.01c14.54-3.5,29.37-5.8,44.25-7.49c14.89-1.64,29.89-2.47,44.91-2.36c7.51,0.09,15.02,0.37,22.52,0.98
			c7.5,0.63,14.97,1.56,22.41,2.76c7.43,1.26,14.81,2.91,22.1,4.92c7.26,2.1,14.42,4.6,21.41,7.56l-1.87,0.01
			c3.84-1.66,7.59-3,11.45-4.27c3.84-1.27,7.71-2.39,11.61-3.46c7.79-2.09,15.66-3.83,23.6-5.23c7.94-1.38,15.93-2.39,23.94-3.11
			c4.01-0.39,8.02-0.61,12.04-0.85l6.03-0.22c2.01-0.08,4.02-0.05,6.03-0.08c16.08-0.14,32.15,1.1,48.01,3.54
			c15.84,2.53,31.49,6.19,46.7,11.16c-15.5-3.94-31.19-6.97-47.01-8.84c-1.97-0.29-3.96-0.43-5.94-0.64
			c-1.98-0.18-3.96-0.43-5.94-0.56c-3.97-0.28-7.93-0.61-11.91-0.73c-3.97-0.22-7.95-0.27-11.92-0.36
			c-1.99-0.03-3.97,0.01-5.96,0.02l-2.98,0.02l-2.98,0.1c-15.88,0.44-31.72,2.06-47.32,4.94c-7.8,1.42-15.54,3.16-23.18,5.25
			c-3.81,1.06-7.61,2.18-11.35,3.44c-3.72,1.25-7.5,2.6-11.01,4.09l-0.95,0.4l-0.92-0.39c-6.76-2.9-13.72-5.36-20.8-7.45
			c-7.11-1.99-14.33-3.63-21.6-5c-7.29-1.28-14.64-2.3-22.03-3.02c-7.39-0.67-14.8-1.18-22.24-1.43
			c-14.86-0.41-29.77-0.09-44.64,1.02C192.07,483.79,177.22,485.48,162.49,488.01z"/>
		<path d="M145.54,503.12c15.96-3.5,32.17-5.8,48.44-7.48c16.28-1.64,32.65-2.47,49.04-2.37c8.19,0.09,16.4,0.36,24.58,0.96
			c8.18,0.63,16.35,1.54,24.49,2.73c8.13,1.26,16.2,2.89,24.2,4.9c7.97,2.1,15.85,4.6,23.56,7.59l-1.73,0.01
			c4.22-1.67,8.36-3.02,12.6-4.29c4.22-1.27,8.47-2.4,12.74-3.46c8.54-2.09,17.16-3.83,25.83-5.22c8.68-1.37,17.4-2.38,26.15-3.09
			c4.37-0.38,8.75-0.61,13.13-0.84l6.58-0.21c2.19-0.07,4.39-0.05,6.58-0.08c17.54-0.13,35.07,1.1,52.41,3.53
			c17.32,2.53,34.47,6.18,51.2,11.17c-17.01-3.95-34.19-6.98-51.49-8.85c-2.16-0.29-4.33-0.42-6.49-0.64
			c-2.17-0.18-4.33-0.43-6.5-0.56c-4.34-0.28-8.67-0.61-13.02-0.73c-4.34-0.22-8.68-0.27-13.03-0.36c-2.17-0.03-4.34,0.01-6.51,0.02
			l-3.26,0.02l-3.26,0.1c-17.36,0.44-34.68,2.04-51.78,4.92c-8.55,1.41-17.05,3.16-25.45,5.26c-4.19,1.06-8.38,2.19-12.51,3.45
			c-4.11,1.26-8.28,2.62-12.18,4.13l-0.88,0.34l-0.85-0.33c-7.5-2.94-15.19-5.42-22.99-7.51c-7.83-2-15.76-3.63-23.74-5
			c-8-1.28-16.05-2.28-24.13-3.01c-8.09-0.66-16.2-1.17-24.32-1.41c-16.25-0.4-32.54-0.08-48.79,1.03
			C177.9,498.91,161.67,500.59,145.54,503.12z"/>
	</g>
	<g>
		<path d="M587.98,649.03H95.02c-11.06,0-20.06-9-20.06-20.06V139.04c0-11.07,9.01-20.07,20.06-20.07h492.96
			c11.08,0,20.06,9,20.06,20.07v489.93C608.05,640.04,599.06,649.03,587.98,649.03z M95.02,130.42c-4.75,0-8.6,3.86-8.6,8.61v489.93
			c0,4.73,3.85,8.6,8.6,8.6h492.96c4.75,0,8.6-3.87,8.6-8.6V139.04c0-4.75-3.85-8.61-8.6-8.61H95.02z"/>
	</g>
	<g>
		<g>
			<path d="M190.61,600.93V560.5h11.42c2.22,0,4.24,0.3,6.07,0.89c1.83,0.59,3.38,1.44,4.66,2.55c1.28,1.11,2.26,2.48,2.97,4.1
				c0.7,1.63,1.05,3.46,1.05,5.49c0,1.63-0.24,3.24-0.72,4.85c-0.48,1.61-1.27,3.05-2.36,4.33c-1.09,1.28-2.5,2.31-4.24,3.11
				c-1.74,0.79-3.88,1.19-6.43,1.19h-5.66v13.92H190.61z M197.38,580.64h5.44c1.41,0,2.57-0.24,3.49-0.72
				c0.92-0.48,1.66-1.08,2.22-1.8c0.55-0.72,0.94-1.48,1.17-2.27c0.22-0.79,0.33-1.51,0.33-2.14c0-0.59-0.1-1.28-0.3-2.08
				c-0.2-0.79-0.57-1.54-1.11-2.25c-0.54-0.7-1.27-1.29-2.19-1.77c-0.92-0.48-2.11-0.72-3.55-0.72h-5.49V580.64z"/>
			<path d="M222.95,600.93V560.5h26.84v6.16h-20.08v10.87h17.86v6.32h-17.86v10.76h20.85v6.32H222.95z"/>
			<path d="M257.28,560.5h10.48c4.07,0,7.51,0.62,10.34,1.86c2.83,1.24,5.13,2.84,6.9,4.8c1.78,1.96,3.06,4.19,3.86,6.68
				c0.79,2.5,1.19,4.98,1.19,7.46c0,3.03-0.55,5.76-1.64,8.18c-1.09,2.42-2.56,4.48-4.41,6.18c-1.85,1.7-4,3-6.46,3.91
				c-2.46,0.91-5.06,1.36-7.79,1.36h-12.48V560.5z M268.7,594.5c2.11,0,4.05-0.3,5.82-0.89c1.78-0.59,3.31-1.47,4.6-2.63
				c1.29-1.16,2.3-2.59,3.02-4.27c0.72-1.68,1.08-3.63,1.08-5.85c0-2.51-0.43-4.65-1.3-6.41c-0.87-1.76-1.97-3.18-3.3-4.27
				c-1.33-1.09-2.81-1.89-4.44-2.38c-1.63-0.5-3.18-0.75-4.66-0.75h-5.44v27.45H268.7z"/>
			<path d="M320.12,600.93c-0.11-0.26-0.3-0.72-0.58-1.39c-0.28-0.67-0.62-1.48-1.03-2.44c-0.41-0.96-0.85-2.02-1.33-3.19
				c-0.48-1.17-0.98-2.38-1.5-3.63h-13.92l-4.44,10.65h-6.71c0.15-0.33,0.5-1.16,1.05-2.47s1.25-2.94,2.08-4.88s1.76-4.1,2.77-6.49
				c1.02-2.38,2.06-4.82,3.13-7.29c1.07-2.48,2.12-4.91,3.13-7.29c1.02-2.38,1.94-4.55,2.77-6.49c0.83-1.94,1.53-3.57,2.08-4.88
				c0.55-1.31,0.91-2.14,1.05-2.47c0.15,0.33,0.51,1.16,1.08,2.47c0.57,1.31,1.28,2.94,2.11,4.88c0.83,1.94,1.76,4.1,2.77,6.49
				c1.02,2.38,2.06,4.82,3.13,7.29c1.07,2.48,2.12,4.91,3.13,7.29c1.02,2.38,1.94,4.55,2.77,6.49s1.53,3.57,2.08,4.88
				s0.91,2.13,1.05,2.47H320.12z M304.09,584.57h9.21l-3.99-9.65c-0.04-0.04-0.13-0.29-0.28-0.75c-0.15-0.46-0.26-0.88-0.33-1.25
				c-0.08,0.37-0.19,0.79-0.33,1.25c-0.15,0.46-0.22,0.71-0.22,0.75L304.09,584.57z"/>
			<path d="M360.44,581.3v17.19c-1.55,0.92-3.43,1.64-5.63,2.14c-2.2,0.5-4.45,0.75-6.74,0.75c-3.18,0-6.05-0.5-8.62-1.5
				c-2.57-1-4.76-2.37-6.57-4.1c-1.81-1.74-3.2-3.81-4.16-6.21c-0.96-2.4-1.44-5.03-1.44-7.88c0-3.22,0.57-6.15,1.72-8.79
				c1.15-2.64,2.69-4.92,4.63-6.82c1.94-1.9,4.2-3.38,6.77-4.44c2.57-1.05,5.28-1.58,8.12-1.58c0.96,0,1.97,0.07,3.02,0.19
				c1.05,0.13,2.1,0.32,3.13,0.58c1.04,0.26,2.03,0.56,3,0.91c0.96,0.35,1.83,0.77,2.61,1.25l-3.33,5.55
				c-0.52-0.33-1.14-0.62-1.86-0.86c-0.72-0.24-1.47-0.45-2.25-0.64c-0.78-0.18-1.54-0.32-2.3-0.42c-0.76-0.09-1.47-0.14-2.13-0.14
				c-1.89,0-3.69,0.38-5.41,1.14c-1.72,0.76-3.24,1.78-4.58,3.08c-1.33,1.29-2.39,2.84-3.19,4.63c-0.79,1.79-1.19,3.71-1.19,5.74
				c0,1.85,0.35,3.61,1.05,5.27c0.7,1.66,1.68,3.13,2.94,4.41c1.26,1.28,2.75,2.29,4.49,3.05c1.74,0.76,3.64,1.14,5.71,1.14
				c0.74,0,1.66-0.06,2.77-0.19c1.11-0.13,2.16-0.36,3.16-0.69v-6.88h-7.54v-5.88H360.44z"/>
			<path d="M365.37,580.8c0-2.81,0.54-5.47,1.64-7.99c1.09-2.51,2.57-4.71,4.44-6.6c1.87-1.89,4.05-3.38,6.54-4.49
				c2.5-1.11,5.17-1.66,8.01-1.66c2.81,0,5.47,0.55,7.99,1.66c2.51,1.11,4.71,2.61,6.6,4.49c1.89,1.89,3.37,4.09,4.46,6.6
				c1.09,2.51,1.64,5.18,1.64,7.99c0,2.85-0.55,5.52-1.64,8.01c-1.09,2.5-2.58,4.68-4.46,6.54c-1.89,1.87-4.09,3.34-6.6,4.41
				c-2.51,1.07-5.18,1.61-7.99,1.61c-2.85,0-5.52-0.54-8.01-1.61c-2.5-1.07-4.68-2.54-6.54-4.41c-1.87-1.87-3.35-4.05-4.44-6.54
				C365.92,586.32,365.37,583.65,365.37,580.8z M372.2,580.8c0,1.96,0.36,3.8,1.08,5.52c0.72,1.72,1.72,3.22,2.99,4.49
				c1.28,1.28,2.75,2.28,4.44,3.02c1.68,0.74,3.5,1.11,5.46,1.11c1.89,0,3.67-0.37,5.35-1.11c1.68-0.74,3.14-1.75,4.38-3.02
				c1.24-1.28,2.22-2.77,2.94-4.49c0.72-1.72,1.08-3.56,1.08-5.52c0-1.96-0.37-3.8-1.11-5.52c-0.74-1.72-1.74-3.23-3-4.52
				c-1.26-1.29-2.73-2.31-4.41-3.05c-1.68-0.74-3.49-1.11-5.41-1.11c-1.92,0-3.73,0.37-5.41,1.11c-1.68,0.74-3.14,1.76-4.38,3.05
				c-1.24,1.29-2.22,2.8-2.94,4.52C372.56,577,372.2,578.84,372.2,580.8z"/>
			<path d="M443.91,581.3v17.19c-1.55,0.92-3.43,1.64-5.63,2.14c-2.2,0.5-4.45,0.75-6.74,0.75c-3.18,0-6.05-0.5-8.62-1.5
				c-2.57-1-4.76-2.37-6.57-4.1c-1.81-1.74-3.2-3.81-4.16-6.21c-0.96-2.4-1.44-5.03-1.44-7.88c0-3.22,0.57-6.15,1.72-8.79
				c1.15-2.64,2.69-4.92,4.63-6.82c1.94-1.9,4.2-3.38,6.77-4.44c2.57-1.05,5.28-1.58,8.12-1.58c0.96,0,1.97,0.07,3.02,0.19
				c1.05,0.13,2.1,0.32,3.13,0.58c1.04,0.26,2.03,0.56,3,0.91c0.96,0.35,1.83,0.77,2.61,1.25l-3.33,5.55
				c-0.52-0.33-1.14-0.62-1.86-0.86c-0.72-0.24-1.47-0.45-2.25-0.64c-0.78-0.18-1.54-0.32-2.3-0.42c-0.76-0.09-1.47-0.14-2.13-0.14
				c-1.89,0-3.69,0.38-5.41,1.14c-1.72,0.76-3.24,1.78-4.58,3.08c-1.33,1.29-2.39,2.84-3.19,4.63c-0.79,1.79-1.19,3.71-1.19,5.74
				c0,1.85,0.35,3.61,1.05,5.27c0.7,1.66,1.68,3.13,2.94,4.41c1.26,1.28,2.75,2.29,4.49,3.05c1.74,0.76,3.64,1.14,5.71,1.14
				c0.74,0,1.66-0.06,2.77-0.19c1.11-0.13,2.16-0.36,3.16-0.69v-6.88h-7.54v-5.88H443.91z"/>
			<path d="M451.51,560.5h6.82v40.43h-6.82V560.5z M452.06,558.23c0.85-1.22,1.69-2.46,2.52-3.72c0.83-1.26,1.67-2.51,2.52-3.77
				h5.71c-1.11,1.26-2.24,2.51-3.38,3.77c-1.15,1.26-2.29,2.5-3.44,3.72H452.06z"/>
			<path d="M492.49,600.93c-0.11-0.26-0.3-0.72-0.58-1.39c-0.28-0.67-0.62-1.48-1.03-2.44c-0.41-0.96-0.85-2.02-1.33-3.19
				c-0.48-1.17-0.98-2.38-1.5-3.63h-13.92l-4.44,10.65h-6.71c0.15-0.33,0.5-1.16,1.05-2.47c0.55-1.31,1.25-2.94,2.08-4.88
				c0.83-1.94,1.76-4.1,2.77-6.49c1.02-2.38,2.06-4.82,3.13-7.29c1.07-2.48,2.12-4.91,3.13-7.29c1.02-2.38,1.94-4.55,2.77-6.49
				c0.83-1.94,1.53-3.57,2.08-4.88c0.55-1.31,0.91-2.14,1.05-2.47c0.15,0.33,0.51,1.16,1.08,2.47c0.57,1.31,1.28,2.94,2.11,4.88
				c0.83,1.94,1.76,4.1,2.77,6.49c1.02,2.38,2.06,4.82,3.13,7.29c1.07,2.48,2.12,4.91,3.13,7.29c1.02,2.38,1.94,4.55,2.77,6.49
				c0.83,1.94,1.53,3.57,2.08,4.88s0.91,2.13,1.05,2.47H492.49z M476.46,584.57h9.21l-3.99-9.65c-0.04-0.04-0.13-0.29-0.28-0.75
				c-0.15-0.46-0.26-0.88-0.33-1.25c-0.08,0.37-0.19,0.79-0.33,1.25c-0.15,0.46-0.22,0.71-0.22,0.75L476.46,584.57z"/>
		</g>
	</g>
</g>
<g>
	<g>
		<rect x="241.06" y="295.88" width="36.97" height="149.29"/>
		<rect x="320.74" y="295.88" width="36.97" height="149.29"/>
		<rect x="407.2" y="295.9" width="36.97" height="149.29"/>
		<path d="M338.28,186.72l-163.03,97.97l334.01-0.33L338.28,186.72z M350.39,263.79h-31.23l27.42-20.48l-27.89-22.07h32.48v4.64
			h-19.13l22.16,17.54l-21.07,15.74h17.26V263.79z"/>
		<path d="M189.94,468.13c12.39-2.86,25.03-4.58,37.71-5.71c12.69-1.08,25.47-1.42,38.23-0.83c6.38,0.3,12.76,0.82,19.11,1.62
			c6.35,0.8,12.67,1.93,18.94,3.29c6.27,1.38,12.46,3.18,18.55,5.25c6.07,2.15,12.02,4.68,17.8,7.57l-2.23,0.07
			c1.6-0.92,3.11-1.7,4.68-2.49c1.56-0.78,3.14-1.5,4.72-2.21c3.17-1.4,6.39-2.69,9.62-3.91c6.49-2.39,13.1-4.43,19.79-6.12
			c6.7-1.67,13.49-2.97,20.32-3.94c1.71-0.22,3.41-0.49,5.13-0.67l5.14-0.54c3.44-0.27,6.87-0.53,10.32-0.62
			c3.44-0.17,6.89-0.12,10.33-0.14c3.44,0.12,6.88,0.14,10.32,0.43c6.87,0.42,13.7,1.31,20.47,2.4
			c13.53,2.38,26.82,5.98,39.56,10.92c-13.09-3.93-26.43-6.9-39.91-8.6c-6.74-0.82-13.51-1.45-20.29-1.6
			c-3.39-0.17-6.78-0.11-10.16-0.13c-3.39,0.12-6.77,0.15-10.15,0.42c-13.51,0.81-26.93,2.96-39.99,6.39
			c-6.54,1.69-12.98,3.72-19.3,6.08c-3.15,1.21-6.27,2.47-9.34,3.85c-1.53,0.69-3.05,1.41-4.55,2.15c-1.49,0.73-3.02,1.52-4.38,2.29
			l-1.11,0.63l-1.12-0.57c-5.56-2.82-11.29-5.3-17.18-7.42c-1.48-0.52-2.97-0.99-4.45-1.48c-0.74-0.24-1.48-0.5-2.23-0.73
			l-2.26-0.65c-1.51-0.41-3-0.91-4.52-1.28l-4.56-1.16c-12.21-2.91-24.72-4.62-37.29-5.59c-6.29-0.45-12.6-0.68-18.92-0.8
			c-6.32-0.1-12.64,0.04-18.97,0.29C215.14,465.13,202.5,466.23,189.94,468.13z"/>
		<path d="M162.49,488.01c14.54-3.5,29.37-5.8,44.25-7.49c14.89-1.64,29.89-2.47,44.91-2.36c7.51,0.09,15.02,0.37,22.52,0.98
			c7.5,0.63,14.97,1.56,22.41,2.76c7.43,1.26,14.81,2.91,22.1,4.92c7.26,2.1,14.42,4.6,21.41,7.56l-1.87,0.01
			c3.84-1.66,7.59-3,11.45-4.27c3.84-1.27,7.71-2.39,11.61-3.46c7.79-2.09,15.66-3.83,23.6-5.23c7.94-1.38,15.93-2.39,23.94-3.11
			c4.01-0.39,8.02-0.61,12.04-0.85l6.03-0.22c2.01-0.08,4.02-0.05,6.03-0.08c16.08-0.14,32.15,1.1,48.01,3.54
			c15.84,2.53,31.49,6.19,46.7,11.16c-15.5-3.94-31.19-6.97-47.01-8.84c-1.97-0.29-3.96-0.43-5.94-0.64
			c-1.98-0.18-3.96-0.43-5.94-0.56c-3.97-0.28-7.93-0.61-11.91-0.73c-3.97-0.22-7.95-0.27-11.92-0.36
			c-1.99-0.03-3.97,0.01-5.96,0.02l-2.98,0.02l-2.98,0.1c-15.88,0.44-31.72,2.06-47.32,4.94c-7.8,1.42-15.54,3.16-23.18,5.25
			c-3.81,1.06-7.61,2.18-11.35,3.44c-3.72,1.25-7.5,2.6-11.01,4.09l-0.95,0.4l-0.92-0.39c-6.76-2.9-13.72-5.36-20.8-7.45
			c-7.11-1.99-14.33-3.63-21.6-5c-7.29-1.28-14.64-2.3-22.03-3.02c-7.39-0.67-14.8-1.18-22.24-1.43
			c-14.86-0.41-29.77-0.09-44.64,1.02C192.07,483.79,177.22,485.48,162.49,488.01z"/>
		<path d="M145.54,503.12c15.96-3.5,32.17-5.8,48.44-7.48c16.28-1.64,32.65-2.47,49.04-2.37c8.19,0.09,16.4,0.36,24.58,0.96
			c8.18,0.63,16.35,1.54,24.49,2.73c8.13,1.26,16.2,2.89,24.2,4.9c7.97,2.1,15.85,4.6,23.56,7.59l-1.73,0.01
			c4.22-1.67,8.36-3.02,12.6-4.29c4.22-1.27,8.47-2.4,12.74-3.46c8.54-2.09,17.16-3.83,25.83-5.22c8.68-1.37,17.4-2.38,26.15-3.09
			c4.37-0.38,8.75-0.61,13.13-0.84l6.58-0.21c2.19-0.07,4.39-0.05,6.58-0.08c17.54-0.13,35.07,1.1,52.41,3.53
			c17.32,2.53,34.47,6.18,51.2,11.17c-17.01-3.95-34.19-6.98-51.49-8.85c-2.16-0.29-4.33-0.42-6.49-0.64
			c-2.17-0.18-4.33-0.43-6.5-0.56c-4.34-0.28-8.67-0.61-13.02-0.73c-4.34-0.22-8.68-0.27-13.03-0.36c-2.17-0.03-4.34,0.01-6.51,0.02
			l-3.26,0.02l-3.26,0.1c-17.36,0.44-34.68,2.04-51.78,4.92c-8.55,1.41-17.05,3.16-25.45,5.26c-4.19,1.06-8.38,2.19-12.51,3.45
			c-4.11,1.26-8.28,2.62-12.18,4.13l-0.88,0.34l-0.85-0.33c-7.5-2.94-15.19-5.42-22.99-7.51c-7.83-2-15.76-3.63-23.74-5
			c-8-1.28-16.05-2.28-24.13-3.01c-8.09-0.66-16.2-1.17-24.32-1.41c-16.25-0.4-32.54-0.08-48.79,1.03
			C177.9,498.91,161.67,500.59,145.54,503.12z"/>
	</g>
	<g>
		<path d="M587.98,649.03H95.02c-11.06,0-20.06-9-20.06-20.06V139.04c0-11.07,9.01-20.07,20.06-20.07h492.96
			c11.08,0,20.06,9,20.06,20.07v489.93C608.05,640.04,599.06,649.03,587.98,649.03z M95.02,130.42c-4.75,0-8.6,3.86-8.6,8.61v489.93
			c0,4.73,3.85,8.6,8.6,8.6h492.96c4.75,0,8.6-3.87,8.6-8.6V139.04c0-4.75-3.85-8.61-8.6-8.61H95.02z"/>
	</g>
	<g>
		<g>
			<path d="M190.61,600.93V560.5h11.42c2.22,0,4.24,0.3,6.07,0.89c1.83,0.59,3.38,1.44,4.66,2.55c1.28,1.11,2.26,2.48,2.97,4.1
				c0.7,1.63,1.05,3.46,1.05,5.49c0,1.63-0.24,3.24-0.72,4.85c-0.48,1.61-1.27,3.05-2.36,4.33c-1.09,1.28-2.5,2.31-4.24,3.11
				c-1.74,0.79-3.88,1.19-6.43,1.19h-5.66v13.92H190.61z M197.38,580.64h5.44c1.41,0,2.57-0.24,3.49-0.72
				c0.92-0.48,1.66-1.08,2.22-1.8c0.55-0.72,0.94-1.48,1.17-2.27c0.22-0.79,0.33-1.51,0.33-2.14c0-0.59-0.1-1.28-0.3-2.08
				c-0.2-0.79-0.57-1.54-1.11-2.25c-0.54-0.7-1.27-1.29-2.19-1.77c-0.92-0.48-2.11-0.72-3.55-0.72h-5.49V580.64z"/>
			<path d="M222.95,600.93V560.5h26.84v6.16h-20.08v10.87h17.86v6.32h-17.86v10.76h20.85v6.32H222.95z"/>
			<path d="M257.28,560.5h10.48c4.07,0,7.51,0.62,10.34,1.86c2.83,1.24,5.13,2.84,6.9,4.8c1.78,1.96,3.06,4.19,3.86,6.68
				c0.79,2.5,1.19,4.98,1.19,7.46c0,3.03-0.55,5.76-1.64,8.18c-1.09,2.42-2.56,4.48-4.41,6.18c-1.85,1.7-4,3-6.46,3.91
				c-2.46,0.91-5.06,1.36-7.79,1.36h-12.48V560.5z M268.7,594.5c2.11,0,4.05-0.3,5.82-0.89c1.78-0.59,3.31-1.47,4.6-2.63
				c1.29-1.16,2.3-2.59,3.02-4.27c0.72-1.68,1.08-3.63,1.08-5.85c0-2.51-0.43-4.65-1.3-6.41c-0.87-1.76-1.97-3.18-3.3-4.27
				c-1.33-1.09-2.81-1.89-4.44-2.38c-1.63-0.5-3.18-0.75-4.66-0.75h-5.44v27.45H268.7z"/>
			<path d="M320.12,600.93c-0.11-0.26-0.3-0.72-0.58-1.39c-0.28-0.67-0.62-1.48-1.03-2.44c-0.41-0.96-0.85-2.02-1.33-3.19
				c-0.48-1.17-0.98-2.38-1.5-3.63h-13.92l-4.44,10.65h-6.71c0.15-0.33,0.5-1.16,1.05-2.47s1.25-2.94,2.08-4.88s1.76-4.1,2.77-6.49
				c1.02-2.38,2.06-4.82,3.13-7.29c1.07-2.48,2.12-4.91,3.13-7.29c1.02-2.38,1.94-4.55,2.77-6.49c0.83-1.94,1.53-3.57,2.08-4.88
				c0.55-1.31,0.91-2.14,1.05-2.47c0.15,0.33,0.51,1.16,1.08,2.47c0.57,1.31,1.28,2.94,2.11,4.88c0.83,1.94,1.76,4.1,2.77,6.49
				c1.02,2.38,2.06,4.82,3.13,7.29c1.07,2.48,2.12,4.91,3.13,7.29c1.02,2.38,1.94,4.55,2.77,6.49s1.53,3.57,2.08,4.88
				s0.91,2.13,1.05,2.47H320.12z M304.09,584.57h9.21l-3.99-9.65c-0.04-0.04-0.13-0.29-0.28-0.75c-0.15-0.46-0.26-0.88-0.33-1.25
				c-0.08,0.37-0.19,0.79-0.33,1.25c-0.15,0.46-0.22,0.71-0.22,0.75L304.09,584.57z"/>
			<path d="M360.44,581.3v17.19c-1.55,0.92-3.43,1.64-5.63,2.14c-2.2,0.5-4.45,0.75-6.74,0.75c-3.18,0-6.05-0.5-8.62-1.5
				c-2.57-1-4.76-2.37-6.57-4.1c-1.81-1.74-3.2-3.81-4.16-6.21c-0.96-2.4-1.44-5.03-1.44-7.88c0-3.22,0.57-6.15,1.72-8.79
				c1.15-2.64,2.69-4.92,4.63-6.82c1.94-1.9,4.2-3.38,6.77-4.44c2.57-1.05,5.28-1.58,8.12-1.58c0.96,0,1.97,0.07,3.02,0.19
				c1.05,0.13,2.1,0.32,3.13,0.58c1.04,0.26,2.03,0.56,3,0.91c0.96,0.35,1.83,0.77,2.61,1.25l-3.33,5.55
				c-0.52-0.33-1.14-0.62-1.86-0.86c-0.72-0.24-1.47-0.45-2.25-0.64c-0.78-0.18-1.54-0.32-2.3-0.42c-0.76-0.09-1.47-0.14-2.13-0.14
				c-1.89,0-3.69,0.38-5.41,1.14c-1.72,0.76-3.24,1.78-4.58,3.08c-1.33,1.29-2.39,2.84-3.19,4.63c-0.79,1.79-1.19,3.71-1.19,5.74
				c0,1.85,0.35,3.61,1.05,5.27c0.7,1.66,1.68,3.13,2.94,4.41c1.26,1.28,2.75,2.29,4.49,3.05c1.74,0.76,3.64,1.14,5.71,1.14
				c0.74,0,1.66-0.06,2.77-0.19c1.11-0.13,2.16-0.36,3.16-0.69v-6.88h-7.54v-5.88H360.44z"/>
			<path d="M365.37,580.8c0-2.81,0.54-5.47,1.64-7.99c1.09-2.51,2.57-4.71,4.44-6.6c1.87-1.89,4.05-3.38,6.54-4.49
				c2.5-1.11,5.17-1.66,8.01-1.66c2.81,0,5.47,0.55,7.99,1.66c2.51,1.11,4.71,2.61,6.6,4.49c1.89,1.89,3.37,4.09,4.46,6.6
				c1.09,2.51,1.64,5.18,1.64,7.99c0,2.85-0.55,5.52-1.64,8.01c-1.09,2.5-2.58,4.68-4.46,6.54c-1.89,1.87-4.09,3.34-6.6,4.41
				c-2.51,1.07-5.18,1.61-7.99,1.61c-2.85,0-5.52-0.54-8.01-1.61c-2.5-1.07-4.68-2.54-6.54-4.41c-1.87-1.87-3.35-4.05-4.44-6.54
				C365.92,586.32,365.37,583.65,365.37,580.8z M372.2,580.8c0,1.96,0.36,3.8,1.08,5.52c0.72,1.72,1.72,3.22,2.99,4.49
				c1.28,1.28,2.75,2.28,4.44,3.02c1.68,0.74,3.5,1.11,5.46,1.11c1.89,0,3.67-0.37,5.35-1.11c1.68-0.74,3.14-1.75,4.38-3.02
				c1.24-1.28,2.22-2.77,2.94-4.49c0.72-1.72,1.08-3.56,1.08-5.52c0-1.96-0.37-3.8-1.11-5.52c-0.74-1.72-1.74-3.23-3-4.52
				c-1.26-1.29-2.73-2.31-4.41-3.05c-1.68-0.74-3.49-1.11-5.41-1.11c-1.92,0-3.73,0.37-5.41,1.11c-1.68,0.74-3.14,1.76-4.38,3.05
				c-1.24,1.29-2.22,2.8-2.94,4.52C372.56,577,372.2,578.84,372.2,580.8z"/>
			<path d="M443.91,581.3v17.19c-1.55,0.92-3.43,1.64-5.63,2.14c-2.2,0.5-4.45,0.75-6.74,0.75c-3.18,0-6.05-0.5-8.62-1.5
				c-2.57-1-4.76-2.37-6.57-4.1c-1.81-1.74-3.2-3.81-4.16-6.21c-0.96-2.4-1.44-5.03-1.44-7.88c0-3.22,0.57-6.15,1.72-8.79
				c1.15-2.64,2.69-4.92,4.63-6.82c1.94-1.9,4.2-3.38,6.77-4.44c2.57-1.05,5.28-1.58,8.12-1.58c0.96,0,1.97,0.07,3.02,0.19
				c1.05,0.13,2.1,0.32,3.13,0.58c1.04,0.26,2.03,0.56,3,0.91c0.96,0.35,1.83,0.77,2.61,1.25l-3.33,5.55
				c-0.52-0.33-1.14-0.62-1.86-0.86c-0.72-0.24-1.47-0.45-2.25-0.64c-0.78-0.18-1.54-0.32-2.3-0.42c-0.76-0.09-1.47-0.14-2.13-0.14
				c-1.89,0-3.69,0.38-5.41,1.14c-1.72,0.76-3.24,1.78-4.58,3.08c-1.33,1.29-2.39,2.84-3.19,4.63c-0.79,1.79-1.19,3.71-1.19,5.74
				c0,1.85,0.35,3.61,1.05,5.27c0.7,1.66,1.68,3.13,2.94,4.41c1.26,1.28,2.75,2.29,4.49,3.05c1.74,0.76,3.64,1.14,5.71,1.14
				c0.74,0,1.66-0.06,2.77-0.19c1.11-0.13,2.16-0.36,3.16-0.69v-6.88h-7.54v-5.88H443.91z"/>
			<path d="M451.51,560.5h6.82v40.43h-6.82V560.5z M452.06,558.23c0.85-1.22,1.69-2.46,2.52-3.72c0.83-1.26,1.67-2.51,2.52-3.77
				h5.71c-1.11,1.26-2.24,2.51-3.38,3.77c-1.15,1.26-2.29,2.5-3.44,3.72H452.06z"/>
			<path d="M492.49,600.93c-0.11-0.26-0.3-0.72-0.58-1.39c-0.28-0.67-0.62-1.48-1.03-2.44c-0.41-0.96-0.85-2.02-1.33-3.19
				c-0.48-1.17-0.98-2.38-1.5-3.63h-13.92l-4.44,10.65h-6.71c0.15-0.33,0.5-1.16,1.05-2.47c0.55-1.31,1.25-2.94,2.08-4.88
				c0.83-1.94,1.76-4.1,2.77-6.49c1.02-2.38,2.06-4.82,3.13-7.29c1.07-2.48,2.12-4.91,3.13-7.29c1.02-2.38,1.94-4.55,2.77-6.49
				c0.83-1.94,1.53-3.57,2.08-4.88c0.55-1.31,0.91-2.14,1.05-2.47c0.15,0.33,0.51,1.16,1.08,2.47c0.57,1.31,1.28,2.94,2.11,4.88
				c0.83,1.94,1.76,4.1,2.77,6.49c1.02,2.38,2.06,4.82,3.13,7.29c1.07,2.48,2.12,4.91,3.13,7.29c1.02,2.38,1.94,4.55,2.77,6.49
				c0.83,1.94,1.53,3.57,2.08,4.88s0.91,2.13,1.05,2.47H492.49z M476.46,584.57h9.21l-3.99-9.65c-0.04-0.04-0.13-0.29-0.28-0.75
				c-0.15-0.46-0.26-0.88-0.33-1.25c-0.08,0.37-0.19,0.79-0.33,1.25c-0.15,0.46-0.22,0.71-0.22,0.75L476.46,584.57z"/>
		</g>
	</g>
</g>
</svg>
