<?xml version="1.0" encoding="utf-8"?>
<!-- Generator: Adobe Illustrator 27.1.0, SVG Export Plug-In . SVG Version: 6.00 Build 0)  -->
<svg version="1.1" id="Capa_1" xmlns="http://www.w3.org/2000/svg" xmlns:xlink="http://www.w3.org/1999/xlink" x="0px" y="0px"
	 viewBox="0 0 683 768" style="enable-background:new 0 0 683 768;" xml:space="preserve">
<style type="text/css">
	.st0{fill:#002E6D;}
	.st1{fill-rule:evenodd;clip-rule:evenodd;fill:#002E6D;}
	.st2{fill-rule:evenodd;clip-rule:evenodd;}
	.st3{fill:#FFFFFF;}
	.st4{fill-rule:evenodd;clip-rule:evenodd;fill:#FFFFFF;}
</style>
<g>
	<g>
		<g>
			<g>
				<path d="M303.58,382.14v92.81h75.84v-92.81H303.58z M339.6,455.67h-28.84v-4.43h28.84V455.67z M339.6,445.27h-28.84v-4.43h28.84
					V445.27z M339.6,434.98h-28.84v-4.43h28.84V434.98z M339.6,423.48h-28.84v-4.43h28.84V423.48z M339.6,410.43h-28.84V406h28.84
					V410.43z M373.26,457.88h-28.84v-4.43h28.84V457.88z M373.26,446.57h-28.84v-4.43h28.84V446.57z M373.26,437.75h-28.84v-4.43
					h28.84V437.75z M373.26,429.46h-28.84V406h28.84V429.46z M373.26,398.84h-62.5v-8.86h62.5V398.84z"/>
				<g>
					<g>
						<g>
							<path d="M414.6,363.96H270.05v-74.43H414.6V363.96z M274.77,359.24h135.11v-64.99H274.77V359.24z"/>
						</g>
						<rect x="326.74" y="361.65" width="29.98" height="6.83"/>
						<rect x="307.74" y="370.86" width="66.8" height="3.86"/>
					</g>
				</g>
				<g>
					<g>
						<path class="st2" d="M344.85,190.94l-0.18,7.26c0,0-33.15-1.02-44.38,32.21l-7.33-2.15
							C292.96,228.25,302.07,191.84,344.85,190.94z"/>
						<path class="st2" d="M307,233.74c0,0,6.67-26.79,39.05-27.48l-0.26,8.19c0,0-22.69-1.15-30.92,21.96L307,233.74z"/>
						<path class="st2" d="M346.15,221.78c-19.83,0.42-24.05,17.29-24.05,17.29l7.34,2.3c0,0,3.83-11.63,16.37-12.07L346.15,221.78z
							"/>
					</g>
					<path d="M350.1,264.88c0,0-12.53-0.57-12.53-13.08c0-14.86,14.55-16.12,14.55-16.12l1.89-40.39
						c60.2,11.73,48.47,87.57-3.91,87.57c-9.23,0-25.69-17.02-33.69-25.95c-6.34-7.08-16.07-10.11-25.28-7.78
						c-0.15,0.04-0.29,0.08-0.44,0.11c-2.36,0.62,6.25-10.95,13.29-8.6l30.45,10.37c0,0,0.79,18.09,14.94,18.09
						c14.94,0,19.66-9.44,19.66-14.94c0-5.51-2.36-14.16-11.8-14.16s-11.01,6.29-11.01,11.8c0,0,3.1,0.91,3.1,0.45
						c0.05-11.46,15.64-11.84,15.64,0C364.96,265.66,350.1,264.88,350.1,264.88"/>
				</g>
			</g>
			<g>
				<path d="M588.4,649.49H94.6c-11.08,0-20.1-9.01-20.1-20.1V138.62c0-11.09,9.02-20.1,20.1-20.1H588.4c11.1,0,20.1,9.02,20.1,20.1
					v490.77C608.5,640.48,599.5,649.49,588.4,649.49z M94.6,129.99c-4.76,0-8.62,3.87-8.62,8.63v490.77c0,4.74,3.86,8.62,8.62,8.62
					H588.4c4.76,0,8.62-3.88,8.62-8.62V138.62c0-4.76-3.86-8.63-8.62-8.63H94.6z"/>
			</g>
		</g>
		<g>
			<path d="M185.28,542.52c-0.37,0.25-0.89,0.54-1.56,0.88c-0.67,0.34-1.46,0.66-2.37,0.95c-0.92,0.3-1.95,0.54-3.09,0.74
				c-1.15,0.2-2.37,0.3-3.68,0.3c-2.67,0-5.06-0.46-7.17-1.37c-2.11-0.91-3.89-2.15-5.35-3.7c-1.46-1.55-2.58-3.37-3.35-5.44
				c-0.78-2.08-1.16-4.27-1.16-6.56c0-2.54,0.47-4.89,1.4-7.05c0.93-2.16,2.19-4.02,3.79-5.58c1.6-1.57,3.46-2.78,5.58-3.65
				c2.12-0.87,4.4-1.3,6.82-1.3c0.93,0,1.87,0.07,2.82,0.21c0.95,0.14,1.84,0.32,2.68,0.54c0.84,0.22,1.57,0.47,2.21,0.75
				c0.63,0.28,1.09,0.57,1.37,0.88c-0.28,0.43-0.5,0.79-0.65,1.07c-0.16,0.28-0.32,0.57-0.49,0.86c-0.17,0.3-0.36,0.63-0.56,1
				c-0.2,0.37-0.49,0.88-0.86,1.54c-0.37-0.25-0.82-0.47-1.35-0.65c-0.53-0.19-1.08-0.33-1.65-0.44c-0.57-0.11-1.16-0.19-1.75-0.26
				c-0.59-0.06-1.12-0.09-1.58-0.09c-1.74,0-3.34,0.33-4.82,0.98c-1.47,0.65-2.75,1.51-3.82,2.58c-1.07,1.07-1.91,2.32-2.51,3.75
				c-0.6,1.43-0.91,2.9-0.91,4.42c0,1.49,0.29,2.94,0.86,4.35c0.57,1.41,1.38,2.66,2.42,3.75c1.04,1.09,2.27,1.96,3.7,2.63
				c1.43,0.67,3.01,1,4.75,1c0.99,0,1.96-0.1,2.89-0.3c0.93-0.2,1.75-0.43,2.47-0.67c0.71-0.25,1.29-0.5,1.75-0.74
				c0.45-0.25,0.69-0.42,0.72-0.51L185.28,542.52z"/>
			<path d="M186.35,528.14c0-2.36,0.46-4.59,1.37-6.7c0.92-2.11,2.16-3.96,3.72-5.54c1.57-1.58,3.4-2.84,5.49-3.77
				c2.09-0.93,4.33-1.4,6.72-1.4c2.36,0,4.59,0.47,6.7,1.4c2.11,0.93,3.96,2.19,5.54,3.77c1.58,1.58,2.83,3.43,3.75,5.54
				c0.92,2.11,1.37,4.34,1.37,6.7c0,2.39-0.46,4.63-1.37,6.72c-0.92,2.09-2.16,3.92-3.75,5.49c-1.58,1.57-3.43,2.8-5.54,3.7
				c-2.11,0.9-4.34,1.35-6.7,1.35c-2.39,0-4.63-0.45-6.72-1.35c-2.09-0.9-3.92-2.13-5.49-3.7c-1.57-1.57-2.81-3.4-3.72-5.49
				C186.81,532.77,186.35,530.52,186.35,528.14z M192.08,528.14c0,1.64,0.3,3.19,0.91,4.63c0.6,1.44,1.44,2.7,2.51,3.77
				c1.07,1.07,2.31,1.92,3.72,2.54c1.41,0.62,2.94,0.93,4.58,0.93c1.58,0,3.08-0.31,4.49-0.93c1.41-0.62,2.64-1.47,3.68-2.54
				c1.04-1.07,1.86-2.33,2.47-3.77c0.6-1.44,0.91-2.99,0.91-4.63c0-1.64-0.31-3.19-0.93-4.63c-0.62-1.44-1.46-2.71-2.51-3.79
				s-2.29-1.94-3.7-2.56c-1.41-0.62-2.92-0.93-4.54-0.93c-1.61,0-3.13,0.31-4.54,0.93c-1.41,0.62-2.64,1.47-3.68,2.56
				c-1.04,1.09-1.86,2.35-2.47,3.79C192.38,524.95,192.08,526.49,192.08,528.14z"/>
			<path d="M226.6,509.61c0.15,0.22,0.5,0.71,1.02,1.47c0.53,0.76,1.19,1.69,1.98,2.79c0.79,1.1,1.68,2.32,2.65,3.65
				c0.98,1.33,1.97,2.69,2.98,4.07c1.01,1.38,1.99,2.73,2.96,4.05c0.96,1.32,1.83,2.52,2.61,3.61c0.78,1.09,1.43,1.99,1.98,2.72
				c0.54,0.73,0.88,1.19,1,1.37c0.06-0.09,0.34-0.49,0.84-1.19c0.5-0.7,1.12-1.57,1.88-2.63c0.76-1.05,1.62-2.26,2.58-3.61
				s1.96-2.72,2.98-4.12c1.02-1.4,2.02-2.78,3-4.14c0.98-1.36,1.88-2.61,2.7-3.72c0.82-1.12,1.51-2.06,2.07-2.84
				c0.56-0.77,0.91-1.27,1.07-1.49v35.41h-6.1v-17.31c0-0.25,0.03-0.51,0.09-0.79c0.06-0.28,0.09-0.45,0.09-0.51l-11.21,16.15
				c-0.16-0.19-0.54-0.7-1.14-1.54c-0.61-0.84-1.33-1.83-2.16-2.98c-0.84-1.15-1.72-2.38-2.65-3.7c-0.93-1.32-1.81-2.54-2.63-3.68
				c-0.82-1.13-1.52-2.09-2.09-2.89c-0.57-0.79-0.89-1.25-0.95-1.37c0,0.06,0.03,0.23,0.09,0.51c0.06,0.28,0.09,0.54,0.09,0.79
				v17.31h-5.72V509.61z"/>
			<path d="M281.51,545.4c-1.83,0-3.54-0.3-5.14-0.91c-1.6-0.6-2.99-1.45-4.16-2.54c-1.18-1.09-2.11-2.4-2.79-3.93
				c-0.68-1.54-1.02-3.23-1.02-5.09V511.1h5.68v21.69c0,0.99,0.19,1.92,0.58,2.79c0.39,0.87,0.92,1.63,1.58,2.28
				c0.67,0.65,1.45,1.17,2.35,1.56c0.9,0.39,1.88,0.58,2.93,0.58c1.05,0,2.04-0.19,2.96-0.58c0.91-0.39,1.71-0.91,2.4-1.56
				c0.68-0.65,1.22-1.41,1.61-2.28c0.39-0.87,0.58-1.8,0.58-2.79V511.1h5.68v21.83c0,1.86-0.34,3.56-1.02,5.09
				c-0.68,1.54-1.62,2.85-2.81,3.93c-1.2,1.09-2.6,1.93-4.21,2.54C285.07,545.1,283.34,545.4,281.51,545.4z"/>
			<path d="M332.19,511.1v35.51c-0.22-0.28-0.7-0.79-1.44-1.54c-0.74-0.75-1.66-1.64-2.75-2.68c-1.09-1.04-2.29-2.19-3.61-3.44
				c-1.32-1.26-2.66-2.53-4.03-3.82c-1.37-1.29-2.7-2.55-4-3.79c-1.3-1.24-2.49-2.38-3.56-3.42c-1.07-1.04-1.97-1.92-2.7-2.65
				c-0.73-0.73-1.2-1.23-1.42-1.51c-0.03-0.06-0.16-0.22-0.37-0.49c-0.22-0.26-0.4-0.5-0.56-0.72l0.14,1.49v20.99h-5.68v-35.46
				c0.22,0.28,0.7,0.78,1.44,1.51c0.74,0.73,1.66,1.61,2.75,2.63c1.09,1.02,2.29,2.14,3.61,3.35c1.32,1.21,2.66,2.44,4.03,3.7
				c1.37,1.26,2.7,2.5,4,3.72c1.3,1.23,2.5,2.34,3.58,3.35c1.09,1.01,1.99,1.87,2.72,2.58c0.73,0.71,1.2,1.21,1.42,1.49l0.88,1.3
				l-0.14-1.58V511.1H332.19z"/>
			<path d="M340.01,511.1h5.72v33.92h-5.72V511.1z"/>
			<path d="M379.1,542.52c-0.37,0.25-0.89,0.54-1.56,0.88c-0.67,0.34-1.46,0.66-2.37,0.95c-0.92,0.3-1.95,0.54-3.09,0.74
				c-1.15,0.2-2.37,0.3-3.68,0.3c-2.67,0-5.06-0.46-7.17-1.37c-2.11-0.91-3.89-2.15-5.35-3.7c-1.46-1.55-2.58-3.37-3.35-5.44
				c-0.78-2.08-1.16-4.27-1.16-6.56c0-2.54,0.47-4.89,1.4-7.05c0.93-2.16,2.19-4.02,3.79-5.58c1.6-1.57,3.46-2.78,5.58-3.65
				c2.12-0.87,4.4-1.3,6.82-1.3c0.93,0,1.87,0.07,2.82,0.21c0.95,0.14,1.84,0.32,2.68,0.54c0.84,0.22,1.57,0.47,2.21,0.75
				c0.63,0.28,1.09,0.57,1.37,0.88c-0.28,0.43-0.5,0.79-0.65,1.07s-0.32,0.57-0.49,0.86c-0.17,0.3-0.36,0.63-0.56,1
				c-0.2,0.37-0.49,0.88-0.86,1.54c-0.37-0.25-0.82-0.47-1.35-0.65c-0.53-0.19-1.08-0.33-1.65-0.44c-0.57-0.11-1.16-0.19-1.75-0.26
				c-0.59-0.06-1.12-0.09-1.58-0.09c-1.74,0-3.34,0.33-4.82,0.98c-1.47,0.65-2.75,1.51-3.82,2.58c-1.07,1.07-1.91,2.32-2.51,3.75
				c-0.6,1.43-0.91,2.9-0.91,4.42c0,1.49,0.29,2.94,0.86,4.35c0.57,1.41,1.38,2.66,2.42,3.75c1.04,1.09,2.27,1.96,3.7,2.63
				c1.43,0.67,3.01,1,4.75,1c0.99,0,1.96-0.1,2.89-0.3c0.93-0.2,1.75-0.43,2.47-0.67c0.71-0.25,1.29-0.5,1.75-0.74
				c0.45-0.25,0.69-0.42,0.72-0.51L379.1,542.52z"/>
			<path d="M404.18,545.03c-0.09-0.22-0.26-0.6-0.49-1.16c-0.23-0.56-0.52-1.24-0.86-2.05c-0.34-0.81-0.71-1.7-1.12-2.68
				c-0.4-0.98-0.82-1.99-1.26-3.05h-11.68l-3.72,8.93h-5.63c0.12-0.28,0.42-0.97,0.88-2.07c0.47-1.1,1.05-2.47,1.75-4.1
				c0.7-1.63,1.47-3.44,2.33-5.44c0.85-2,1.73-4.04,2.63-6.12c0.9-2.08,1.78-4.12,2.63-6.12c0.85-2,1.63-3.82,2.33-5.44
				c0.7-1.63,1.28-2.99,1.75-4.1c0.46-1.1,0.76-1.79,0.88-2.07c0.12,0.28,0.43,0.97,0.91,2.07c0.48,1.1,1.07,2.47,1.77,4.1
				c0.7,1.63,1.47,3.44,2.33,5.44c0.85,2,1.73,4.04,2.63,6.12c0.9,2.08,1.78,4.12,2.63,6.12c0.85,2,1.63,3.82,2.33,5.44
				c0.7,1.63,1.28,2.99,1.75,4.1c0.46,1.1,0.76,1.79,0.88,2.07H404.18z M390.73,531.3h7.72l-3.35-8.1
				c-0.03-0.03-0.11-0.24-0.23-0.63c-0.12-0.39-0.22-0.74-0.28-1.05c-0.06,0.31-0.16,0.66-0.28,1.05c-0.12,0.39-0.19,0.6-0.19,0.63
				L390.73,531.3z"/>
			<path d="M437.91,542.52c-0.37,0.25-0.89,0.54-1.56,0.88c-0.67,0.34-1.46,0.66-2.37,0.95c-0.92,0.3-1.95,0.54-3.09,0.74
				c-1.15,0.2-2.37,0.3-3.68,0.3c-2.67,0-5.06-0.46-7.17-1.37c-2.11-0.91-3.89-2.15-5.35-3.7c-1.46-1.55-2.58-3.37-3.35-5.44
				c-0.78-2.08-1.16-4.27-1.16-6.56c0-2.54,0.47-4.89,1.4-7.05c0.93-2.16,2.19-4.02,3.79-5.58c1.6-1.57,3.46-2.78,5.58-3.65
				c2.12-0.87,4.4-1.3,6.82-1.3c0.93,0,1.87,0.07,2.82,0.21c0.95,0.14,1.84,0.32,2.68,0.54c0.84,0.22,1.57,0.47,2.21,0.75
				c0.63,0.28,1.09,0.57,1.37,0.88c-0.28,0.43-0.5,0.79-0.65,1.07c-0.16,0.28-0.32,0.57-0.49,0.86c-0.17,0.3-0.36,0.63-0.56,1
				c-0.2,0.37-0.49,0.88-0.86,1.54c-0.37-0.25-0.82-0.47-1.35-0.65c-0.53-0.19-1.08-0.33-1.65-0.44c-0.57-0.11-1.16-0.19-1.75-0.26
				c-0.59-0.06-1.12-0.09-1.58-0.09c-1.74,0-3.34,0.33-4.82,0.98c-1.47,0.65-2.75,1.51-3.82,2.58c-1.07,1.07-1.91,2.32-2.51,3.75
				c-0.6,1.43-0.91,2.9-0.91,4.42c0,1.49,0.29,2.94,0.86,4.35c0.57,1.41,1.38,2.66,2.42,3.75c1.04,1.09,2.27,1.96,3.7,2.63
				c1.43,0.67,3.01,1,4.75,1c0.99,0,1.96-0.1,2.89-0.3c0.93-0.2,1.75-0.43,2.47-0.67c0.71-0.25,1.29-0.5,1.75-0.74
				c0.45-0.25,0.69-0.42,0.72-0.51L437.91,542.52z"/>
			<path d="M442.15,511.1h5.72v33.92h-5.72V511.1z"/>
			<path d="M453.46,528.14c0-2.36,0.46-4.59,1.37-6.7c0.92-2.11,2.16-3.96,3.72-5.54c1.57-1.58,3.4-2.84,5.49-3.77
				c2.09-0.93,4.33-1.4,6.72-1.4c2.36,0,4.59,0.47,6.7,1.4c2.11,0.93,3.96,2.19,5.54,3.77c1.58,1.58,2.83,3.43,3.75,5.54
				c0.91,2.11,1.37,4.34,1.37,6.7c0,2.39-0.46,4.63-1.37,6.72c-0.92,2.09-2.16,3.92-3.75,5.49c-1.58,1.57-3.43,2.8-5.54,3.7
				c-2.11,0.9-4.34,1.35-6.7,1.35c-2.39,0-4.63-0.45-6.72-1.35c-2.09-0.9-3.92-2.13-5.49-3.7c-1.57-1.57-2.81-3.4-3.72-5.49
				C453.91,532.77,453.46,530.52,453.46,528.14z M459.18,528.14c0,1.64,0.3,3.19,0.91,4.63c0.6,1.44,1.44,2.7,2.51,3.77
				c1.07,1.07,2.31,1.92,3.72,2.54c1.41,0.62,2.94,0.93,4.58,0.93c1.58,0,3.08-0.31,4.49-0.93c1.41-0.62,2.64-1.47,3.68-2.54
				c1.04-1.07,1.86-2.33,2.47-3.77c0.6-1.44,0.91-2.99,0.91-4.63c0-1.64-0.31-3.19-0.93-4.63c-0.62-1.44-1.46-2.71-2.51-3.79
				c-1.05-1.09-2.29-1.94-3.7-2.56c-1.41-0.62-2.92-0.93-4.54-0.93c-1.61,0-3.13,0.31-4.54,0.93c-1.41,0.62-2.64,1.47-3.68,2.56
				c-1.04,1.09-1.86,2.35-2.47,3.79C459.48,524.95,459.18,526.49,459.18,528.14z M468.07,509.2c0.71-1.02,1.42-2.06,2.12-3.12
				c0.7-1.05,1.4-2.11,2.12-3.16h4.79c-0.93,1.05-1.88,2.11-2.84,3.16c-0.96,1.05-1.92,2.09-2.89,3.12H468.07z"/>
			<path d="M523.68,511.1v35.51c-0.22-0.28-0.7-0.79-1.44-1.54c-0.74-0.75-1.66-1.64-2.75-2.68c-1.09-1.04-2.29-2.19-3.61-3.44
				c-1.32-1.26-2.66-2.53-4.03-3.82c-1.37-1.29-2.7-2.55-4-3.79c-1.3-1.24-2.49-2.38-3.56-3.42c-1.07-1.04-1.97-1.92-2.7-2.65
				c-0.73-0.73-1.2-1.23-1.42-1.51c-0.03-0.06-0.16-0.22-0.37-0.49c-0.22-0.26-0.4-0.5-0.56-0.72l0.14,1.49v20.99h-5.68v-35.46
				c0.22,0.28,0.7,0.78,1.44,1.51c0.74,0.73,1.66,1.61,2.75,2.63c1.09,1.02,2.29,2.14,3.61,3.35c1.32,1.21,2.66,2.44,4.03,3.7
				c1.37,1.26,2.7,2.5,4,3.72c1.3,1.23,2.5,2.34,3.58,3.35c1.09,1.01,1.99,1.87,2.72,2.58c0.73,0.71,1.2,1.21,1.42,1.49l0.88,1.3
				l-0.14-1.58V511.1H523.68z"/>
			<path d="M194.91,589.89v10.98h-5.72v-10.98c-0.16-0.22-0.54-0.91-1.16-2.07c-0.62-1.16-1.38-2.56-2.28-4.19
				c-0.9-1.63-1.85-3.37-2.84-5.21c-0.99-1.84-1.94-3.58-2.84-5.21c-0.9-1.63-1.66-3.02-2.28-4.19c-0.62-1.16-1.01-1.85-1.16-2.07
				h6.47c0.12,0.22,0.37,0.66,0.72,1.33c0.36,0.67,0.78,1.47,1.28,2.42c0.5,0.95,1.04,1.99,1.63,3.12c0.59,1.13,1.18,2.26,1.77,3.4
				c0.59,1.13,1.15,2.22,1.67,3.26c0.53,1.04,0.99,1.95,1.4,2.72l0.51,1.58c0.12-0.25,0.23-0.52,0.33-0.81
				c0.09-0.29,0.19-0.55,0.28-0.77c0.4-0.78,0.87-1.68,1.4-2.72c0.53-1.04,1.08-2.12,1.65-3.26c0.57-1.13,1.15-2.26,1.72-3.4
				c0.57-1.13,1.1-2.17,1.58-3.12c0.48-0.95,0.89-1.75,1.23-2.42c0.34-0.67,0.57-1.11,0.7-1.33h6.47L194.91,589.89z"/>
			<path d="M220.32,600.87v-33.92h9.59c1.86,0,3.56,0.25,5.1,0.75c1.54,0.5,2.84,1.21,3.91,2.14c1.07,0.93,1.9,2.08,2.49,3.44
				c0.59,1.37,0.88,2.9,0.88,4.61c0,1.37-0.2,2.72-0.6,4.07c-0.4,1.35-1.06,2.56-1.98,3.63c-0.91,1.07-2.1,1.94-3.56,2.61
				c-1.46,0.67-3.26,1-5.4,1H226v11.68H220.32z M226,583.84h4.56c1.18,0,2.16-0.2,2.93-0.61c0.78-0.4,1.4-0.91,1.86-1.51
				c0.47-0.6,0.79-1.24,0.98-1.91c0.19-0.67,0.28-1.26,0.28-1.79c0-0.5-0.09-1.08-0.26-1.75c-0.17-0.67-0.48-1.29-0.93-1.88
				c-0.45-0.59-1.06-1.08-1.84-1.49c-0.78-0.4-1.77-0.61-2.98-0.61H226V583.84z"/>
			<path d="M247.45,600.87v-33.92h22.52v5.17h-16.85v9.12h14.98v5.3h-14.98v9.03h17.5v5.3H247.45z"/>
			<path d="M276.26,600.87v-33.92h9.59c1.86,0,3.56,0.25,5.1,0.75c1.54,0.5,2.84,1.21,3.91,2.14c1.07,0.93,1.9,2.08,2.49,3.44
				c0.59,1.37,0.88,2.9,0.88,4.61c0,0.93-0.09,1.86-0.28,2.79c-0.19,0.93-0.48,1.83-0.88,2.7c-0.4,0.87-0.93,1.67-1.58,2.4
				c-0.65,0.73-1.43,1.36-2.33,1.88c0.68,1.09,1.35,2.15,2,3.19c0.65,1.04,1.31,2.09,1.98,3.14c0.67,1.05,1.36,2.14,2.07,3.26
				c0.71,1.12,1.49,2.33,2.33,3.63h-6.84c-1.4-2.17-2.72-4.23-3.96-6.17c-1.24-1.94-2.44-3.78-3.58-5.51h-0.46h-4.75v11.68H276.26z
				 M281.93,583.84h4.56c1.18,0,2.16-0.2,2.93-0.61c0.78-0.4,1.4-0.89,1.86-1.47c0.47-0.57,0.79-1.19,0.98-1.86
				c0.19-0.67,0.28-1.28,0.28-1.84c0-0.53-0.09-1.12-0.26-1.79c-0.17-0.67-0.48-1.29-0.93-1.88c-0.45-0.59-1.06-1.08-1.84-1.49
				c-0.78-0.4-1.77-0.61-2.98-0.61h-4.61V583.84z"/>
			<path d="M305.85,566.95h5.72v33.92h-5.72V566.95z"/>
			<path d="M317.16,583.98c0-2.36,0.46-4.59,1.37-6.7c0.92-2.11,2.16-3.96,3.72-5.54c1.57-1.58,3.4-2.84,5.49-3.77
				c2.09-0.93,4.33-1.4,6.72-1.4c2.36,0,4.59,0.47,6.7,1.4c2.11,0.93,3.95,2.19,5.54,3.77c1.58,1.58,2.83,3.43,3.75,5.54
				c0.92,2.11,1.37,4.34,1.37,6.7c0,2.39-0.46,4.63-1.37,6.72c-0.92,2.09-2.16,3.92-3.75,5.49c-1.58,1.57-3.43,2.8-5.54,3.7
				c-2.11,0.9-4.34,1.35-6.7,1.35c-2.39,0-4.63-0.45-6.72-1.35c-2.09-0.9-3.92-2.13-5.49-3.7c-1.57-1.57-2.81-3.4-3.72-5.49
				C317.62,588.61,317.16,586.37,317.16,583.98z M322.88,583.98c0,1.64,0.3,3.19,0.91,4.63c0.6,1.44,1.44,2.7,2.51,3.77
				c1.07,1.07,2.31,1.92,3.72,2.54c1.41,0.62,2.94,0.93,4.58,0.93c1.58,0,3.08-0.31,4.49-0.93c1.41-0.62,2.64-1.47,3.68-2.54
				c1.04-1.07,1.86-2.33,2.47-3.77c0.6-1.44,0.91-2.99,0.91-4.63c0-1.64-0.31-3.19-0.93-4.63c-0.62-1.44-1.46-2.71-2.51-3.79
				c-1.05-1.09-2.29-1.94-3.7-2.56c-1.41-0.62-2.92-0.93-4.54-0.93c-1.61,0-3.13,0.31-4.54,0.93c-1.41,0.62-2.64,1.47-3.68,2.56
				c-1.04,1.09-1.86,2.35-2.47,3.79C323.18,580.79,322.88,582.33,322.88,583.98z"/>
			<path d="M357.41,566.95h8.79c3.41,0,6.31,0.52,8.68,1.56c2.37,1.04,4.3,2.38,5.79,4.02c1.49,1.65,2.57,3.51,3.23,5.61
				c0.67,2.09,1,4.18,1,6.26c0,2.54-0.46,4.83-1.37,6.86c-0.92,2.03-2.15,3.76-3.7,5.19c-1.55,1.43-3.36,2.52-5.42,3.28
				c-2.06,0.76-4.24,1.14-6.54,1.14h-10.47V566.95z M367,595.47c1.77,0,3.4-0.25,4.89-0.74c1.49-0.5,2.78-1.23,3.86-2.21
				c1.09-0.98,1.93-2.17,2.54-3.58c0.61-1.41,0.91-3.05,0.91-4.91c0-2.11-0.37-3.9-1.09-5.37c-0.73-1.47-1.65-2.67-2.77-3.58
				c-1.12-0.91-2.36-1.58-3.72-2c-1.37-0.42-2.67-0.63-3.91-0.63h-4.56v23.03H367z"/>
			<path d="M390.59,566.95h5.72v33.92h-5.72V566.95z"/>
			<path d="M424.14,568.85l-2.05,4.65c-1.3-0.46-2.59-0.84-3.86-1.12c-1.27-0.28-2.45-0.42-3.54-0.42c-1.89,0-3.39,0.37-4.49,1.12
				c-1.1,0.75-1.65,1.69-1.65,2.84c0,0.99,0.41,1.8,1.23,2.42c0.82,0.62,1.85,1.18,3.09,1.67c1.24,0.5,2.58,1,4.03,1.51
				c1.44,0.51,2.78,1.17,4.03,1.98c1.24,0.81,2.27,1.83,3.09,3.07c0.82,1.24,1.23,2.82,1.23,4.75c0,1.49-0.27,2.84-0.81,4.05
				c-0.54,1.21-1.36,2.25-2.44,3.12c-1.09,0.87-2.46,1.54-4.12,2.02c-1.66,0.48-3.61,0.72-5.84,0.72c-1.37,0-2.61-0.09-3.72-0.28
				c-1.12-0.19-2.12-0.42-3-0.7c-0.88-0.28-1.67-0.58-2.35-0.91c-0.68-0.33-1.27-0.64-1.77-0.95l2.47-4.98
				c1.3,0.71,2.7,1.26,4.19,1.65c1.49,0.39,2.81,0.58,3.96,0.58c0.56,0,1.28-0.06,2.16-0.19c0.88-0.12,1.75-0.36,2.58-0.7
				c0.84-0.34,1.56-0.81,2.16-1.4c0.61-0.59,0.91-1.35,0.91-2.28c0-1.08-0.41-1.98-1.23-2.68c-0.82-0.7-1.85-1.32-3.09-1.86
				c-1.24-0.54-2.58-1.08-4.03-1.61c-1.44-0.53-2.78-1.16-4.03-1.88c-1.24-0.73-2.27-1.63-3.09-2.7c-0.82-1.07-1.23-2.43-1.23-4.07
				c0-1.18,0.23-2.33,0.7-3.47c0.46-1.13,1.17-2.15,2.12-3.05c0.95-0.9,2.12-1.63,3.54-2.19c1.41-0.56,3.08-0.84,5-0.84
				c1.21,0,2.38,0.1,3.51,0.3c1.13,0.2,2.15,0.43,3.05,0.67c0.9,0.25,1.64,0.49,2.23,0.72
				C423.66,568.69,424.01,568.82,424.14,568.85z"/>
			<path d="M430.7,565.46c0.15,0.22,0.5,0.71,1.02,1.47c0.53,0.76,1.19,1.69,1.98,2.79c0.79,1.1,1.68,2.32,2.65,3.65
				c0.98,1.33,1.97,2.69,2.98,4.07c1.01,1.38,1.99,2.73,2.96,4.05c0.96,1.32,1.83,2.52,2.61,3.61c0.78,1.09,1.43,1.99,1.98,2.72
				c0.54,0.73,0.88,1.19,1,1.37c0.06-0.09,0.34-0.49,0.84-1.19c0.5-0.7,1.12-1.57,1.88-2.63c0.76-1.05,1.62-2.26,2.58-3.61
				c0.96-1.35,1.96-2.72,2.98-4.12c1.02-1.4,2.02-2.78,3-4.14c0.98-1.36,1.88-2.61,2.7-3.72c0.82-1.12,1.51-2.06,2.07-2.84
				c0.56-0.77,0.91-1.27,1.07-1.49v35.41h-6.1v-17.31c0-0.25,0.03-0.51,0.09-0.79c0.06-0.28,0.09-0.45,0.09-0.51l-11.21,16.15
				c-0.16-0.19-0.54-0.7-1.14-1.54c-0.61-0.84-1.33-1.83-2.16-2.98c-0.84-1.15-1.72-2.38-2.65-3.7c-0.93-1.32-1.81-2.54-2.63-3.68
				c-0.82-1.13-1.52-2.09-2.09-2.89c-0.57-0.79-0.89-1.25-0.95-1.37c0,0.06,0.03,0.23,0.09,0.51c0.06,0.28,0.09,0.54,0.09,0.79
				v17.31h-5.72V565.46z"/>
			<path d="M470.58,583.98c0-2.36,0.46-4.59,1.37-6.7c0.92-2.11,2.16-3.96,3.72-5.54c1.57-1.58,3.4-2.84,5.49-3.77
				c2.09-0.93,4.33-1.4,6.72-1.4c2.36,0,4.59,0.47,6.7,1.4c2.11,0.93,3.96,2.19,5.54,3.77c1.58,1.58,2.83,3.43,3.75,5.54
				c0.92,2.11,1.37,4.34,1.37,6.7c0,2.39-0.46,4.63-1.37,6.72c-0.92,2.09-2.16,3.92-3.75,5.49c-1.58,1.57-3.43,2.8-5.54,3.7
				c-2.11,0.9-4.34,1.35-6.7,1.35c-2.39,0-4.63-0.45-6.72-1.35c-2.09-0.9-3.92-2.13-5.49-3.7c-1.57-1.57-2.81-3.4-3.72-5.49
				S470.58,586.37,470.58,583.98z M476.3,583.98c0,1.64,0.3,3.19,0.91,4.63c0.6,1.44,1.44,2.7,2.51,3.77
				c1.07,1.07,2.31,1.92,3.72,2.54c1.41,0.62,2.94,0.93,4.58,0.93c1.58,0,3.08-0.31,4.49-0.93c1.41-0.62,2.64-1.47,3.68-2.54
				c1.04-1.07,1.86-2.33,2.47-3.77c0.6-1.44,0.91-2.99,0.91-4.63c0-1.64-0.31-3.19-0.93-4.63c-0.62-1.44-1.46-2.71-2.51-3.79
				c-1.05-1.09-2.29-1.94-3.7-2.56c-1.41-0.62-2.92-0.93-4.54-0.93c-1.61,0-3.13,0.31-4.54,0.93c-1.41,0.62-2.64,1.47-3.68,2.56
				c-1.04,1.09-1.86,2.35-2.47,3.79C476.61,580.79,476.3,582.33,476.3,583.98z"/>
		</g>
	</g>
</g>
<g>
	<g>
		<g>
			<g>
				<path d="M303.58,382.14v92.81h75.84v-92.81H303.58z M339.6,455.67h-28.84v-4.43h28.84V455.67z M339.6,445.27h-28.84v-4.43h28.84
					V445.27z M339.6,434.98h-28.84v-4.43h28.84V434.98z M339.6,423.48h-28.84v-4.43h28.84V423.48z M339.6,410.43h-28.84V406h28.84
					V410.43z M373.26,457.88h-28.84v-4.43h28.84V457.88z M373.26,446.57h-28.84v-4.43h28.84V446.57z M373.26,437.75h-28.84v-4.43
					h28.84V437.75z M373.26,429.46h-28.84V406h28.84V429.46z M373.26,398.84h-62.5v-8.86h62.5V398.84z"/>
				<g>
					<g>
						<g>
							<path d="M414.6,363.96H270.05v-74.43H414.6V363.96z M274.77,359.24h135.11v-64.99H274.77V359.24z"/>
						</g>
						<rect x="326.74" y="361.65" width="29.98" height="6.83"/>
						<rect x="307.74" y="370.86" width="66.8" height="3.86"/>
					</g>
				</g>
				<g>
					<g>
						<path class="st2" d="M344.85,190.94l-0.18,7.26c0,0-33.15-1.02-44.38,32.21l-7.33-2.15
							C292.96,228.25,302.07,191.84,344.85,190.94z"/>
						<path class="st2" d="M307,233.74c0,0,6.67-26.79,39.05-27.48l-0.26,8.19c0,0-22.69-1.15-30.92,21.96L307,233.74z"/>
						<path class="st2" d="M346.15,221.78c-19.83,0.42-24.05,17.29-24.05,17.29l7.34,2.3c0,0,3.83-11.63,16.37-12.07L346.15,221.78z
							"/>
					</g>
					<path d="M350.1,264.88c0,0-12.53-0.57-12.53-13.08c0-14.86,14.55-16.12,14.55-16.12l1.89-40.39
						c60.2,11.73,48.47,87.57-3.91,87.57c-9.23,0-25.69-17.02-33.69-25.95c-6.34-7.08-16.07-10.11-25.28-7.78
						c-0.15,0.04-0.29,0.08-0.44,0.11c-2.36,0.62,6.25-10.95,13.29-8.6l30.45,10.37c0,0,0.79,18.09,14.94,18.09
						c14.94,0,19.66-9.44,19.66-14.94c0-5.51-2.36-14.16-11.8-14.16s-11.01,6.29-11.01,11.8c0,0,3.1,0.91,3.1,0.45
						c0.05-11.46,15.64-11.84,15.64,0C364.96,265.66,350.1,264.88,350.1,264.88"/>
				</g>
			</g>
			<g>
				<path d="M588.4,649.49H94.6c-11.08,0-20.1-9.01-20.1-20.1V138.62c0-11.09,9.02-20.1,20.1-20.1H588.4c11.1,0,20.1,9.02,20.1,20.1
					v490.77C608.5,640.48,599.5,649.49,588.4,649.49z M94.6,129.99c-4.76,0-8.62,3.87-8.62,8.63v490.77c0,4.74,3.86,8.62,8.62,8.62
					H588.4c4.76,0,8.62-3.88,8.62-8.62V138.62c0-4.76-3.86-8.63-8.62-8.63H94.6z"/>
			</g>
		</g>
		<g>
			<path d="M185.28,542.52c-0.37,0.25-0.89,0.54-1.56,0.88c-0.67,0.34-1.46,0.66-2.37,0.95c-0.92,0.3-1.95,0.54-3.09,0.74
				c-1.15,0.2-2.37,0.3-3.68,0.3c-2.67,0-5.06-0.46-7.17-1.37c-2.11-0.91-3.89-2.15-5.35-3.7c-1.46-1.55-2.58-3.37-3.35-5.44
				c-0.78-2.08-1.16-4.27-1.16-6.56c0-2.54,0.47-4.89,1.4-7.05c0.93-2.16,2.19-4.02,3.79-5.58c1.6-1.57,3.46-2.78,5.58-3.65
				c2.12-0.87,4.4-1.3,6.82-1.3c0.93,0,1.87,0.07,2.82,0.21c0.95,0.14,1.84,0.32,2.68,0.54c0.84,0.22,1.57,0.47,2.21,0.75
				c0.63,0.28,1.09,0.57,1.37,0.88c-0.28,0.43-0.5,0.79-0.65,1.07c-0.16,0.28-0.32,0.57-0.49,0.86c-0.17,0.3-0.36,0.63-0.56,1
				c-0.2,0.37-0.49,0.88-0.86,1.54c-0.37-0.25-0.82-0.47-1.35-0.65c-0.53-0.19-1.08-0.33-1.65-0.44c-0.57-0.11-1.16-0.19-1.75-0.26
				c-0.59-0.06-1.12-0.09-1.58-0.09c-1.74,0-3.34,0.33-4.82,0.98c-1.47,0.65-2.75,1.51-3.82,2.58c-1.07,1.07-1.91,2.32-2.51,3.75
				c-0.6,1.43-0.91,2.9-0.91,4.42c0,1.49,0.29,2.94,0.86,4.35c0.57,1.41,1.38,2.66,2.42,3.75c1.04,1.09,2.27,1.96,3.7,2.63
				c1.43,0.67,3.01,1,4.75,1c0.99,0,1.96-0.1,2.89-0.3c0.93-0.2,1.75-0.43,2.47-0.67c0.71-0.25,1.29-0.5,1.75-0.74
				c0.45-0.25,0.69-0.42,0.72-0.51L185.28,542.52z"/>
			<path d="M186.35,528.14c0-2.36,0.46-4.59,1.37-6.7c0.92-2.11,2.16-3.96,3.72-5.54c1.57-1.58,3.4-2.84,5.49-3.77
				c2.09-0.93,4.33-1.4,6.72-1.4c2.36,0,4.59,0.47,6.7,1.4c2.11,0.93,3.96,2.19,5.54,3.77c1.58,1.58,2.83,3.43,3.75,5.54
				c0.92,2.11,1.37,4.34,1.37,6.7c0,2.39-0.46,4.63-1.37,6.72c-0.92,2.09-2.16,3.92-3.75,5.49c-1.58,1.57-3.43,2.8-5.54,3.7
				c-2.11,0.9-4.34,1.35-6.7,1.35c-2.39,0-4.63-0.45-6.72-1.35c-2.09-0.9-3.92-2.13-5.49-3.7c-1.57-1.57-2.81-3.4-3.72-5.49
				C186.81,532.77,186.35,530.52,186.35,528.14z M192.08,528.14c0,1.64,0.3,3.19,0.91,4.63c0.6,1.44,1.44,2.7,2.51,3.77
				c1.07,1.07,2.31,1.92,3.72,2.54c1.41,0.62,2.94,0.93,4.58,0.93c1.58,0,3.08-0.31,4.49-0.93c1.41-0.62,2.64-1.47,3.68-2.54
				c1.04-1.07,1.86-2.33,2.47-3.77c0.6-1.44,0.91-2.99,0.91-4.63c0-1.64-0.31-3.19-0.93-4.63c-0.62-1.44-1.46-2.71-2.51-3.79
				s-2.29-1.94-3.7-2.56c-1.41-0.62-2.92-0.93-4.54-0.93c-1.61,0-3.13,0.31-4.54,0.93c-1.41,0.62-2.64,1.47-3.68,2.56
				c-1.04,1.09-1.86,2.35-2.47,3.79C192.38,524.95,192.08,526.49,192.08,528.14z"/>
			<path d="M226.6,509.61c0.15,0.22,0.5,0.71,1.02,1.47c0.53,0.76,1.19,1.69,1.98,2.79c0.79,1.1,1.68,2.32,2.65,3.65
				c0.98,1.33,1.97,2.69,2.98,4.07c1.01,1.38,1.99,2.73,2.96,4.05c0.96,1.32,1.83,2.52,2.61,3.61c0.78,1.09,1.43,1.99,1.98,2.72
				c0.54,0.73,0.88,1.19,1,1.37c0.06-0.09,0.34-0.49,0.84-1.19c0.5-0.7,1.12-1.57,1.88-2.63c0.76-1.05,1.62-2.26,2.58-3.61
				s1.96-2.72,2.98-4.12c1.02-1.4,2.02-2.78,3-4.14c0.98-1.36,1.88-2.61,2.7-3.72c0.82-1.12,1.51-2.06,2.07-2.84
				c0.56-0.77,0.91-1.27,1.07-1.49v35.41h-6.1v-17.31c0-0.25,0.03-0.51,0.09-0.79c0.06-0.28,0.09-0.45,0.09-0.51l-11.21,16.15
				c-0.16-0.19-0.54-0.7-1.14-1.54c-0.61-0.84-1.33-1.83-2.16-2.98c-0.84-1.15-1.72-2.38-2.65-3.7c-0.93-1.32-1.81-2.54-2.63-3.68
				c-0.82-1.13-1.52-2.09-2.09-2.89c-0.57-0.79-0.89-1.25-0.95-1.37c0,0.06,0.03,0.23,0.09,0.51c0.06,0.28,0.09,0.54,0.09,0.79
				v17.31h-5.72V509.61z"/>
			<path d="M281.51,545.4c-1.83,0-3.54-0.3-5.14-0.91c-1.6-0.6-2.99-1.45-4.16-2.54c-1.18-1.09-2.11-2.4-2.79-3.93
				c-0.68-1.54-1.02-3.23-1.02-5.09V511.1h5.68v21.69c0,0.99,0.19,1.92,0.58,2.79c0.39,0.87,0.92,1.63,1.58,2.28
				c0.67,0.65,1.45,1.17,2.35,1.56c0.9,0.39,1.88,0.58,2.93,0.58c1.05,0,2.04-0.19,2.96-0.58c0.91-0.39,1.71-0.91,2.4-1.56
				c0.68-0.65,1.22-1.41,1.61-2.28c0.39-0.87,0.58-1.8,0.58-2.79V511.1h5.68v21.83c0,1.86-0.34,3.56-1.02,5.09
				c-0.68,1.54-1.62,2.85-2.81,3.93c-1.2,1.09-2.6,1.93-4.21,2.54C285.07,545.1,283.34,545.4,281.51,545.4z"/>
			<path d="M332.19,511.1v35.51c-0.22-0.28-0.7-0.79-1.44-1.54c-0.74-0.75-1.66-1.64-2.75-2.68c-1.09-1.04-2.29-2.19-3.61-3.44
				c-1.32-1.26-2.66-2.53-4.03-3.82c-1.37-1.29-2.7-2.55-4-3.79c-1.3-1.24-2.49-2.38-3.56-3.42c-1.07-1.04-1.97-1.92-2.7-2.65
				c-0.73-0.73-1.2-1.23-1.42-1.51c-0.03-0.06-0.16-0.22-0.37-0.49c-0.22-0.26-0.4-0.5-0.56-0.72l0.14,1.49v20.99h-5.68v-35.46
				c0.22,0.28,0.7,0.78,1.44,1.51c0.74,0.73,1.66,1.61,2.75,2.63c1.09,1.02,2.29,2.14,3.61,3.35c1.32,1.21,2.66,2.44,4.03,3.7
				c1.37,1.26,2.7,2.5,4,3.72c1.3,1.23,2.5,2.34,3.58,3.35c1.09,1.01,1.99,1.87,2.72,2.58c0.73,0.71,1.2,1.21,1.42,1.49l0.88,1.3
				l-0.14-1.58V511.1H332.19z"/>
			<path d="M340.01,511.1h5.72v33.92h-5.72V511.1z"/>
			<path d="M379.1,542.52c-0.37,0.25-0.89,0.54-1.56,0.88c-0.67,0.34-1.46,0.66-2.37,0.95c-0.92,0.3-1.95,0.54-3.09,0.74
				c-1.15,0.2-2.37,0.3-3.68,0.3c-2.67,0-5.06-0.46-7.17-1.37c-2.11-0.91-3.89-2.15-5.35-3.7c-1.46-1.55-2.58-3.37-3.35-5.44
				c-0.78-2.08-1.16-4.27-1.16-6.56c0-2.54,0.47-4.89,1.4-7.05c0.93-2.16,2.19-4.02,3.79-5.58c1.6-1.57,3.46-2.78,5.58-3.65
				c2.12-0.87,4.4-1.3,6.82-1.3c0.93,0,1.87,0.07,2.82,0.21c0.95,0.14,1.84,0.32,2.68,0.54c0.84,0.22,1.57,0.47,2.21,0.75
				c0.63,0.28,1.09,0.57,1.37,0.88c-0.28,0.43-0.5,0.79-0.65,1.07s-0.32,0.57-0.49,0.86c-0.17,0.3-0.36,0.63-0.56,1
				c-0.2,0.37-0.49,0.88-0.86,1.54c-0.37-0.25-0.82-0.47-1.35-0.65c-0.53-0.19-1.08-0.33-1.65-0.44c-0.57-0.11-1.16-0.19-1.75-0.26
				c-0.59-0.06-1.12-0.09-1.58-0.09c-1.74,0-3.34,0.33-4.82,0.98c-1.47,0.65-2.75,1.51-3.82,2.58c-1.07,1.07-1.91,2.32-2.51,3.75
				c-0.6,1.43-0.91,2.9-0.91,4.42c0,1.49,0.29,2.94,0.86,4.35c0.57,1.41,1.38,2.66,2.42,3.75c1.04,1.09,2.27,1.96,3.7,2.63
				c1.43,0.67,3.01,1,4.75,1c0.99,0,1.96-0.1,2.89-0.3c0.93-0.2,1.75-0.43,2.47-0.67c0.71-0.25,1.29-0.5,1.75-0.74
				c0.45-0.25,0.69-0.42,0.72-0.51L379.1,542.52z"/>
			<path d="M404.18,545.03c-0.09-0.22-0.26-0.6-0.49-1.16c-0.23-0.56-0.52-1.24-0.86-2.05c-0.34-0.81-0.71-1.7-1.12-2.68
				c-0.4-0.98-0.82-1.99-1.26-3.05h-11.68l-3.72,8.93h-5.63c0.12-0.28,0.42-0.97,0.88-2.07c0.47-1.1,1.05-2.47,1.75-4.1
				c0.7-1.63,1.47-3.44,2.33-5.44c0.85-2,1.73-4.04,2.63-6.12c0.9-2.08,1.78-4.12,2.63-6.12c0.85-2,1.63-3.82,2.33-5.44
				c0.7-1.63,1.28-2.99,1.75-4.1c0.46-1.1,0.76-1.79,0.88-2.07c0.12,0.28,0.43,0.97,0.91,2.07c0.48,1.1,1.07,2.47,1.77,4.1
				c0.7,1.63,1.47,3.44,2.33,5.44c0.85,2,1.73,4.04,2.63,6.12c0.9,2.08,1.78,4.12,2.63,6.12c0.85,2,1.63,3.82,2.33,5.44
				c0.7,1.63,1.28,2.99,1.75,4.1c0.46,1.1,0.76,1.79,0.88,2.07H404.18z M390.73,531.3h7.72l-3.35-8.1
				c-0.03-0.03-0.11-0.24-0.23-0.63c-0.12-0.39-0.22-0.74-0.28-1.05c-0.06,0.31-0.16,0.66-0.28,1.05c-0.12,0.39-0.19,0.6-0.19,0.63
				L390.73,531.3z"/>
			<path d="M437.91,542.52c-0.37,0.25-0.89,0.54-1.56,0.88c-0.67,0.34-1.46,0.66-2.37,0.95c-0.92,0.3-1.95,0.54-3.09,0.74
				c-1.15,0.2-2.37,0.3-3.68,0.3c-2.67,0-5.06-0.46-7.17-1.37c-2.11-0.91-3.89-2.15-5.35-3.7c-1.46-1.55-2.58-3.37-3.35-5.44
				c-0.78-2.08-1.16-4.27-1.16-6.56c0-2.54,0.47-4.89,1.4-7.05c0.93-2.16,2.19-4.02,3.79-5.58c1.6-1.57,3.46-2.78,5.58-3.65
				c2.12-0.87,4.4-1.3,6.82-1.3c0.93,0,1.87,0.07,2.82,0.21c0.95,0.14,1.84,0.32,2.68,0.54c0.84,0.22,1.57,0.47,2.21,0.75
				c0.63,0.28,1.09,0.57,1.37,0.88c-0.28,0.43-0.5,0.79-0.65,1.07c-0.16,0.28-0.32,0.57-0.49,0.86c-0.17,0.3-0.36,0.63-0.56,1
				c-0.2,0.37-0.49,0.88-0.86,1.54c-0.37-0.25-0.82-0.47-1.35-0.65c-0.53-0.19-1.08-0.33-1.65-0.44c-0.57-0.11-1.16-0.19-1.75-0.26
				c-0.59-0.06-1.12-0.09-1.58-0.09c-1.74,0-3.34,0.33-4.82,0.98c-1.47,0.65-2.75,1.51-3.82,2.58c-1.07,1.07-1.91,2.32-2.51,3.75
				c-0.6,1.43-0.91,2.9-0.91,4.42c0,1.49,0.29,2.94,0.86,4.35c0.57,1.41,1.38,2.66,2.42,3.75c1.04,1.09,2.27,1.96,3.7,2.63
				c1.43,0.67,3.01,1,4.75,1c0.99,0,1.96-0.1,2.89-0.3c0.93-0.2,1.75-0.43,2.47-0.67c0.71-0.25,1.29-0.5,1.75-0.74
				c0.45-0.25,0.69-0.42,0.72-0.51L437.91,542.52z"/>
			<path d="M442.15,511.1h5.72v33.92h-5.72V511.1z"/>
			<path d="M453.46,528.14c0-2.36,0.46-4.59,1.37-6.7c0.92-2.11,2.16-3.96,3.72-5.54c1.57-1.58,3.4-2.84,5.49-3.77
				c2.09-0.93,4.33-1.4,6.72-1.4c2.36,0,4.59,0.47,6.7,1.4c2.11,0.93,3.96,2.19,5.54,3.77c1.58,1.58,2.83,3.43,3.75,5.54
				c0.91,2.11,1.37,4.34,1.37,6.7c0,2.39-0.46,4.63-1.37,6.72c-0.92,2.09-2.16,3.92-3.75,5.49c-1.58,1.57-3.43,2.8-5.54,3.7
				c-2.11,0.9-4.34,1.35-6.7,1.35c-2.39,0-4.63-0.45-6.72-1.35c-2.09-0.9-3.92-2.13-5.49-3.7c-1.57-1.57-2.81-3.4-3.72-5.49
				C453.91,532.77,453.46,530.52,453.46,528.14z M459.18,528.14c0,1.64,0.3,3.19,0.91,4.63c0.6,1.44,1.44,2.7,2.51,3.77
				c1.07,1.07,2.31,1.92,3.72,2.54c1.41,0.62,2.94,0.93,4.58,0.93c1.58,0,3.08-0.31,4.49-0.93c1.41-0.62,2.64-1.47,3.68-2.54
				c1.04-1.07,1.86-2.33,2.47-3.77c0.6-1.44,0.91-2.99,0.91-4.63c0-1.64-0.31-3.19-0.93-4.63c-0.62-1.44-1.46-2.71-2.51-3.79
				c-1.05-1.09-2.29-1.94-3.7-2.56c-1.41-0.62-2.92-0.93-4.54-0.93c-1.61,0-3.13,0.31-4.54,0.93c-1.41,0.62-2.64,1.47-3.68,2.56
				c-1.04,1.09-1.86,2.35-2.47,3.79C459.48,524.95,459.18,526.49,459.18,528.14z M468.07,509.2c0.71-1.02,1.42-2.06,2.12-3.12
				c0.7-1.05,1.4-2.11,2.12-3.16h4.79c-0.93,1.05-1.88,2.11-2.84,3.16c-0.96,1.05-1.92,2.09-2.89,3.12H468.07z"/>
			<path d="M523.68,511.1v35.51c-0.22-0.28-0.7-0.79-1.44-1.54c-0.74-0.75-1.66-1.64-2.75-2.68c-1.09-1.04-2.29-2.19-3.61-3.44
				c-1.32-1.26-2.66-2.53-4.03-3.82c-1.37-1.29-2.7-2.55-4-3.79c-1.3-1.24-2.49-2.38-3.56-3.42c-1.07-1.04-1.97-1.92-2.7-2.65
				c-0.73-0.73-1.2-1.23-1.42-1.51c-0.03-0.06-0.16-0.22-0.37-0.49c-0.22-0.26-0.4-0.5-0.56-0.72l0.14,1.49v20.99h-5.68v-35.46
				c0.22,0.28,0.7,0.78,1.44,1.51c0.74,0.73,1.66,1.61,2.75,2.63c1.09,1.02,2.29,2.14,3.61,3.35c1.32,1.21,2.66,2.44,4.03,3.7
				c1.37,1.26,2.7,2.5,4,3.72c1.3,1.23,2.5,2.34,3.58,3.35c1.09,1.01,1.99,1.87,2.72,2.58c0.73,0.71,1.2,1.21,1.42,1.49l0.88,1.3
				l-0.14-1.58V511.1H523.68z"/>
			<path d="M194.91,589.89v10.98h-5.72v-10.98c-0.16-0.22-0.54-0.91-1.16-2.07c-0.62-1.16-1.38-2.56-2.28-4.19
				c-0.9-1.63-1.85-3.37-2.84-5.21c-0.99-1.84-1.94-3.58-2.84-5.21c-0.9-1.63-1.66-3.02-2.28-4.19c-0.62-1.16-1.01-1.85-1.16-2.07
				h6.47c0.12,0.22,0.37,0.66,0.72,1.33c0.36,0.67,0.78,1.47,1.28,2.42c0.5,0.95,1.04,1.99,1.63,3.12c0.59,1.13,1.18,2.26,1.77,3.4
				c0.59,1.13,1.15,2.22,1.67,3.26c0.53,1.04,0.99,1.95,1.4,2.72l0.51,1.58c0.12-0.25,0.23-0.52,0.33-0.81
				c0.09-0.29,0.19-0.55,0.28-0.77c0.4-0.78,0.87-1.68,1.4-2.72c0.53-1.04,1.08-2.12,1.65-3.26c0.57-1.13,1.15-2.26,1.72-3.4
				c0.57-1.13,1.1-2.17,1.58-3.12c0.48-0.95,0.89-1.75,1.23-2.42c0.34-0.67,0.57-1.11,0.7-1.33h6.47L194.91,589.89z"/>
			<path d="M220.32,600.87v-33.92h9.59c1.86,0,3.56,0.25,5.1,0.75c1.54,0.5,2.84,1.21,3.91,2.14c1.07,0.93,1.9,2.08,2.49,3.44
				c0.59,1.37,0.88,2.9,0.88,4.61c0,1.37-0.2,2.72-0.6,4.07c-0.4,1.35-1.06,2.56-1.98,3.63c-0.91,1.07-2.1,1.94-3.56,2.61
				c-1.46,0.67-3.26,1-5.4,1H226v11.68H220.32z M226,583.84h4.56c1.18,0,2.16-0.2,2.93-0.61c0.78-0.4,1.4-0.91,1.86-1.51
				c0.47-0.6,0.79-1.24,0.98-1.91c0.19-0.67,0.28-1.26,0.28-1.79c0-0.5-0.09-1.08-0.26-1.75c-0.17-0.67-0.48-1.29-0.93-1.88
				c-0.45-0.59-1.06-1.08-1.84-1.49c-0.78-0.4-1.77-0.61-2.98-0.61H226V583.84z"/>
			<path d="M247.45,600.87v-33.92h22.52v5.17h-16.85v9.12h14.98v5.3h-14.98v9.03h17.5v5.3H247.45z"/>
			<path d="M276.26,600.87v-33.92h9.59c1.86,0,3.56,0.25,5.1,0.75c1.54,0.5,2.84,1.21,3.91,2.14c1.07,0.93,1.9,2.08,2.49,3.44
				c0.59,1.37,0.88,2.9,0.88,4.61c0,0.93-0.09,1.86-0.28,2.79c-0.19,0.93-0.48,1.83-0.88,2.7c-0.4,0.87-0.93,1.67-1.58,2.4
				c-0.65,0.73-1.43,1.36-2.33,1.88c0.68,1.09,1.35,2.15,2,3.19c0.65,1.04,1.31,2.09,1.98,3.14c0.67,1.05,1.36,2.14,2.07,3.26
				c0.71,1.12,1.49,2.33,2.33,3.63h-6.84c-1.4-2.17-2.72-4.23-3.96-6.17c-1.24-1.94-2.44-3.78-3.58-5.51h-0.46h-4.75v11.68H276.26z
				 M281.93,583.84h4.56c1.18,0,2.16-0.2,2.93-0.61c0.78-0.4,1.4-0.89,1.86-1.47c0.47-0.57,0.79-1.19,0.98-1.86
				c0.19-0.67,0.28-1.28,0.28-1.84c0-0.53-0.09-1.12-0.26-1.79c-0.17-0.67-0.48-1.29-0.93-1.88c-0.45-0.59-1.06-1.08-1.84-1.49
				c-0.78-0.4-1.77-0.61-2.98-0.61h-4.61V583.84z"/>
			<path d="M305.85,566.95h5.72v33.92h-5.72V566.95z"/>
			<path d="M317.16,583.98c0-2.36,0.46-4.59,1.37-6.7c0.92-2.11,2.16-3.96,3.72-5.54c1.57-1.58,3.4-2.84,5.49-3.77
				c2.09-0.93,4.33-1.4,6.72-1.4c2.36,0,4.59,0.47,6.7,1.4c2.11,0.93,3.95,2.19,5.54,3.77c1.58,1.58,2.83,3.43,3.75,5.54
				c0.92,2.11,1.37,4.34,1.37,6.7c0,2.39-0.46,4.63-1.37,6.72c-0.92,2.09-2.16,3.92-3.75,5.49c-1.58,1.57-3.43,2.8-5.54,3.7
				c-2.11,0.9-4.34,1.35-6.7,1.35c-2.39,0-4.63-0.45-6.72-1.35c-2.09-0.9-3.92-2.13-5.49-3.7c-1.57-1.57-2.81-3.4-3.72-5.49
				C317.62,588.61,317.16,586.37,317.16,583.98z M322.88,583.98c0,1.64,0.3,3.19,0.91,4.63c0.6,1.44,1.44,2.7,2.51,3.77
				c1.07,1.07,2.31,1.92,3.72,2.54c1.41,0.62,2.94,0.93,4.58,0.93c1.58,0,3.08-0.31,4.49-0.93c1.41-0.62,2.64-1.47,3.68-2.54
				c1.04-1.07,1.86-2.33,2.47-3.77c0.6-1.44,0.91-2.99,0.91-4.63c0-1.64-0.31-3.19-0.93-4.63c-0.62-1.44-1.46-2.71-2.51-3.79
				c-1.05-1.09-2.29-1.94-3.7-2.56c-1.41-0.62-2.92-0.93-4.54-0.93c-1.61,0-3.13,0.31-4.54,0.93c-1.41,0.62-2.64,1.47-3.68,2.56
				c-1.04,1.09-1.86,2.35-2.47,3.79C323.18,580.79,322.88,582.33,322.88,583.98z"/>
			<path d="M357.41,566.95h8.79c3.41,0,6.31,0.52,8.68,1.56c2.37,1.04,4.3,2.38,5.79,4.02c1.49,1.65,2.57,3.51,3.23,5.61
				c0.67,2.09,1,4.18,1,6.26c0,2.54-0.46,4.83-1.37,6.86c-0.92,2.03-2.15,3.76-3.7,5.19c-1.55,1.43-3.36,2.52-5.42,3.28
				c-2.06,0.76-4.24,1.14-6.54,1.14h-10.47V566.95z M367,595.47c1.77,0,3.4-0.25,4.89-0.74c1.49-0.5,2.78-1.23,3.86-2.21
				c1.09-0.98,1.93-2.17,2.54-3.58c0.61-1.41,0.91-3.05,0.91-4.91c0-2.11-0.37-3.9-1.09-5.37c-0.73-1.47-1.65-2.67-2.77-3.58
				c-1.12-0.91-2.36-1.58-3.72-2c-1.37-0.42-2.67-0.63-3.91-0.63h-4.56v23.03H367z"/>
			<path d="M390.59,566.95h5.72v33.92h-5.72V566.95z"/>
			<path d="M424.14,568.85l-2.05,4.65c-1.3-0.46-2.59-0.84-3.86-1.12c-1.27-0.28-2.45-0.42-3.54-0.42c-1.89,0-3.39,0.37-4.49,1.12
				c-1.1,0.75-1.65,1.69-1.65,2.84c0,0.99,0.41,1.8,1.23,2.42c0.82,0.62,1.85,1.18,3.09,1.67c1.24,0.5,2.58,1,4.03,1.51
				c1.44,0.51,2.78,1.17,4.03,1.98c1.24,0.81,2.27,1.83,3.09,3.07c0.82,1.24,1.23,2.82,1.23,4.75c0,1.49-0.27,2.84-0.81,4.05
				c-0.54,1.21-1.36,2.25-2.44,3.12c-1.09,0.87-2.46,1.54-4.12,2.02c-1.66,0.48-3.61,0.72-5.84,0.72c-1.37,0-2.61-0.09-3.72-0.28
				c-1.12-0.19-2.12-0.42-3-0.7c-0.88-0.28-1.67-0.58-2.35-0.91c-0.68-0.33-1.27-0.64-1.77-0.95l2.47-4.98
				c1.3,0.71,2.7,1.26,4.19,1.65c1.49,0.39,2.81,0.58,3.96,0.58c0.56,0,1.28-0.06,2.16-0.19c0.88-0.12,1.75-0.36,2.58-0.7
				c0.84-0.34,1.56-0.81,2.16-1.4c0.61-0.59,0.91-1.35,0.91-2.28c0-1.08-0.41-1.98-1.23-2.68c-0.82-0.7-1.85-1.32-3.09-1.86
				c-1.24-0.54-2.58-1.08-4.03-1.61c-1.44-0.53-2.78-1.16-4.03-1.88c-1.24-0.73-2.27-1.63-3.09-2.7c-0.82-1.07-1.23-2.43-1.23-4.07
				c0-1.18,0.23-2.33,0.7-3.47c0.46-1.13,1.17-2.15,2.12-3.05c0.95-0.9,2.12-1.63,3.54-2.19c1.41-0.56,3.08-0.84,5-0.84
				c1.21,0,2.38,0.1,3.51,0.3c1.13,0.2,2.15,0.43,3.05,0.67c0.9,0.25,1.64,0.49,2.23,0.72
				C423.66,568.69,424.01,568.82,424.14,568.85z"/>
			<path d="M430.7,565.46c0.15,0.22,0.5,0.71,1.02,1.47c0.53,0.76,1.19,1.69,1.98,2.79c0.79,1.1,1.68,2.32,2.65,3.65
				c0.98,1.33,1.97,2.69,2.98,4.07c1.01,1.38,1.99,2.73,2.96,4.05c0.96,1.32,1.83,2.52,2.61,3.61c0.78,1.09,1.43,1.99,1.98,2.72
				c0.54,0.73,0.88,1.19,1,1.37c0.06-0.09,0.34-0.49,0.84-1.19c0.5-0.7,1.12-1.57,1.88-2.63c0.76-1.05,1.62-2.26,2.58-3.61
				c0.96-1.35,1.96-2.72,2.98-4.12c1.02-1.4,2.02-2.78,3-4.14c0.98-1.36,1.88-2.61,2.7-3.72c0.82-1.12,1.51-2.06,2.07-2.84
				c0.56-0.77,0.91-1.27,1.07-1.49v35.41h-6.1v-17.31c0-0.25,0.03-0.51,0.09-0.79c0.06-0.28,0.09-0.45,0.09-0.51l-11.21,16.15
				c-0.16-0.19-0.54-0.7-1.14-1.54c-0.61-0.84-1.33-1.83-2.16-2.98c-0.84-1.15-1.72-2.38-2.65-3.7c-0.93-1.32-1.81-2.54-2.63-3.68
				c-0.82-1.13-1.52-2.09-2.09-2.89c-0.57-0.79-0.89-1.25-0.95-1.37c0,0.06,0.03,0.23,0.09,0.51c0.06,0.28,0.09,0.54,0.09,0.79
				v17.31h-5.72V565.46z"/>
			<path d="M470.58,583.98c0-2.36,0.46-4.59,1.37-6.7c0.92-2.11,2.16-3.96,3.72-5.54c1.57-1.58,3.4-2.84,5.49-3.77
				c2.09-0.93,4.33-1.4,6.72-1.4c2.36,0,4.59,0.47,6.7,1.4c2.11,0.93,3.96,2.19,5.54,3.77c1.58,1.58,2.83,3.43,3.75,5.54
				c0.92,2.11,1.37,4.34,1.37,6.7c0,2.39-0.46,4.63-1.37,6.72c-0.92,2.09-2.16,3.92-3.75,5.49c-1.58,1.57-3.43,2.8-5.54,3.7
				c-2.11,0.9-4.34,1.35-6.7,1.35c-2.39,0-4.63-0.45-6.72-1.35c-2.09-0.9-3.92-2.13-5.49-3.7c-1.57-1.57-2.81-3.4-3.72-5.49
				S470.58,586.37,470.58,583.98z M476.3,583.98c0,1.64,0.3,3.19,0.91,4.63c0.6,1.44,1.44,2.7,2.51,3.77
				c1.07,1.07,2.31,1.92,3.72,2.54c1.41,0.62,2.94,0.93,4.58,0.93c1.58,0,3.08-0.31,4.49-0.93c1.41-0.62,2.64-1.47,3.68-2.54
				c1.04-1.07,1.86-2.33,2.47-3.77c0.6-1.44,0.91-2.99,0.91-4.63c0-1.64-0.31-3.19-0.93-4.63c-0.62-1.44-1.46-2.71-2.51-3.79
				c-1.05-1.09-2.29-1.94-3.7-2.56c-1.41-0.62-2.92-0.93-4.54-0.93c-1.61,0-3.13,0.31-4.54,0.93c-1.41,0.62-2.64,1.47-3.68,2.56
				c-1.04,1.09-1.86,2.35-2.47,3.79C476.61,580.79,476.3,582.33,476.3,583.98z"/>
		</g>
	</g>
</g>
</svg>
