<?xml version="1.0" encoding="utf-8"?>
<!-- Generator: Adobe Illustrator 27.1.0, SVG Export Plug-In . SVG Version: 6.00 Build 0)  -->
<svg version="1.1" id="Capa_1" xmlns="http://www.w3.org/2000/svg" xmlns:xlink="http://www.w3.org/1999/xlink" x="0px" y="0px"
	 viewBox="0 0 683 768" style="enable-background:new 0 0 683 768;" xml:space="preserve">
<style type="text/css">
	.st0{fill:#002E6D;}
	.st1{fill-rule:evenodd;clip-rule:evenodd;fill:#002E6D;}
	.st2{fill-rule:evenodd;clip-rule:evenodd;}
	.st3{fill:#FFFFFF;}
	.st4{fill-rule:evenodd;clip-rule:evenodd;fill:#FFFFFF;}
</style>
<g>
	<g>
		<g>
			<g>
				<path class="st0" d="M587.01,649.96H95.99c-11.02,0-19.99-9.03-19.99-20.13V138.18c0-11.11,8.97-20.14,19.99-20.14h491.03
					c11.03,0,19.99,9.03,19.99,20.14v491.64C607,640.93,598.05,649.96,587.01,649.96z M95.99,129.54c-4.73,0-8.57,3.87-8.57,8.64
					v491.64c0,4.75,3.84,8.63,8.57,8.63h491.03c4.73,0,8.57-3.88,8.57-8.63V138.18c0-4.77-3.84-8.64-8.57-8.64H95.99z"/>
			</g>
			<g>
				<path class="st0" d="M214.88,561.19h10.29c3.99,0,7.38,0.63,10.15,1.9c2.78,1.27,5.04,2.9,6.78,4.91c1.74,2.01,3,4.29,3.78,6.84
					c0.78,2.55,1.17,5.1,1.17,7.63c0,3.1-0.54,5.89-1.61,8.37c-1.07,2.48-2.51,4.59-4.33,6.33c-1.81,1.74-3.93,3.07-6.34,4
					c-2.41,0.93-4.96,1.39-7.65,1.39h-12.25V561.19z M226.1,595.99c2.07,0,3.97-0.3,5.72-0.91c1.74-0.6,3.25-1.5,4.52-2.7
					c1.27-1.19,2.26-2.65,2.97-4.37c0.71-1.72,1.06-3.72,1.06-5.99c0-2.57-0.43-4.76-1.28-6.56c-0.85-1.8-1.93-3.25-3.24-4.37
					c-1.31-1.12-2.76-1.93-4.36-2.44c-1.6-0.51-3.12-0.77-4.57-0.77h-5.33v28.09H226.1z"/>
				<path class="st0" d="M253.7,602.57v-41.38h26.35v6.3h-19.71v11.12h17.53v6.47h-17.53v11.01h20.47v6.47H253.7z"/>
				<path class="st0" d="M287.39,602.57v-41.38h11.21c2.18,0,4.16,0.3,5.96,0.91c1.8,0.61,3.32,1.48,4.57,2.61
					c1.25,1.13,2.22,2.54,2.91,4.2c0.69,1.67,1.03,3.54,1.03,5.62c0,1.13-0.11,2.27-0.33,3.41c-0.22,1.13-0.56,2.23-1.03,3.29
					c-0.47,1.06-1.09,2.03-1.85,2.92c-0.76,0.89-1.67,1.66-2.72,2.3c0.8,1.33,1.58,2.62,2.34,3.89c0.76,1.27,1.53,2.54,2.31,3.83
					c0.78,1.29,1.59,2.61,2.42,3.97c0.83,1.36,1.74,2.84,2.72,4.43h-8c-1.63-2.65-3.18-5.16-4.63-7.52
					c-1.45-2.36-2.85-4.61-4.19-6.73h-0.54h-5.55v14.25H287.39z M294.03,581.8h5.33c1.38,0,2.52-0.25,3.43-0.74
					c0.91-0.49,1.63-1.09,2.18-1.79c0.54-0.7,0.92-1.46,1.14-2.27c0.22-0.81,0.33-1.56,0.33-2.24c0-0.64-0.1-1.37-0.3-2.18
					c-0.2-0.81-0.56-1.58-1.09-2.3c-0.53-0.72-1.24-1.32-2.15-1.82c-0.91-0.49-2.07-0.74-3.48-0.74h-5.39V581.8z"/>
				<path class="st0" d="M322.01,602.57v-41.38h26.35v6.3h-19.71v11.12h17.53v6.47h-17.53v11.01h20.47v6.47H322.01z"/>
				<path class="st0" d="M384.88,599.51c-0.44,0.3-1.04,0.66-1.82,1.08c-0.78,0.42-1.71,0.8-2.78,1.16
					c-1.07,0.36-2.28,0.66-3.62,0.91c-1.34,0.25-2.78,0.37-4.3,0.37c-3.12,0-5.92-0.56-8.38-1.67c-2.47-1.12-4.55-2.62-6.26-4.51
					c-1.71-1.89-3.01-4.11-3.92-6.64c-0.91-2.54-1.36-5.2-1.36-8c0-3.1,0.54-5.97,1.63-8.6c1.09-2.63,2.57-4.9,4.44-6.81
					c1.87-1.91,4.05-3.4,6.53-4.46c2.49-1.06,5.14-1.59,7.98-1.59c1.09,0,2.19,0.08,3.29,0.25c1.11,0.17,2.15,0.39,3.13,0.65
					c0.98,0.26,1.84,0.57,2.59,0.91c0.74,0.34,1.28,0.7,1.61,1.08c-0.33,0.53-0.58,0.96-0.76,1.3c-0.18,0.34-0.37,0.69-0.57,1.05
					c-0.2,0.36-0.42,0.77-0.65,1.22c-0.24,0.45-0.57,1.08-1.01,1.87c-0.44-0.3-0.96-0.57-1.58-0.79c-0.62-0.23-1.26-0.41-1.93-0.54
					c-0.67-0.13-1.35-0.24-2.04-0.31c-0.69-0.08-1.31-0.11-1.85-0.11c-2.03,0-3.91,0.4-5.63,1.19c-1.72,0.79-3.21,1.84-4.46,3.15
					c-1.25,1.3-2.23,2.83-2.94,4.57c-0.71,1.74-1.06,3.54-1.06,5.39c0,1.82,0.33,3.58,1.01,5.31c0.67,1.72,1.61,3.25,2.83,4.57
					c1.22,1.32,2.66,2.39,4.33,3.21c1.67,0.81,3.52,1.22,5.55,1.22c1.16,0,2.29-0.12,3.38-0.37c1.09-0.25,2.05-0.52,2.89-0.82
					c0.83-0.3,1.51-0.6,2.04-0.91c0.53-0.3,0.81-0.51,0.84-0.62L384.88,599.51z"/>
				<path class="st0" d="M389.84,602.57v-41.38h6.7v17.25h18.94v-17.25h6.75c0,0.45,0,1.72,0,3.8c0,2.08,0,4.59,0,7.52
					c0,2.93-0.01,6.05-0.03,9.36c-0.02,3.31-0.03,6.43-0.03,9.37c0,2.93,0,5.44,0,7.52c0,2.08,0,3.35,0,3.8h-6.7v-17.48h-18.94
					v17.48H389.84z"/>
				<path class="st0" d="M428.76,581.97c0-2.88,0.54-5.6,1.61-8.17c1.07-2.57,2.52-4.82,4.35-6.75c1.83-1.93,3.97-3.46,6.42-4.6
					c2.45-1.13,5.07-1.7,7.87-1.7c2.76,0,5.37,0.57,7.84,1.7c2.47,1.14,4.63,2.67,6.48,4.6c1.85,1.93,3.31,4.18,4.38,6.75
					c1.07,2.57,1.61,5.3,1.61,8.17c0,2.92-0.54,5.65-1.61,8.2c-1.07,2.55-2.53,4.79-4.38,6.7c-1.85,1.91-4.01,3.42-6.48,4.51
					c-2.47,1.1-5.08,1.65-7.84,1.65c-2.79,0-5.42-0.55-7.87-1.65c-2.45-1.1-4.59-2.6-6.42-4.51c-1.83-1.91-3.28-4.14-4.35-6.7
					C429.29,587.61,428.76,584.88,428.76,581.97z M435.45,581.97c0,2.01,0.35,3.89,1.06,5.65c0.71,1.76,1.69,3.29,2.94,4.6
					c1.25,1.31,2.7,2.34,4.35,3.09c1.65,0.76,3.44,1.13,5.36,1.13c1.85,0,3.6-0.38,5.25-1.13c1.65-0.76,3.08-1.79,4.3-3.09
					c1.22-1.31,2.18-2.84,2.88-4.6c0.71-1.76,1.06-3.64,1.06-5.65c0-2-0.36-3.89-1.09-5.65c-0.73-1.76-1.71-3.3-2.94-4.63
					c-1.23-1.32-2.68-2.36-4.33-3.12c-1.65-0.76-3.42-1.13-5.31-1.13c-1.89,0-3.66,0.38-5.31,1.13c-1.65,0.76-3.08,1.8-4.3,3.12
					c-1.22,1.33-2.18,2.87-2.88,4.63C435.81,578.08,435.45,579.96,435.45,581.97z"/>
			</g>
		</g>
		<g>
			<polygon class="st1" points="416.96,333.07 435.78,276.87 454.61,333.07 			"/>
			<g>
				<path class="st0" d="M311.81,483.55c-1.72-0.67-3.49-1.13-5.25-1.59c-0.9-0.19-1.77-0.43-2.66-0.61l-2.67-0.51
					c-0.89-0.17-1.79-0.29-2.68-0.44c-0.9-0.13-1.78-0.32-2.68-0.4c-1.8-0.19-3.57-0.5-5.39-0.62c-7.19-0.71-14.41-1.01-21.66-0.98
					c-1.81-0.02-3.62-0.06-5.43,0.03l-5.44,0.1c-3.63,0.09-7.26,0.32-10.9,0.4c-3.63,0.24-7.28,0.41-10.94,0.57
					c-3.65,0.23-7.31,0.47-11.02,0.5c3.54-1.06,7.13-1.9,10.72-2.77c3.61-0.75,7.25-1.35,10.9-1.95c1.83-0.23,3.67-0.44,5.51-0.64
					l2.76-0.29c0.92-0.1,1.84-0.19,2.77-0.23c3.7-0.19,7.39-0.45,11.11-0.37c7.41-0.03,14.86,0.6,22.18,2.03
					c0.92,0.15,1.83,0.35,2.73,0.58l2.72,0.66c0.91,0.21,1.8,0.5,2.69,0.77c0.89,0.29,1.78,0.53,2.66,0.86l2.61,0.99
					c0.86,0.35,1.72,0.73,2.56,1.12c0.84,0.39,1.66,0.84,2.48,1.27C310.28,482.51,311.08,482.98,311.81,483.55z"/>
				<path class="st0" d="M318.49,497.77c-9.15-1.54-18.29-2.62-27.44-3.45c-2.29-0.21-4.57-0.43-6.86-0.57
					c-2.29-0.14-4.57-0.38-6.86-0.46l-6.87-0.36l-6.87-0.23l-1.72-0.07l-1.72-0.01l-3.44-0.03c-2.29-0.04-4.59-0.09-6.88-0.03
					l-6.88,0.05c-1.15-0.01-2.29,0.08-3.44,0.1l-3.44,0.11c-4.6,0.05-9.18,0.42-13.8,0.59c-2.31,0.03-4.6,0.3-6.91,0.43
					c-2.31,0.15-4.62,0.29-6.95,0.37c2.24-0.59,4.5-1.12,6.77-1.65c2.27-0.51,4.53-1.05,6.83-1.42c4.58-0.76,9.18-1.57,13.81-1.97
					c2.32-0.23,4.63-0.5,6.95-0.66l6.98-0.37c2.33-0.15,4.66-0.13,6.99-0.15l3.49,0c1.17-0.01,2.33,0,3.49,0.06l6.98,0.29
					c2.32,0.16,4.65,0.36,6.97,0.56c2.32,0.17,4.63,0.5,6.94,0.78c1.15,0.16,2.31,0.27,3.46,0.46l3.45,0.56
					C300.69,492.27,309.82,494.37,318.49,497.77z"/>
				<path class="st0" d="M325.16,512c-5.38-1.18-10.76-2.22-16.16-3.11c-5.39-0.94-10.8-1.7-16.21-2.4
					c-5.42-0.64-10.83-1.29-16.26-1.69c-5.43-0.44-10.86-0.8-16.29-0.96c-5.44-0.18-10.87-0.22-16.31-0.15
					c-5.44,0.08-10.87,0.34-16.31,0.71c-10.87,0.74-21.69,2.21-32.56,4.05c5.19-1.85,10.49-3.43,15.87-4.68
					c2.68-0.67,5.4-1.15,8.12-1.7c1.36-0.27,2.73-0.45,4.09-0.68c1.37-0.22,2.73-0.44,4.11-0.6l4.12-0.53
					c1.38-0.15,2.76-0.25,4.13-0.38l2.07-0.19l2.07-0.14l4.15-0.26c5.53-0.25,11.08-0.26,16.61-0.09
					c5.53,0.25,11.06,0.63,16.56,1.23c5.49,0.65,10.98,1.41,16.4,2.49c5.43,1.02,10.82,2.29,16.14,3.76
					C314.8,508.2,320.08,509.84,325.16,512z"/>
			</g>
			<g>
				<path class="st0" d="M368.75,483.81c0.76-0.53,1.59-0.95,2.42-1.39c0.84-0.38,1.69-0.79,2.55-1.13
					c0.86-0.34,1.74-0.68,2.62-0.97l2.67-0.85c3.59-1.01,7.25-1.76,10.94-2.26c7.38-1,14.86-1.21,22.26-0.76
					c3.71,0.13,7.39,0.6,11.07,1c0.92,0.09,1.83,0.24,2.75,0.39l2.74,0.45c1.82,0.3,3.65,0.61,5.46,0.95
					c3.61,0.81,7.21,1.61,10.77,2.56c3.54,1.07,7.07,2.11,10.55,3.37c-3.7-0.24-7.34-0.69-10.98-1.12
					c-3.65-0.37-7.28-0.74-10.89-1.19c-3.63-0.29-7.25-0.72-10.86-1.02l-5.43-0.41c-1.81-0.19-3.61-0.25-5.42-0.33
					c-7.23-0.45-14.46-0.55-21.68-0.25c-3.61,0.13-7.21,0.44-10.81,0.85l-2.7,0.36c-0.9,0.13-1.78,0.33-2.69,0.46
					C372.3,482.87,370.5,483.24,368.75,483.81z"/>
				<path class="st0" d="M365.44,497.94c8.81-3,18.03-4.67,27.27-5.81l3.47-0.4c1.16-0.13,2.32-0.2,3.48-0.3
					c2.32-0.18,4.64-0.39,6.97-0.46c2.33-0.09,4.66-0.18,6.99-0.23l6.99,0.03c1.17,0,2.33,0.04,3.49,0.11l3.49,0.16
					c2.33,0.13,4.65,0.22,6.97,0.48l6.95,0.69c2.31,0.27,4.61,0.65,6.91,0.98c4.61,0.62,9.16,1.64,13.7,2.61
					c1.13,0.25,2.27,0.5,3.39,0.82c1.12,0.3,2.25,0.59,3.36,0.92c2.24,0.63,4.47,1.26,6.68,1.96c-2.32-0.19-4.63-0.44-6.93-0.69
					c-2.3-0.23-4.57-0.61-6.88-0.75c-4.6-0.39-9.16-0.97-13.75-1.23c-2.29-0.16-4.58-0.38-6.87-0.53l-6.87-0.37
					c-2.29-0.17-4.58-0.22-6.87-0.29l-3.44-0.13c-1.14-0.05-2.29-0.09-3.44-0.08l-6.88-0.09c-2.29-0.01-4.58,0.05-6.88,0.04
					c-2.29-0.03-4.58,0.11-6.88,0.14c-2.3,0.04-4.59,0.14-6.88,0.25C383.82,496.17,374.65,496.82,365.44,497.94z"/>
				<path class="st0" d="M358.76,512.94c5.13-2.02,10.46-3.52,15.8-4.9c5.36-1.33,10.77-2.44,16.23-3.31
					c5.45-0.93,10.95-1.54,16.46-2.03c5.52-0.45,11.05-0.67,16.58-0.77c5.54-0.01,11.08,0.15,16.6,0.55l4.14,0.37
					c1.38,0.12,2.76,0.26,4.13,0.43c1.37,0.17,2.75,0.31,4.12,0.5l4.1,0.64c1.37,0.2,2.73,0.46,4.09,0.71
					c1.36,0.26,2.72,0.48,4.07,0.79c2.7,0.63,5.4,1.19,8.07,1.92c5.35,1.39,10.6,3.12,15.74,5.11c-10.81-2.13-21.58-3.89-32.43-4.93
					c-5.42-0.52-10.85-0.92-16.28-1.15c-5.43-0.22-10.87-0.32-16.31-0.3c-5.44,0.01-10.88,0.21-16.31,0.51
					c-5.44,0.24-10.87,0.75-16.3,1.24c-5.42,0.56-10.85,1.17-16.27,1.96C369.57,511.02,364.17,511.9,358.76,512.94z"/>
			</g>
			<path class="st1" d="M375.94,244.65c-10.56,0-23.53-10.39-23.53-10.39v-34.88c0-4.9,3.42-31.03,3.42-31.03h-29.37
				c0,0,4.24,26.13,4.24,31.03v34.88c0,0-12.97,10.39-23.53,10.39h-59.73v6.68h188.24v-6.68H375.94z"/>
			<path class="st1" d="M307.57,260.76l0.12,22.08l0.71,8.73c0,3.45,9.4,92.56-1.2,145.31c-5,24.89,30.11,78.65,30.11,78.65
				l-0.81-254.59L307.57,260.76z"/>
			<path class="st1" d="M374.75,260.76l-0.12,22.08l-0.71,8.73c0,3.45-9.4,92.56,1.2,145.31c5,24.89-30.11,78.65-30.11,78.65
				l0.81-254.59L374.75,260.76z"/>
			<rect x="383.92" y="260.94" class="st1" width="51.72" height="6.13"/>
			<polygon class="st1" points="265.32,333.07 246.49,276.87 227.66,333.07 			"/>
			
				<rect x="246.64" y="260.94" transform="matrix(-1 -1.224647e-16 1.224647e-16 -1 544.9916 528.0002)" class="st1" width="51.72" height="6.13"/>
			<rect x="184.13" y="524.18" class="st1" width="320.23" height="10.44"/>
		</g>
	</g>
</g>
</svg>
