<?xml version="1.0" encoding="utf-8"?>
<!-- Generator: Adobe Illustrator 27.1.0, SVG Export Plug-In . SVG Version: 6.00 Build 0)  -->
<svg version="1.1" id="Capa_1" xmlns="http://www.w3.org/2000/svg" xmlns:xlink="http://www.w3.org/1999/xlink" x="0px" y="0px"
	 viewBox="0 0 683 768" style="enable-background:new 0 0 683 768;" xml:space="preserve">
<style type="text/css">
	.st0{fill:#002E6D;}
	.st1{fill:#FFFFFF;}
</style>
<g>
	<g>
		<path class="st1" d="M589.69,650.87H93.31c-11.14,0-20.2-9.06-20.2-20.2V137.34c0-11.15,9.07-20.21,20.2-20.21h496.38
			c11.15,0,20.2,9.06,20.2,20.21v493.33C609.89,641.81,600.85,650.87,589.69,650.87z M93.31,128.67c-4.78,0-8.66,3.89-8.66,8.67
			v493.33c0,4.76,3.88,8.66,8.66,8.66h496.38c4.78,0,8.66-3.9,8.66-8.66V137.34c0-4.78-3.88-8.67-8.66-8.67H93.31z"/>
	</g>
	<g>
		<g>
			<path class="st1" d="M562.48,342.9c0,0-12.23,40.04-63.74,32.6c-19.26-2.8-22.48,12.08-34.53,3.81
				c-39.95-27.4-68.56-20.19-81.86-14.08l12.58,23.3c7.9,11.6,21.51,26.52,41.23,31.22c0,0-38.31-3.7-63.16-26.89
				c-0.18-0.14-0.35-0.31-0.51-0.47c-0.02,0.08-0.05,0.14-0.06,0.23c-5.54,19.15-22.33,11.25-22.33,11.25
				c-8.95,5.57-15.22-0.53-15.22-0.53c-21.13,7.48-23.11-8.82-23.27-10.75c-0.02-0.13-0.02-0.19-0.02-0.19
				c-0.13,0.13-0.26,0.26-0.4,0.37c-24.84,23.27-63.27,26.98-63.27,26.98c21.13-5.04,35.22-21.79,42.83-33.63
				c0.02-0.03,0.03-0.06,0.06-0.1c2.82-4.41,4.73-8.13,5.78-10.3l5.23-9.32c-13.74-5.99-41.89-12.07-80.75,14.58
				c-12.04,8.27-15.25-6.61-34.53-3.83c-51.49,7.45-63.74-32.58-63.74-32.58s54.05,5.37,131.42-10.83c23.69-4.96,39.36,0,48.64,7.93
				c0.43,4.01,2.43,15.56,11.12,22.87c4.15,3.49,14.53,6.98,22.46,8.54l11.1,0.47c10.59-1.34,31.94-7.42,33.92-32.68
				c9.12-8.43,25.05-13.93,49.59-8.8C508.44,348.28,562.48,342.9,562.48,342.9z"/>
		</g>
		<g>
			<polygon class="st1" points="337.49,285.34 342.43,275.64 347.13,285.46 357.88,287.17 349.99,294.67 351.69,305.42 
				342.12,300.23 332.42,305.17 334.4,294.47 326.7,286.77 			"/>
		</g>
		<g>
			<g>
				<g>
					<g>
						<g>
							<path class="st1" d="M340.9,475.66c0,0-3.48-14.94-16.92-16.52c0,0,0.89,4.26,1.86,6.99
								C326.99,469.37,330.39,474.37,340.9,475.66z"/>
						</g>
						<g>
							<path class="st1" d="M346.24,476.38c0,0,3.48-14.94,16.92-16.52c0,0-0.89,4.26-1.86,6.99
								C360.16,470.09,356.75,475.08,346.24,476.38z"/>
						</g>
						<g>
							<path class="st1" d="M341.05,463.52c0,0-2.97-12.75-14.44-14.1c0,0,0.76,3.64,1.59,5.96
								C329.17,458.15,332.08,462.42,341.05,463.52z"/>
						</g>
						<g>
							<path class="st1" d="M345.6,464.13c0,0,2.97-12.75,14.44-14.1c0,0-0.76,3.64-1.59,5.96
								C357.47,458.76,354.57,463.03,345.6,464.13z"/>
						</g>
						<g>
							<path class="st1" d="M341.32,452.21c0,0-2.66-11.45-12.97-12.66c0,0,0.68,3.27,1.42,5.35
								C330.66,447.39,333.27,451.22,341.32,452.21z"/>
						</g>
						<g>
							<path class="st1" d="M345.41,452.76c0,0,2.66-11.45,12.97-12.66c0,0-0.68,3.27-1.42,5.35
								C356.07,447.94,353.47,451.77,345.41,452.76z"/>
						</g>
						<g>
							<path class="st1" d="M341.44,441.78c0,0-2.33-10.01-11.34-11.07c0,0,0.6,2.86,1.25,4.68
								C332.12,437.57,334.4,440.92,341.44,441.78z"/>
						</g>
						<g>
							<path class="st1" d="M345.02,442.26c0,0,2.33-10.01,11.34-11.07c0,0-0.6,2.86-1.25,4.68
								C354.34,438.05,352.07,441.4,345.02,442.26z"/>
						</g>
						<g>
							<path class="st1" d="M343.91,485.01h-1.04c-0.07,0-0.14-0.06-0.14-0.14v-46.13c0-0.07,0.06-0.14,0.14-0.14h1.04
								c0.07,0,0.14,0.06,0.14,0.14v46.13C344.05,484.95,343.99,485.01,343.91,485.01z"/>
						</g>
						<g>
							<path class="st1" d="M343.76,436.09c0,0,7.22-11.61-0.25-21.07c0,0-2.12,3.25-3.23,5.57
								C338.96,423.36,337.96,428.65,343.76,436.09z"/>
						</g>
					</g>
				</g>
			</g>
			<g>
				<path class="st1" d="M424.19,434.84h-26.65c0.19,1.24,0.28,2.51,0.28,3.81c0,2.81-0.45,5.52-1.32,8.06l20.31,14.09l-6.1,8.81
					l-19.65-13.64c-2.42,2.62-5.38,4.74-8.73,6.18l13.01,22.54l-9.27,5.35l-19.91-34.73c1.69,0.54,4.27,0.69,6.14,0.69
					c9.72,0,17.62-7.88,17.62-17.62c0-5.65-1.7-11.04-5.85-14.25l40.12,0V434.84z"/>
			</g>
			<g>
				<path class="st1" d="M262.96,434.85h26.65c-0.19,1.24-0.28,2.51-0.28,3.81c0,2.81,0.45,5.52,1.32,8.06l-20.31,14.09l6.1,8.81
					l19.65-13.64c2.42,2.62,5.38,4.74,8.73,6.18l-13.01,22.54l9.27,5.35l14.94-25.87c1.66-3.25,3.84-6.09,4.97-8.85
					c-1.69,0.54-4.27,0.69-6.14,0.69c-9.72,0-17.62-7.88-17.62-17.62c0-5.65,1.74-11.05,5.89-14.26l-40.16,0.01V434.85z"/>
			</g>
			<g>
				<path class="st1" d="M377.18,422.95l-7.9,13.69c-1,1.73-3.5,1.73-4.5,0l-7.9-13.69h6.16v-12.38h6.98v12.38H377.18z"/>
			</g>
			<g>
				<path class="st1" d="M329.65,423.03l-8.11,14.05c-0.91,1.57-3.18,1.57-4.09,0l-8.11-14.05h6.16v-12.38h6.98v12.38H329.65z"/>
			</g>
		</g>
		<g>
			<g>
				<path class="st1" d="M369.14,341.46c0,4.16-3.37,7.52-7.52,7.52c-3.5,0-6.44-2.4-7.26-5.63l12.53-7.24
					C368.27,337.47,369.14,339.37,369.14,341.46z"/>
			</g>
			<g>
				<path class="st1" d="M349.8,346.43l-4.39-7.64l52.31-30.2l4.4,7.64L349.8,346.43z M346.47,339.07l3.62,6.29l50.96-29.42
					l-3.62-6.29L346.47,339.07z"/>
			</g>
			<g>
				<path class="st1" d="M378.27,329.54l-5.95,3.43c1.92,2.3,3.07,5.27,3.07,8.49c0,7.33-5.93,13.29-13.29,13.29
					c-6.27,0-11.55-4.35-12.94-10.2l-3.24-5.62l27-15.59c-2.79-2.23-6.59-4.34-11.71-6.27c-11.66-4.4-24.51-4.58-36.38-0.79
					c-6.16,1.95-10.45,4.19-13.42,6.64l27.74,16.01l-3.24,5.62l0,0c-1.4,5.85-6.67,10.2-12.94,10.2c-7.36,0-13.29-5.96-13.29-13.29
					c0-3.22,1.15-6.19,3.07-8.49l2.72,1.57l-2.72-1.57l-6.42-3.71c-1.77,3.89-1.77,8.03-1.77,12.15
					c0.02,11.66,9.08,21.68,20.74,21.96c4.94,0.11,9.54-1.46,13.21-4.19l-1.68-2.89l-1.77-3.05h15.14l-2.04,3.53l-1.4,2.41
					c3.56,2.66,8.01,4.22,12.81,4.19c11.68-0.08,21.24-10.38,21.12-22.07C380.67,337.24,380.29,333.28,378.27,329.54z"/>
				<polygon class="st1" points="335.16,345.9 335.16,345.9 335.55,345.22 				"/>
			</g>
			<g>
				<path class="st1" d="M330.74,343.35c-0.84,3.24-3.78,5.63-7.26,5.63c-4.17,0-7.52-3.37-7.52-7.52c0-2.09,0.85-3.99,2.25-5.35
					L330.74,343.35z"/>
			</g>
			<g>
				<path class="st1" d="M335.3,346.43l-52.31-30.2l4.4-7.64l52.31,30.2L335.3,346.43z M284.05,315.94l50.96,29.42l3.62-6.29
					l-50.97-29.42L284.05,315.94z"/>
			</g>
			<g>
				<path class="st1" d="M342.65,367.12l-8.25-14.27h16.49L342.65,367.12z M335.75,353.63l6.9,11.94l6.9-11.94H335.75z"/>
			</g>
		</g>
	</g>
	<g>
		<path class="st1" d="M199.63,602.86v-39.23h26.04v5.97h-19.48v10.55h17.33v6.13h-17.33v10.44h20.23v6.13H199.63z"/>
		<path class="st1" d="M261.78,599.95c-0.43,0.29-1.03,0.63-1.8,1.02c-0.77,0.4-1.69,0.76-2.74,1.1c-1.06,0.34-2.25,0.63-3.58,0.86
			c-1.33,0.23-2.74,0.35-4.25,0.35c-3.09,0-5.85-0.53-8.29-1.59c-2.44-1.06-4.5-2.48-6.19-4.28c-1.69-1.79-2.98-3.89-3.88-6.3
			c-0.9-2.4-1.34-4.93-1.34-7.59c0-2.94,0.54-5.66,1.61-8.15c1.08-2.49,2.54-4.65,4.39-6.46c1.85-1.81,4-3.22,6.46-4.22
			c2.46-1,5.09-1.51,7.88-1.51c1.08,0,2.16,0.08,3.26,0.24c1.09,0.16,2.13,0.37,3.09,0.62c0.97,0.25,1.82,0.54,2.56,0.86
			c0.73,0.32,1.26,0.66,1.59,1.02c-0.32,0.5-0.57,0.91-0.75,1.24c-0.18,0.32-0.37,0.66-0.57,1c-0.2,0.34-0.41,0.73-0.65,1.16
			c-0.23,0.43-0.56,1.02-1,1.78c-0.43-0.29-0.95-0.54-1.56-0.75c-0.61-0.21-1.25-0.38-1.91-0.51c-0.67-0.13-1.34-0.22-2.02-0.3
			c-0.68-0.07-1.29-0.11-1.83-0.11c-2.01,0-3.87,0.38-5.57,1.13c-1.7,0.75-3.17,1.75-4.41,2.99c-1.24,1.24-2.21,2.68-2.91,4.33
			c-0.7,1.65-1.05,3.35-1.05,5.11c0,1.72,0.33,3.4,1,5.03c0.66,1.63,1.6,3.08,2.8,4.33c1.2,1.26,2.63,2.27,4.28,3.04
			c1.65,0.77,3.48,1.16,5.49,1.16c1.15,0,2.26-0.12,3.34-0.35s2.03-0.49,2.85-0.78c0.82-0.29,1.5-0.57,2.02-0.86
			c0.52-0.29,0.8-0.48,0.83-0.59L261.78,599.95z"/>
		<path class="st1" d="M263.02,583.33c0-2.73,0.53-5.31,1.59-7.75c1.06-2.44,2.49-4.57,4.31-6.4c1.81-1.83,3.93-3.28,6.35-4.36
			c2.42-1.08,5.01-1.61,7.78-1.61c2.73,0,5.31,0.54,7.75,1.61c2.44,1.08,4.57,2.53,6.4,4.36c1.83,1.83,3.27,3.96,4.33,6.4
			c1.06,2.44,1.59,5.02,1.59,7.75c0,2.76-0.53,5.35-1.59,7.78c-1.06,2.42-2.5,4.54-4.33,6.35c-1.83,1.81-3.96,3.24-6.4,4.28
			c-2.44,1.04-5.02,1.56-7.75,1.56c-2.76,0-5.35-0.52-7.78-1.56c-2.42-1.04-4.54-2.47-6.35-4.28c-1.81-1.81-3.25-3.93-4.31-6.35
			C263.55,588.68,263.02,586.09,263.02,583.33z M269.64,583.33c0,1.9,0.35,3.69,1.05,5.35c0.7,1.67,1.67,3.12,2.91,4.36
			c1.24,1.24,2.67,2.21,4.3,2.93c1.63,0.72,3.4,1.08,5.3,1.08c1.83,0,3.56-0.36,5.19-1.08c1.63-0.72,3.05-1.7,4.25-2.93
			c1.2-1.24,2.15-2.69,2.85-4.36c0.7-1.67,1.05-3.45,1.05-5.35c0-1.9-0.36-3.69-1.08-5.35c-0.72-1.67-1.69-3.13-2.91-4.39
			c-1.22-1.25-2.65-2.24-4.28-2.96c-1.63-0.72-3.38-1.08-5.25-1.08c-1.87,0-3.61,0.36-5.25,1.08c-1.63,0.72-3.05,1.7-4.25,2.96
			c-1.2,1.26-2.15,2.72-2.85,4.39C269.99,579.64,269.64,581.42,269.64,583.33z"/>
		<path class="st1" d="M344.22,563.63v41.06c-0.25-0.32-0.81-0.91-1.67-1.78c-0.86-0.86-1.92-1.89-3.18-3.09
			c-1.26-1.2-2.65-2.53-4.17-3.98c-1.53-1.45-3.08-2.92-4.66-4.41c-1.58-1.49-3.12-2.95-4.63-4.39c-1.51-1.43-2.88-2.75-4.12-3.96
			c-1.24-1.2-2.28-2.22-3.12-3.07c-0.84-0.84-1.39-1.43-1.64-1.75c-0.04-0.07-0.18-0.26-0.43-0.56c-0.25-0.3-0.47-0.58-0.65-0.83
			l0.16,1.72v24.27h-6.56v-41c0.25,0.32,0.81,0.91,1.67,1.75c0.86,0.84,1.92,1.86,3.17,3.04c1.26,1.18,2.65,2.48,4.17,3.87
			c1.52,1.4,3.08,2.83,4.65,4.28c1.58,1.45,3.12,2.89,4.63,4.31c1.51,1.42,2.89,2.71,4.14,3.87c1.26,1.17,2.3,2.16,3.15,2.99
			c0.84,0.83,1.39,1.4,1.64,1.72l1.02,1.51l-0.16-1.83v-23.73H344.22z"/>
		<path class="st1" d="M350.68,583.33c0-2.73,0.53-5.31,1.59-7.75c1.06-2.44,2.49-4.57,4.31-6.4c1.81-1.83,3.93-3.28,6.35-4.36
			c2.42-1.08,5.01-1.61,7.78-1.61c2.73,0,5.31,0.54,7.75,1.61c2.44,1.08,4.57,2.53,6.4,4.36c1.83,1.83,3.27,3.96,4.33,6.4
			c1.06,2.44,1.59,5.02,1.59,7.75c0,2.76-0.53,5.35-1.59,7.78c-1.06,2.42-2.5,4.54-4.33,6.35c-1.83,1.81-3.96,3.24-6.4,4.28
			c-2.44,1.04-5.02,1.56-7.75,1.56c-2.76,0-5.35-0.52-7.78-1.56c-2.42-1.04-4.54-2.47-6.35-4.28c-1.81-1.81-3.25-3.93-4.31-6.35
			C351.21,588.68,350.68,586.09,350.68,583.33z M357.3,583.33c0,1.9,0.35,3.69,1.05,5.35c0.7,1.67,1.67,3.12,2.91,4.36
			c1.24,1.24,2.67,2.21,4.3,2.93c1.63,0.72,3.4,1.08,5.3,1.08c1.83,0,3.56-0.36,5.19-1.08c1.63-0.72,3.05-1.7,4.25-2.93
			c1.2-1.24,2.15-2.69,2.85-4.36c0.7-1.67,1.05-3.45,1.05-5.35c0-1.9-0.36-3.69-1.08-5.35c-0.72-1.67-1.69-3.13-2.91-4.39
			c-1.22-1.25-2.65-2.24-4.28-2.96c-1.63-0.72-3.38-1.08-5.25-1.08c-1.87,0-3.61,0.36-5.25,1.08c-1.63,0.72-3.05,1.7-4.25,2.96
			c-1.2,1.26-2.15,2.72-2.85,4.39C357.65,579.64,357.3,581.42,357.3,583.33z"/>
		<path class="st1" d="M397.23,561.91c0.18,0.25,0.57,0.82,1.18,1.7c0.61,0.88,1.37,1.96,2.29,3.23c0.91,1.27,1.94,2.68,3.07,4.22
			c1.13,1.54,2.28,3.11,3.44,4.71c1.17,1.6,2.3,3.16,3.42,4.68c1.11,1.53,2.12,2.91,3.01,4.17c0.9,1.26,1.66,2.31,2.29,3.15
			c0.63,0.84,1.01,1.37,1.16,1.59c0.07-0.11,0.39-0.57,0.97-1.37c0.57-0.81,1.3-1.82,2.18-3.04c0.88-1.22,1.87-2.61,2.99-4.17
			c1.11-1.56,2.26-3.15,3.44-4.76c1.18-1.61,2.34-3.21,3.47-4.79c1.13-1.58,2.17-3.01,3.12-4.31c0.95-1.29,1.75-2.38,2.39-3.28
			c0.65-0.9,1.06-1.47,1.24-1.72v40.95h-7.05v-20.02c0-0.29,0.04-0.59,0.11-0.91c0.07-0.32,0.11-0.52,0.11-0.59l-12.97,18.67
			c-0.18-0.21-0.62-0.81-1.32-1.78c-0.7-0.97-1.53-2.12-2.5-3.44c-0.97-1.33-1.99-2.75-3.07-4.28c-1.08-1.52-2.09-2.94-3.04-4.25
			c-0.95-1.31-1.76-2.42-2.42-3.34c-0.66-0.92-1.03-1.44-1.1-1.59c0,0.07,0.04,0.27,0.11,0.59c0.07,0.32,0.11,0.63,0.11,0.91v20.02
			h-6.62V561.91z"/>
		<path class="st1" d="M445.93,563.63h6.62v39.23h-6.62V563.63z M446.46,561.42c0.82-1.18,1.64-2.39,2.45-3.61
			c0.81-1.22,1.62-2.44,2.45-3.66h5.54c-1.08,1.22-2.17,2.44-3.28,3.66c-1.11,1.22-2.23,2.42-3.34,3.61H446.46z"/>
		<path class="st1" d="M485.69,602.86c-0.11-0.25-0.3-0.7-0.56-1.35c-0.27-0.65-0.6-1.43-1-2.37c-0.39-0.93-0.83-1.96-1.29-3.09
			c-0.47-1.13-0.95-2.3-1.45-3.52h-13.51l-4.3,10.33h-6.51c0.14-0.32,0.48-1.12,1.02-2.39c0.54-1.27,1.21-2.85,2.02-4.74
			c0.81-1.88,1.7-3.98,2.69-6.3c0.99-2.31,2-4.67,3.04-7.08c1.04-2.4,2.05-4.76,3.04-7.08c0.99-2.31,1.88-4.41,2.69-6.3
			c0.81-1.88,1.48-3.46,2.02-4.74c0.54-1.27,0.88-2.07,1.02-2.39c0.14,0.32,0.49,1.12,1.05,2.39c0.56,1.27,1.24,2.85,2.04,4.74
			c0.81,1.88,1.7,3.98,2.69,6.3c0.99,2.31,2,4.67,3.04,7.08c1.04,2.4,2.05,4.76,3.04,7.08c0.99,2.31,1.88,4.41,2.69,6.3
			c0.81,1.88,1.48,3.46,2.02,4.74c0.54,1.27,0.88,2.07,1.02,2.39H485.69z M470.14,586.99h8.93l-3.88-9.36
			c-0.04-0.04-0.13-0.28-0.27-0.73c-0.14-0.45-0.25-0.85-0.32-1.21c-0.07,0.36-0.18,0.76-0.32,1.21c-0.14,0.45-0.21,0.69-0.21,0.73
			L470.14,586.99z"/>
	</g>
</g>
</svg>
