<?xml version="1.0" encoding="utf-8"?>
<!-- Generator: Adobe Illustrator 27.1.0, SVG Export Plug-In . SVG Version: 6.00 Build 0)  -->
<svg version="1.1" id="Capa_1" xmlns="http://www.w3.org/2000/svg" xmlns:xlink="http://www.w3.org/1999/xlink" x="0px" y="0px"
	 viewBox="0 0 683 768" style="enable-background:new 0 0 683 768;" xml:space="preserve">
<style type="text/css">
	.st0{fill:#002E6D;}
	.st1{fill-rule:evenodd;clip-rule:evenodd;fill:#002E6D;}
	.st2{fill-rule:evenodd;clip-rule:evenodd;}
	.st3{fill:#FFFFFF;}
	.st4{fill-rule:evenodd;clip-rule:evenodd;fill:#FFFFFF;}
</style>
<g>
	<g>
		<g>
			<g>
				<path class="st3" d="M590.41,652H92.59c-11.17,0-20.26-9.1-20.26-20.29V136.3c0-11.19,9.09-20.29,20.26-20.29h497.81
					c11.19,0,20.26,9.1,20.26,20.29v495.41C610.67,642.9,601.59,652,590.41,652z M92.59,127.59c-4.8,0-8.69,3.9-8.69,8.71v495.41
					c0,4.79,3.89,8.7,8.69,8.7h497.81c4.8,0,8.69-3.91,8.69-8.7V136.3c0-4.8-3.89-8.71-8.69-8.71H92.59z"/>
			</g>
			<g>
				<path class="st3" d="M184.43,565.71v-20.39h5.75c1.12,0,2.14,0.15,3.06,0.45c0.92,0.3,1.7,0.73,2.35,1.29
					c0.64,0.56,1.14,1.25,1.49,2.07c0.35,0.82,0.53,1.74,0.53,2.77c0,0.82-0.12,1.64-0.36,2.45c-0.24,0.81-0.64,1.54-1.19,2.18
					c-0.55,0.64-1.26,1.17-2.14,1.57c-0.88,0.4-1.95,0.6-3.24,0.6h-2.85v7.02H184.43z M187.84,555.48h2.74
					c0.71,0,1.29-0.12,1.76-0.36c0.47-0.24,0.84-0.54,1.12-0.91c0.28-0.36,0.47-0.75,0.59-1.15c0.11-0.4,0.17-0.76,0.17-1.08
					c0-0.3-0.05-0.65-0.15-1.05c-0.1-0.4-0.29-0.78-0.56-1.13c-0.27-0.35-0.64-0.65-1.1-0.89c-0.47-0.24-1.06-0.36-1.79-0.36h-2.76
					V555.48z"/>
				<path class="st3" d="M200.71,565.71v-20.39h3.41v17.14h9.89v3.24H200.71z"/>
				<path class="st3" d="M229.28,565.71c-0.06-0.13-0.15-0.36-0.29-0.7c-0.14-0.34-0.31-0.75-0.52-1.23
					c-0.21-0.48-0.43-1.02-0.67-1.61c-0.24-0.59-0.49-1.2-0.75-1.83h-7.01l-2.23,5.37h-3.38c0.07-0.17,0.25-0.58,0.53-1.24
					c0.28-0.66,0.63-1.48,1.05-2.46c0.42-0.98,0.88-2.07,1.4-3.27c0.51-1.2,1.04-2.43,1.58-3.68c0.54-1.25,1.07-2.48,1.58-3.68
					c0.51-1.2,0.98-2.29,1.4-3.27c0.42-0.98,0.77-1.8,1.05-2.46c0.28-0.66,0.46-1.08,0.53-1.25c0.07,0.17,0.26,0.58,0.54,1.25
					c0.29,0.66,0.64,1.48,1.06,2.46c0.42,0.98,0.88,2.07,1.4,3.27c0.51,1.2,1.04,2.43,1.58,3.68c0.54,1.25,1.07,2.47,1.58,3.68
					c0.51,1.2,0.98,2.29,1.4,3.27c0.42,0.98,0.77,1.8,1.05,2.46s0.46,1.08,0.53,1.24H229.28z M221.21,557.46h4.64l-2.01-4.87
					c-0.02-0.02-0.07-0.14-0.14-0.38c-0.07-0.23-0.13-0.44-0.17-0.63c-0.04,0.19-0.09,0.4-0.17,0.63c-0.07,0.23-0.11,0.36-0.11,0.38
					L221.21,557.46z"/>
				<path class="st3" d="M252.99,545.33v21.34c-0.13-0.17-0.42-0.48-0.87-0.92c-0.45-0.45-1-0.98-1.65-1.61
					c-0.65-0.62-1.37-1.31-2.16-2.07c-0.79-0.75-1.6-1.52-2.42-2.29c-0.82-0.77-1.62-1.53-2.4-2.28c-0.78-0.75-1.49-1.43-2.14-2.06
					c-0.64-0.62-1.18-1.16-1.62-1.59c-0.44-0.44-0.72-0.74-0.85-0.91c-0.02-0.04-0.09-0.13-0.22-0.29c-0.13-0.16-0.24-0.3-0.34-0.43
					l0.08,0.89v12.61h-3.41V544.4c0.13,0.17,0.42,0.47,0.87,0.91c0.45,0.44,1,0.96,1.65,1.58c0.65,0.62,1.37,1.29,2.16,2.01
					c0.79,0.73,1.6,1.47,2.42,2.22c0.82,0.75,1.62,1.5,2.4,2.24c0.78,0.74,1.5,1.41,2.15,2.01c0.65,0.61,1.2,1.12,1.63,1.55
					c0.44,0.43,0.72,0.73,0.85,0.9l0.53,0.78l-0.08-0.95v-12.33H252.99z"/>
				<path class="st3" d="M257.68,545.33h3.44v20.39h-3.44V545.33z"/>
				<path class="st3" d="M265.81,565.71v-20.39h12.37v3.16h-8.96v5.71h7.79v3.19h-7.79v8.33H265.81z"/>
				<path class="st3" d="M281.42,545.33h3.44v20.39h-3.44V545.33z"/>
				<path class="st3" d="M304.88,564.2c-0.22,0.15-0.54,0.33-0.94,0.53s-0.88,0.4-1.42,0.57c-0.55,0.18-1.17,0.33-1.86,0.45
					c-0.69,0.12-1.42,0.18-2.21,0.18c-1.6,0-3.04-0.27-4.3-0.83c-1.27-0.55-2.34-1.29-3.21-2.22s-1.55-2.02-2.01-3.27
					c-0.47-1.25-0.7-2.56-0.7-3.94c0-1.53,0.28-2.94,0.84-4.24c0.56-1.3,1.32-2.41,2.28-3.36c0.96-0.94,2.08-1.67,3.35-2.2
					c1.28-0.52,2.64-0.78,4.09-0.78c0.56,0,1.12,0.04,1.69,0.13c0.57,0.08,1.1,0.19,1.61,0.32c0.5,0.13,0.94,0.28,1.33,0.45
					c0.38,0.17,0.66,0.34,0.82,0.53c-0.17,0.26-0.3,0.47-0.39,0.64c-0.09,0.17-0.19,0.34-0.29,0.52c-0.1,0.18-0.21,0.38-0.34,0.6
					c-0.12,0.22-0.29,0.53-0.52,0.92c-0.22-0.15-0.49-0.28-0.81-0.39c-0.32-0.11-0.65-0.2-0.99-0.27c-0.34-0.07-0.69-0.12-1.05-0.15
					c-0.35-0.04-0.67-0.06-0.95-0.06c-1.04,0-2.01,0.2-2.89,0.59c-0.88,0.39-1.65,0.91-2.29,1.55c-0.64,0.64-1.15,1.39-1.51,2.25
					c-0.36,0.86-0.54,1.74-0.54,2.66c0,0.9,0.17,1.77,0.52,2.62c0.34,0.85,0.83,1.6,1.45,2.25c0.62,0.65,1.36,1.18,2.22,1.58
					c0.86,0.4,1.81,0.6,2.85,0.6c0.6,0,1.17-0.06,1.73-0.18c0.56-0.12,1.05-0.26,1.48-0.41c0.43-0.15,0.78-0.3,1.05-0.45
					c0.27-0.15,0.41-0.25,0.43-0.31L304.88,564.2z"/>
				<path class="st3" d="M319.93,565.71c-0.06-0.13-0.15-0.36-0.29-0.7c-0.14-0.34-0.31-0.75-0.52-1.23
					c-0.21-0.48-0.43-1.02-0.67-1.61c-0.24-0.59-0.49-1.2-0.75-1.83h-7.01l-2.23,5.37h-3.38c0.07-0.17,0.25-0.58,0.53-1.24
					s0.63-1.48,1.05-2.46c0.42-0.98,0.88-2.07,1.4-3.27c0.51-1.2,1.04-2.43,1.58-3.68c0.54-1.25,1.07-2.48,1.58-3.68
					c0.51-1.2,0.98-2.29,1.4-3.27c0.42-0.98,0.77-1.8,1.05-2.46c0.28-0.66,0.46-1.08,0.53-1.25c0.07,0.17,0.26,0.58,0.54,1.25
					c0.29,0.66,0.64,1.48,1.06,2.46c0.42,0.98,0.88,2.07,1.4,3.27c0.51,1.2,1.04,2.43,1.58,3.68c0.54,1.25,1.07,2.47,1.58,3.68
					c0.51,1.2,0.98,2.29,1.4,3.27c0.42,0.98,0.77,1.8,1.05,2.46c0.28,0.66,0.46,1.08,0.53,1.24H319.93z M311.86,557.46h4.64
					l-2.01-4.87c-0.02-0.02-0.07-0.14-0.14-0.38c-0.07-0.23-0.13-0.44-0.17-0.63c-0.04,0.19-0.09,0.4-0.17,0.63
					c-0.07,0.23-0.11,0.36-0.11,0.38L311.86,557.46z"/>
				<path class="st3" d="M340.18,564.2c-0.22,0.15-0.54,0.33-0.94,0.53c-0.4,0.21-0.88,0.4-1.42,0.57
					c-0.55,0.18-1.17,0.33-1.86,0.45c-0.69,0.12-1.42,0.18-2.21,0.18c-1.6,0-3.04-0.27-4.3-0.83c-1.27-0.55-2.34-1.29-3.21-2.22
					s-1.55-2.02-2.01-3.27c-0.47-1.25-0.7-2.56-0.7-3.94c0-1.53,0.28-2.94,0.84-4.24c0.56-1.3,1.32-2.41,2.28-3.36
					c0.96-0.94,2.08-1.67,3.35-2.2c1.28-0.52,2.64-0.78,4.09-0.78c0.56,0,1.12,0.04,1.69,0.13c0.57,0.08,1.1,0.19,1.61,0.32
					c0.5,0.13,0.94,0.28,1.33,0.45c0.38,0.17,0.66,0.34,0.82,0.53c-0.17,0.26-0.3,0.47-0.39,0.64c-0.09,0.17-0.19,0.34-0.29,0.52
					c-0.1,0.18-0.21,0.38-0.33,0.6c-0.12,0.22-0.29,0.53-0.52,0.92c-0.22-0.15-0.49-0.28-0.81-0.39c-0.32-0.11-0.65-0.2-0.99-0.27
					c-0.34-0.07-0.69-0.12-1.05-0.15c-0.35-0.04-0.67-0.06-0.95-0.06c-1.04,0-2.01,0.2-2.89,0.59c-0.88,0.39-1.65,0.91-2.29,1.55
					c-0.64,0.64-1.15,1.39-1.51,2.25c-0.36,0.86-0.54,1.74-0.54,2.66c0,0.9,0.17,1.77,0.52,2.62c0.34,0.85,0.83,1.6,1.45,2.25
					c0.62,0.65,1.36,1.18,2.22,1.58c0.86,0.4,1.81,0.6,2.85,0.6c0.6,0,1.17-0.06,1.73-0.18c0.56-0.12,1.05-0.26,1.48-0.41
					c0.43-0.15,0.78-0.3,1.05-0.45c0.27-0.15,0.41-0.25,0.43-0.31L340.18,564.2z"/>
				<path class="st3" d="M342.72,545.33h3.44v20.39h-3.44V545.33z"/>
				<path class="st3" d="M349.51,555.56c0-1.42,0.27-2.76,0.82-4.03c0.55-1.27,1.29-2.38,2.23-3.33c0.94-0.95,2.04-1.71,3.29-2.27
					c1.26-0.56,2.6-0.84,4.04-0.84c1.41,0,2.75,0.28,4.02,0.84c1.27,0.56,2.37,1.31,3.32,2.27c0.95,0.95,1.7,2.06,2.25,3.33
					c0.55,1.27,0.82,2.61,0.82,4.03c0,1.44-0.28,2.78-0.82,4.04c-0.55,1.26-1.3,2.36-2.25,3.3c-0.95,0.94-2.06,1.68-3.32,2.22
					c-1.27,0.54-2.61,0.81-4.02,0.81c-1.43,0-2.78-0.27-4.04-0.81c-1.26-0.54-2.36-1.28-3.29-2.22c-0.94-0.94-1.69-2.04-2.23-3.3
					C349.78,558.35,349.51,557,349.51,555.56z M352.94,555.56c0,0.99,0.18,1.92,0.54,2.78c0.36,0.87,0.87,1.62,1.51,2.27
					c0.64,0.64,1.39,1.15,2.23,1.52c0.85,0.37,1.76,0.56,2.75,0.56c0.95,0,1.85-0.19,2.69-0.56c0.85-0.37,1.58-0.88,2.21-1.52
					c0.62-0.64,1.12-1.4,1.48-2.27c0.36-0.87,0.54-1.79,0.54-2.78c0-0.99-0.19-1.92-0.56-2.78c-0.37-0.87-0.88-1.63-1.51-2.28
					c-0.63-0.65-1.37-1.16-2.22-1.54c-0.85-0.37-1.75-0.56-2.72-0.56c-0.97,0-1.88,0.19-2.72,0.56c-0.85,0.37-1.58,0.89-2.21,1.54
					c-0.62,0.65-1.12,1.41-1.48,2.28C353.12,553.65,352.94,554.57,352.94,555.56z M358.28,544.18c0.43-0.62,0.85-1.24,1.27-1.87
					c0.42-0.63,0.84-1.27,1.27-1.9h2.88c-0.56,0.63-1.13,1.27-1.7,1.9c-0.58,0.63-1.16,1.26-1.73,1.87H358.28z"/>
				<path class="st3" d="M391.65,545.33v21.34c-0.13-0.17-0.42-0.48-0.87-0.92c-0.45-0.45-1-0.98-1.65-1.61
					c-0.65-0.62-1.37-1.31-2.16-2.07c-0.79-0.75-1.6-1.52-2.42-2.29c-0.82-0.77-1.62-1.53-2.4-2.28c-0.78-0.75-1.49-1.43-2.14-2.06
					c-0.64-0.62-1.18-1.16-1.62-1.59c-0.44-0.44-0.72-0.74-0.85-0.91c-0.02-0.04-0.09-0.13-0.22-0.29c-0.13-0.16-0.24-0.3-0.33-0.43
					l0.08,0.89v12.61h-3.41V544.4c0.13,0.17,0.42,0.47,0.87,0.91c0.45,0.44,1,0.96,1.65,1.58c0.65,0.62,1.37,1.29,2.16,2.01
					c0.79,0.73,1.6,1.47,2.42,2.22c0.82,0.75,1.62,1.5,2.4,2.24c0.78,0.74,1.5,1.41,2.15,2.01c0.65,0.61,1.2,1.12,1.63,1.55
					c0.44,0.43,0.72,0.73,0.85,0.9l0.53,0.78l-0.08-0.95v-12.33H391.65z"/>
				<path class="st3" d="M402.71,565.71v-20.39h5.75c1.12,0,2.14,0.15,3.06,0.45c0.92,0.3,1.7,0.73,2.35,1.29
					c0.64,0.56,1.14,1.25,1.49,2.07c0.35,0.82,0.53,1.74,0.53,2.77c0,0.82-0.12,1.64-0.36,2.45c-0.24,0.81-0.64,1.54-1.19,2.18
					c-0.55,0.64-1.26,1.17-2.14,1.57c-0.88,0.4-1.95,0.6-3.24,0.6h-2.85v7.02H402.71z M406.11,555.48h2.74
					c0.71,0,1.29-0.12,1.76-0.36c0.47-0.24,0.84-0.54,1.12-0.91c0.28-0.36,0.47-0.75,0.59-1.15c0.11-0.4,0.17-0.76,0.17-1.08
					c0-0.3-0.05-0.65-0.15-1.05c-0.1-0.4-0.29-0.78-0.56-1.13c-0.27-0.35-0.64-0.65-1.1-0.89c-0.47-0.24-1.06-0.36-1.79-0.36h-2.76
					V555.48z"/>
				<path class="st3" d="M429.77,565.71c-0.06-0.13-0.15-0.36-0.29-0.7c-0.14-0.34-0.31-0.75-0.52-1.23
					c-0.2-0.48-0.43-1.02-0.67-1.61c-0.24-0.59-0.49-1.2-0.75-1.83h-7.01l-2.23,5.37h-3.38c0.07-0.17,0.25-0.58,0.53-1.24
					c0.28-0.66,0.63-1.48,1.05-2.46c0.42-0.98,0.88-2.07,1.4-3.27c0.51-1.2,1.04-2.43,1.58-3.68c0.54-1.25,1.07-2.48,1.58-3.68
					c0.51-1.2,0.98-2.29,1.4-3.27c0.42-0.98,0.77-1.8,1.05-2.46c0.28-0.66,0.46-1.08,0.53-1.25c0.07,0.17,0.26,0.58,0.54,1.25
					c0.29,0.66,0.64,1.48,1.06,2.46c0.42,0.98,0.88,2.07,1.4,3.27c0.51,1.2,1.04,2.43,1.58,3.68c0.54,1.25,1.07,2.47,1.58,3.68
					c0.51,1.2,0.98,2.29,1.4,3.27c0.42,0.98,0.77,1.8,1.05,2.46s0.46,1.08,0.53,1.24H429.77z M421.7,557.46h4.64l-2.01-4.87
					c-0.02-0.02-0.07-0.14-0.14-0.38c-0.07-0.23-0.13-0.44-0.17-0.63c-0.04,0.19-0.09,0.4-0.17,0.63c-0.07,0.23-0.11,0.36-0.11,0.38
					L421.7,557.46z"/>
				<path class="st3" d="M435.49,565.71v-20.39h5.75c1.12,0,2.14,0.15,3.06,0.45c0.92,0.3,1.7,0.73,2.35,1.29
					c0.64,0.56,1.14,1.25,1.49,2.07c0.35,0.82,0.53,1.74,0.53,2.77c0,0.56-0.06,1.12-0.17,1.68c-0.11,0.56-0.29,1.1-0.53,1.62
					c-0.24,0.52-0.56,1-0.95,1.44c-0.39,0.44-0.86,0.82-1.4,1.13c0.41,0.65,0.81,1.29,1.2,1.92c0.39,0.62,0.79,1.25,1.19,1.89
					s0.81,1.29,1.24,1.96c0.43,0.67,0.89,1.4,1.4,2.18h-4.11c-0.84-1.3-1.63-2.54-2.37-3.71c-0.75-1.17-1.46-2.27-2.15-3.31h-0.28
					h-2.85v7.02H435.49z M438.9,555.48h2.74c0.71,0,1.29-0.12,1.76-0.36c0.47-0.24,0.84-0.54,1.12-0.88
					c0.28-0.34,0.47-0.72,0.59-1.12c0.11-0.4,0.17-0.77,0.17-1.1c0-0.32-0.05-0.67-0.15-1.08c-0.1-0.4-0.29-0.78-0.56-1.13
					c-0.27-0.35-0.64-0.65-1.1-0.89c-0.47-0.24-1.06-0.36-1.79-0.36h-2.76V555.48z"/>
				<path class="st3" d="M465.77,565.71c-0.06-0.13-0.15-0.36-0.29-0.7c-0.14-0.34-0.31-0.75-0.52-1.23
					c-0.21-0.48-0.43-1.02-0.67-1.61c-0.24-0.59-0.49-1.2-0.75-1.83h-7.01l-2.23,5.37h-3.38c0.07-0.17,0.25-0.58,0.53-1.24
					s0.63-1.48,1.05-2.46c0.42-0.98,0.88-2.07,1.4-3.27c0.51-1.2,1.04-2.43,1.58-3.68c0.54-1.25,1.07-2.48,1.58-3.68
					c0.51-1.2,0.98-2.29,1.4-3.27c0.42-0.98,0.77-1.8,1.05-2.46c0.28-0.66,0.46-1.08,0.53-1.25c0.07,0.17,0.26,0.58,0.54,1.25
					c0.29,0.66,0.64,1.48,1.06,2.46c0.42,0.98,0.88,2.07,1.4,3.27c0.51,1.2,1.04,2.43,1.58,3.68c0.54,1.25,1.07,2.47,1.58,3.68
					c0.51,1.2,0.98,2.29,1.4,3.27c0.42,0.98,0.77,1.8,1.05,2.46c0.28,0.66,0.46,1.08,0.53,1.24H465.77z M457.7,557.46h4.64
					l-2.01-4.87c-0.02-0.02-0.07-0.14-0.14-0.38c-0.07-0.23-0.13-0.44-0.17-0.63c-0.04,0.19-0.09,0.4-0.17,0.63
					c-0.07,0.23-0.11,0.36-0.11,0.38L457.7,557.46z"/>
				<path class="st3" d="M477.05,565.71v-20.39h13.52v3.1h-10.11v5.48h8.99v3.19h-8.99v5.42h10.5v3.19H477.05z"/>
				<path class="st3" d="M494.34,565.71v-20.39h3.41v17.14h9.89v3.24H494.34z"/>
				<path class="st3" d="M145.24,578.89h5.28c2.05,0,3.78,0.31,5.21,0.94c1.42,0.62,2.58,1.43,3.48,2.42
					c0.89,0.99,1.54,2.11,1.94,3.37c0.4,1.26,0.6,2.51,0.6,3.76c0,1.53-0.27,2.9-0.82,4.12c-0.55,1.22-1.29,2.26-2.22,3.12
					c-0.93,0.86-2.02,1.51-3.25,1.97c-1.24,0.46-2.55,0.69-3.92,0.69h-6.28V578.89z M150.99,596.03c1.06,0,2.04-0.15,2.93-0.45
					c0.89-0.3,1.67-0.74,2.32-1.33c0.65-0.59,1.16-1.3,1.52-2.15c0.36-0.85,0.54-1.83,0.54-2.95c0-1.27-0.22-2.34-0.66-3.23
					c-0.44-0.88-0.99-1.6-1.66-2.15c-0.67-0.55-1.42-0.95-2.23-1.2c-0.82-0.25-1.6-0.38-2.35-0.38h-2.74v13.84H150.99z"/>
				<path class="st3" d="M165.15,599.27v-20.39h13.52v3.1h-10.11v5.48h8.99v3.19h-8.99v5.42h10.5v3.19H165.15z"/>
				<path class="st3" d="M194.44,580.03l-1.23,2.8c-0.78-0.28-1.55-0.5-2.32-0.67c-0.76-0.17-1.47-0.25-2.12-0.25
					c-1.14,0-2.03,0.22-2.7,0.67c-0.66,0.45-0.99,1.02-0.99,1.71c0,0.6,0.25,1.08,0.74,1.45c0.49,0.37,1.11,0.71,1.86,1.01
					c0.74,0.3,1.55,0.6,2.41,0.91c0.87,0.31,1.67,0.7,2.42,1.19c0.74,0.48,1.36,1.1,1.86,1.85c0.49,0.75,0.74,1.7,0.74,2.85
					c0,0.89-0.16,1.71-0.49,2.43c-0.33,0.73-0.81,1.35-1.47,1.87c-0.65,0.52-1.48,0.93-2.47,1.22c-1,0.29-2.16,0.43-3.5,0.43
					c-0.82,0-1.56-0.06-2.23-0.17c-0.67-0.11-1.27-0.25-1.8-0.42c-0.53-0.17-1-0.35-1.41-0.55c-0.41-0.2-0.76-0.39-1.06-0.57
					l1.48-2.99c0.78,0.43,1.62,0.76,2.51,0.99c0.89,0.23,1.68,0.35,2.37,0.35c0.34,0,0.77-0.04,1.3-0.11
					c0.53-0.07,1.05-0.21,1.55-0.42c0.5-0.21,0.94-0.49,1.3-0.84c0.36-0.35,0.54-0.81,0.54-1.37c0-0.65-0.25-1.19-0.74-1.61
					c-0.49-0.42-1.11-0.79-1.86-1.12c-0.75-0.33-1.55-0.65-2.42-0.96c-0.87-0.32-1.67-0.69-2.42-1.13
					c-0.75-0.44-1.36-0.98-1.86-1.62c-0.49-0.64-0.74-1.46-0.74-2.45c0-0.71,0.14-1.4,0.42-2.08c0.28-0.68,0.7-1.29,1.27-1.83
					c0.57-0.54,1.27-0.98,2.12-1.31c0.85-0.33,1.85-0.5,3-0.5c0.73,0,1.43,0.06,2.11,0.18c0.68,0.12,1.29,0.26,1.83,0.41
					c0.54,0.15,0.99,0.29,1.34,0.43S194.37,580.01,194.44,580.03z"/>
				<path class="st3" d="M210.53,599.27c-0.06-0.13-0.15-0.36-0.29-0.7c-0.14-0.34-0.31-0.75-0.52-1.23
					c-0.21-0.48-0.43-1.02-0.67-1.61c-0.24-0.59-0.49-1.2-0.75-1.83h-7.01l-2.23,5.37h-3.38c0.07-0.17,0.25-0.58,0.53-1.24
					c0.28-0.66,0.63-1.48,1.05-2.46c0.42-0.98,0.88-2.07,1.4-3.27c0.51-1.2,1.04-2.43,1.58-3.68c0.54-1.25,1.07-2.48,1.58-3.68
					c0.51-1.2,0.98-2.29,1.4-3.27c0.42-0.98,0.77-1.8,1.05-2.46c0.28-0.66,0.46-1.08,0.53-1.25c0.07,0.17,0.26,0.58,0.54,1.25
					c0.29,0.66,0.64,1.48,1.06,2.46c0.42,0.98,0.88,2.07,1.4,3.27c0.51,1.2,1.04,2.43,1.58,3.68c0.54,1.25,1.07,2.47,1.58,3.68
					c0.51,1.2,0.98,2.29,1.4,3.27c0.42,0.98,0.77,1.8,1.05,2.46c0.28,0.66,0.46,1.08,0.53,1.24H210.53z M202.46,591.02h4.64
					l-2.01-4.87c-0.02-0.02-0.07-0.14-0.14-0.38c-0.07-0.23-0.13-0.44-0.17-0.63c-0.04,0.19-0.09,0.4-0.17,0.63
					c-0.07,0.23-0.11,0.36-0.11,0.38L202.46,591.02z"/>
				<path class="st3" d="M216.26,599.27v-20.39h5.75c1.12,0,2.14,0.15,3.06,0.45c0.92,0.3,1.7,0.73,2.35,1.29
					c0.64,0.56,1.14,1.25,1.49,2.07s0.53,1.74,0.53,2.77c0,0.56-0.06,1.12-0.17,1.68c-0.11,0.56-0.29,1.1-0.53,1.62
					c-0.24,0.52-0.56,1-0.95,1.44c-0.39,0.44-0.86,0.82-1.4,1.13c0.41,0.65,0.81,1.29,1.2,1.92c0.39,0.62,0.79,1.25,1.19,1.89
					c0.4,0.63,0.81,1.29,1.24,1.96c0.43,0.67,0.89,1.4,1.4,2.18h-4.11c-0.84-1.3-1.63-2.54-2.37-3.71
					c-0.75-1.17-1.46-2.27-2.15-3.31h-0.28h-2.85v7.02H216.26z M219.66,589.04h2.74c0.71,0,1.29-0.12,1.76-0.36
					c0.47-0.24,0.84-0.54,1.12-0.88c0.28-0.34,0.47-0.72,0.59-1.12c0.11-0.4,0.17-0.77,0.17-1.1c0-0.32-0.05-0.67-0.15-1.08
					c-0.1-0.4-0.29-0.78-0.56-1.13c-0.27-0.35-0.64-0.65-1.1-0.89c-0.47-0.24-1.06-0.36-1.79-0.36h-2.76V589.04z"/>
				<path class="st3" d="M234.02,599.27v-20.39h5.75c1.12,0,2.14,0.15,3.06,0.45c0.92,0.3,1.7,0.73,2.35,1.29
					c0.64,0.56,1.14,1.25,1.49,2.07c0.35,0.82,0.53,1.74,0.53,2.77c0,0.56-0.06,1.12-0.17,1.68c-0.11,0.56-0.29,1.1-0.53,1.62
					c-0.24,0.52-0.56,1-0.95,1.44c-0.39,0.44-0.86,0.82-1.4,1.13c0.41,0.65,0.81,1.29,1.2,1.92c0.39,0.62,0.79,1.25,1.19,1.89
					c0.4,0.63,0.81,1.29,1.24,1.96c0.43,0.67,0.89,1.4,1.4,2.18h-4.11c-0.84-1.3-1.63-2.54-2.37-3.71
					c-0.75-1.17-1.46-2.27-2.15-3.31h-0.28h-2.85v7.02H234.02z M237.42,589.04h2.74c0.71,0,1.29-0.12,1.76-0.36
					c0.47-0.24,0.84-0.54,1.12-0.88c0.28-0.34,0.47-0.72,0.59-1.12c0.11-0.4,0.17-0.77,0.17-1.1c0-0.32-0.05-0.67-0.15-1.08
					c-0.1-0.4-0.29-0.78-0.56-1.13c-0.27-0.35-0.64-0.65-1.1-0.89c-0.47-0.24-1.06-0.36-1.79-0.36h-2.76V589.04z"/>
				<path class="st3" d="M250.1,589.12c0-1.42,0.27-2.76,0.82-4.03c0.55-1.27,1.29-2.38,2.23-3.33c0.94-0.95,2.04-1.71,3.29-2.27
					c1.26-0.56,2.6-0.84,4.04-0.84c1.41,0,2.75,0.28,4.02,0.84c1.27,0.56,2.37,1.31,3.32,2.27c0.95,0.95,1.7,2.06,2.25,3.33
					c0.55,1.27,0.82,2.61,0.82,4.03c0,1.44-0.28,2.78-0.82,4.04c-0.55,1.26-1.3,2.36-2.25,3.3c-0.95,0.94-2.06,1.68-3.32,2.22
					c-1.27,0.54-2.61,0.81-4.02,0.81c-1.43,0-2.78-0.27-4.04-0.81c-1.26-0.54-2.36-1.28-3.29-2.22c-0.94-0.94-1.69-2.04-2.23-3.3
					C250.38,591.9,250.1,590.56,250.1,589.12z M253.54,589.12c0,0.99,0.18,1.92,0.54,2.78c0.36,0.87,0.87,1.62,1.51,2.27
					c0.64,0.64,1.39,1.15,2.23,1.52c0.85,0.37,1.76,0.56,2.75,0.56c0.95,0,1.85-0.19,2.69-0.56c0.85-0.37,1.58-0.88,2.21-1.52
					c0.62-0.64,1.12-1.4,1.48-2.27c0.36-0.87,0.54-1.79,0.54-2.78c0-0.99-0.19-1.92-0.56-2.78c-0.37-0.87-0.88-1.63-1.51-2.28
					c-0.63-0.65-1.37-1.17-2.22-1.54c-0.85-0.37-1.75-0.56-2.72-0.56c-0.97,0-1.88,0.19-2.72,0.56c-0.85,0.37-1.58,0.89-2.21,1.54
					c-0.62,0.65-1.12,1.41-1.48,2.28C253.72,587.21,253.54,588.13,253.54,589.12z"/>
				<path class="st3" d="M274.26,599.27v-20.39h3.41v17.14h9.89v3.24H274.26z"/>
				<path class="st3" d="M290.32,599.27v-20.39h3.41v17.14h9.89v3.24H290.32z"/>
				<path class="st3" d="M304.56,589.12c0-1.42,0.27-2.76,0.82-4.03c0.55-1.27,1.29-2.38,2.23-3.33c0.94-0.95,2.04-1.71,3.29-2.27
					c1.26-0.56,2.6-0.84,4.04-0.84c1.41,0,2.75,0.28,4.02,0.84c1.27,0.56,2.37,1.31,3.32,2.27c0.95,0.95,1.7,2.06,2.25,3.33
					c0.55,1.27,0.82,2.61,0.82,4.03c0,1.44-0.28,2.78-0.82,4.04c-0.55,1.26-1.3,2.36-2.25,3.3c-0.95,0.94-2.06,1.68-3.32,2.22
					c-1.27,0.54-2.61,0.81-4.02,0.81c-1.43,0-2.78-0.27-4.04-0.81c-1.26-0.54-2.36-1.28-3.29-2.22c-0.94-0.94-1.69-2.04-2.23-3.3
					C304.84,591.9,304.56,590.56,304.56,589.12z M308,589.12c0,0.99,0.18,1.92,0.54,2.78c0.36,0.87,0.87,1.62,1.51,2.27
					c0.64,0.64,1.39,1.15,2.23,1.52c0.85,0.37,1.76,0.56,2.75,0.56c0.95,0,1.85-0.19,2.69-0.56c0.85-0.37,1.58-0.88,2.21-1.52
					c0.62-0.64,1.12-1.4,1.48-2.27c0.36-0.87,0.54-1.79,0.54-2.78c0-0.99-0.19-1.92-0.56-2.78c-0.37-0.87-0.88-1.63-1.51-2.28
					c-0.63-0.65-1.37-1.17-2.22-1.54c-0.85-0.37-1.75-0.56-2.72-0.56c-0.97,0-1.88,0.19-2.72,0.56c-0.85,0.37-1.58,0.89-2.21,1.54
					c-0.62,0.65-1.12,1.41-1.48,2.28C308.18,587.21,308,588.13,308,589.12z"/>
				<path class="st3" d="M346.79,599.27c-0.06-0.13-0.15-0.36-0.29-0.7c-0.14-0.34-0.31-0.75-0.52-1.23
					c-0.21-0.48-0.43-1.02-0.67-1.61c-0.24-0.59-0.49-1.2-0.75-1.83h-7.01l-2.23,5.37h-3.38c0.07-0.17,0.25-0.58,0.53-1.24
					c0.28-0.66,0.63-1.48,1.05-2.46c0.42-0.98,0.88-2.07,1.4-3.27c0.51-1.2,1.04-2.43,1.58-3.68c0.54-1.25,1.07-2.48,1.58-3.68
					c0.51-1.2,0.98-2.29,1.4-3.27c0.42-0.98,0.77-1.8,1.05-2.46c0.28-0.66,0.46-1.08,0.53-1.25c0.07,0.17,0.26,0.58,0.54,1.25
					c0.29,0.66,0.64,1.48,1.06,2.46c0.42,0.98,0.88,2.07,1.4,3.27c0.51,1.2,1.04,2.43,1.58,3.68c0.54,1.25,1.07,2.47,1.58,3.68
					c0.51,1.2,0.98,2.29,1.4,3.27c0.42,0.98,0.77,1.8,1.05,2.46c0.28,0.66,0.46,1.08,0.53,1.24H346.79z M338.72,591.02h4.64
					l-2.01-4.87c-0.02-0.02-0.07-0.14-0.14-0.38c-0.07-0.23-0.13-0.44-0.17-0.63c-0.04,0.19-0.09,0.4-0.17,0.63
					c-0.07,0.23-0.11,0.36-0.11,0.38L338.72,591.02z"/>
				<path class="st3" d="M367.09,589.37v8.67c-0.78,0.47-1.73,0.83-2.83,1.08c-1.11,0.25-2.24,0.38-3.39,0.38
					c-1.6,0-3.05-0.25-4.34-0.75c-1.29-0.5-2.4-1.19-3.31-2.07c-0.91-0.88-1.61-1.92-2.09-3.13c-0.48-1.21-0.73-2.54-0.73-3.97
					c0-1.62,0.29-3.1,0.87-4.43c0.58-1.33,1.35-2.48,2.33-3.44c0.98-0.96,2.11-1.71,3.41-2.24c1.29-0.53,2.66-0.8,4.09-0.8
					c0.48,0,0.99,0.03,1.52,0.1c0.53,0.07,1.06,0.16,1.58,0.29c0.52,0.13,1.02,0.28,1.51,0.46c0.48,0.18,0.92,0.39,1.31,0.63
					l-1.68,2.8c-0.26-0.17-0.57-0.31-0.94-0.43c-0.36-0.12-0.74-0.23-1.13-0.32c-0.39-0.09-0.78-0.16-1.16-0.21
					c-0.38-0.05-0.74-0.07-1.08-0.07c-0.95,0-1.86,0.19-2.72,0.57c-0.87,0.38-1.63,0.9-2.3,1.55c-0.67,0.65-1.21,1.43-1.61,2.34
					c-0.4,0.91-0.6,1.87-0.6,2.89c0,0.93,0.18,1.82,0.53,2.66c0.35,0.84,0.85,1.58,1.48,2.22c0.63,0.64,1.39,1.16,2.26,1.54
					c0.88,0.38,1.83,0.57,2.88,0.57c0.37,0,0.84-0.03,1.4-0.1c0.56-0.07,1.09-0.18,1.59-0.35v-3.47h-3.8v-2.96H367.09z"/>
				<path class="st3" d="M370.92,599.27v-20.39h5.75c1.12,0,2.14,0.15,3.06,0.45c0.92,0.3,1.7,0.73,2.35,1.29
					c0.64,0.56,1.14,1.25,1.49,2.07c0.35,0.82,0.53,1.74,0.53,2.77c0,0.56-0.06,1.12-0.17,1.68c-0.11,0.56-0.29,1.1-0.53,1.62
					c-0.24,0.52-0.56,1-0.95,1.44c-0.39,0.44-0.86,0.82-1.4,1.13c0.41,0.65,0.81,1.29,1.2,1.92c0.39,0.62,0.79,1.25,1.19,1.89
					c0.4,0.63,0.81,1.29,1.24,1.96c0.43,0.67,0.89,1.4,1.4,2.18h-4.11c-0.84-1.3-1.63-2.54-2.37-3.71
					c-0.75-1.17-1.46-2.27-2.15-3.31h-0.28h-2.85v7.02H370.92z M374.32,589.04h2.74c0.71,0,1.29-0.12,1.76-0.36
					c0.47-0.24,0.84-0.54,1.12-0.88c0.28-0.34,0.47-0.72,0.59-1.12c0.11-0.4,0.17-0.77,0.17-1.1c0-0.32-0.05-0.67-0.15-1.08
					c-0.1-0.4-0.29-0.78-0.56-1.13c-0.27-0.35-0.64-0.65-1.1-0.89c-0.47-0.24-1.06-0.36-1.79-0.36h-2.76V589.04z"/>
				<path class="st3" d="M387,589.12c0-1.42,0.27-2.76,0.82-4.03c0.55-1.27,1.29-2.38,2.23-3.33c0.94-0.95,2.04-1.71,3.29-2.27
					c1.26-0.56,2.6-0.84,4.04-0.84c1.41,0,2.75,0.28,4.02,0.84c1.27,0.56,2.37,1.31,3.32,2.27c0.95,0.95,1.7,2.06,2.25,3.33
					c0.55,1.27,0.82,2.61,0.82,4.03c0,1.44-0.28,2.78-0.82,4.04c-0.55,1.26-1.3,2.36-2.25,3.3c-0.95,0.94-2.06,1.68-3.32,2.22
					c-1.27,0.54-2.61,0.81-4.02,0.81c-1.43,0-2.78-0.27-4.04-0.81c-1.26-0.54-2.36-1.28-3.29-2.22c-0.94-0.94-1.69-2.04-2.23-3.3
					C387.28,591.9,387,590.56,387,589.12z M390.44,589.12c0,0.99,0.18,1.92,0.55,2.78c0.36,0.87,0.87,1.62,1.51,2.27
					c0.64,0.64,1.39,1.15,2.23,1.52c0.85,0.37,1.76,0.56,2.75,0.56c0.95,0,1.85-0.19,2.69-0.56c0.85-0.37,1.58-0.88,2.21-1.52
					c0.62-0.64,1.12-1.4,1.48-2.27c0.36-0.87,0.54-1.79,0.54-2.78c0-0.99-0.19-1.92-0.56-2.78c-0.37-0.87-0.88-1.63-1.51-2.28
					c-0.63-0.65-1.37-1.17-2.22-1.54c-0.85-0.37-1.75-0.56-2.72-0.56c-0.97,0-1.88,0.19-2.72,0.56c-0.85,0.37-1.58,0.89-2.21,1.54
					c-0.62,0.65-1.12,1.41-1.48,2.28C390.62,587.21,390.44,588.13,390.44,589.12z"/>
				<path class="st3" d="M411.16,599.27v-20.39h5.75c1.12,0,2.14,0.15,3.06,0.45c0.92,0.3,1.7,0.73,2.35,1.29
					c0.64,0.56,1.14,1.25,1.49,2.07c0.35,0.82,0.53,1.74,0.53,2.77c0,0.82-0.12,1.64-0.36,2.45c-0.24,0.81-0.64,1.54-1.19,2.18
					c-0.55,0.64-1.26,1.16-2.14,1.57c-0.88,0.4-1.95,0.6-3.24,0.6h-2.85v7.02H411.16z M414.57,589.04h2.74
					c0.71,0,1.29-0.12,1.76-0.36c0.47-0.24,0.84-0.54,1.12-0.91c0.28-0.36,0.47-0.75,0.59-1.15c0.11-0.4,0.17-0.76,0.17-1.08
					c0-0.3-0.05-0.65-0.15-1.05c-0.1-0.4-0.29-0.78-0.56-1.13c-0.27-0.35-0.64-0.65-1.1-0.89c-0.47-0.24-1.06-0.36-1.79-0.36h-2.76
					V589.04z"/>
				<path class="st3" d="M427.44,599.27v-20.39h13.52v3.1h-10.11v5.48h8.99v3.19h-8.99v5.42h10.5v3.19H427.44z"/>
				<path class="st3" d="M459.7,597.76c-0.22,0.15-0.54,0.33-0.94,0.53c-0.4,0.21-0.88,0.4-1.42,0.57
					c-0.55,0.18-1.17,0.33-1.86,0.45s-1.42,0.18-2.21,0.18c-1.6,0-3.04-0.27-4.3-0.83c-1.27-0.55-2.34-1.29-3.21-2.22
					s-1.55-2.02-2.01-3.27c-0.47-1.25-0.7-2.56-0.7-3.94c0-1.53,0.28-2.94,0.84-4.24c0.56-1.29,1.32-2.41,2.28-3.36
					c0.96-0.94,2.08-1.67,3.35-2.2c1.28-0.52,2.64-0.78,4.09-0.78c0.56,0,1.12,0.04,1.69,0.13c0.57,0.08,1.1,0.19,1.61,0.32
					c0.5,0.13,0.94,0.28,1.33,0.45c0.38,0.17,0.66,0.34,0.82,0.53c-0.17,0.26-0.3,0.47-0.39,0.64c-0.09,0.17-0.19,0.34-0.29,0.52
					c-0.1,0.18-0.21,0.38-0.33,0.6c-0.12,0.22-0.29,0.53-0.52,0.92c-0.22-0.15-0.49-0.28-0.81-0.39c-0.32-0.11-0.65-0.2-0.99-0.27
					c-0.34-0.07-0.69-0.12-1.05-0.15c-0.35-0.04-0.67-0.06-0.95-0.06c-1.04,0-2.01,0.2-2.89,0.59c-0.88,0.39-1.65,0.91-2.29,1.55
					c-0.64,0.64-1.15,1.39-1.51,2.25c-0.36,0.86-0.54,1.74-0.54,2.66c0,0.9,0.17,1.77,0.52,2.62c0.34,0.85,0.83,1.6,1.45,2.25
					c0.62,0.65,1.36,1.18,2.22,1.58c0.86,0.4,1.81,0.6,2.85,0.6c0.6,0,1.17-0.06,1.73-0.18c0.56-0.12,1.05-0.26,1.48-0.41
					c0.43-0.15,0.78-0.3,1.05-0.45c0.27-0.15,0.41-0.25,0.43-0.31L459.7,597.76z"/>
				<path class="st3" d="M469.92,599.5c-1.1,0-2.13-0.18-3.09-0.54c-0.96-0.36-1.79-0.87-2.5-1.52c-0.71-0.65-1.27-1.44-1.68-2.36
					c-0.41-0.92-0.61-1.94-0.61-3.06v-13.12h3.41v13.03c0,0.6,0.12,1.16,0.35,1.68c0.23,0.52,0.55,0.98,0.95,1.37
					c0.4,0.39,0.87,0.7,1.41,0.94c0.54,0.23,1.13,0.35,1.76,0.35c0.63,0,1.22-0.12,1.77-0.35c0.55-0.23,1.03-0.54,1.44-0.94
					c0.41-0.39,0.73-0.85,0.96-1.37c0.23-0.52,0.35-1.08,0.35-1.68v-13.03h3.41V592c0,1.12-0.21,2.14-0.61,3.06
					c-0.41,0.92-0.97,1.71-1.69,2.36c-0.72,0.65-1.56,1.16-2.53,1.52C472.05,599.31,471.02,599.5,469.92,599.5z"/>
				<path class="st3" d="M494.27,599.27c-0.06-0.13-0.15-0.36-0.29-0.7c-0.14-0.34-0.31-0.75-0.52-1.23
					c-0.21-0.48-0.43-1.02-0.67-1.61c-0.24-0.59-0.49-1.2-0.75-1.83h-7.01l-2.23,5.37h-3.38c0.07-0.17,0.25-0.58,0.53-1.24
					c0.28-0.66,0.63-1.48,1.05-2.46c0.42-0.98,0.88-2.07,1.4-3.27c0.51-1.2,1.04-2.43,1.58-3.68c0.54-1.25,1.07-2.48,1.58-3.68
					s0.98-2.29,1.4-3.27c0.42-0.98,0.77-1.8,1.05-2.46c0.28-0.66,0.46-1.08,0.53-1.25c0.07,0.17,0.26,0.58,0.54,1.25
					c0.29,0.66,0.64,1.48,1.06,2.46c0.42,0.98,0.88,2.07,1.4,3.27c0.51,1.2,1.04,2.43,1.58,3.68c0.54,1.25,1.07,2.47,1.58,3.68
					c0.51,1.2,0.98,2.29,1.4,3.27c0.42,0.98,0.77,1.8,1.05,2.46c0.28,0.66,0.46,1.08,0.53,1.24H494.27z M486.2,591.02h4.64
					l-2.01-4.87c-0.02-0.02-0.07-0.14-0.14-0.38c-0.07-0.23-0.13-0.44-0.17-0.63c-0.04,0.19-0.09,0.4-0.17,0.63
					c-0.07,0.23-0.11,0.36-0.11,0.38L486.2,591.02z"/>
				<path class="st3" d="M500,599.27v-20.39h5.75c1.12,0,2.14,0.15,3.06,0.45c0.92,0.3,1.7,0.73,2.35,1.29
					c0.64,0.56,1.14,1.25,1.49,2.07c0.35,0.82,0.53,1.74,0.53,2.77c0,0.56-0.06,1.12-0.17,1.68c-0.11,0.56-0.29,1.1-0.53,1.62
					c-0.24,0.52-0.56,1-0.95,1.44c-0.39,0.44-0.86,0.82-1.4,1.13c0.41,0.65,0.81,1.29,1.2,1.92c0.39,0.62,0.79,1.25,1.19,1.89
					c0.4,0.63,0.81,1.29,1.24,1.96c0.43,0.67,0.89,1.4,1.4,2.18h-4.11c-0.84-1.3-1.63-2.54-2.37-3.71
					c-0.75-1.17-1.46-2.27-2.15-3.31h-0.28h-2.85v7.02H500z M503.4,589.04h2.74c0.71,0,1.29-0.12,1.76-0.36
					c0.47-0.24,0.84-0.54,1.12-0.88c0.28-0.34,0.47-0.72,0.59-1.12c0.11-0.4,0.17-0.77,0.17-1.1c0-0.32-0.05-0.67-0.15-1.08
					c-0.1-0.4-0.29-0.78-0.56-1.13c-0.27-0.35-0.64-0.65-1.1-0.89c-0.47-0.24-1.06-0.36-1.79-0.36h-2.76V589.04z"/>
				<path class="st3" d="M517.76,578.89h3.44v20.39h-3.44V578.89z"/>
				<path class="st3" d="M524.54,589.12c0-1.42,0.27-2.76,0.82-4.03c0.55-1.27,1.29-2.38,2.23-3.33c0.94-0.95,2.04-1.71,3.29-2.27
					c1.26-0.56,2.6-0.84,4.04-0.84c1.41,0,2.75,0.28,4.02,0.84c1.27,0.56,2.37,1.31,3.32,2.27c0.95,0.95,1.7,2.06,2.25,3.33
					c0.55,1.27,0.82,2.61,0.82,4.03c0,1.44-0.28,2.78-0.82,4.04c-0.55,1.26-1.3,2.36-2.25,3.3c-0.95,0.94-2.06,1.68-3.32,2.22
					c-1.27,0.54-2.61,0.81-4.02,0.81c-1.43,0-2.78-0.27-4.04-0.81c-1.26-0.54-2.36-1.28-3.29-2.22c-0.94-0.94-1.69-2.04-2.23-3.3
					C524.82,591.9,524.54,590.56,524.54,589.12z M527.98,589.12c0,0.99,0.18,1.92,0.55,2.78c0.36,0.87,0.87,1.62,1.51,2.27
					c0.64,0.64,1.39,1.15,2.23,1.52c0.85,0.37,1.76,0.56,2.75,0.56c0.95,0,1.85-0.19,2.69-0.56c0.85-0.37,1.58-0.88,2.21-1.52
					c0.62-0.64,1.12-1.4,1.48-2.27c0.36-0.87,0.54-1.79,0.54-2.78c0-0.99-0.19-1.92-0.56-2.78c-0.37-0.87-0.88-1.63-1.51-2.28
					c-0.63-0.65-1.37-1.17-2.22-1.54c-0.85-0.37-1.75-0.56-2.72-0.56c-0.97,0-1.88,0.19-2.72,0.56c-0.85,0.37-1.58,0.89-2.21,1.54
					c-0.62,0.65-1.12,1.41-1.48,2.28C528.16,587.21,527.98,588.13,527.98,589.12z"/>
			</g>
			<g>
				<path class="st4" d="M502.29,295.03c-5.25,0-9.51,4.26-9.51,9.52s4.26,9.52,9.51,9.52c5.25,0,9.51-4.26,9.51-9.52
					S507.54,295.03,502.29,295.03z M502.29,309c-2.46,0-4.45-1.99-4.45-4.45c0-2.46,1.99-4.45,4.45-4.45s4.45,1.99,4.45,4.45
					C506.73,307.01,504.74,309,502.29,309z"/>
				<path class="st4" d="M200.34,297.31c-5.25,0-9.51,4.26-9.51,9.52s4.26,9.52,9.51,9.52c5.25,0,9.51-4.26,9.51-9.52
					S205.6,297.31,200.34,297.31z M200.34,311.28c-2.46,0-4.45-1.99-4.45-4.45s1.99-4.45,4.45-4.45c2.46,0,4.45,1.99,4.45,4.45
					S202.8,311.28,200.34,311.28z"/>
				<path class="st4" d="M252.69,210.71c-5.25,0-9.51,4.26-9.51,9.52c0,5.26,4.26,9.52,9.51,9.52c5.25,0,9.51-4.26,9.51-9.52
					C262.2,214.97,257.94,210.71,252.69,210.71z M252.69,224.68c-2.46,0-4.45-1.99-4.45-4.45c0-2.46,1.99-4.45,4.45-4.45
					c2.46,0,4.45,1.99,4.45,4.45C257.14,222.69,255.15,224.68,252.69,224.68z"/>
				<path class="st4" d="M443.87,200.83c-5.25,0-9.51,4.26-9.51,9.52c0,5.26,4.26,9.52,9.51,9.52s9.51-4.26,9.51-9.52
					C453.38,205.1,449.12,200.83,443.87,200.83z M443.87,214.8c-2.46,0-4.45-1.99-4.45-4.45s1.99-4.45,4.45-4.45
					s4.45,1.99,4.45,4.45S446.32,214.8,443.87,214.8z"/>
				<path class="st4" d="M351.31,165.89c-5.25,0-9.51,4.26-9.51,9.52c0,5.26,4.26,9.52,9.51,9.52c5.25,0,9.51-4.26,9.51-9.52
					C360.82,170.15,356.57,165.89,351.31,165.89z M351.31,179.86c-2.46,0-4.45-1.99-4.45-4.45s1.99-4.45,4.45-4.45
					c2.46,0,4.45,1.99,4.45,4.45S353.77,179.86,351.31,179.86z"/>
				<g>
					<path class="st3" d="M510.29,420.15c0,0-19.87,95.53-152.99,91.47c0,0,0.6-1.12,1.78-3.14c2.81-4.78,8.94-14.52,18.22-25.9
						c3.7-4.54,7.9-9.34,12.6-14.19c19.88-20.53,48.55-41.85,85.16-47.66C486.09,418.98,497.84,418.64,510.29,420.15z"/>
					<path class="st3" d="M357.94,511.26c30.04,0.85,56.7-3.38,79.25-12.56c18.15-7.39,33.7-18,46.21-31.52
						c19.78-21.39,25.64-43.47,26.42-46.7c-11.7-1.38-23.37-1.17-34.7,0.63c-30.49,4.84-59.06,20.84-84.94,47.55
						c-4.32,4.46-8.55,9.22-12.58,14.17c-9.27,11.37-15.37,21.08-18.18,25.85C358.72,509.86,358.23,510.74,357.94,511.26z"/>
				</g>
				<g>
					<g>
						<path class="st3" d="M487.4,346.74c-16.88,3.63-31.72,9.73-44.74,17.49c-43.08,25.66-66.32,69.42-78.24,101.6
							c-8.6,23.23-11.3,40.43-11.3,40.43c0.96-0.3,1.9-0.6,2.84-0.9c2.82-4.78,8.96-14.55,18.24-25.93
							c-0.01,0.01-0.02,0.02-0.03,0.03l-5.17-6.51c-1.55-1.95-1.22-4.79,0.72-6.34l7.58-6.03c1.94-1.55,4.77-1.23,6.32,0.72
							l3.15,3.96c19.88-20.53,48.56-41.85,85.16-47.66C491.62,379.87,487.4,346.74,487.4,346.74z M411.68,437.72l-12.11,9.65
							c-0.69,0.55-1.7,0.44-2.25-0.26l-9.63-12.13c-0.55-0.69-0.44-1.7,0.26-2.26l12.11-9.65c0.69-0.55,1.7-0.44,2.25,0.26
							l9.63,12.13C412.49,436.16,412.38,437.16,411.68,437.72z M429.13,409.61l-12.11,9.65c-0.69,0.55-1.7,0.44-2.25-0.26
							l-9.63-12.13c-0.55-0.69-0.44-1.7,0.26-2.26l12.11-9.65c0.69-0.55,1.7-0.44,2.25,0.26l9.63,12.13
							C429.94,408.05,429.83,409.06,429.13,409.61z M465.55,405.05l-12.11,9.65c-0.69,0.55-1.7,0.44-2.25-0.26l-9.63-12.13
							c-0.55-0.69-0.44-1.7,0.26-2.26l12.11-9.65c0.69-0.55,1.7-0.44,2.25,0.26l9.63,12.13
							C466.36,403.49,466.24,404.5,465.55,405.05z M473.89,373.15l-12.11,9.65c-0.69,0.55-1.7,0.44-2.25-0.26l-9.63-12.13
							c-0.55-0.69-0.44-1.7,0.26-2.26l12.11-9.65c0.69-0.55,1.7-0.44,2.25,0.26l9.63,12.13
							C474.7,371.58,474.59,372.59,473.89,373.15z"/>
					</g>
				</g>
				<path class="st3" d="M480.08,296.92l-42.65-1.71c-3.25-7.78-7.47-14.97-12.59-21.39l17.3-39.95l-22-16.71l-31.89,29.31
					c-5.28-2.17-10.77-3.84-16.42-4.98c0.08-1.18-0.25-41.04-0.25-41.04s-12.27-1.9-20.1-1.9c-1.09,0-2.18,0.05-3.25,0.14
					c-11.47,0.93-21.55,6.78-28.15,15.44c-2.96,3.89-5.22,8.34-6.58,13.17c-5.44-2.83-11.61-4.44-18.17-4.44
					c-14.8,0-27.69,8.16-34.43,20.23c-3.19,5.7-5.01,12.28-5.01,19.27c0,5.39,1.08,10.54,3.04,15.22c-1.81,0.07-3.6,0.26-5.35,0.57
					c-18.52,3.24-32.59,19.43-32.59,38.9c0,6.51,1.57,12.66,4.37,18.07c2.81,5.48,6.88,10.22,11.82,13.83
					c-5.29,3.87-9.57,9.02-12.4,15c-2.43,5.13-3.79,10.86-3.79,16.9c0,15.29,8.5,30.61,21.08,38.4
					c5.14-2.22,20.42-11.53,36.27-13.24l0.3-0.09c0.31-21.96-16.21-24.2-16.21-24.2c17.98-5.54,25.12,5.87,27.64,12.32
					c0.47,1.19,2.2,1.06,2.47-0.19c4.87-22.47-20.74-37.31-20.74-37.31c35.05-1.19,39.86,23.02,40.29,33.58
					c0.05,1.2,1.59,1.63,2.27,0.65c2.24-3.25,6.25-7.74,12.7-10.93c15.85-7.85,17.57,3.14,17.57,3.14
					c-19.58,6.34-20.25,26.2-20.27,30.05c14.09-15.64,31.53-25.45,52.5-30.05c8.67-1.91,17.91-2.28,27.71-0.63
					c0,0,3.29,1.03,3.29,3.38c10.17-11.27,16.74-15.42,30.88-23.84c2.56-6.84,4.32-14,5.15-21.41l40.72-16.98L480.08,296.92z
					 M351.49,374.41c-18.23,0-33-14.79-33-33.04c0-18.25,14.77-33.04,33-33.04c18.23,0,33,14.79,33,33.04
					C384.5,359.61,369.72,374.41,351.49,374.41z"/>
				<path class="st3" d="M288.76,425.67c-0.12,5.94-4.81,10.75-10.74,10.75c-5.93,0-10.64-4.82-10.74-10.75
					C267.16,418.8,288.9,418.8,288.76,425.67z"/>
				<path class="st3" d="M375.33,388.45c-21.08,4.63-38.8,18.28-52.93,34.02c-14.39-9.18-28.23-9.18-28.23-9.18
					c-18.91-7.46-46.66,8.42-53.64,11.43c-0.36,0.16-0.67,0.28-0.92,0.36c-1.28,0.42-1.95,0.74-1.95,0.74
					c-33.38,20.51-31.86,13.67-57.66,18.99c-25.79,5.32-8.35,22.79-8.35,22.79c-2.28,11.39,4.55,17.47,4.55,17.47
					c-18.21,10.64,0,27.35,0,27.35l171.6-0.29l5.54-32.75c-0.01-0.08-0.02-0.17-0.03-0.25c-0.38-3.28-0.87-6.4-1.46-9.36
					c3.4-2.25,6.59-4.66,9.56-7.19c8.15-20.37,16.04-40.96,37.89-65.15c-0.01-0.01,0.77-0.78,0.78-0.78
					c1.59-5.93,2.96-8.84,2.96-8.84C393.24,386.17,384,386.54,375.33,388.45z M278.19,420.85c11.51,0,24.46,12.64,24.46,12.64
					c0,2.35-12.95,12.05-24.46,12.05c-11.51,0-23.8-12.05-23.8-12.05S266.68,420.85,278.19,420.85z M175.89,465.16
					c-1.34,0.38-2.66,1.05-3.82,2.17c0.11-0.82,0.49-1.59,0.96-2.29c0.47-0.72,1.08-1.35,1.77-1.88c1.38-1.08,3.05-1.77,4.74-2.13
					l0.64-0.14l0.64-0.09c0.42-0.05,0.86-0.12,1.28-0.12c0.42-0.01,0.85-0.03,1.28-0.03c0.23,0,0.37-0.01,0.54-0.02l0.49-0.02
					c1.29-0.05,2.45-0.3,3.11-0.77c0.37-0.2,0.59-0.48,0.81-0.82c0.24-0.33,0.38-0.8,0.48-1.32c0.06-0.26,0.08-0.54,0.09-0.82l0-0.4
					c0-0.02,0-0.08,0-0.07c0,0,0.02,0.03,0.02,0.04c-0.01-0.05-0.01-0.09-0.02-0.16c-0.11-0.48-0.3-1-0.56-1.4
					c-0.27-0.41-0.6-0.74-1.04-1.02c-0.23-0.12-0.47-0.26-0.77-0.32c-0.28-0.12-0.59-0.14-0.92-0.19c-1.33-0.16-2.86,0.1-4.46,0.36
					c0.58-0.55,1.17-1.14,1.89-1.56c0.35-0.23,0.7-0.46,1.1-0.63c0.4-0.17,0.79-0.37,1.24-0.46c0.44-0.11,0.89-0.22,1.38-0.23
					c0.48-0.06,0.98,0.02,1.5,0.1c1.01,0.22,2.02,0.73,2.8,1.45c0.79,0.73,1.36,1.59,1.76,2.56c0.05,0.12,0.1,0.26,0.15,0.4
					c0.03,0.1,0.07,0.23,0.08,0.32l0.04,0.22c0.06,0.27,0.08,0.5,0.11,0.76c0.04,0.49,0.06,0.99,0.03,1.49
					c-0.06,1.01-0.3,2.07-0.84,3.08c-0.53,0.99-1.34,1.93-2.3,2.52c-0.47,0.34-0.97,0.54-1.47,0.73c-0.5,0.23-0.98,0.29-1.48,0.41
					c-0.5,0.13-0.96,0.11-1.43,0.15c-0.23,0.01-0.47,0.03-0.7,0.03l-0.67-0.05l-1.28-0.11c-0.34-0.03-0.69-0.09-1.04-0.14
					c-0.35-0.06-0.68-0.05-1.03-0.08l-0.52-0.05l-0.51,0C178.58,464.64,177.22,464.77,175.89,465.16z M331.2,494.62
					c-2.29,3.6-5.5,6.55-9.08,8.85c-3.62,2.25-7.64,3.83-11.77,4.75l-1.55,0.34l-1.57,0.25c-1.04,0.19-2.1,0.27-3.15,0.39
					c-1.05,0.13-2.11,0.11-3.16,0.17l-3.05,0.06c-4.05,0.08-8.11,0.23-12.21,0.28c-4.1,0.05-8.24-0.05-12.4-0.42
					c-4.16-0.4-8.37-1.1-12.46-2.5c-2.04-0.7-4.03-1.59-5.93-2.67c-1.9-1.07-3.71-2.32-5.35-3.77c-1.64-1.44-3.17-3.01-4.48-4.73
					c-0.7-0.83-1.27-1.75-1.9-2.62c-0.55-0.92-1.15-1.82-1.63-2.77c-1.05-1.8-1.86-4.04-2.67-5.36c-0.89-1.47-2.1-2.73-3.58-3.72
					c-2.95-1.99-6.74-2.97-10.59-3.42c-3.87-0.43-7.86-0.31-11.84,0.01c-3.98,0.33-7.97,0.94-11.93,1.7
					c-7.93,1.5-15.79,3.6-23.55,6.04c7.4-3.41,15.13-6.12,23.04-8.27c7.93-2.03,16.11-3.61,24.59-3.1c2.12,0.14,4.25,0.45,6.37,0.99
					c2.11,0.57,4.22,1.39,6.14,2.64c1.94,1.22,3.67,2.9,4.93,4.87c1.32,2.15,1.87,3.79,2.92,5.47c0.45,0.86,1.02,1.63,1.51,2.45
					c0.57,0.77,1.08,1.58,1.7,2.3c1.16,1.5,2.5,2.84,3.92,4.07c1.42,1.24,2.98,2.29,4.63,3.2c1.64,0.92,3.38,1.68,5.2,2.28
					c3.6,1.26,7.46,1.96,11.38,2.37c3.93,0.4,7.93,0.5,11.96,0.54c4.03,0.06,8.1,0.02,12.18,0.05l3.05,0.02
					c0.98-0.03,1.96,0.01,2.93-0.07c0.97-0.06,1.95-0.09,2.91-0.23l1.45-0.17l1.44-0.25c3.84-0.65,7.53-1.97,10.94-3.81
					c3.38-1.88,6.45-4.38,8.75-7.52c2.33-3.08,3.93-6.82,4.13-10.73c0.23-3.88-1.18-7.97-4.23-10.72c1.65,1.19,3.04,2.79,3.99,4.65
					c0.94,1.87,1.44,3.96,1.54,6.07C334.92,486.84,333.47,491.04,331.2,494.62z"/>
			</g>
		</g>
	</g>
</g>
</svg>
