<?xml version="1.0" encoding="utf-8"?>
<!-- Generator: Adobe Illustrator 27.1.0, SVG Export Plug-In . SVG Version: 6.00 Build 0)  -->
<svg version="1.1" id="Capa_1" xmlns="http://www.w3.org/2000/svg" xmlns:xlink="http://www.w3.org/1999/xlink" x="0px" y="0px"
	 viewBox="0 0 683 768" style="enable-background:new 0 0 683 768;" xml:space="preserve">
<style type="text/css">
	.st0{fill:#002E6D;}
	.st1{fill:#FFFFFF;}
</style>
<g>
	<g>
		<g>
			<g>
				<path class="st1" d="M588.2,649.27H94.8c-11.07,0-20.08-9-20.08-20.08V138.82c0-11.08,9.01-20.09,20.08-20.09h493.4
					c11.09,0,20.08,9.01,20.08,20.09v490.37C608.28,640.26,599.29,649.27,588.2,649.27z M94.8,130.2c-4.75,0-8.61,3.86-8.61,8.62
					v490.37c0,4.74,3.86,8.61,8.61,8.61h493.4c4.75,0,8.61-3.87,8.61-8.61V138.82c0-4.75-3.86-8.62-8.61-8.62H94.8z"/>
			</g>
			<g>
				<path class="st1" d="M210.97,539.89v-31.64h8.94c1.74,0,3.32,0.23,4.75,0.7c1.43,0.46,2.65,1.13,3.65,2
					c1,0.87,1.77,1.94,2.32,3.21c0.55,1.27,0.83,2.71,0.83,4.3c0,0.87-0.09,1.74-0.26,2.6c-0.17,0.87-0.45,1.71-0.83,2.52
					c-0.38,0.81-0.87,1.56-1.48,2.24c-0.61,0.68-1.33,1.27-2.17,1.76c0.64,1.01,1.26,2,1.87,2.97c0.61,0.97,1.22,1.95,1.84,2.93
					c0.62,0.98,1.27,2,1.93,3.04c0.67,1.04,1.39,2.17,2.17,3.39h-6.38c-1.3-2.03-2.53-3.94-3.69-5.75
					c-1.16-1.81-2.27-3.52-3.34-5.14h-0.43h-4.43v10.9H210.97z M216.27,524h4.25c1.1,0,2.01-0.19,2.74-0.56
					c0.72-0.38,1.3-0.83,1.74-1.37c0.43-0.54,0.74-1.11,0.91-1.74c0.17-0.62,0.26-1.19,0.26-1.71c0-0.49-0.08-1.05-0.24-1.67
					c-0.16-0.62-0.45-1.21-0.87-1.76c-0.42-0.55-0.99-1.01-1.71-1.39c-0.72-0.38-1.65-0.56-2.78-0.56h-4.3V524z"/>
				<path class="st1" d="M238.58,539.89v-31.64h21.01v4.82h-15.71v8.51h13.98v4.95h-13.98v8.42h16.32v4.95H238.58z"/>
				<path class="st1" d="M265.45,539.89v-31.64h5.29v26.61h15.37v5.04H265.45z"/>
				<path class="st1" d="M309.85,539.89c-0.09-0.2-0.24-0.56-0.46-1.09c-0.22-0.52-0.49-1.16-0.8-1.91
					c-0.32-0.75-0.67-1.58-1.04-2.5c-0.38-0.91-0.77-1.86-1.17-2.84h-10.9l-3.47,8.33h-5.25c0.12-0.26,0.39-0.9,0.83-1.93
					c0.43-1.03,0.98-2.3,1.63-3.82c0.65-1.52,1.37-3.21,2.17-5.08c0.79-1.87,1.61-3.77,2.45-5.71c0.84-1.94,1.66-3.84,2.45-5.71
					c0.79-1.87,1.52-3.56,2.17-5.08c0.65-1.52,1.19-2.79,1.63-3.82c0.43-1.03,0.71-1.67,0.82-1.93c0.12,0.26,0.4,0.9,0.85,1.93
					c0.45,1.03,1,2.3,1.65,3.82c0.65,1.52,1.37,3.21,2.17,5.08c0.79,1.87,1.61,3.77,2.45,5.71c0.84,1.94,1.66,3.84,2.45,5.71
					s1.52,3.56,2.17,5.08c0.65,1.52,1.19,2.79,1.63,3.82c0.43,1.03,0.71,1.67,0.82,1.93H309.85z M297.31,527.08h7.21l-3.13-7.55
					c-0.03-0.03-0.1-0.22-0.22-0.59c-0.12-0.36-0.2-0.69-0.26-0.98c-0.06,0.29-0.14,0.62-0.26,0.98c-0.12,0.36-0.17,0.56-0.17,0.59
					L297.31,527.08z"/>
				<path class="st1" d="M341.32,537.55c-0.35,0.23-0.83,0.51-1.45,0.82c-0.62,0.32-1.36,0.62-2.21,0.89
					c-0.85,0.28-1.82,0.51-2.89,0.7c-1.07,0.19-2.21,0.28-3.43,0.28c-2.49,0-4.72-0.43-6.68-1.28c-1.97-0.85-3.63-2-4.99-3.45
					c-1.36-1.45-2.4-3.14-3.12-5.08c-0.72-1.94-1.09-3.98-1.09-6.12c0-2.37,0.43-4.56,1.3-6.58c0.87-2.01,2.05-3.75,3.54-5.21
					c1.49-1.46,3.23-2.6,5.21-3.41c1.98-0.81,4.1-1.21,6.36-1.21c0.87,0,1.74,0.07,2.63,0.2c0.88,0.13,1.71,0.3,2.5,0.5
					c0.78,0.2,1.47,0.43,2.06,0.69c0.59,0.26,1.02,0.54,1.28,0.83c-0.26,0.41-0.46,0.74-0.61,1c-0.14,0.26-0.3,0.53-0.46,0.8
					c-0.16,0.28-0.33,0.59-0.52,0.93c-0.19,0.35-0.46,0.83-0.8,1.43c-0.35-0.23-0.77-0.43-1.26-0.61c-0.49-0.17-1.01-0.31-1.54-0.41
					c-0.54-0.1-1.08-0.18-1.63-0.24c-0.55-0.06-1.04-0.09-1.48-0.09c-1.62,0-3.12,0.3-4.49,0.91c-1.38,0.61-2.56,1.41-3.56,2.41
					c-1,1-1.78,2.16-2.34,3.5c-0.56,1.33-0.85,2.71-0.85,4.12c0,1.39,0.27,2.74,0.8,4.06c0.54,1.32,1.29,2.48,2.26,3.49
					c0.97,1.01,2.12,1.83,3.45,2.45c1.33,0.62,2.81,0.93,4.43,0.93c0.93,0,1.82-0.09,2.69-0.28c0.87-0.19,1.63-0.4,2.3-0.63
					c0.66-0.23,1.21-0.46,1.63-0.69c0.42-0.23,0.64-0.39,0.67-0.48L341.32,537.55z"/>
				<path class="st1" d="M345.27,508.25h5.34v31.64h-5.34V508.25z"/>
				<path class="st1" d="M355.82,524.13c0-2.2,0.43-4.28,1.28-6.25c0.85-1.97,2.01-3.69,3.47-5.16c1.46-1.48,3.17-2.65,5.12-3.52
					c1.95-0.87,4.04-1.3,6.27-1.3c2.2,0,4.28,0.43,6.25,1.3c1.97,0.87,3.69,2.04,5.17,3.52c1.48,1.48,2.64,3.2,3.49,5.16
					c0.85,1.97,1.28,4.05,1.28,6.25c0,2.23-0.43,4.32-1.28,6.27c-0.85,1.95-2.02,3.66-3.49,5.12c-1.48,1.46-3.2,2.61-5.17,3.45
					c-1.97,0.84-4.05,1.26-6.25,1.26c-2.23,0-4.32-0.42-6.27-1.26c-1.95-0.84-3.66-1.99-5.12-3.45c-1.46-1.46-2.62-3.17-3.47-5.12
					C356.25,528.45,355.82,526.36,355.82,524.13z M361.16,524.13c0,1.53,0.28,2.97,0.85,4.32c0.56,1.35,1.35,2.52,2.34,3.52
					c1,1,2.16,1.79,3.47,2.37c1.32,0.58,2.74,0.87,4.28,0.87c1.48,0,2.87-0.29,4.19-0.87c1.32-0.58,2.46-1.37,3.43-2.37
					c0.97-1,1.74-2.17,2.3-3.52c0.56-1.35,0.85-2.79,0.85-4.32c0-1.53-0.29-2.97-0.87-4.32c-0.58-1.35-1.36-2.52-2.34-3.54
					c-0.98-1.01-2.13-1.81-3.45-2.39c-1.32-0.58-2.73-0.87-4.23-0.87c-1.5,0-2.92,0.29-4.23,0.87c-1.32,0.58-2.46,1.38-3.43,2.39
					c-0.97,1.01-1.74,2.19-2.3,3.54C361.44,521.16,361.16,522.6,361.16,524.13z"/>
				<path class="st1" d="M421.32,508.25v33.12c-0.2-0.26-0.65-0.74-1.35-1.43c-0.69-0.69-1.55-1.53-2.56-2.5
					c-1.01-0.97-2.13-2.04-3.36-3.21c-1.23-1.17-2.48-2.36-3.75-3.56c-1.27-1.2-2.52-2.38-3.73-3.54c-1.21-1.16-2.32-2.22-3.32-3.19
					c-1-0.97-1.84-1.79-2.52-2.47c-0.68-0.68-1.12-1.15-1.32-1.41c-0.03-0.06-0.15-0.21-0.35-0.46c-0.2-0.25-0.38-0.47-0.52-0.67
					l0.13,1.39v19.58h-5.29v-33.08c0.2,0.26,0.65,0.73,1.35,1.41c0.69,0.68,1.55,1.5,2.56,2.45c1.01,0.96,2.13,2,3.36,3.13
					c1.23,1.13,2.48,2.28,3.75,3.45c1.27,1.17,2.52,2.33,3.73,3.47c1.22,1.14,2.33,2.18,3.34,3.12c1.01,0.94,1.86,1.74,2.54,2.41
					c0.68,0.67,1.12,1.13,1.32,1.39l0.82,1.22l-0.13-1.48v-19.14H421.32z"/>
				<path class="st1" d="M428.61,539.89v-31.64h21.01v4.82h-15.71v8.51h13.98v4.95h-13.98v8.42h16.32v4.95H428.61z"/>
				<path class="st1" d="M474.15,510.03l-1.91,4.34c-1.22-0.43-2.42-0.78-3.6-1.04c-1.19-0.26-2.29-0.39-3.3-0.39
					c-1.77,0-3.16,0.35-4.19,1.04c-1.03,0.69-1.54,1.58-1.54,2.65c0,0.93,0.38,1.68,1.15,2.26c0.77,0.58,1.73,1.1,2.89,1.56
					c1.16,0.46,2.41,0.93,3.75,1.41c1.35,0.48,2.6,1.09,3.75,1.84c1.16,0.75,2.12,1.71,2.89,2.87c0.77,1.16,1.15,2.63,1.15,4.43
					c0,1.39-0.25,2.65-0.76,3.78c-0.51,1.13-1.27,2.1-2.28,2.91c-1.01,0.81-2.29,1.44-3.84,1.89c-1.55,0.45-3.36,0.67-5.45,0.67
					c-1.27,0-2.43-0.09-3.47-0.26c-1.04-0.17-1.97-0.39-2.8-0.65c-0.82-0.26-1.56-0.54-2.19-0.85c-0.64-0.3-1.19-0.6-1.65-0.89
					l2.3-4.64c1.22,0.67,2.52,1.18,3.91,1.54c1.39,0.36,2.62,0.54,3.69,0.54c0.52,0,1.19-0.06,2.02-0.17
					c0.82-0.12,1.63-0.33,2.41-0.65c0.78-0.32,1.45-0.75,2.02-1.3c0.56-0.55,0.85-1.26,0.85-2.13c0-1.01-0.38-1.84-1.15-2.5
					c-0.77-0.65-1.73-1.23-2.89-1.74c-1.16-0.51-2.41-1-3.75-1.5c-1.35-0.49-2.6-1.08-3.75-1.76c-1.16-0.68-2.12-1.52-2.89-2.52
					c-0.77-1-1.15-2.26-1.15-3.8c0-1.1,0.22-2.18,0.65-3.23c0.43-1.06,1.09-2,1.97-2.84c0.88-0.84,1.98-1.52,3.3-2.04
					c1.32-0.52,2.87-0.78,4.67-0.78c1.13,0,2.22,0.09,3.28,0.28c1.06,0.19,2,0.4,2.84,0.63c0.84,0.23,1.53,0.46,2.08,0.67
					S474.03,510,474.15,510.03z"/>
				<path class="st1" d="M143.02,560.34h5.34v31.64h-5.34V560.34z"/>
				<path class="st1" d="M183.6,560.34v33.12c-0.2-0.26-0.65-0.74-1.35-1.43c-0.69-0.69-1.55-1.53-2.56-2.5
					c-1.01-0.97-2.13-2.04-3.36-3.21c-1.23-1.17-2.48-2.36-3.75-3.56c-1.27-1.2-2.52-2.38-3.73-3.54c-1.21-1.16-2.32-2.22-3.32-3.19
					c-1-0.97-1.84-1.79-2.52-2.47c-0.68-0.68-1.12-1.15-1.32-1.41c-0.03-0.06-0.15-0.21-0.35-0.46c-0.2-0.25-0.38-0.47-0.52-0.67
					l0.13,1.39v19.58h-5.29V558.9c0.2,0.26,0.65,0.73,1.35,1.41c0.69,0.68,1.55,1.5,2.56,2.45c1.01,0.96,2.13,2,3.36,3.12
					c1.23,1.13,2.48,2.28,3.75,3.45c1.27,1.17,2.52,2.33,3.73,3.47c1.22,1.14,2.33,2.18,3.34,3.12c1.01,0.94,1.86,1.74,2.54,2.41
					c0.68,0.67,1.12,1.13,1.32,1.39l0.82,1.22l-0.13-1.48v-19.14H183.6z"/>
				<path class="st1" d="M209.87,560.34v5.08h-7.81v26.57h-5.34v-26.57h-7.64v-5.08H209.87z"/>
				<path class="st1" d="M215.33,591.98v-31.64h21.01v4.82h-15.71v8.51h13.98v4.95h-13.98v8.42h16.32v4.95H215.33z"/>
				<path class="st1" d="M242.2,591.98v-31.64h8.94c1.74,0,3.32,0.23,4.75,0.7c1.43,0.46,2.65,1.13,3.65,2
					c1,0.87,1.77,1.94,2.32,3.21c0.55,1.27,0.83,2.71,0.83,4.3c0,0.87-0.09,1.74-0.26,2.6c-0.17,0.87-0.45,1.71-0.83,2.52
					c-0.38,0.81-0.87,1.56-1.48,2.24c-0.61,0.68-1.33,1.27-2.17,1.76c0.64,1.01,1.26,2,1.87,2.97c0.61,0.97,1.22,1.95,1.84,2.93
					c0.62,0.98,1.27,2,1.93,3.04c0.67,1.04,1.39,2.17,2.17,3.39h-6.38c-1.3-2.03-2.53-3.94-3.69-5.75
					c-1.16-1.81-2.27-3.52-3.34-5.14h-0.43h-4.43v10.9H242.2z M247.5,576.09h4.25c1.1,0,2.01-0.19,2.74-0.56
					c0.72-0.38,1.3-0.83,1.74-1.37c0.43-0.54,0.74-1.11,0.91-1.74c0.17-0.62,0.26-1.19,0.26-1.71c0-0.49-0.08-1.05-0.24-1.67
					c-0.16-0.62-0.45-1.21-0.87-1.76c-0.42-0.55-0.99-1.01-1.71-1.39c-0.72-0.38-1.65-0.56-2.78-0.56h-4.3V576.09z"/>
				<path class="st1" d="M297.76,560.34v33.12c-0.2-0.26-0.65-0.74-1.35-1.43c-0.69-0.69-1.55-1.53-2.56-2.5
					c-1.01-0.97-2.13-2.04-3.36-3.21c-1.23-1.17-2.48-2.36-3.75-3.56c-1.27-1.2-2.52-2.38-3.73-3.54c-1.21-1.16-2.32-2.22-3.32-3.19
					c-1-0.97-1.84-1.79-2.52-2.47c-0.68-0.68-1.12-1.15-1.32-1.41c-0.03-0.06-0.15-0.21-0.35-0.46c-0.2-0.25-0.38-0.47-0.52-0.67
					l0.13,1.39v19.58h-5.29V558.9c0.2,0.26,0.65,0.73,1.35,1.41c0.69,0.68,1.55,1.5,2.56,2.45c1.01,0.96,2.13,2,3.36,3.12
					c1.23,1.13,2.48,2.28,3.75,3.45c1.27,1.17,2.52,2.33,3.73,3.47c1.22,1.14,2.33,2.18,3.34,3.12c1.01,0.94,1.86,1.74,2.54,2.41
					c0.68,0.67,1.12,1.13,1.32,1.39l0.82,1.22l-0.13-1.48v-19.14H297.76z"/>
				<path class="st1" d="M324.5,591.98c-0.09-0.2-0.24-0.56-0.46-1.08c-0.22-0.52-0.49-1.16-0.8-1.91c-0.32-0.75-0.67-1.58-1.04-2.5
					c-0.38-0.91-0.77-1.86-1.17-2.84h-10.9l-3.47,8.33h-5.25c0.12-0.26,0.39-0.9,0.83-1.93c0.43-1.03,0.98-2.3,1.63-3.82
					c0.65-1.52,1.37-3.21,2.17-5.08c0.79-1.87,1.61-3.77,2.45-5.71c0.84-1.94,1.66-3.84,2.45-5.71c0.79-1.87,1.52-3.56,2.17-5.08
					c0.65-1.52,1.19-2.79,1.63-3.82c0.43-1.03,0.71-1.67,0.82-1.93c0.12,0.26,0.4,0.9,0.85,1.93c0.45,1.03,1,2.3,1.65,3.82
					c0.65,1.52,1.37,3.21,2.17,5.08c0.79,1.87,1.61,3.77,2.45,5.71c0.84,1.94,1.66,3.84,2.45,5.71s1.52,3.56,2.17,5.08
					c0.65,1.52,1.19,2.79,1.63,3.82c0.43,1.03,0.71,1.67,0.82,1.93H324.5z M311.96,579.17h7.21l-3.13-7.55
					c-0.03-0.03-0.1-0.22-0.22-0.59c-0.12-0.36-0.2-0.69-0.26-0.98c-0.06,0.29-0.14,0.62-0.26,0.98c-0.12,0.36-0.17,0.56-0.17,0.59
					L311.96,579.17z"/>
				<path class="st1" d="M355.97,589.64c-0.35,0.23-0.83,0.51-1.45,0.82c-0.62,0.32-1.36,0.62-2.21,0.89
					c-0.85,0.28-1.82,0.51-2.89,0.7c-1.07,0.19-2.21,0.28-3.43,0.28c-2.49,0-4.72-0.43-6.68-1.28c-1.97-0.85-3.63-2-4.99-3.45
					c-1.36-1.45-2.4-3.14-3.12-5.08c-0.72-1.94-1.08-3.98-1.08-6.12c0-2.37,0.43-4.56,1.3-6.58c0.87-2.01,2.05-3.75,3.54-5.21
					c1.49-1.46,3.23-2.6,5.21-3.41c1.98-0.81,4.1-1.21,6.36-1.21c0.87,0,1.74,0.07,2.63,0.2c0.88,0.13,1.71,0.3,2.5,0.5
					c0.78,0.2,1.47,0.43,2.06,0.69c0.59,0.26,1.02,0.54,1.28,0.83c-0.26,0.41-0.46,0.74-0.61,1c-0.14,0.26-0.3,0.53-0.46,0.8
					c-0.16,0.28-0.33,0.59-0.52,0.93c-0.19,0.35-0.46,0.83-0.8,1.43c-0.35-0.23-0.77-0.43-1.26-0.61c-0.49-0.17-1.01-0.31-1.54-0.41
					c-0.54-0.1-1.08-0.18-1.63-0.24c-0.55-0.06-1.04-0.09-1.48-0.09c-1.62,0-3.12,0.3-4.49,0.91c-1.38,0.61-2.56,1.41-3.56,2.41
					c-1,1-1.78,2.16-2.34,3.5c-0.56,1.33-0.85,2.71-0.85,4.12c0,1.39,0.27,2.74,0.8,4.06c0.54,1.32,1.29,2.48,2.26,3.49
					c0.97,1.01,2.12,1.83,3.45,2.45c1.33,0.62,2.81,0.93,4.43,0.93c0.93,0,1.82-0.09,2.69-0.28c0.87-0.19,1.63-0.4,2.3-0.63
					c0.67-0.23,1.21-0.46,1.63-0.69c0.42-0.23,0.64-0.39,0.67-0.48L355.97,589.64z"/>
				<path class="st1" d="M359.92,560.34h5.34v31.64h-5.34V560.34z"/>
				<path class="st1" d="M370.47,576.22c0-2.2,0.43-4.28,1.28-6.25c0.85-1.97,2.01-3.69,3.47-5.16c1.46-1.48,3.17-2.65,5.12-3.52
					c1.95-0.87,4.04-1.3,6.27-1.3c2.2,0,4.28,0.43,6.25,1.3c1.97,0.87,3.69,2.04,5.17,3.52c1.48,1.48,2.64,3.2,3.49,5.16
					c0.85,1.97,1.28,4.05,1.28,6.25c0,2.23-0.43,4.32-1.28,6.27c-0.85,1.95-2.02,3.66-3.49,5.12c-1.48,1.46-3.2,2.61-5.17,3.45
					c-1.97,0.84-4.05,1.26-6.25,1.26c-2.23,0-4.32-0.42-6.27-1.26c-1.95-0.84-3.66-1.99-5.12-3.45c-1.46-1.46-2.62-3.17-3.47-5.12
					C370.89,580.54,370.47,578.45,370.47,576.22z M375.81,576.22c0,1.53,0.28,2.97,0.85,4.32c0.56,1.35,1.35,2.52,2.34,3.52
					c1,1,2.16,1.79,3.47,2.37c1.32,0.58,2.74,0.87,4.28,0.87c1.48,0,2.87-0.29,4.19-0.87c1.32-0.58,2.46-1.37,3.43-2.37
					c0.97-1,1.74-2.17,2.3-3.52c0.56-1.35,0.85-2.79,0.85-4.32c0-1.53-0.29-2.97-0.87-4.32c-0.58-1.35-1.36-2.52-2.34-3.54
					c-0.98-1.01-2.13-1.81-3.45-2.39c-1.32-0.58-2.73-0.87-4.23-0.87c-1.5,0-2.92,0.29-4.23,0.87s-2.46,1.38-3.43,2.39
					c-0.97,1.01-1.74,2.19-2.3,3.54C376.09,573.25,375.81,574.69,375.81,576.22z"/>
				<path class="st1" d="M435.97,560.34v33.12c-0.2-0.26-0.65-0.74-1.35-1.43c-0.69-0.69-1.55-1.53-2.56-2.5
					c-1.01-0.97-2.13-2.04-3.36-3.21c-1.23-1.17-2.48-2.36-3.75-3.56c-1.27-1.2-2.52-2.38-3.73-3.54c-1.21-1.16-2.32-2.22-3.32-3.19
					c-1-0.97-1.84-1.79-2.52-2.47c-0.68-0.68-1.12-1.15-1.32-1.41c-0.03-0.06-0.15-0.21-0.35-0.46c-0.2-0.25-0.38-0.47-0.52-0.67
					l0.13,1.39v19.58h-5.29V558.9c0.2,0.26,0.65,0.73,1.35,1.41c0.69,0.68,1.55,1.5,2.56,2.45c1.01,0.96,2.13,2,3.36,3.12
					c1.23,1.13,2.48,2.28,3.75,3.45c1.27,1.17,2.52,2.33,3.73,3.47c1.22,1.14,2.33,2.18,3.34,3.12c1.01,0.94,1.86,1.74,2.54,2.41
					c0.68,0.67,1.12,1.13,1.32,1.39l0.82,1.22l-0.13-1.48v-19.14H435.97z"/>
				<path class="st1" d="M462.71,591.98c-0.09-0.2-0.24-0.56-0.46-1.08c-0.22-0.52-0.49-1.16-0.8-1.91
					c-0.32-0.75-0.67-1.58-1.04-2.5c-0.38-0.91-0.77-1.86-1.17-2.84h-10.9l-3.47,8.33h-5.25c0.12-0.26,0.39-0.9,0.83-1.93
					c0.43-1.03,0.98-2.3,1.63-3.82c0.65-1.52,1.37-3.21,2.17-5.08c0.79-1.87,1.61-3.77,2.45-5.71c0.84-1.94,1.66-3.84,2.45-5.71
					c0.79-1.87,1.52-3.56,2.17-5.08c0.65-1.52,1.19-2.79,1.63-3.82c0.43-1.03,0.71-1.67,0.82-1.93c0.12,0.26,0.4,0.9,0.85,1.93
					c0.45,1.03,1,2.3,1.65,3.82c0.65,1.52,1.37,3.21,2.17,5.08c0.79,1.87,1.61,3.77,2.45,5.71c0.84,1.94,1.66,3.84,2.45,5.71
					s1.52,3.56,2.17,5.08c0.65,1.52,1.19,2.79,1.63,3.82c0.43,1.03,0.71,1.67,0.82,1.93H462.71z M450.16,579.17h7.21l-3.13-7.55
					c-0.03-0.03-0.1-0.22-0.22-0.59c-0.12-0.36-0.2-0.69-0.26-0.98c-0.06,0.29-0.14,0.62-0.26,0.98c-0.12,0.36-0.17,0.56-0.17,0.59
					L450.16,579.17z"/>
				<path class="st1" d="M471.61,591.98v-31.64h5.29v26.61h15.37v5.04H471.61z"/>
				<path class="st1" d="M496.56,591.98v-31.64h21.01v4.82h-15.71v8.51h13.98v4.95h-13.98v8.42h16.32v4.95H496.56z"/>
				<path class="st1" d="M542.1,562.12l-1.91,4.34c-1.22-0.43-2.42-0.78-3.6-1.04c-1.19-0.26-2.29-0.39-3.3-0.39
					c-1.77,0-3.16,0.35-4.19,1.04c-1.03,0.69-1.54,1.58-1.54,2.65c0,0.93,0.38,1.68,1.15,2.26s1.73,1.1,2.89,1.56
					c1.16,0.46,2.41,0.93,3.75,1.41c1.35,0.48,2.6,1.09,3.75,1.84c1.16,0.75,2.12,1.71,2.89,2.87c0.77,1.16,1.15,2.63,1.15,4.43
					c0,1.39-0.25,2.65-0.76,3.78c-0.51,1.13-1.27,2.1-2.28,2.91c-1.01,0.81-2.29,1.44-3.84,1.89c-1.55,0.45-3.36,0.67-5.45,0.67
					c-1.27,0-2.43-0.09-3.47-0.26c-1.04-0.17-1.97-0.39-2.8-0.65c-0.82-0.26-1.56-0.54-2.19-0.85c-0.64-0.3-1.19-0.6-1.65-0.89
					l2.3-4.64c1.22,0.67,2.52,1.18,3.91,1.54c1.39,0.36,2.62,0.54,3.69,0.54c0.52,0,1.19-0.06,2.02-0.17
					c0.82-0.12,1.63-0.33,2.41-0.65c0.78-0.32,1.45-0.75,2.02-1.3c0.56-0.55,0.85-1.26,0.85-2.13c0-1.01-0.38-1.84-1.15-2.5
					c-0.77-0.65-1.73-1.23-2.89-1.74c-1.16-0.51-2.41-1-3.75-1.5c-1.35-0.49-2.6-1.08-3.75-1.76c-1.16-0.68-2.12-1.52-2.89-2.52
					c-0.77-1-1.15-2.26-1.15-3.8c0-1.1,0.22-2.18,0.65-3.23c0.43-1.06,1.09-2,1.97-2.84c0.88-0.84,1.98-1.52,3.3-2.04
					c1.32-0.52,2.87-0.78,4.67-0.78c1.13,0,2.22,0.09,3.28,0.28c1.06,0.19,2,0.4,2.84,0.63c0.84,0.23,1.53,0.46,2.08,0.67
					C541.65,561.96,541.98,562.09,542.1,562.12z"/>
			</g>
		</g>
		<g>
			<g>
				<g>
					<path class="st1" d="M453.6,254.44c0,0-1.21-3.37-4.25-4.03c-3.04-0.66-7.95,0.79-7.95,0.79s1.7,3.93,5.78,4.97
						C451.26,257.22,453.6,254.44,453.6,254.44z"/>
					<path class="st1" d="M450.81,247.61c0,0,0.42-3.31-1.87-5.17c-2.3-1.86-7.09-2.78-7.09-2.78s-0.24,3.99,2.77,6.61
						C447.63,248.89,450.81,247.61,450.81,247.61z"/>
					<path class="st1" d="M452.38,231.97c0,0,1.6-1.96,0.81-4.08c-0.78-2.12-3.61-4.63-3.61-4.63s-1.75,2.47-0.79,5.37
						C449.76,231.52,452.38,231.97,452.38,231.97z"/>
					<path class="st1" d="M454.78,222.08c0,0,1.23-1.83,0.39-3.6c-0.84-1.77-3.47-3.73-3.47-3.73s-1.32,2.28-0.27,4.71
						C452.48,221.9,454.78,222.08,454.78,222.08z"/>
					<path class="st1" d="M454.46,255.37c0,0-1.95-3.1-0.55-5.89c1.41-2.79,5.73-5.69,5.73-5.69s2.09,3.84,0.33,7.69
						C458.21,255.32,454.46,255.37,454.46,255.37z"/>
					<path class="st1" d="M451.45,246.35c0,0-1.46-3.01,0.1-5.39c1.57-2.38,5.8-4.56,5.8-4.56s1.52,3.7-0.49,6.99
						C454.87,246.69,451.45,246.35,451.45,246.35z"/>
					<path class="st1" d="M453.84,228.28c0,0-0.62-2.25,0.77-3.68c1.39-1.43,4.6-2.38,4.6-2.38s0.58,2.73-1.23,4.73
						C456.16,228.96,453.84,228.28,453.84,228.28z"/>
					<path class="st1" d="M456.14,220.01c0,0-0.94-2.14,0.23-3.76c1.16-1.62,4.19-3.02,4.19-3.02s0.96,2.63-0.54,4.87
						C458.52,220.35,456.14,220.01,456.14,220.01z"/>
					<path class="st1" d="M455.86,212.92c0,0,0.42-1.89-0.81-3.09c-1.23-1.2-3.97-1.99-3.97-1.99s-0.36,2.29,1.26,3.97
						C453.94,213.49,455.86,212.92,455.86,212.92z"/>
					<path class="st1" d="M456.16,209.89c0,0-0.9-1.52-0.18-2.85c0.72-1.32,2.84-2.66,2.84-2.66s0.96,1.88,0.05,3.71
						C457.96,209.92,456.16,209.89,456.16,209.89z"/>
					<path class="st1" d="M453.32,202.42c0,0-2.14-0.07-3.61-1.92c-1.47-1.85-1.71-4.81-1.71-4.81s2.88,0.94,4.26,2.69
						C453.65,200.13,453.32,202.42,453.32,202.42z"/>
					<g>
						<path class="st1" d="M460.19,258.27c-2.41-0.12-7.4-1.9-9.04-7.77c-1.73-6.2-0.25-12.26,2.21-22.29
							c0.29-1.19,0.6-2.45,0.92-3.76c2.82-11.7-2.59-22.41-2.65-22.51l2.07-1.07c0.24,0.47,5.87,11.56,2.84,24.13
							c-0.32,1.32-0.63,2.58-0.92,3.77c-2.37,9.67-3.8,15.5-2.23,21.11c1.59,5.69,6.7,6.06,6.92,6.08L460.19,258.27z"/>
					</g>
				</g>
				<path class="st1" d="M309.86,321.6c1.5,0.96,3.14,1.6,4.64,2.42c-7.46,5.2-15.48,10-23.63,14.39c-0.68-0.11-1.38-0.21-2.08-0.3
					c-73.53-10.15-24.61-123.44-24.61-123.44s8.5,29.07,26.38,51.3C285.93,284.56,285.93,306.26,309.86,321.6z"/>
				<g>
					<path class="st1" d="M352.69,406.35c-56.87,0.68-134.85-33.8-134.85-33.8s40.62-11.43,78.46-31.82
						c8.15-4.39,16.17-9.19,23.63-14.39c11.95,6.45,20.99,13.31,27.78,20.19c0.36,0.36,0.71,0.72,1.05,1.08
						c0.7,0.72,1.36,1.45,2.01,2.18c0.64,0.73,1.25,1.45,1.85,2.16c0.3,0.36,0.6,0.73,0.88,1.09c0.57,0.72,1.12,1.44,1.65,2.15
						c4.24,5.75,7.09,11.39,8.95,16.69c0.12,0.33,0.23,0.67,0.34,0.99c2.41,7.23,3.01,13.79,2.86,19.06
						c-0.01,0.24-0.02,0.49-0.02,0.73c-0.03,0.72-0.08,1.41-0.13,2.08c-0.04,0.45-0.09,0.88-0.12,1.3
						C366.52,402.34,363.42,406.22,352.69,406.35z"/>
				</g>
				<path class="st1" d="M456.18,232.49c0,0-21.27-6.55-30.14,72.41c-1.62,14.45-0.02,23.23-6.82,41.65
					c0-17.05-4.73-31.5-42.13-58.82c-4.32-3.16-8.16-6.58-11.57-10.17c0.5-1.48,0.93-2.97,1.28-4.48
					C383.41,201.15,456.18,232.49,456.18,232.49z"/>
				<g>
					<path class="st1" d="M413.4,362.24c0,0,0,0.02-0.01,0.02c-1.8,4.89-3.97,9.61-6.57,14.03c-10.21,15.33-27.04,24.61-32.91,25.3
						c-1.44,0.18-2.76-0.48-2.45-1.89c0.31-1.39,0.63-3.14,0.84-5.21c1.59-14.69-1.64-45.18-47.1-69.71
						c-1.5-0.82-3.04-1.62-4.64-2.42c-27.19-13.58-29.41-36.96-22.53-59.85c9.91-33.01,38.71-64.98,38.71-64.98
						s-5.89,49.97,26.29,83.89c3.41,3.59,7.25,7.01,11.57,10.17C412.01,318.93,418.69,343.37,413.4,362.24z"/>
					<path class="st1" d="M336.26,198.7c-4.68,5.4-28.99,34.43-37.84,63.94c-8.36,27.83-0.85,47.81,22.33,59.39
						c1.73,0.86,3.25,1.66,4.65,2.42c45.11,24.34,49,54.36,47.3,70.09c-0.19,1.8-0.47,3.57-0.85,5.26c-0.09,0.39-0.02,0.72,0.2,0.96
						c0.35,0.38,1.04,0.56,1.82,0.46c6.02-0.72,22.54-9.98,32.63-25.13c2.44-4.16,4.64-8.86,6.53-13.95
						c2.92-10.39,1.79-21.11-3.36-31.87c-6.13-12.81-18-25.72-35.28-38.34c-4.19-3.06-8.1-6.5-11.62-10.22
						C333.59,250.95,335.64,206.52,336.26,198.7z"/>
				</g>
			</g>
			<path class="st1" d="M119.13,502.14c7.59-6.42,15.83-12.07,24.24-17.4c8.43-5.33,17.16-10.17,26.04-14.72
				c8.92-4.49,18.03-8.59,27.29-12.37c9.26-3.78,18.72-7.06,28.26-10.05c4.78-1.49,9.58-2.89,14.42-4.19
				c4.83-1.3,9.71-2.46,14.59-3.56c9.78-2.18,19.64-3.99,29.56-5.39c9.92-1.41,19.91-2.33,29.92-2.95
				c10.01-0.63,20.04-0.8,30.06-0.64c5.01,0.05,10.02,0.35,15.03,0.59c5,0.36,10,0.67,14.99,1.2c4.99,0.42,9.96,1.1,14.93,1.69
				l7.43,1.08c1.24,0.19,2.48,0.34,3.71,0.56l3.7,0.66c19.73,3.46,39.21,8.27,58.2,14.49c19.04,6.09,37.55,13.68,55.58,22.17
				c17.98,8.6,35.48,18.16,52.24,28.84c-35.22-18.37-71.77-34-109.65-45.08l-7.11-2.02c-2.37-0.68-4.77-1.25-7.15-1.88
				c-4.76-1.29-9.56-2.4-14.35-3.53c-9.61-2.14-19.27-4.1-29-5.56c-4.85-0.81-9.73-1.43-14.6-2.12c-4.89-0.54-9.76-1.18-14.67-1.56
				c-4.89-0.49-9.8-0.76-14.71-1.08c-4.91-0.2-9.82-0.45-14.73-0.49c-19.65-0.5-39.33,0.65-58.84,3.09
				c-19.53,2.37-38.83,6.42-57.82,11.63c-18.97,5.3-37.59,11.95-55.63,20c-4.51,2.01-8.99,4.09-13.43,6.27
				c-4.43,2.19-8.81,4.48-13.17,6.83c-4.35,2.36-8.65,4.82-12.88,7.4C127.36,496.59,123.18,499.27,119.13,502.14z"/>
		</g>
	</g>
</g>
</svg>
