<?xml version="1.0" encoding="utf-8"?>
<!-- Generator: Adobe Illustrator 27.1.0, SVG Export Plug-In . SVG Version: 6.00 Build 0)  -->
<svg version="1.1" id="Capa_1" xmlns="http://www.w3.org/2000/svg" xmlns:xlink="http://www.w3.org/1999/xlink" x="0px" y="0px"
	 viewBox="0 0 683 768" style="enable-background:new 0 0 683 768;" xml:space="preserve">
<style type="text/css">
	.st0{fill:#002E6D;}
	.st1{fill:#FFFFFF;}
</style>
<g>
	<g>
		<path class="st0" d="M590.71,651.97H92.29c-11.18,0-20.29-9.1-20.29-20.29V136.32c0-11.19,9.1-20.29,20.29-20.29h498.43
			c11.2,0,20.29,9.1,20.29,20.29v495.36C611,642.87,601.91,651.97,590.71,651.97z M92.29,127.62c-4.8,0-8.7,3.9-8.7,8.71v495.36
			c0,4.78,3.89,8.7,8.7,8.7h498.43c4.8,0,8.7-3.91,8.7-8.7V136.32c0-4.8-3.89-8.71-8.7-8.71H92.29z"/>
	</g>
	<g>
		<path class="st0" d="M202.17,562.72l-2.43,5.53c-1.55-0.55-3.08-1-4.59-1.33c-1.51-0.33-2.91-0.5-4.2-0.5
			c-2.25,0-4.03,0.44-5.33,1.33c-1.31,0.88-1.96,2.01-1.96,3.37c0,1.18,0.49,2.14,1.46,2.87c0.98,0.74,2.2,1.4,3.67,1.99
			c1.47,0.59,3.07,1.19,4.78,1.8c1.71,0.61,3.31,1.39,4.78,2.35c1.47,0.96,2.7,2.17,3.67,3.65c0.98,1.47,1.46,3.35,1.46,5.64
			c0,1.77-0.32,3.37-0.97,4.81c-0.64,1.44-1.61,2.67-2.9,3.7c-1.29,1.03-2.92,1.83-4.89,2.4c-1.97,0.57-4.28,0.86-6.93,0.86
			c-1.62,0-3.09-0.11-4.42-0.33c-1.33-0.22-2.51-0.5-3.56-0.83c-1.05-0.33-1.98-0.69-2.79-1.08c-0.81-0.39-1.51-0.76-2.1-1.13
			l2.93-5.91c1.55,0.85,3.21,1.5,4.97,1.96c1.77,0.46,3.33,0.69,4.7,0.69c0.66,0,1.52-0.07,2.57-0.22c1.05-0.15,2.07-0.42,3.07-0.83
			c0.99-0.41,1.85-0.96,2.57-1.66c0.72-0.7,1.08-1.6,1.08-2.71c0-1.29-0.49-2.35-1.46-3.18c-0.98-0.83-2.2-1.57-3.67-2.21
			c-1.47-0.64-3.07-1.28-4.78-1.91c-1.71-0.63-3.31-1.37-4.78-2.24c-1.47-0.87-2.7-1.93-3.67-3.21c-0.98-1.27-1.46-2.88-1.46-4.84
			c0-1.4,0.28-2.77,0.83-4.12c0.55-1.34,1.39-2.55,2.51-3.62c1.12-1.07,2.52-1.93,4.2-2.6c1.68-0.66,3.66-1,5.94-1
			c1.44,0,2.83,0.12,4.17,0.36c1.34,0.24,2.55,0.51,3.62,0.8c1.07,0.29,1.95,0.58,2.65,0.86
			C201.6,562.53,202.02,562.69,202.17,562.72z"/>
		<path class="st0" d="M207.31,580.68c0-2.8,0.54-5.45,1.63-7.96c1.09-2.5,2.56-4.7,4.42-6.58c1.86-1.88,4.03-3.37,6.52-4.48
			c2.49-1.1,5.15-1.66,7.98-1.66c2.8,0,5.45,0.55,7.96,1.66c2.5,1.11,4.7,2.6,6.58,4.48c1.88,1.88,3.36,4.07,4.45,6.58
			c1.09,2.5,1.63,5.16,1.63,7.96c0,2.84-0.54,5.5-1.63,7.98c-1.09,2.49-2.57,4.66-4.45,6.52c-1.88,1.86-4.07,3.32-6.58,4.39
			c-2.51,1.07-5.16,1.6-7.96,1.6c-2.84,0-5.5-0.53-7.98-1.6c-2.49-1.07-4.66-2.53-6.52-4.39c-1.86-1.86-3.33-4.03-4.42-6.52
			C207.85,586.18,207.31,583.52,207.31,580.68z M214.11,580.68c0,1.95,0.36,3.79,1.08,5.5c0.72,1.71,1.71,3.21,2.98,4.48
			c1.27,1.27,2.74,2.28,4.42,3.01c1.68,0.74,3.49,1.1,5.44,1.1c1.88,0,3.66-0.37,5.33-1.1c1.68-0.74,3.13-1.74,4.37-3.01
			c1.23-1.27,2.21-2.76,2.93-4.48c0.72-1.71,1.08-3.54,1.08-5.5c0-1.95-0.37-3.79-1.11-5.5c-0.74-1.71-1.73-3.21-2.98-4.5
			c-1.25-1.29-2.72-2.3-4.39-3.04c-1.68-0.74-3.47-1.1-5.39-1.1c-1.92,0-3.71,0.37-5.39,1.1c-1.68,0.74-3.13,1.75-4.37,3.04
			c-1.23,1.29-2.21,2.79-2.93,4.5C214.47,576.9,214.11,578.73,214.11,580.68z"/>
		<path class="st0" d="M285.44,597.75c-0.44,0.29-1.06,0.64-1.85,1.05c-0.79,0.41-1.73,0.78-2.82,1.13
			c-1.09,0.35-2.31,0.64-3.67,0.88c-1.36,0.24-2.82,0.36-4.37,0.36c-3.17,0-6-0.54-8.51-1.63c-2.51-1.09-4.62-2.55-6.35-4.39
			c-1.73-1.84-3.06-4-3.98-6.46c-0.92-2.47-1.38-5.06-1.38-7.79c0-3.02,0.55-5.81,1.66-8.37c1.11-2.56,2.61-4.77,4.5-6.63
			c1.9-1.86,4.11-3.31,6.63-4.34c2.52-1.03,5.22-1.55,8.09-1.55c1.11,0,2.22,0.08,3.34,0.25c1.12,0.16,2.18,0.38,3.18,0.63
			c0.99,0.26,1.87,0.55,2.62,0.88c0.75,0.33,1.3,0.68,1.63,1.05c-0.33,0.52-0.59,0.94-0.77,1.27c-0.18,0.33-0.38,0.67-0.58,1.02
			c-0.2,0.35-0.42,0.75-0.66,1.19c-0.24,0.44-0.58,1.05-1.02,1.82c-0.44-0.29-0.98-0.55-1.6-0.77c-0.63-0.22-1.28-0.4-1.96-0.52
			c-0.68-0.13-1.37-0.23-2.07-0.3c-0.7-0.07-1.33-0.11-1.88-0.11c-2.06,0-3.97,0.39-5.72,1.16c-1.75,0.77-3.26,1.79-4.53,3.07
			c-1.27,1.27-2.27,2.75-2.98,4.45c-0.72,1.69-1.08,3.44-1.08,5.25c0,1.77,0.34,3.49,1.02,5.17c0.68,1.68,1.64,3.16,2.87,4.45
			c1.23,1.29,2.7,2.33,4.39,3.12c1.69,0.79,3.57,1.19,5.64,1.19c1.18,0,2.32-0.12,3.43-0.36c1.11-0.24,2.08-0.51,2.93-0.8
			c0.85-0.29,1.54-0.59,2.07-0.88c0.53-0.29,0.82-0.5,0.86-0.61L285.44,597.75z"/>
		<path class="st0" d="M290.47,560.46h6.8v40.28h-6.8V560.46z"/>
		<path class="st0" d="M303.89,580.68c0-2.8,0.54-5.45,1.63-7.96c1.09-2.5,2.56-4.7,4.42-6.58c1.86-1.88,4.03-3.37,6.52-4.48
			c2.49-1.1,5.15-1.66,7.98-1.66c2.8,0,5.45,0.55,7.96,1.66c2.5,1.11,4.7,2.6,6.58,4.48c1.88,1.88,3.36,4.07,4.45,6.58
			c1.09,2.5,1.63,5.16,1.63,7.96c0,2.84-0.54,5.5-1.63,7.98c-1.09,2.49-2.57,4.66-4.45,6.52c-1.88,1.86-4.07,3.32-6.58,4.39
			c-2.51,1.07-5.16,1.6-7.96,1.6c-2.84,0-5.5-0.53-7.98-1.6c-2.49-1.07-4.66-2.53-6.52-4.39c-1.86-1.86-3.33-4.03-4.42-6.52
			C304.44,586.18,303.89,583.52,303.89,580.68z M310.69,580.68c0,1.95,0.36,3.79,1.08,5.5c0.72,1.71,1.71,3.21,2.98,4.48
			c1.27,1.27,2.74,2.28,4.42,3.01c1.68,0.74,3.49,1.1,5.44,1.1c1.88,0,3.66-0.37,5.33-1.1c1.68-0.74,3.13-1.74,4.37-3.01
			c1.23-1.27,2.21-2.76,2.93-4.48c0.72-1.71,1.08-3.54,1.08-5.5c0-1.95-0.37-3.79-1.11-5.5c-0.74-1.71-1.73-3.21-2.98-4.5
			c-1.25-1.29-2.72-2.3-4.39-3.04c-1.68-0.74-3.47-1.1-5.39-1.1c-1.92,0-3.71,0.37-5.39,1.1c-1.68,0.74-3.13,1.75-4.37,3.04
			c-1.23,1.29-2.21,2.79-2.93,4.5C311.05,576.9,310.69,578.73,310.69,580.68z"/>
		<path class="st0" d="M351.69,600.74v-40.28h6.74v33.87h19.56v6.41H351.69z"/>
		<path class="st0" d="M379.87,580.68c0-2.8,0.54-5.45,1.63-7.96c1.09-2.5,2.56-4.7,4.42-6.58c1.86-1.88,4.03-3.37,6.52-4.48
			c2.49-1.1,5.15-1.66,7.98-1.66c2.8,0,5.45,0.55,7.96,1.66c2.5,1.11,4.7,2.6,6.58,4.48c1.88,1.88,3.36,4.07,4.45,6.58
			c1.09,2.5,1.63,5.16,1.63,7.96c0,2.84-0.54,5.5-1.63,7.98c-1.09,2.49-2.57,4.66-4.45,6.52c-1.88,1.86-4.07,3.32-6.58,4.39
			c-2.51,1.07-5.16,1.6-7.96,1.6c-2.84,0-5.5-0.53-7.98-1.6c-2.49-1.07-4.66-2.53-6.52-4.39c-1.86-1.86-3.33-4.03-4.42-6.52
			C380.41,586.18,379.87,583.52,379.87,580.68z M386.67,580.68c0,1.95,0.36,3.79,1.08,5.5c0.72,1.71,1.71,3.21,2.98,4.48
			c1.27,1.27,2.74,2.28,4.42,3.01c1.68,0.74,3.49,1.1,5.44,1.1c1.88,0,3.66-0.37,5.33-1.1c1.68-0.74,3.13-1.74,4.37-3.01
			c1.23-1.27,2.21-2.76,2.93-4.48c0.72-1.71,1.08-3.54,1.08-5.5c0-1.95-0.37-3.79-1.11-5.5c-0.74-1.71-1.73-3.21-2.98-4.5
			c-1.25-1.29-2.72-2.3-4.39-3.04c-1.68-0.74-3.47-1.1-5.39-1.1c-1.92,0-3.71,0.37-5.39,1.1c-1.68,0.74-3.13,1.75-4.37,3.04
			c-1.23,1.29-2.21,2.79-2.93,4.5C387.02,576.9,386.67,578.73,386.67,580.68z"/>
		<path class="st0" d="M458.11,581.18v17.13c-1.55,0.92-3.42,1.63-5.61,2.13c-2.19,0.5-4.43,0.75-6.71,0.75
			c-3.17,0-6.03-0.5-8.59-1.49c-2.56-0.99-4.74-2.36-6.55-4.09c-1.8-1.73-3.19-3.79-4.14-6.19c-0.96-2.39-1.44-5.01-1.44-7.85
			c0-3.21,0.57-6.12,1.71-8.76c1.14-2.63,2.68-4.9,4.61-6.8c1.93-1.9,4.18-3.37,6.74-4.42c2.56-1.05,5.26-1.58,8.09-1.58
			c0.96,0,1.96,0.06,3.01,0.19c1.05,0.13,2.09,0.32,3.12,0.58c1.03,0.26,2.03,0.56,2.98,0.91c0.96,0.35,1.82,0.76,2.6,1.24
			l-3.32,5.53c-0.52-0.33-1.13-0.62-1.85-0.86c-0.72-0.24-1.46-0.45-2.24-0.64c-0.77-0.18-1.54-0.32-2.29-0.41
			c-0.75-0.09-1.46-0.14-2.13-0.14c-1.88,0-3.67,0.38-5.39,1.13c-1.71,0.76-3.23,1.78-4.56,3.07c-1.33,1.29-2.38,2.83-3.18,4.61
			c-0.79,1.79-1.19,3.69-1.19,5.72c0,1.84,0.35,3.59,1.05,5.25c0.7,1.66,1.68,3.12,2.93,4.39c1.25,1.27,2.74,2.29,4.48,3.04
			c1.73,0.76,3.63,1.13,5.69,1.13c0.74,0,1.66-0.06,2.76-0.19c1.11-0.13,2.16-0.36,3.15-0.69v-6.85h-7.51v-5.86H458.11z"/>
		<path class="st0" d="M465.68,560.46h6.8v40.28h-6.8V560.46z M466.23,558.19c0.85-1.22,1.68-2.45,2.51-3.7
			c0.83-1.25,1.67-2.5,2.51-3.76h5.69c-1.1,1.25-2.23,2.51-3.37,3.76c-1.14,1.25-2.28,2.49-3.43,3.7H466.23z"/>
		<path class="st0" d="M506.51,600.74c-0.11-0.26-0.3-0.72-0.58-1.38c-0.28-0.66-0.62-1.47-1.02-2.43s-0.85-2.02-1.33-3.18
			c-0.48-1.16-0.98-2.37-1.49-3.62h-13.87l-4.42,10.61h-6.69c0.15-0.33,0.5-1.15,1.05-2.46c0.55-1.31,1.24-2.93,2.07-4.86
			s1.75-4.09,2.76-6.46c1.01-2.38,2.05-4.8,3.12-7.27c1.07-2.47,2.11-4.89,3.12-7.27c1.01-2.38,1.93-4.53,2.76-6.46
			c0.83-1.93,1.52-3.55,2.07-4.86c0.55-1.31,0.9-2.13,1.05-2.46c0.15,0.33,0.51,1.15,1.08,2.46c0.57,1.31,1.27,2.93,2.1,4.86
			c0.83,1.93,1.75,4.09,2.76,6.46c1.01,2.38,2.05,4.8,3.12,7.27c1.07,2.47,2.11,4.89,3.12,7.27c1.01,2.38,1.93,4.53,2.76,6.46
			c0.83,1.93,1.52,3.56,2.07,4.86c0.55,1.31,0.9,2.13,1.05,2.46H506.51z M490.54,584.44h9.17l-3.98-9.61
			c-0.04-0.04-0.13-0.29-0.28-0.75c-0.15-0.46-0.26-0.88-0.33-1.24c-0.07,0.37-0.18,0.78-0.33,1.24c-0.15,0.46-0.22,0.71-0.22,0.75
			L490.54,584.44z"/>
	</g>
	<path class="st0" d="M383.65,340.7c0,0-8.16,1.7-8.54,11.68c-0.38,9.98,0.17,157.77,0.17,157.77h84.22l-78.55-331.72h-32.88v163.41
		h-16.22V178.44H302.4L224.9,510.16h80.15c0,0,0.54-147.79,0.17-157.77c-0.38-9.98-8.54-11.68-8.54-11.68h-13.31l-11.2-24.87h39.46
		c15.64,6.03,19.59,26,19.59,26v168.32h17.9V341.83c0,0,3.96-19.97,19.59-26h42.95l-14.69,24.87H383.65z M313.34,308.73
		c-7.4,0-13.4-6-13.4-13.4c0-7.4,6-13.4,13.4-13.4c7.4,0,13.4,6,13.4,13.4C326.74,302.73,320.74,308.73,313.34,308.73z
		 M366.98,308.73c-7.4,0-13.4-6-13.4-13.4c0-7.4,6-13.4,13.4-13.4c7.4,0,13.4,6,13.4,13.4
		C380.38,302.73,374.38,308.73,366.98,308.73z"/>
</g>
<g>
	<g>
		<path d="M590.71,651.97H92.29c-11.18,0-20.29-9.1-20.29-20.29V136.32c0-11.19,9.1-20.29,20.29-20.29h498.43
			c11.2,0,20.29,9.1,20.29,20.29v495.36C611,642.87,601.91,651.97,590.71,651.97z M92.29,127.62c-4.8,0-8.7,3.9-8.7,8.71v495.36
			c0,4.78,3.89,8.7,8.7,8.7h498.43c4.8,0,8.7-3.91,8.7-8.7V136.32c0-4.8-3.89-8.71-8.7-8.71H92.29z"/>
	</g>
	<g>
		<path d="M202.17,562.72l-2.43,5.53c-1.55-0.55-3.08-1-4.59-1.33c-1.51-0.33-2.91-0.5-4.2-0.5c-2.25,0-4.03,0.44-5.33,1.33
			c-1.31,0.88-1.96,2.01-1.96,3.37c0,1.18,0.49,2.14,1.46,2.87c0.98,0.74,2.2,1.4,3.67,1.99c1.47,0.59,3.07,1.19,4.78,1.8
			c1.71,0.61,3.31,1.39,4.78,2.35c1.47,0.96,2.7,2.17,3.67,3.65c0.98,1.47,1.46,3.35,1.46,5.64c0,1.77-0.32,3.37-0.97,4.81
			c-0.64,1.44-1.61,2.67-2.9,3.7c-1.29,1.03-2.92,1.83-4.89,2.4c-1.97,0.57-4.28,0.86-6.93,0.86c-1.62,0-3.09-0.11-4.42-0.33
			c-1.33-0.22-2.51-0.5-3.56-0.83c-1.05-0.33-1.98-0.69-2.79-1.08c-0.81-0.39-1.51-0.76-2.1-1.13l2.93-5.91
			c1.55,0.85,3.21,1.5,4.97,1.96c1.77,0.46,3.33,0.69,4.7,0.69c0.66,0,1.52-0.07,2.57-0.22c1.05-0.15,2.07-0.42,3.07-0.83
			c0.99-0.41,1.85-0.96,2.57-1.66c0.72-0.7,1.08-1.6,1.08-2.71c0-1.29-0.49-2.35-1.46-3.18c-0.98-0.83-2.2-1.57-3.67-2.21
			c-1.47-0.64-3.07-1.28-4.78-1.91c-1.71-0.63-3.31-1.37-4.78-2.24c-1.47-0.87-2.7-1.93-3.67-3.21c-0.98-1.27-1.46-2.88-1.46-4.84
			c0-1.4,0.28-2.77,0.83-4.12c0.55-1.34,1.39-2.55,2.51-3.62c1.12-1.07,2.52-1.93,4.2-2.6c1.68-0.66,3.66-1,5.94-1
			c1.44,0,2.83,0.12,4.17,0.36c1.34,0.24,2.55,0.51,3.62,0.8c1.07,0.29,1.95,0.58,2.65,0.86
			C201.6,562.53,202.02,562.69,202.17,562.72z"/>
		<path d="M207.31,580.68c0-2.8,0.54-5.45,1.63-7.96c1.09-2.5,2.56-4.7,4.42-6.58c1.86-1.88,4.03-3.37,6.52-4.48
			c2.49-1.1,5.15-1.66,7.98-1.66c2.8,0,5.45,0.55,7.96,1.66c2.5,1.11,4.7,2.6,6.58,4.48c1.88,1.88,3.36,4.07,4.45,6.58
			c1.09,2.5,1.63,5.16,1.63,7.96c0,2.84-0.54,5.5-1.63,7.98c-1.09,2.49-2.57,4.66-4.45,6.52c-1.88,1.86-4.07,3.32-6.58,4.39
			c-2.51,1.07-5.16,1.6-7.96,1.6c-2.84,0-5.5-0.53-7.98-1.6c-2.49-1.07-4.66-2.53-6.52-4.39c-1.86-1.86-3.33-4.03-4.42-6.52
			C207.85,586.18,207.31,583.52,207.31,580.68z M214.11,580.68c0,1.95,0.36,3.79,1.08,5.5c0.72,1.71,1.71,3.21,2.98,4.48
			c1.27,1.27,2.74,2.28,4.42,3.01c1.68,0.74,3.49,1.1,5.44,1.1c1.88,0,3.66-0.37,5.33-1.1c1.68-0.74,3.13-1.74,4.37-3.01
			c1.23-1.27,2.21-2.76,2.93-4.48c0.72-1.71,1.08-3.54,1.08-5.5c0-1.95-0.37-3.79-1.11-5.5c-0.74-1.71-1.73-3.21-2.98-4.5
			c-1.25-1.29-2.72-2.3-4.39-3.04c-1.68-0.74-3.47-1.1-5.39-1.1c-1.92,0-3.71,0.37-5.39,1.1c-1.68,0.74-3.13,1.75-4.37,3.04
			c-1.23,1.29-2.21,2.79-2.93,4.5C214.47,576.9,214.11,578.73,214.11,580.68z"/>
		<path d="M285.44,597.75c-0.44,0.29-1.06,0.64-1.85,1.05c-0.79,0.41-1.73,0.78-2.82,1.13c-1.09,0.35-2.31,0.64-3.67,0.88
			c-1.36,0.24-2.82,0.36-4.37,0.36c-3.17,0-6-0.54-8.51-1.63c-2.51-1.09-4.62-2.55-6.35-4.39c-1.73-1.84-3.06-4-3.98-6.46
			c-0.92-2.47-1.38-5.06-1.38-7.79c0-3.02,0.55-5.81,1.66-8.37c1.11-2.56,2.61-4.77,4.5-6.63c1.9-1.86,4.11-3.31,6.63-4.34
			c2.52-1.03,5.22-1.55,8.09-1.55c1.11,0,2.22,0.08,3.34,0.25c1.12,0.16,2.18,0.38,3.18,0.63c0.99,0.26,1.87,0.55,2.62,0.88
			c0.75,0.33,1.3,0.68,1.63,1.05c-0.33,0.52-0.59,0.94-0.77,1.27c-0.18,0.33-0.38,0.67-0.58,1.02c-0.2,0.35-0.42,0.75-0.66,1.19
			c-0.24,0.44-0.58,1.05-1.02,1.82c-0.44-0.29-0.98-0.55-1.6-0.77c-0.63-0.22-1.28-0.4-1.96-0.52c-0.68-0.13-1.37-0.23-2.07-0.3
			c-0.7-0.07-1.33-0.11-1.88-0.11c-2.06,0-3.97,0.39-5.72,1.16c-1.75,0.77-3.26,1.79-4.53,3.07c-1.27,1.27-2.27,2.75-2.98,4.45
			c-0.72,1.69-1.08,3.44-1.08,5.25c0,1.77,0.34,3.49,1.02,5.17c0.68,1.68,1.64,3.16,2.87,4.45c1.23,1.29,2.7,2.33,4.39,3.12
			c1.69,0.79,3.57,1.19,5.64,1.19c1.18,0,2.32-0.12,3.43-0.36c1.11-0.24,2.08-0.51,2.93-0.8c0.85-0.29,1.54-0.59,2.07-0.88
			c0.53-0.29,0.82-0.5,0.86-0.61L285.44,597.75z"/>
		<path d="M290.47,560.46h6.8v40.28h-6.8V560.46z"/>
		<path d="M303.89,580.68c0-2.8,0.54-5.45,1.63-7.96c1.09-2.5,2.56-4.7,4.42-6.58c1.86-1.88,4.03-3.37,6.52-4.48
			c2.49-1.1,5.15-1.66,7.98-1.66c2.8,0,5.45,0.55,7.96,1.66c2.5,1.11,4.7,2.6,6.58,4.48c1.88,1.88,3.36,4.07,4.45,6.58
			c1.09,2.5,1.63,5.16,1.63,7.96c0,2.84-0.54,5.5-1.63,7.98c-1.09,2.49-2.57,4.66-4.45,6.52c-1.88,1.86-4.07,3.32-6.58,4.39
			c-2.51,1.07-5.16,1.6-7.96,1.6c-2.84,0-5.5-0.53-7.98-1.6c-2.49-1.07-4.66-2.53-6.52-4.39c-1.86-1.86-3.33-4.03-4.42-6.52
			C304.44,586.18,303.89,583.52,303.89,580.68z M310.69,580.68c0,1.95,0.36,3.79,1.08,5.5c0.72,1.71,1.71,3.21,2.98,4.48
			c1.27,1.27,2.74,2.28,4.42,3.01c1.68,0.74,3.49,1.1,5.44,1.1c1.88,0,3.66-0.37,5.33-1.1c1.68-0.74,3.13-1.74,4.37-3.01
			c1.23-1.27,2.21-2.76,2.93-4.48c0.72-1.71,1.08-3.54,1.08-5.5c0-1.95-0.37-3.79-1.11-5.5c-0.74-1.71-1.73-3.21-2.98-4.5
			c-1.25-1.29-2.72-2.3-4.39-3.04c-1.68-0.74-3.47-1.1-5.39-1.1c-1.92,0-3.71,0.37-5.39,1.1c-1.68,0.74-3.13,1.75-4.37,3.04
			c-1.23,1.29-2.21,2.79-2.93,4.5C311.05,576.9,310.69,578.73,310.69,580.68z"/>
		<path d="M351.69,600.74v-40.28h6.74v33.87h19.56v6.41H351.69z"/>
		<path d="M379.87,580.68c0-2.8,0.54-5.45,1.63-7.96c1.09-2.5,2.56-4.7,4.42-6.58c1.86-1.88,4.03-3.37,6.52-4.48
			c2.49-1.1,5.15-1.66,7.98-1.66c2.8,0,5.45,0.55,7.96,1.66c2.5,1.11,4.7,2.6,6.58,4.48c1.88,1.88,3.36,4.07,4.45,6.58
			c1.09,2.5,1.63,5.16,1.63,7.96c0,2.84-0.54,5.5-1.63,7.98c-1.09,2.49-2.57,4.66-4.45,6.52c-1.88,1.86-4.07,3.32-6.58,4.39
			c-2.51,1.07-5.16,1.6-7.96,1.6c-2.84,0-5.5-0.53-7.98-1.6c-2.49-1.07-4.66-2.53-6.52-4.39c-1.86-1.86-3.33-4.03-4.42-6.52
			C380.41,586.18,379.87,583.52,379.87,580.68z M386.67,580.68c0,1.95,0.36,3.79,1.08,5.5c0.72,1.71,1.71,3.21,2.98,4.48
			c1.27,1.27,2.74,2.28,4.42,3.01c1.68,0.74,3.49,1.1,5.44,1.1c1.88,0,3.66-0.37,5.33-1.1c1.68-0.74,3.13-1.74,4.37-3.01
			c1.23-1.27,2.21-2.76,2.93-4.48c0.72-1.71,1.08-3.54,1.08-5.5c0-1.95-0.37-3.79-1.11-5.5c-0.74-1.71-1.73-3.21-2.98-4.5
			c-1.25-1.29-2.72-2.3-4.39-3.04c-1.68-0.74-3.47-1.1-5.39-1.1c-1.92,0-3.71,0.37-5.39,1.1c-1.68,0.74-3.13,1.75-4.37,3.04
			c-1.23,1.29-2.21,2.79-2.93,4.5C387.02,576.9,386.67,578.73,386.67,580.68z"/>
		<path d="M458.11,581.18v17.13c-1.55,0.92-3.42,1.63-5.61,2.13c-2.19,0.5-4.43,0.75-6.71,0.75c-3.17,0-6.03-0.5-8.59-1.49
			c-2.56-0.99-4.74-2.36-6.55-4.09c-1.8-1.73-3.19-3.79-4.14-6.19c-0.96-2.39-1.44-5.01-1.44-7.85c0-3.21,0.57-6.12,1.71-8.76
			c1.14-2.63,2.68-4.9,4.61-6.8c1.93-1.9,4.18-3.37,6.74-4.42c2.56-1.05,5.26-1.58,8.09-1.58c0.96,0,1.96,0.06,3.01,0.19
			c1.05,0.13,2.09,0.32,3.12,0.58c1.03,0.26,2.03,0.56,2.98,0.91c0.96,0.35,1.82,0.76,2.6,1.24l-3.32,5.53
			c-0.52-0.33-1.13-0.62-1.85-0.86c-0.72-0.24-1.46-0.45-2.24-0.64c-0.77-0.18-1.54-0.32-2.29-0.41c-0.75-0.09-1.46-0.14-2.13-0.14
			c-1.88,0-3.67,0.38-5.39,1.13c-1.71,0.76-3.23,1.78-4.56,3.07c-1.33,1.29-2.38,2.83-3.18,4.61c-0.79,1.79-1.19,3.69-1.19,5.72
			c0,1.84,0.35,3.59,1.05,5.25c0.7,1.66,1.68,3.12,2.93,4.39c1.25,1.27,2.74,2.29,4.48,3.04c1.73,0.76,3.63,1.13,5.69,1.13
			c0.74,0,1.66-0.06,2.76-0.19c1.11-0.13,2.16-0.36,3.15-0.69v-6.85h-7.51v-5.86H458.11z"/>
		<path d="M465.68,560.46h6.8v40.28h-6.8V560.46z M466.23,558.19c0.85-1.22,1.68-2.45,2.51-3.7c0.83-1.25,1.67-2.5,2.51-3.76h5.69
			c-1.1,1.25-2.23,2.51-3.37,3.76c-1.14,1.25-2.28,2.49-3.43,3.7H466.23z"/>
		<path d="M506.51,600.74c-0.11-0.26-0.3-0.72-0.58-1.38c-0.28-0.66-0.62-1.47-1.02-2.43s-0.85-2.02-1.33-3.18
			c-0.48-1.16-0.98-2.37-1.49-3.62h-13.87l-4.42,10.61h-6.69c0.15-0.33,0.5-1.15,1.05-2.46c0.55-1.31,1.24-2.93,2.07-4.86
			s1.75-4.09,2.76-6.46c1.01-2.38,2.05-4.8,3.12-7.27c1.07-2.47,2.11-4.89,3.12-7.27c1.01-2.38,1.93-4.53,2.76-6.46
			c0.83-1.93,1.52-3.55,2.07-4.86c0.55-1.31,0.9-2.13,1.05-2.46c0.15,0.33,0.51,1.15,1.08,2.46c0.57,1.31,1.27,2.93,2.1,4.86
			c0.83,1.93,1.75,4.09,2.76,6.46c1.01,2.38,2.05,4.8,3.12,7.27c1.07,2.47,2.11,4.89,3.12,7.27c1.01,2.38,1.93,4.53,2.76,6.46
			c0.83,1.93,1.52,3.56,2.07,4.86c0.55,1.31,0.9,2.13,1.05,2.46H506.51z M490.54,584.44h9.17l-3.98-9.61
			c-0.04-0.04-0.13-0.29-0.28-0.75c-0.15-0.46-0.26-0.88-0.33-1.24c-0.07,0.37-0.18,0.78-0.33,1.24c-0.15,0.46-0.22,0.71-0.22,0.75
			L490.54,584.44z"/>
	</g>
	<path d="M383.65,340.7c0,0-8.16,1.7-8.54,11.68c-0.38,9.98,0.17,157.77,0.17,157.77h84.22l-78.55-331.72h-32.88v163.41h-16.22
		V178.44H302.4L224.9,510.16h80.15c0,0,0.54-147.79,0.17-157.77c-0.38-9.98-8.54-11.68-8.54-11.68h-13.31l-11.2-24.87h39.46
		c15.64,6.03,19.59,26,19.59,26v168.32h17.9V341.83c0,0,3.96-19.97,19.59-26h42.95l-14.69,24.87H383.65z M313.34,308.73
		c-7.4,0-13.4-6-13.4-13.4c0-7.4,6-13.4,13.4-13.4c7.4,0,13.4,6,13.4,13.4C326.74,302.73,320.74,308.73,313.34,308.73z
		 M366.98,308.73c-7.4,0-13.4-6-13.4-13.4c0-7.4,6-13.4,13.4-13.4c7.4,0,13.4,6,13.4,13.4
		C380.38,302.73,374.38,308.73,366.98,308.73z"/>
</g>
</svg>
