<?xml version="1.0" encoding="utf-8"?>
<!-- Generator: Adobe Illustrator 27.1.0, SVG Export Plug-In . SVG Version: 6.00 Build 0)  -->
<svg version="1.1" id="Capa_1" xmlns="http://www.w3.org/2000/svg" xmlns:xlink="http://www.w3.org/1999/xlink" x="0px" y="0px"
	 viewBox="0 0 683 768" style="enable-background:new 0 0 683 768;" xml:space="preserve">
<style type="text/css">
	.st0{fill:#002E6D;}
	.st1{fill:#FFFFFF;}
</style>
<g>
	<g>
		<g>
			<g>
				<path class="st1" d="M124.62,580.01h3.57v21.16h-3.57V580.01z"/>
				<path class="st1" d="M151.76,580.01v22.15c-0.14-0.17-0.44-0.49-0.9-0.96c-0.46-0.46-1.04-1.02-1.71-1.67
					c-0.68-0.65-1.43-1.36-2.25-2.15c-0.82-0.78-1.66-1.58-2.51-2.38c-0.85-0.8-1.68-1.59-2.5-2.37c-0.81-0.77-1.55-1.48-2.22-2.13
					c-0.67-0.65-1.23-1.2-1.68-1.65c-0.45-0.45-0.75-0.77-0.89-0.94c-0.02-0.04-0.1-0.14-0.23-0.3c-0.14-0.16-0.25-0.31-0.35-0.45
					l0.09,0.93v13.09h-3.54v-22.12c0.14,0.17,0.44,0.49,0.9,0.94c0.46,0.46,1.04,1,1.71,1.64c0.68,0.64,1.43,1.34,2.25,2.09
					c0.82,0.76,1.66,1.52,2.51,2.31c0.85,0.78,1.68,1.56,2.5,2.32c0.81,0.77,1.56,1.46,2.24,2.09c0.68,0.63,1.24,1.17,1.7,1.61
					c0.45,0.45,0.75,0.76,0.89,0.93l0.55,0.81l-0.09-0.99v-12.8H151.76z"/>
				<path class="st1" d="M172.63,590.9v9c-0.81,0.48-1.79,0.86-2.95,1.12c-1.15,0.26-2.33,0.39-3.53,0.39
					c-1.66,0-3.17-0.26-4.51-0.78c-1.35-0.52-2.49-1.24-3.44-2.15c-0.95-0.91-1.67-1.99-2.18-3.25c-0.5-1.26-0.75-2.63-0.75-4.12
					c0-1.68,0.3-3.22,0.9-4.6c0.6-1.38,1.41-2.57,2.42-3.57c1.02-1,2.2-1.77,3.54-2.32c1.34-0.55,2.76-0.83,4.25-0.83
					c0.5,0,1.03,0.03,1.58,0.1c0.55,0.07,1.1,0.17,1.64,0.31c0.54,0.13,1.06,0.3,1.57,0.48c0.5,0.18,0.96,0.4,1.36,0.65l-1.74,2.9
					c-0.27-0.17-0.6-0.32-0.97-0.45c-0.38-0.13-0.77-0.24-1.18-0.33c-0.41-0.1-0.81-0.17-1.2-0.22c-0.4-0.05-0.77-0.07-1.12-0.07
					c-0.99,0-1.93,0.2-2.83,0.6c-0.9,0.4-1.7,0.93-2.39,1.61c-0.7,0.68-1.25,1.48-1.67,2.42c-0.42,0.94-0.62,1.94-0.62,3
					c0,0.97,0.18,1.89,0.55,2.76c0.37,0.87,0.88,1.64,1.54,2.31c0.66,0.67,1.44,1.2,2.35,1.6c0.91,0.4,1.91,0.6,2.99,0.6
					c0.39,0,0.87-0.03,1.45-0.1c0.58-0.07,1.13-0.19,1.65-0.36v-3.6h-3.95v-3.08H172.63z"/>
				<path class="st1" d="M176.61,601.17v-21.16h14.05v3.22h-10.51v5.69h9.35v3.31h-9.35v5.63h10.91v3.31H176.61z"/>
				<path class="st1" d="M213.27,580.01v22.15c-0.14-0.17-0.44-0.49-0.9-0.96c-0.46-0.46-1.04-1.02-1.71-1.67
					c-0.68-0.65-1.43-1.36-2.25-2.15c-0.82-0.78-1.66-1.58-2.51-2.38c-0.85-0.8-1.68-1.59-2.5-2.37c-0.81-0.77-1.55-1.48-2.22-2.13
					c-0.67-0.65-1.23-1.2-1.68-1.65c-0.45-0.45-0.75-0.77-0.89-0.94c-0.02-0.04-0.1-0.14-0.23-0.3c-0.14-0.16-0.25-0.31-0.35-0.45
					l0.09,0.93v13.09h-3.54v-22.12c0.14,0.17,0.44,0.49,0.9,0.94c0.46,0.46,1.04,1,1.71,1.64c0.68,0.64,1.43,1.34,2.25,2.09
					c0.82,0.76,1.66,1.52,2.51,2.31c0.85,0.78,1.68,1.56,2.5,2.32c0.81,0.77,1.56,1.46,2.24,2.09c0.68,0.63,1.24,1.17,1.7,1.61
					c0.45,0.45,0.75,0.76,0.89,0.93l0.55,0.81l-0.09-0.99v-12.8H213.27z"/>
				<path class="st1" d="M218.15,580.01h3.57v21.16h-3.57V580.01z"/>
				<path class="st1" d="M226.6,601.17v-21.16h14.05v3.22h-10.51v5.69h9.35v3.31h-9.35v5.63h10.91v3.31H226.6z"/>
				<path class="st1" d="M244.56,601.17v-21.16h5.98c1.16,0,2.22,0.15,3.18,0.46c0.96,0.31,1.77,0.75,2.44,1.33
					c0.67,0.58,1.18,1.3,1.55,2.15c0.37,0.85,0.55,1.81,0.55,2.87c0,0.58-0.06,1.16-0.17,1.74c-0.12,0.58-0.3,1.14-0.55,1.68
					c-0.25,0.54-0.58,1.04-0.99,1.5c-0.41,0.46-0.89,0.85-1.45,1.18c0.43,0.68,0.84,1.34,1.25,1.99c0.41,0.65,0.82,1.3,1.23,1.96
					c0.42,0.66,0.85,1.33,1.29,2.03c0.44,0.7,0.93,1.45,1.45,2.26h-4.27c-0.87-1.35-1.69-2.64-2.47-3.85
					c-0.77-1.21-1.52-2.36-2.24-3.44h-0.29h-2.96v7.29H244.56z M248.1,590.55h2.84c0.74,0,1.34-0.13,1.83-0.38
					c0.48-0.25,0.87-0.56,1.16-0.91c0.29-0.36,0.49-0.74,0.61-1.16c0.12-0.42,0.17-0.8,0.17-1.15c0-0.33-0.05-0.7-0.16-1.12
					c-0.11-0.42-0.3-0.81-0.58-1.18c-0.28-0.37-0.66-0.68-1.15-0.93c-0.48-0.25-1.1-0.38-1.86-0.38h-2.87V590.55z"/>
				<path class="st1" d="M263.02,580.01h3.57v21.16h-3.57V580.01z M263.31,578.82c0.44-0.64,0.89-1.29,1.32-1.94
					c0.44-0.66,0.88-1.31,1.32-1.97h2.99c-0.58,0.66-1.17,1.32-1.77,1.97c-0.6,0.66-1.2,1.31-1.8,1.94H263.31z"/>
				<path class="st1" d="M284.48,601.17c-0.06-0.13-0.16-0.38-0.3-0.73c-0.15-0.35-0.32-0.77-0.54-1.28
					c-0.21-0.5-0.44-1.06-0.7-1.67c-0.25-0.61-0.51-1.24-0.78-1.9h-7.29l-2.32,5.57h-3.51c0.08-0.17,0.26-0.6,0.55-1.29
					c0.29-0.69,0.65-1.54,1.09-2.55c0.44-1.02,0.92-2.15,1.45-3.4c0.53-1.25,1.08-2.52,1.64-3.82c0.56-1.3,1.11-2.57,1.64-3.82
					c0.53-1.25,1.02-2.38,1.45-3.4c0.44-1.02,0.8-1.87,1.09-2.55c0.29-0.69,0.47-1.12,0.55-1.29c0.08,0.17,0.27,0.61,0.57,1.29
					c0.3,0.69,0.67,1.54,1.1,2.55c0.43,1.02,0.92,2.15,1.45,3.4c0.53,1.25,1.08,2.52,1.64,3.82c0.56,1.3,1.11,2.57,1.64,3.82
					c0.53,1.25,1.02,2.38,1.45,3.4c0.44,1.02,0.8,1.87,1.09,2.55c0.29,0.69,0.47,1.12,0.55,1.29H284.48z M276.09,592.61h4.82
					l-2.09-5.05c-0.02-0.02-0.07-0.15-0.15-0.39c-0.08-0.24-0.14-0.46-0.17-0.65c-0.04,0.19-0.1,0.41-0.17,0.65
					c-0.08,0.24-0.12,0.37-0.12,0.39L276.09,592.61z"/>
				<path class="st1" d="M302.82,601.17v-21.16h14.05v3.22h-10.51v5.69h9.35v3.31h-9.35v5.63h10.91v3.31H302.82z"/>
				<path class="st1" d="M339.48,580.01v22.15c-0.14-0.17-0.44-0.49-0.9-0.96c-0.46-0.46-1.04-1.02-1.71-1.67
					c-0.68-0.65-1.43-1.36-2.25-2.15c-0.82-0.78-1.66-1.58-2.51-2.38s-1.68-1.59-2.5-2.37c-0.81-0.77-1.55-1.48-2.22-2.13
					c-0.67-0.65-1.23-1.2-1.68-1.65c-0.46-0.45-0.75-0.77-0.89-0.94c-0.02-0.04-0.1-0.14-0.23-0.3c-0.14-0.16-0.25-0.31-0.35-0.45
					l0.09,0.93v13.09h-3.54v-22.12c0.14,0.17,0.44,0.49,0.9,0.94c0.46,0.46,1.04,1,1.71,1.64c0.68,0.64,1.43,1.34,2.25,2.09
					c0.82,0.76,1.66,1.52,2.51,2.31c0.85,0.78,1.68,1.56,2.5,2.32c0.81,0.77,1.56,1.46,2.24,2.09c0.68,0.63,1.24,1.17,1.7,1.61
					c0.45,0.45,0.75,0.76,0.89,0.93l0.55,0.81l-0.09-0.99v-12.8H339.48z"/>
				<path class="st1" d="M366.91,599.61c-0.23,0.16-0.56,0.34-0.97,0.55c-0.42,0.21-0.91,0.41-1.48,0.6
					c-0.57,0.18-1.21,0.34-1.93,0.46c-0.72,0.13-1.48,0.19-2.29,0.19c-1.66,0-3.15-0.28-4.47-0.86c-1.32-0.57-2.43-1.34-3.34-2.31
					c-0.91-0.97-1.61-2.1-2.09-3.4c-0.48-1.3-0.73-2.66-0.73-4.09c0-1.59,0.29-3.05,0.87-4.4c0.58-1.35,1.37-2.51,2.37-3.48
					c1-0.98,2.16-1.74,3.48-2.28c1.32-0.54,2.74-0.81,4.25-0.81c0.58,0,1.17,0.04,1.76,0.13c0.59,0.09,1.15,0.2,1.67,0.33
					c0.52,0.14,0.98,0.29,1.38,0.46c0.4,0.17,0.68,0.36,0.86,0.55c-0.17,0.27-0.31,0.49-0.41,0.67c-0.1,0.17-0.2,0.35-0.3,0.54
					c-0.11,0.18-0.22,0.39-0.35,0.62c-0.13,0.23-0.3,0.55-0.54,0.96c-0.23-0.15-0.51-0.29-0.84-0.41s-0.67-0.21-1.03-0.28
					c-0.36-0.07-0.72-0.12-1.09-0.16c-0.37-0.04-0.7-0.06-0.99-0.06c-1.08,0-2.09,0.2-3,0.61c-0.92,0.41-1.71,0.94-2.38,1.61
					c-0.67,0.67-1.19,1.45-1.57,2.34s-0.57,1.81-0.57,2.76c0,0.93,0.18,1.83,0.54,2.71c0.36,0.88,0.86,1.66,1.51,2.34
					c0.65,0.68,1.42,1.22,2.31,1.64c0.89,0.42,1.88,0.62,2.96,0.62c0.62,0,1.22-0.06,1.8-0.19c0.58-0.13,1.09-0.27,1.54-0.42
					c0.44-0.15,0.81-0.31,1.09-0.46c0.28-0.15,0.43-0.26,0.45-0.32L366.91,599.61z"/>
				<path class="st1" d="M367.58,590.64c0-1.47,0.29-2.86,0.86-4.18c0.57-1.32,1.34-2.47,2.32-3.46c0.98-0.99,2.12-1.77,3.43-2.35
					c1.31-0.58,2.7-0.87,4.19-0.87c1.47,0,2.86,0.29,4.18,0.87c1.32,0.58,2.47,1.37,3.45,2.35c0.99,0.99,1.77,2.14,2.34,3.46
					c0.57,1.32,0.86,2.71,0.86,4.18c0,1.49-0.29,2.89-0.86,4.19c-0.57,1.31-1.35,2.45-2.34,3.42c-0.99,0.98-2.14,1.75-3.45,2.31
					c-1.32,0.56-2.71,0.84-4.18,0.84c-1.49,0-2.89-0.28-4.19-0.84c-1.31-0.56-2.45-1.33-3.43-2.31c-0.98-0.98-1.75-2.12-2.32-3.42
					C367.87,593.52,367.58,592.13,367.58,590.64z M371.15,590.64c0,1.03,0.19,1.99,0.57,2.89c0.38,0.9,0.9,1.68,1.57,2.35
					c0.67,0.67,1.44,1.19,2.32,1.58c0.88,0.39,1.83,0.58,2.86,0.58c0.99,0,1.92-0.19,2.8-0.58c0.88-0.39,1.64-0.91,2.29-1.58
					c0.65-0.67,1.16-1.45,1.54-2.35c0.38-0.9,0.57-1.86,0.57-2.89c0-1.03-0.19-1.99-0.58-2.89c-0.39-0.9-0.91-1.69-1.57-2.37
					c-0.66-0.68-1.43-1.21-2.31-1.6s-1.82-0.58-2.83-0.58c-1.01,0-1.95,0.19-2.83,0.58s-1.65,0.92-2.29,1.6
					c-0.65,0.68-1.16,1.47-1.54,2.37C371.34,588.65,371.15,589.61,371.15,590.64z"/>
				<path class="st1" d="M392.69,579.08c0.1,0.13,0.31,0.44,0.64,0.91c0.33,0.48,0.74,1.06,1.23,1.74c0.49,0.69,1.04,1.45,1.65,2.28
					c0.61,0.83,1.23,1.68,1.86,2.54c0.63,0.86,1.24,1.7,1.84,2.53c0.6,0.82,1.14,1.57,1.63,2.25c0.48,0.68,0.89,1.24,1.23,1.7
					c0.34,0.45,0.55,0.74,0.62,0.86c0.04-0.06,0.21-0.3,0.52-0.74c0.31-0.44,0.7-0.98,1.18-1.64c0.47-0.66,1.01-1.41,1.61-2.25
					c0.6-0.84,1.22-1.7,1.86-2.57c0.64-0.87,1.26-1.73,1.87-2.58c0.61-0.85,1.17-1.63,1.68-2.32c0.51-0.7,0.94-1.29,1.29-1.77
					c0.35-0.48,0.57-0.79,0.67-0.93v22.09h-3.8v-10.8c0-0.16,0.02-0.32,0.06-0.49s0.06-0.28,0.06-0.32l-6.99,10.07
					c-0.1-0.12-0.33-0.44-0.71-0.96c-0.38-0.52-0.83-1.14-1.35-1.86c-0.52-0.72-1.07-1.48-1.65-2.31c-0.58-0.82-1.13-1.59-1.64-2.29
					c-0.51-0.71-0.95-1.31-1.31-1.8c-0.36-0.49-0.56-0.78-0.59-0.86c0,0.04,0.02,0.15,0.06,0.32s0.06,0.34,0.06,0.49v10.8h-3.57
					V579.08z"/>
				<path class="st1" d="M418.96,601.17v-21.16h5.98c1.16,0,2.22,0.15,3.18,0.46c0.96,0.31,1.77,0.75,2.44,1.33s1.18,1.3,1.55,2.15
					c0.37,0.85,0.55,1.81,0.55,2.87c0,0.85-0.13,1.7-0.38,2.54c-0.25,0.84-0.66,1.6-1.23,2.26c-0.57,0.67-1.31,1.21-2.22,1.63
					c-0.91,0.42-2.03,0.62-3.37,0.62h-2.96v7.29H418.96z M422.5,590.55h2.85c0.74,0,1.34-0.13,1.83-0.38
					c0.48-0.25,0.87-0.57,1.16-0.94c0.29-0.38,0.49-0.77,0.61-1.19s0.17-0.79,0.17-1.12c0-0.31-0.05-0.67-0.16-1.09
					c-0.11-0.42-0.3-0.81-0.58-1.18c-0.28-0.37-0.66-0.68-1.15-0.93c-0.48-0.25-1.1-0.38-1.86-0.38h-2.87V590.55z"/>
				<path class="st1" d="M443.86,601.41c-1.14,0-2.21-0.19-3.21-0.57c-1-0.38-1.86-0.91-2.6-1.58c-0.74-0.68-1.32-1.5-1.74-2.45
					c-0.43-0.96-0.64-2.02-0.64-3.18v-13.61h3.54v13.53c0,0.62,0.12,1.2,0.36,1.74c0.24,0.54,0.57,1.02,0.99,1.42
					c0.42,0.41,0.91,0.73,1.47,0.97c0.56,0.24,1.17,0.36,1.83,0.36s1.27-0.12,1.84-0.36c0.57-0.24,1.07-0.57,1.5-0.97
					c0.43-0.41,0.76-0.88,1-1.42c0.24-0.54,0.36-1.12,0.36-1.74v-13.53h3.54v13.61c0,1.16-0.21,2.22-0.64,3.18
					c-0.43,0.96-1.01,1.78-1.76,2.45c-0.75,0.68-1.62,1.2-2.63,1.58S445.01,601.41,443.86,601.41z"/>
				<path class="st1" d="M469.47,580.01v3.4h-5.22v17.76h-3.57v-17.76h-5.11v-3.4H469.47z"/>
				<path class="st1" d="M484.18,601.17c-0.06-0.13-0.16-0.38-0.3-0.73c-0.15-0.35-0.32-0.77-0.54-1.28
					c-0.21-0.5-0.44-1.06-0.7-1.67c-0.25-0.61-0.51-1.24-0.78-1.9h-7.29l-2.32,5.57h-3.51c0.08-0.17,0.26-0.6,0.55-1.29
					c0.29-0.69,0.65-1.54,1.09-2.55c0.44-1.02,0.92-2.15,1.45-3.4c0.53-1.25,1.08-2.52,1.64-3.82c0.56-1.3,1.11-2.57,1.64-3.82
					c0.53-1.25,1.02-2.38,1.45-3.4c0.44-1.02,0.8-1.87,1.09-2.55c0.29-0.69,0.47-1.12,0.55-1.29c0.08,0.17,0.27,0.61,0.57,1.29
					c0.3,0.69,0.67,1.54,1.1,2.55c0.43,1.02,0.92,2.15,1.45,3.4c0.53,1.25,1.08,2.52,1.64,3.82c0.56,1.3,1.11,2.57,1.64,3.82
					c0.53,1.25,1.02,2.38,1.45,3.4c0.44,1.02,0.8,1.87,1.09,2.55c0.29,0.69,0.47,1.12,0.55,1.29H484.18z M475.79,592.61h4.82
					l-2.09-5.05c-0.02-0.02-0.07-0.15-0.15-0.39c-0.08-0.24-0.14-0.46-0.17-0.65c-0.04,0.19-0.1,0.41-0.17,0.65
					c-0.08,0.24-0.12,0.37-0.12,0.39L475.79,592.61z"/>
				<path class="st1" d="M505.23,599.61c-0.23,0.16-0.56,0.34-0.97,0.55c-0.42,0.21-0.91,0.41-1.48,0.6
					c-0.57,0.18-1.21,0.34-1.93,0.46c-0.72,0.13-1.48,0.19-2.29,0.19c-1.66,0-3.15-0.28-4.47-0.86c-1.32-0.57-2.43-1.34-3.34-2.31
					c-0.91-0.97-1.61-2.1-2.09-3.4c-0.48-1.3-0.73-2.66-0.73-4.09c0-1.59,0.29-3.05,0.87-4.4c0.58-1.35,1.37-2.51,2.37-3.48
					c1-0.98,2.16-1.74,3.48-2.28c1.32-0.54,2.74-0.81,4.25-0.81c0.58,0,1.17,0.04,1.76,0.13c0.59,0.09,1.15,0.2,1.67,0.33
					c0.52,0.14,0.98,0.29,1.38,0.46c0.4,0.17,0.68,0.36,0.86,0.55c-0.17,0.27-0.31,0.49-0.41,0.67c-0.1,0.17-0.2,0.35-0.3,0.54
					c-0.11,0.18-0.22,0.39-0.35,0.62c-0.13,0.23-0.3,0.55-0.54,0.96c-0.23-0.15-0.51-0.29-0.84-0.41s-0.67-0.21-1.03-0.28
					c-0.36-0.07-0.72-0.12-1.09-0.16c-0.37-0.04-0.7-0.06-0.99-0.06c-1.08,0-2.09,0.2-3,0.61c-0.92,0.41-1.71,0.94-2.38,1.61
					c-0.67,0.67-1.19,1.45-1.57,2.34c-0.38,0.89-0.57,1.81-0.57,2.76c0,0.93,0.18,1.83,0.54,2.71c0.36,0.88,0.86,1.66,1.51,2.34
					c0.65,0.68,1.42,1.22,2.31,1.64c0.89,0.42,1.88,0.62,2.96,0.62c0.62,0,1.22-0.06,1.8-0.19c0.58-0.13,1.09-0.27,1.54-0.42
					s0.81-0.31,1.09-0.46c0.28-0.15,0.43-0.26,0.45-0.32L505.23,599.61z"/>
				<path class="st1" d="M507.87,580.01h3.57v21.16h-3.57V580.01z"/>
				<path class="st1" d="M514.92,590.64c0-1.47,0.29-2.86,0.86-4.18c0.57-1.32,1.34-2.47,2.32-3.46c0.98-0.99,2.12-1.77,3.43-2.35
					c1.31-0.58,2.7-0.87,4.19-0.87c1.47,0,2.86,0.29,4.18,0.87s2.47,1.37,3.45,2.35c0.99,0.99,1.77,2.14,2.34,3.46
					c0.57,1.32,0.86,2.71,0.86,4.18c0,1.49-0.29,2.89-0.86,4.19c-0.57,1.31-1.35,2.45-2.34,3.42c-0.99,0.98-2.14,1.75-3.45,2.31
					c-1.32,0.56-2.71,0.84-4.18,0.84c-1.49,0-2.89-0.28-4.19-0.84c-1.31-0.56-2.45-1.33-3.43-2.31c-0.98-0.98-1.75-2.12-2.32-3.42
					C515.21,593.52,514.92,592.13,514.92,590.64z M518.49,590.64c0,1.03,0.19,1.99,0.57,2.89c0.38,0.9,0.9,1.68,1.57,2.35
					c0.67,0.67,1.44,1.19,2.32,1.58c0.88,0.39,1.83,0.58,2.86,0.58c0.99,0,1.92-0.19,2.8-0.58c0.88-0.39,1.64-0.91,2.29-1.58
					c0.65-0.67,1.16-1.45,1.54-2.35c0.38-0.9,0.57-1.86,0.57-2.89c0-1.03-0.19-1.99-0.58-2.89c-0.39-0.9-0.91-1.69-1.57-2.37
					c-0.66-0.68-1.43-1.21-2.31-1.6s-1.82-0.58-2.83-0.58c-1.01,0-1.95,0.19-2.83,0.58s-1.65,0.92-2.29,1.6
					c-0.65,0.68-1.16,1.47-1.54,2.37C518.68,588.65,518.49,589.61,518.49,590.64z M524.04,578.82c0.44-0.64,0.89-1.29,1.32-1.94
					c0.44-0.66,0.88-1.31,1.32-1.97h2.99c-0.58,0.66-1.17,1.32-1.77,1.97c-0.6,0.66-1.2,1.31-1.8,1.94H524.04z"/>
				<path class="st1" d="M558.73,580.01v22.15c-0.14-0.17-0.44-0.49-0.9-0.96c-0.46-0.46-1.04-1.02-1.71-1.67
					c-0.68-0.65-1.43-1.36-2.25-2.15c-0.82-0.78-1.66-1.58-2.51-2.38c-0.85-0.8-1.68-1.59-2.5-2.37c-0.81-0.77-1.55-1.48-2.22-2.13
					c-0.67-0.65-1.23-1.2-1.68-1.65c-0.46-0.45-0.75-0.77-0.89-0.94c-0.02-0.04-0.1-0.14-0.23-0.3c-0.14-0.16-0.25-0.31-0.35-0.45
					l0.09,0.93v13.09h-3.54v-22.12c0.14,0.17,0.44,0.49,0.9,0.94c0.46,0.46,1.04,1,1.71,1.64c0.68,0.64,1.43,1.34,2.25,2.09
					c0.82,0.76,1.66,1.52,2.51,2.31c0.85,0.78,1.68,1.56,2.5,2.32c0.81,0.77,1.56,1.46,2.24,2.09c0.68,0.63,1.24,1.17,1.7,1.61
					c0.45,0.45,0.75,0.76,0.89,0.93l0.55,0.81l-0.09-0.99v-12.8H558.73z"/>
			</g>
		</g>
	</g>
	<g>
		<path class="st1" d="M588.96,650.09H94.04c-11.1,0-20.14-9.03-20.14-20.14V138.06c0-11.11,9.04-20.15,20.14-20.15h494.93
			c11.12,0,20.14,9.04,20.14,20.15v491.88C609.11,641.06,600.08,650.09,588.96,650.09z M94.04,129.42c-4.77,0-8.64,3.88-8.64,8.65
			v491.88c0,4.75,3.87,8.64,8.64,8.64h494.93c4.77,0,8.64-3.89,8.64-8.64V138.06c0-4.77-3.87-8.65-8.64-8.65H94.04z"/>
	</g>
	<g>
		<path class="st1" d="M382.04,229.12v40.23c35.25,15.99,59.77,51.5,59.77,92.72c0,56.2-45.56,101.77-101.77,101.77
			s-101.77-45.56-101.77-101.77c0-42.32,25.84-78.61,62.6-93.96v-39.39c-56.96,17.15-98.46,70.01-98.46,132.56
			c0,76.44,61.97,138.41,138.41,138.41s138.41-61.97,138.41-138.41C479.25,299.2,438.36,246.66,382.04,229.12z"/>
		<path class="st1" d="M362.22,293.91v-96.2c0-4.15-3.4-7.55-7.55-7.55h-26.42c-4.15,0-7.55,3.4-7.55,7.55v96.2
			c-29.14,8.88-50.33,35.97-50.33,68.01c0,39.27,31.83,71.09,71.09,71.09s71.09-31.83,71.09-71.09
			C412.56,329.88,391.36,302.78,362.22,293.91z M341.06,414.59c-28.87,0-52.27-23.4-52.27-52.27c0-21.64,13.16-40.22,31.91-48.16
			v39.57c0,4.15,3.4,7.55,7.55,7.55h26.42c4.15,0,7.55-3.4,7.55-7.55v-39.22c18.32,8.12,31.11,26.47,31.11,47.8
			C393.33,391.19,369.92,414.59,341.06,414.59z"/>
	</g>
</g>
</svg>
