<?xml version="1.0" encoding="utf-8"?>
<!-- Generator: Adobe Illustrator 27.1.0, SVG Export Plug-In . SVG Version: 6.00 Build 0)  -->
<svg version="1.1" id="Capa_1" xmlns="http://www.w3.org/2000/svg" xmlns:xlink="http://www.w3.org/1999/xlink" x="0px" y="0px"
	 viewBox="0 0 683 768" style="enable-background:new 0 0 683 768;" xml:space="preserve">
<style type="text/css">
	.st0{fill:#002E6D;}
	.st1{fill-rule:evenodd;clip-rule:evenodd;fill:#002E6D;}
	.st2{fill-rule:evenodd;clip-rule:evenodd;}
	.st3{fill:#FFFFFF;}
	.st4{fill-rule:evenodd;clip-rule:evenodd;fill:#FFFFFF;}
</style>
<g>
	<g>
		<g>
			<path class="st3" d="M586.55,647.5H96.45c-10.99,0-19.95-8.94-19.95-19.95V140.46c0-11,8.95-19.95,19.95-19.95h490.1
				c11.01,0,19.95,8.95,19.95,19.95v487.09C606.5,638.55,597.57,647.5,586.55,647.5z M96.45,131.9c-4.72,0-8.55,3.84-8.55,8.56
				v487.09c0,4.7,3.83,8.55,8.55,8.55h490.1c4.72,0,8.55-3.85,8.55-8.55V140.46c0-4.72-3.83-8.56-8.55-8.56H96.45z"/>
		</g>
		<g>
			<path class="st3" d="M278.47,294.08v130.43H408.9V294.08H278.47z M396.47,413.29H289.7V306.51h106.77V413.29z"/>
			<path class="st3" d="M269.95,360.02c0,2.78-2.26,5.04-5.04,5.04c-2.78,0-5.04-2.26-5.04-5.04c0-2.78,2.26-5.04,5.04-5.04
				C267.7,354.98,269.95,357.24,269.95,360.02z"/>
			<rect x="329.52" y="424.7" class="st3" width="24.36" height="25.2"/>
			<g>
				<rect x="225.15" y="316.76" class="st3" width="4.62" height="99.12"/>
			</g>
			<g>
				<polygon class="st3" points="255.4,457.96 255.05,447.17 241.53,447.17 241.53,357.65 261.12,358.13 261.01,362.75 
					246.16,362.39 246.16,442.55 259.52,442.55 260.01,457.81 				"/>
			</g>
			<g>
				
					<rect x="250.14" y="380.18" transform="matrix(0.0244 -0.9997 0.9997 0.0244 -142.3738 631.6959)" class="st3" width="4.62" height="17.23"/>
			</g>
			<g>
				<polygon class="st3" points="444.22,416.51 444.14,411.89 466.65,411.51 466.65,316.97 438.72,316.97 438.72,312.35 
					471.27,312.35 471.27,416.05 				"/>
			</g>
			<g>
				
					<rect x="435.78" y="357.08" transform="matrix(0.9999 -0.0127 0.0127 0.9999 -4.5276 5.7738)" class="st3" width="33.18" height="4.62"/>
			</g>
			<path class="st3" d="M232.86,315.15c0,2.78-2.26,5.04-5.04,5.04c-2.78,0-5.04-2.26-5.04-5.04s2.26-5.04,5.04-5.04
				C230.6,310.11,232.86,312.37,232.86,315.15z"/>
			<path class="st3" d="M268.41,389.35c0,2.78-2.26,5.04-5.04,5.04s-5.04-2.26-5.04-5.04s2.26-5.04,5.04-5.04
				S268.41,386.57,268.41,389.35z"/>
			<path class="st3" d="M439.56,315.5c0,2.78-2.26,5.04-5.04,5.04s-5.04-2.26-5.04-5.04c0-2.78,2.26-5.04,5.04-5.04
				S439.56,312.72,439.56,315.5z"/>
			<path class="st3" d="M438.44,359.95c0,2.78-2.26,5.04-5.04,5.04c-2.78,0-5.04-2.26-5.04-5.04c0-2.78,2.26-5.04,5.04-5.04
				C436.19,354.91,438.44,357.17,438.44,359.95z"/>
			<path class="st3" d="M449.16,414.55c0,2.78-2.26,5.04-5.04,5.04c-2.78,0-5.04-2.26-5.04-5.04s2.26-5.04,5.04-5.04
				C446.9,409.51,449.16,411.77,449.16,414.55z"/>
			<g>
				<polygon class="st3" points="421.95,281.72 419.37,277.89 443.04,261.96 472.71,261.53 472.78,266.15 444.48,266.56 				"/>
			</g>
			<g>
				<rect x="262.74" y="271.61" class="st3" width="35.28" height="4.62"/>
			</g>
			<g>
				<polygon class="st3" points="441.87,463.79 441.49,436.32 429.97,436.67 429.83,432.05 446.04,431.56 446.49,463.73 				"/>
			</g>
			<g>
				<polygon class="st3" points="417.93,472.21 413.31,472.11 413.68,454.73 394.31,454.73 394.83,442.66 399.45,442.86 
					399.14,450.11 418.4,450.11 				"/>
			</g>
			<g>
				<polygon class="st3" points="378.89,472.28 369.19,464.42 369.63,442.71 374.25,442.81 373.86,462.26 381.8,468.68 				"/>
			</g>
			<g>
				<polygon class="st3" points="291.93,473.05 287.31,472.95 287.78,450.11 306.31,450.11 306.64,442.66 311.25,442.86 
					310.74,454.73 292.31,454.73 				"/>
			</g>
			<g>
				<polygon class="st3" points="260.12,323.27 248.2,322.75 248.67,303.27 253.29,303.38 252.93,318.33 260.33,318.65 				"/>
			</g>
			<circle class="st3" cx="226.63" cy="422.04" r="8.82"/>
			<circle class="st3" cx="257.7" cy="466.28" r="8.82"/>
			
				<ellipse transform="matrix(0.9247 -0.3806 0.3806 0.9247 -161.4362 146.4779)" class="st3" cx="289.62" cy="481.4" rx="8.82" ry="8.82"/>
			<circle class="st3" cx="384.82" cy="473.14" r="8.82"/>
			<circle class="st3" cx="415.62" cy="480.56" r="8.82"/>
			
				<ellipse transform="matrix(0.1602 -0.9871 0.9871 0.1602 -93.031 834.9769)" class="st3" cx="444.18" cy="472.16" rx="8.82" ry="8.82"/>
			<circle class="st3" cx="481.14" cy="263.84" r="8.82"/>
			<circle class="st3" cx="250.98" cy="297.93" r="8.82"/>
			<circle class="st3" cx="254.34" cy="273.08" r="8.82"/>
			<path class="st3" d="M306.91,273.5c0,2.78-2.26,5.04-5.04,5.04c-2.78,0-5.04-2.26-5.04-5.04s2.26-5.04,5.04-5.04
				C304.66,268.46,306.91,270.72,306.91,273.5z"/>
			<path class="st3" d="M269.88,321.38c0,2.78-2.26,5.04-5.04,5.04c-2.78,0-5.04-2.26-5.04-5.04s2.26-5.04,5.04-5.04
				C267.63,316.34,269.88,318.6,269.88,321.38z"/>
			<path class="st3" d="M314.33,441.15c0,2.78-2.26,5.04-5.04,5.04c-2.78,0-5.04-2.26-5.04-5.04c0-2.78,2.26-5.04,5.04-5.04
				C312.08,436.11,314.33,438.37,314.33,441.15z"/>
			<path class="st3" d="M376.56,442.69c0,2.78-2.26,5.04-5.04,5.04s-5.04-2.26-5.04-5.04c0-2.78,2.26-5.04,5.04-5.04
				S376.56,439.91,376.56,442.69z"/>
			<path class="st3" d="M401.76,442.69c0,2.78-2.26,5.04-5.04,5.04c-2.78,0-5.04-2.26-5.04-5.04c0-2.78,2.26-5.04,5.04-5.04
				C399.51,437.65,401.76,439.91,401.76,442.69z"/>
			<path class="st3" d="M434.88,433.94c0,2.78-2.26,5.04-5.04,5.04c-2.78,0-5.04-2.26-5.04-5.04c0-2.78,2.26-5.04,5.04-5.04
				C432.62,428.9,434.88,431.16,434.88,433.94z"/>
			<path class="st3" d="M423.39,281.97c0,2.78-2.26,5.04-5.04,5.04c-2.78,0-5.04-2.26-5.04-5.04s2.26-5.04,5.04-5.04
				C421.14,276.93,423.39,279.19,423.39,281.97z"/>
			<g>
				<path class="st3" d="M353.48,207.98v22.68h16.36v-3.36h-2.1c-1.62,0-2.94-1.32-2.94-2.94c0-0.81,0.33-1.55,0.87-2.07
					c0.53-0.54,1.27-0.87,2.07-0.87h2.1v-3.36h2.52v3.36h2.1c1.62,0,2.94,1.32,2.94,2.94c0,0.81-0.33,1.55-0.87,2.07
					c-0.53,0.54-1.27,0.87-2.07,0.87h-2.1v3.36h22.68v-3.36h-2.1c-1.62,0-2.94-1.32-2.94-2.94c0-0.81,0.33-1.55,0.87-2.07
					c0.53-0.54,1.27-0.87,2.07-0.87h2.1v-3.36h2.52v3.36h2.1c1.62,0,2.94,1.32,2.94,2.94c0,0.81-0.33,1.55-0.87,2.07
					c-0.53,0.54-1.27,0.87-2.07,0.87h-2.1v3.36h11.76v12.6h-55.84l0.4,51.24h-25.2l0.24-51.24h-53.99v-12.6h14.28v-3.36h-2.1
					c-1.62,0-2.94-1.32-2.94-2.94c0-0.81,0.33-1.55,0.87-2.07c0.53-0.54,1.27-0.87,2.07-0.87h2.1v-3.36h2.52v3.36h2.1
					c1.62,0,2.94,1.32,2.94,2.94c0,0.81-0.33,1.55-0.87,2.07c-0.53,0.54-1.27,0.87-2.07,0.87h-2.1v3.36h22.68v-3.36h-2.1
					c-1.62,0-2.94-1.32-2.94-2.94c0-0.81,0.33-1.55,0.87-2.07c0.53-0.54,1.27-0.87,2.07-0.87h2.1v-3.36h2.52v3.36h2.1
					c1.62,0,2.94,1.32,2.94,2.94c0,0.81-0.33,1.55-0.87,2.07c-0.53,0.54-1.27,0.87-2.07,0.87h-2.1v3.36h12v-22.68h-53.99v-12.6
					h14.28v-3.36h-2.1c-1.62,0-2.94-1.32-2.94-2.94c0-0.81,0.33-1.55,0.87-2.07c0.53-0.54,1.27-0.87,2.07-0.87h2.1v-3.36h2.52v3.36
					h2.1c1.62,0,2.94,1.32,2.94,2.94c0,0.81-0.33,1.55-0.87,2.07c-0.53,0.54-1.27,0.87-2.07,0.87h-2.1v3.36h22.68v-3.36h-2.1
					c-1.62,0-2.94-1.32-2.94-2.94c0-0.81,0.33-1.55,0.87-2.07c0.53-0.54,1.27-0.87,2.07-0.87h2.1v-3.36h2.52v3.36h2.1
					c1.62,0,2.94,1.32,2.94,2.94c0,0.81-0.33,1.55-0.87,2.07c-0.53,0.54-1.27,0.87-2.07,0.87h-2.1v3.36h12v-19.5h24.56v19.5h16.36
					v-3.36h-2.1c-1.62,0-2.94-1.32-2.94-2.94c0-0.81,0.33-1.55,0.87-2.07c0.53-0.54,1.27-0.87,2.07-0.87h2.1v-3.36h2.52v3.36h2.1
					c1.62,0,2.94,1.32,2.94,2.94c0,0.81-0.33,1.55-0.87,2.07c-0.53,0.54-1.27,0.87-2.07,0.87h-2.1v3.36h22.68v-3.36h-2.1
					c-1.62,0-2.94-1.32-2.94-2.94c0-0.81,0.33-1.55,0.87-2.07c0.53-0.54,1.27-0.87,2.07-0.87h2.1v-3.36h2.52v3.36h2.1
					c1.62,0,2.94,1.32,2.94,2.94c0,0.81-0.33,1.55-0.87,2.07c-0.53,0.54-1.27,0.87-2.07,0.87h-2.1v3.36h11.76v12.6H353.48z"/>
			</g>
			<g>
				<g>
					<rect x="270.72" y="222.79" class="st3" width="13.44" height="2.31"/>
				</g>
				<g>
					<rect x="297.18" y="222.79" class="st3" width="11.76" height="2.31"/>
				</g>
				<g>
					<rect x="322.38" y="222.79" class="st3" width="6.72" height="2.31"/>
				</g>
			</g>
			<g>
				<g>
					<rect x="270.72" y="187.51" class="st3" width="13.44" height="2.31"/>
				</g>
				<g>
					<rect x="297.18" y="187.51" class="st3" width="11.76" height="2.31"/>
				</g>
				<g>
					<rect x="322.38" y="187.51" class="st3" width="6.72" height="2.31"/>
				</g>
			</g>
			<g>
				<g>
					<rect x="403.02" y="223.63" class="st3" width="13.44" height="2.31"/>
				</g>
				<g>
					<rect x="377.82" y="223.63" class="st3" width="12.18" height="2.31"/>
				</g>
				<g>
					<rect x="353.88" y="223.63" class="st3" width="10.5" height="2.31"/>
				</g>
			</g>
			<g>
				<g>
					<rect x="403.02" y="187.51" class="st3" width="13.44" height="2.31"/>
				</g>
				<g>
					<rect x="377.82" y="187.51" class="st3" width="12.18" height="2.31"/>
				</g>
				<g>
					<rect x="353.88" y="187.51" class="st3" width="10.5" height="2.31"/>
				</g>
			</g>
			<g>
				<path class="st4" d="M303.95,351.21l5.11,7.12c0,0,32.39-23.52,66.16,2.01l5.85-7.12C381.07,353.22,347.26,323.07,303.95,351.21
					z"/>
				<path class="st4" d="M371.28,365.61c0,0-24.85-22.21-57.63-0.9l3.87,5.39l1.52,2.54c0,0,22.29-16.49,46.2,0.99L371.28,365.61z"
					/>
				<path class="st4" d="M324.09,380.25c20.07-13.05,35.75,0.93,35.75,0.93l-2.71,3.3l-3.05,3.97c0,0-11.47-8.66-24.27-0.58
					L324.09,380.25z"/>
			</g>
		</g>
		<g>
			<g>
				<path class="st3" d="M134.39,519.82h4.71v27.89h-4.71V519.82z"/>
				<path class="st3" d="M170.17,519.82v29.19c-0.18-0.23-0.57-0.65-1.19-1.26c-0.61-0.61-1.36-1.34-2.26-2.2
					c-0.89-0.85-1.88-1.8-2.97-2.83s-2.19-2.08-3.31-3.14c-1.12-1.06-2.22-2.1-3.29-3.12c-1.07-1.02-2.05-1.96-2.93-2.81
					c-0.88-0.85-1.62-1.58-2.22-2.18c-0.6-0.6-0.99-1.01-1.17-1.24c-0.03-0.05-0.13-0.18-0.31-0.4c-0.18-0.22-0.33-0.41-0.46-0.59
					l0.12,1.22v17.26h-4.67v-29.16c0.18,0.23,0.57,0.64,1.19,1.24c0.61,0.6,1.36,1.32,2.26,2.16c0.89,0.84,1.88,1.76,2.97,2.75
					c1.08,1,2.19,2.01,3.31,3.04c1.12,1.03,2.22,2.05,3.29,3.06c1.07,1.01,2.05,1.93,2.95,2.75c0.89,0.83,1.64,1.54,2.24,2.12
					c0.6,0.59,0.99,0.99,1.17,1.22l0.73,1.07l-0.11-1.3v-16.87H170.17z"/>
				<path class="st3" d="M197.68,534.17v11.86c-1.07,0.64-2.37,1.13-3.88,1.47c-1.52,0.34-3.07,0.52-4.65,0.52
					c-2.19,0-4.18-0.34-5.95-1.03c-1.77-0.69-3.29-1.63-4.53-2.83c-1.25-1.2-2.21-2.63-2.87-4.29c-0.66-1.66-0.99-3.47-0.99-5.43
					c0-2.22,0.39-4.24,1.19-6.06c0.79-1.82,1.86-3.39,3.2-4.71c1.34-1.31,2.89-2.33,4.67-3.06c1.77-0.73,3.64-1.09,5.6-1.09
					c0.66,0,1.36,0.04,2.09,0.13c0.73,0.09,1.45,0.22,2.16,0.4c0.71,0.18,1.4,0.39,2.07,0.63c0.66,0.24,1.26,0.53,1.8,0.86
					l-2.3,3.83c-0.36-0.23-0.78-0.43-1.28-0.59c-0.5-0.17-1.01-0.31-1.55-0.44c-0.54-0.13-1.07-0.22-1.59-0.29
					c-0.52-0.06-1.01-0.1-1.47-0.1c-1.3,0-2.54,0.26-3.73,0.79c-1.19,0.52-2.24,1.23-3.16,2.12c-0.92,0.89-1.65,1.96-2.2,3.2
					c-0.55,1.24-0.82,2.56-0.82,3.96c0,1.28,0.24,2.49,0.73,3.63c0.48,1.15,1.16,2.16,2.03,3.04c0.87,0.88,1.9,1.58,3.1,2.1
					c1.2,0.52,2.51,0.79,3.94,0.79c0.51,0,1.15-0.04,1.91-0.13c0.76-0.09,1.49-0.25,2.18-0.48v-4.75h-5.2v-4.06H197.68z"/>
				<path class="st3" d="M202.92,547.71v-27.89h18.52v4.25h-13.85v7.5h12.32v4.36h-12.32v7.42h14.39v4.36H202.92z"/>
				<path class="st3" d="M251.24,519.82v29.19c-0.18-0.23-0.57-0.65-1.19-1.26c-0.61-0.61-1.36-1.34-2.26-2.2
					c-0.89-0.85-1.88-1.8-2.97-2.83c-1.08-1.03-2.19-2.08-3.31-3.14c-1.12-1.06-2.22-2.1-3.29-3.12c-1.07-1.02-2.05-1.96-2.93-2.81
					c-0.88-0.85-1.62-1.58-2.22-2.18c-0.6-0.6-0.99-1.01-1.17-1.24c-0.03-0.05-0.13-0.18-0.31-0.4c-0.18-0.22-0.33-0.41-0.46-0.59
					l0.12,1.22v17.26h-4.67v-29.16c0.18,0.23,0.57,0.64,1.19,1.24c0.61,0.6,1.36,1.32,2.26,2.16c0.89,0.84,1.88,1.76,2.97,2.75
					c1.08,1,2.19,2.01,3.31,3.04c1.12,1.03,2.22,2.05,3.29,3.06c1.07,1.01,2.05,1.93,2.95,2.75c0.89,0.83,1.64,1.54,2.24,2.12
					c0.6,0.59,0.99,0.99,1.17,1.22l0.73,1.07l-0.11-1.3v-16.87H251.24z"/>
				<path class="st3" d="M257.67,519.82h4.71v27.89h-4.71V519.82z"/>
				<path class="st3" d="M268.81,547.71v-27.89h18.52v4.25h-13.85v7.5h12.32v4.36h-12.32v7.42h14.39v4.36H268.81z"/>
				<path class="st3" d="M292.49,547.71v-27.89h7.88c1.53,0,2.93,0.2,4.19,0.61c1.26,0.41,2.33,1,3.21,1.76
					c0.88,0.77,1.56,1.71,2.05,2.83c0.48,1.12,0.73,2.39,0.73,3.79c0,0.77-0.08,1.53-0.23,2.3c-0.15,0.77-0.4,1.5-0.73,2.22
					c-0.33,0.71-0.76,1.37-1.3,1.97c-0.54,0.6-1.17,1.12-1.91,1.55c0.56,0.89,1.11,1.77,1.65,2.62c0.54,0.85,1.08,1.72,1.63,2.58
					c0.55,0.87,1.12,1.76,1.7,2.68c0.59,0.92,1.22,1.91,1.91,2.98h-5.62c-1.15-1.79-2.23-3.48-3.25-5.07
					c-1.02-1.59-2-3.11-2.95-4.53h-0.38h-3.9v9.6H292.49z M297.16,533.71h3.75c0.97,0,1.77-0.17,2.41-0.5
					c0.64-0.33,1.15-0.73,1.53-1.21c0.38-0.47,0.65-0.98,0.8-1.53c0.15-0.55,0.23-1.05,0.23-1.51c0-0.43-0.07-0.92-0.21-1.47
					c-0.14-0.55-0.4-1.07-0.77-1.55c-0.37-0.48-0.87-0.89-1.51-1.22c-0.64-0.33-1.45-0.5-2.45-0.5h-3.79V533.71z"/>
				<path class="st3" d="M316.82,519.82h4.71v27.89h-4.71V519.82z M317.21,518.25c0.59-0.84,1.17-1.7,1.74-2.56
					c0.57-0.87,1.15-1.73,1.74-2.6h3.94c-0.77,0.87-1.54,1.74-2.33,2.6c-0.79,0.87-1.58,1.72-2.37,2.56H317.21z"/>
				<path class="st3" d="M345.1,547.71c-0.08-0.18-0.21-0.5-0.4-0.96c-0.19-0.46-0.43-1.02-0.71-1.68c-0.28-0.66-0.59-1.4-0.92-2.2
					c-0.33-0.8-0.68-1.64-1.03-2.51h-9.6l-3.06,7.35h-4.63c0.1-0.23,0.34-0.8,0.73-1.7c0.38-0.91,0.86-2.03,1.44-3.37
					c0.57-1.34,1.21-2.83,1.91-4.48c0.7-1.65,1.42-3.32,2.16-5.03c0.74-1.71,1.46-3.39,2.16-5.03c0.7-1.64,1.34-3.14,1.91-4.48
					c0.57-1.34,1.05-2.46,1.43-3.37c0.38-0.91,0.62-1.47,0.73-1.7c0.1,0.23,0.35,0.8,0.75,1.7c0.39,0.91,0.88,2.03,1.45,3.37
					c0.57,1.34,1.21,2.83,1.91,4.48c0.7,1.65,1.42,3.32,2.16,5.03c0.74,1.71,1.46,3.39,2.16,5.03c0.7,1.64,1.34,3.14,1.91,4.48
					c0.57,1.34,1.05,2.46,1.43,3.37c0.38,0.91,0.62,1.47,0.73,1.7H345.1z M334.04,536.43h6.35l-2.75-6.66
					c-0.03-0.03-0.09-0.2-0.19-0.52c-0.1-0.32-0.18-0.61-0.23-0.86c-0.05,0.26-0.13,0.54-0.23,0.86c-0.1,0.32-0.15,0.49-0.15,0.52
					L334.04,536.43z"/>
				<path class="st3" d="M360.56,547.71v-27.89h18.52v4.25h-13.85v7.5h12.32v4.36h-12.32v7.42h14.39v4.36H360.56z"/>
				<path class="st3" d="M384.24,547.71v-27.89h4.67v23.45h13.54v4.44H384.24z"/>
				<path class="st3" d="M406.24,547.71v-27.89h18.52v4.25h-13.85v7.5h12.32v4.36h-12.32v7.42h14.39v4.36H406.24z M413.32,518.25
					c0.59-0.84,1.17-1.7,1.74-2.56c0.57-0.87,1.15-1.73,1.74-2.6h3.94c-0.76,0.87-1.54,1.74-2.33,2.6
					c-0.79,0.87-1.58,1.72-2.37,2.56H413.32z"/>
				<path class="st3" d="M450.43,545.65c-0.31,0.21-0.73,0.45-1.28,0.73c-0.55,0.28-1.2,0.54-1.95,0.78
					c-0.75,0.24-1.6,0.45-2.54,0.61c-0.94,0.16-1.95,0.25-3.02,0.25c-2.19,0-4.16-0.38-5.89-1.13c-1.74-0.75-3.2-1.77-4.4-3.04
					c-1.2-1.28-2.12-2.77-2.75-4.48c-0.64-1.71-0.96-3.51-0.96-5.4c0-2.09,0.38-4.02,1.15-5.8c0.77-1.77,1.8-3.3,3.12-4.59
					c1.31-1.29,2.84-2.29,4.59-3c1.75-0.71,3.62-1.07,5.61-1.07c0.76,0,1.54,0.06,2.31,0.17c0.78,0.11,1.51,0.26,2.2,0.44
					c0.69,0.18,1.29,0.38,1.82,0.61c0.52,0.23,0.9,0.47,1.13,0.73c-0.23,0.36-0.41,0.65-0.54,0.88c-0.13,0.23-0.26,0.47-0.4,0.71
					c-0.14,0.24-0.29,0.52-0.46,0.82c-0.17,0.31-0.4,0.73-0.71,1.26c-0.31-0.2-0.68-0.38-1.11-0.54c-0.43-0.15-0.89-0.27-1.36-0.36
					c-0.47-0.09-0.95-0.16-1.44-0.21c-0.48-0.05-0.92-0.08-1.3-0.08c-1.43,0-2.75,0.27-3.96,0.8c-1.21,0.54-2.26,1.24-3.14,2.12
					c-0.88,0.88-1.57,1.91-2.07,3.08c-0.5,1.17-0.75,2.38-0.75,3.63c0,1.22,0.24,2.42,0.71,3.58c0.47,1.16,1.13,2.19,1.99,3.08
					c0.85,0.89,1.87,1.61,3.04,2.16c1.17,0.55,2.47,0.82,3.9,0.82c0.82,0,1.61-0.08,2.37-0.25c0.77-0.17,1.44-0.35,2.03-0.55
					c0.59-0.2,1.06-0.41,1.43-0.61c0.37-0.2,0.57-0.34,0.59-0.42L450.43,545.65z"/>
				<path class="st3" d="M470.63,519.82v4.48h-6.89v23.42h-4.71V524.3h-6.73v-4.48H470.63z"/>
				<path class="st3" d="M475.45,547.71v-27.89h7.88c1.53,0,2.93,0.2,4.19,0.61s2.33,1,3.21,1.76c0.88,0.77,1.56,1.71,2.05,2.83
					c0.48,1.12,0.73,2.39,0.73,3.79c0,0.77-0.08,1.53-0.23,2.3c-0.15,0.77-0.4,1.5-0.73,2.22c-0.33,0.71-0.76,1.37-1.3,1.97
					c-0.54,0.6-1.17,1.12-1.91,1.55c0.56,0.89,1.11,1.77,1.65,2.62c0.54,0.85,1.08,1.72,1.63,2.58c0.55,0.87,1.12,1.76,1.7,2.68
					c0.59,0.92,1.22,1.91,1.91,2.98h-5.62c-1.15-1.79-2.23-3.48-3.25-5.07c-1.02-1.59-2-3.11-2.95-4.53h-0.38h-3.9v9.6H475.45z
					 M480.12,533.71h3.75c0.97,0,1.77-0.17,2.41-0.5c0.64-0.33,1.15-0.73,1.53-1.21c0.38-0.47,0.65-0.98,0.8-1.53
					c0.15-0.55,0.23-1.05,0.23-1.51c0-0.43-0.07-0.92-0.21-1.47c-0.14-0.55-0.4-1.07-0.77-1.55c-0.37-0.48-0.87-0.89-1.51-1.22
					c-0.64-0.33-1.45-0.5-2.45-0.5h-3.79V533.71z"/>
				<path class="st3" d="M499.79,519.82h4.71v27.89h-4.71V519.82z"/>
				<path class="st3" d="M531.93,545.65c-0.31,0.21-0.73,0.45-1.28,0.73c-0.55,0.28-1.2,0.54-1.95,0.78
					c-0.75,0.24-1.6,0.45-2.54,0.61c-0.94,0.16-1.95,0.25-3.02,0.25c-2.19,0-4.16-0.38-5.89-1.13c-1.74-0.75-3.2-1.77-4.4-3.04
					c-1.2-1.28-2.12-2.77-2.75-4.48c-0.64-1.71-0.96-3.51-0.96-5.4c0-2.09,0.38-4.02,1.15-5.8c0.77-1.77,1.8-3.3,3.12-4.59
					c1.31-1.29,2.84-2.29,4.59-3c1.75-0.71,3.62-1.07,5.61-1.07c0.76,0,1.54,0.06,2.31,0.17c0.78,0.11,1.51,0.26,2.2,0.44
					c0.69,0.18,1.29,0.38,1.82,0.61c0.52,0.23,0.9,0.47,1.13,0.73c-0.23,0.36-0.41,0.65-0.54,0.88c-0.13,0.23-0.26,0.47-0.4,0.71
					c-0.14,0.24-0.29,0.52-0.46,0.82c-0.17,0.31-0.4,0.73-0.71,1.26c-0.31-0.2-0.68-0.38-1.11-0.54c-0.43-0.15-0.89-0.27-1.36-0.36
					c-0.47-0.09-0.95-0.16-1.44-0.21c-0.48-0.05-0.92-0.08-1.3-0.08c-1.43,0-2.75,0.27-3.96,0.8c-1.21,0.54-2.26,1.24-3.14,2.12
					c-0.88,0.88-1.57,1.91-2.07,3.08c-0.5,1.17-0.75,2.38-0.75,3.63c0,1.22,0.24,2.42,0.71,3.58c0.47,1.16,1.13,2.19,1.99,3.08
					c0.85,0.89,1.87,1.61,3.04,2.16c1.17,0.55,2.47,0.82,3.9,0.82c0.82,0,1.61-0.08,2.37-0.25c0.77-0.17,1.44-0.35,2.03-0.55
					c0.59-0.2,1.06-0.41,1.43-0.61c0.37-0.2,0.57-0.34,0.59-0.42L531.93,545.65z"/>
				<path class="st3" d="M552.55,547.71c-0.08-0.18-0.21-0.5-0.4-0.96c-0.19-0.46-0.43-1.02-0.71-1.68c-0.28-0.66-0.59-1.4-0.92-2.2
					c-0.33-0.8-0.68-1.64-1.03-2.51h-9.6l-3.06,7.35h-4.63c0.1-0.23,0.34-0.8,0.73-1.7c0.38-0.91,0.86-2.03,1.44-3.37
					c0.57-1.34,1.21-2.83,1.91-4.48c0.7-1.65,1.42-3.32,2.16-5.03c0.74-1.71,1.46-3.39,2.16-5.03c0.7-1.64,1.34-3.14,1.91-4.48
					c0.57-1.34,1.05-2.46,1.43-3.37c0.38-0.91,0.62-1.47,0.73-1.7c0.1,0.23,0.35,0.8,0.75,1.7c0.39,0.91,0.88,2.03,1.45,3.37
					c0.57,1.34,1.21,2.83,1.91,4.48c0.7,1.65,1.42,3.32,2.16,5.03c0.74,1.71,1.46,3.39,2.16,5.03c0.7,1.64,1.34,3.14,1.91,4.48
					c0.57,1.34,1.05,2.46,1.43,3.37c0.38,0.91,0.62,1.47,0.73,1.7H552.55z M541.49,536.43h6.35l-2.75-6.66
					c-0.03-0.03-0.09-0.2-0.19-0.52c-0.1-0.32-0.18-0.61-0.23-0.86c-0.05,0.26-0.13,0.54-0.23,0.86c-0.1,0.32-0.15,0.49-0.15,0.52
					L541.49,536.43z"/>
				<path class="st3" d="M216.54,593.63v-27.89h18.52v4.25h-13.85v7.5h12.32v4.36h-12.32v7.42h14.39v4.36H216.54z"/>
				<path class="st3" d="M240.22,593.63v-27.89h4.67v23.45h13.54v4.44H240.22z"/>
				<path class="st3" d="M262.22,593.63v-27.89h18.52v4.25h-13.85v7.5h12.32v4.36h-12.32v7.42h14.39v4.36H262.22z"/>
				<path class="st3" d="M306.42,591.56c-0.31,0.21-0.73,0.45-1.28,0.73c-0.55,0.28-1.2,0.54-1.95,0.78
					c-0.75,0.24-1.6,0.45-2.54,0.61c-0.94,0.17-1.95,0.25-3.02,0.25c-2.19,0-4.16-0.38-5.89-1.13c-1.74-0.75-3.2-1.77-4.4-3.04
					s-2.12-2.77-2.75-4.48c-0.64-1.71-0.96-3.51-0.96-5.4c0-2.09,0.38-4.02,1.15-5.8c0.77-1.77,1.8-3.3,3.12-4.59
					c1.31-1.29,2.84-2.29,4.59-3c1.75-0.71,3.62-1.07,5.61-1.07c0.76,0,1.54,0.06,2.31,0.17c0.78,0.11,1.51,0.26,2.2,0.44
					c0.69,0.18,1.29,0.38,1.82,0.61c0.52,0.23,0.9,0.47,1.13,0.73c-0.23,0.36-0.41,0.65-0.54,0.88c-0.13,0.23-0.26,0.47-0.4,0.71
					c-0.14,0.24-0.29,0.52-0.46,0.82c-0.17,0.31-0.4,0.73-0.71,1.26c-0.31-0.2-0.68-0.38-1.11-0.54c-0.43-0.15-0.89-0.27-1.36-0.36
					c-0.47-0.09-0.95-0.16-1.44-0.21c-0.48-0.05-0.92-0.08-1.3-0.08c-1.43,0-2.75,0.27-3.96,0.8c-1.21,0.54-2.26,1.24-3.14,2.12
					c-0.88,0.88-1.57,1.91-2.07,3.08c-0.5,1.17-0.75,2.38-0.75,3.63c0,1.22,0.24,2.42,0.71,3.58c0.47,1.16,1.13,2.19,1.99,3.08
					c0.85,0.89,1.87,1.61,3.04,2.16c1.17,0.55,2.47,0.82,3.9,0.82c0.82,0,1.61-0.08,2.37-0.25c0.77-0.16,1.44-0.35,2.03-0.55
					c0.59-0.2,1.06-0.41,1.43-0.61c0.37-0.2,0.57-0.34,0.59-0.42L306.42,591.56z"/>
				<path class="st3" d="M326.62,565.74v4.48h-6.89v23.42h-4.71v-23.42h-6.73v-4.48H326.62z"/>
				<path class="st3" d="M331.44,593.63v-27.89h7.88c1.53,0,2.93,0.2,4.19,0.61c1.26,0.41,2.33,1,3.21,1.76
					c0.88,0.77,1.56,1.71,2.05,2.83c0.48,1.12,0.73,2.39,0.73,3.79c0,0.77-0.08,1.53-0.23,2.3c-0.15,0.77-0.4,1.5-0.73,2.22
					c-0.33,0.71-0.76,1.37-1.3,1.97c-0.54,0.6-1.17,1.12-1.91,1.55c0.56,0.89,1.11,1.77,1.65,2.62c0.54,0.85,1.08,1.72,1.63,2.58
					c0.55,0.87,1.12,1.76,1.7,2.68c0.59,0.92,1.22,1.91,1.91,2.98h-5.62c-1.15-1.79-2.23-3.48-3.25-5.07
					c-1.02-1.59-2-3.11-2.95-4.53h-0.38h-3.9v9.6H331.44z M336.11,579.62h3.75c0.97,0,1.77-0.16,2.41-0.5
					c0.64-0.33,1.15-0.73,1.53-1.21c0.38-0.47,0.65-0.98,0.8-1.53c0.15-0.55,0.23-1.05,0.23-1.51c0-0.43-0.07-0.92-0.21-1.47
					c-0.14-0.55-0.4-1.07-0.77-1.55c-0.37-0.48-0.87-0.89-1.51-1.22c-0.64-0.33-1.45-0.5-2.45-0.5h-3.79V579.62z"/>
				<path class="st3" d="M353.48,579.74c0-1.94,0.38-3.78,1.13-5.51c0.75-1.73,1.77-3.25,3.06-4.55c1.29-1.3,2.79-2.33,4.51-3.1
					c1.72-0.77,3.56-1.15,5.53-1.15c1.94,0,3.78,0.38,5.51,1.15c1.73,0.77,3.25,1.8,4.55,3.1c1.3,1.3,2.33,2.82,3.08,4.55
					c0.75,1.73,1.13,3.57,1.13,5.51c0,1.96-0.38,3.81-1.13,5.53c-0.75,1.72-1.78,3.23-3.08,4.51c-1.3,1.29-2.82,2.3-4.55,3.04
					c-1.73,0.74-3.57,1.11-5.51,1.11c-1.96,0-3.81-0.37-5.53-1.11c-1.72-0.74-3.23-1.75-4.51-3.04c-1.29-1.29-2.31-2.79-3.06-4.51
					C353.85,583.55,353.48,581.7,353.48,579.74z M358.18,579.74c0,1.35,0.25,2.62,0.75,3.81c0.5,1.19,1.19,2.22,2.07,3.1
					c0.88,0.88,1.9,1.58,3.06,2.08c1.16,0.51,2.42,0.77,3.77,0.77c1.3,0,2.53-0.25,3.69-0.77c1.16-0.51,2.17-1.21,3.02-2.08
					c0.85-0.88,1.53-1.91,2.03-3.1c0.5-1.19,0.75-2.45,0.75-3.81c0-1.35-0.25-2.62-0.76-3.81c-0.51-1.19-1.2-2.22-2.07-3.12
					c-0.87-0.89-1.88-1.59-3.04-2.1c-1.16-0.51-2.4-0.76-3.73-0.76c-1.33,0-2.57,0.25-3.73,0.76c-1.16,0.51-2.17,1.21-3.02,2.1
					c-0.85,0.89-1.53,1.93-2.03,3.12C358.43,577.12,358.18,578.39,358.18,579.74z M365.49,564.17c0.59-0.84,1.17-1.7,1.74-2.56
					c0.57-0.87,1.15-1.73,1.74-2.6h3.94c-0.77,0.87-1.54,1.74-2.33,2.6c-0.79,0.87-1.58,1.72-2.37,2.56H365.49z"/>
				<path class="st3" d="M411.21,565.74v29.19c-0.18-0.23-0.57-0.65-1.19-1.26c-0.61-0.61-1.36-1.34-2.26-2.2
					c-0.89-0.85-1.88-1.8-2.97-2.83c-1.08-1.03-2.19-2.08-3.31-3.14c-1.12-1.06-2.22-2.1-3.29-3.12c-1.07-1.02-2.05-1.96-2.93-2.81
					c-0.88-0.85-1.62-1.58-2.22-2.18c-0.6-0.6-0.99-1.01-1.17-1.24c-0.03-0.05-0.13-0.18-0.31-0.4c-0.18-0.22-0.33-0.41-0.46-0.59
					l0.12,1.22v17.26h-4.67v-29.16c0.18,0.23,0.57,0.64,1.19,1.24c0.61,0.6,1.36,1.32,2.26,2.16s1.88,1.76,2.97,2.75
					c1.08,1,2.19,2.01,3.31,3.04c1.12,1.03,2.22,2.05,3.29,3.06c1.07,1.01,2.05,1.93,2.95,2.75c0.89,0.83,1.64,1.54,2.24,2.12
					c0.6,0.59,0.99,0.99,1.17,1.22l0.73,1.07l-0.11-1.3v-16.87H411.21z"/>
				<path class="st3" d="M417.64,565.74h4.71v27.89h-4.71V565.74z"/>
				<path class="st3" d="M449.78,591.56c-0.31,0.21-0.73,0.45-1.28,0.73c-0.55,0.28-1.2,0.54-1.95,0.78
					c-0.75,0.24-1.6,0.45-2.54,0.61c-0.94,0.17-1.95,0.25-3.02,0.25c-2.19,0-4.16-0.38-5.89-1.13c-1.74-0.75-3.2-1.77-4.4-3.04
					c-1.2-1.28-2.12-2.77-2.75-4.48c-0.64-1.71-0.96-3.51-0.96-5.4c0-2.09,0.38-4.02,1.15-5.8c0.77-1.77,1.8-3.3,3.12-4.59
					c1.31-1.29,2.84-2.29,4.59-3c1.75-0.71,3.62-1.07,5.61-1.07c0.76,0,1.54,0.06,2.31,0.17c0.78,0.11,1.51,0.26,2.2,0.44
					c0.69,0.18,1.29,0.38,1.82,0.61c0.52,0.23,0.9,0.47,1.13,0.73c-0.23,0.36-0.41,0.65-0.54,0.88c-0.13,0.23-0.26,0.47-0.4,0.71
					c-0.14,0.24-0.29,0.52-0.46,0.82c-0.17,0.31-0.4,0.73-0.71,1.26c-0.31-0.2-0.68-0.38-1.11-0.54c-0.43-0.15-0.89-0.27-1.36-0.36
					c-0.47-0.09-0.95-0.16-1.44-0.21c-0.48-0.05-0.92-0.08-1.3-0.08c-1.43,0-2.75,0.27-3.96,0.8c-1.21,0.54-2.26,1.24-3.14,2.12
					c-0.88,0.88-1.57,1.91-2.07,3.08c-0.5,1.17-0.75,2.38-0.75,3.63c0,1.22,0.24,2.42,0.71,3.58c0.47,1.16,1.13,2.19,1.99,3.08
					c0.85,0.89,1.87,1.61,3.04,2.16c1.17,0.55,2.47,0.82,3.9,0.82c0.82,0,1.61-0.08,2.37-0.25c0.77-0.16,1.44-0.35,2.03-0.55
					c0.59-0.2,1.06-0.41,1.43-0.61c0.37-0.2,0.57-0.34,0.59-0.42L449.78,591.56z"/>
				<path class="st3" d="M470.4,593.63c-0.08-0.18-0.21-0.5-0.4-0.96c-0.19-0.46-0.43-1.02-0.71-1.68c-0.28-0.66-0.59-1.4-0.92-2.2
					c-0.33-0.8-0.68-1.64-1.03-2.51h-9.6l-3.06,7.35h-4.63c0.1-0.23,0.34-0.8,0.73-1.7c0.38-0.91,0.86-2.03,1.44-3.37
					c0.57-1.34,1.21-2.83,1.91-4.48c0.7-1.65,1.42-3.32,2.16-5.03c0.74-1.71,1.46-3.39,2.16-5.03c0.7-1.64,1.34-3.14,1.91-4.48
					c0.57-1.34,1.05-2.46,1.43-3.37c0.38-0.91,0.62-1.47,0.73-1.7c0.1,0.23,0.35,0.8,0.75,1.7c0.39,0.91,0.88,2.03,1.45,3.37
					c0.57,1.34,1.21,2.83,1.91,4.48c0.7,1.65,1.42,3.32,2.16,5.03c0.74,1.71,1.46,3.39,2.16,5.03c0.7,1.64,1.34,3.14,1.91,4.48
					c0.57,1.34,1.05,2.46,1.43,3.37c0.38,0.91,0.62,1.47,0.73,1.7H470.4z M459.35,582.34h6.35l-2.75-6.66
					c-0.03-0.03-0.09-0.2-0.19-0.52c-0.1-0.32-0.18-0.61-0.23-0.86c-0.05,0.26-0.13,0.54-0.23,0.86c-0.1,0.32-0.15,0.49-0.15,0.52
					L459.35,582.34z"/>
			</g>
		</g>
	</g>
</g>
</svg>
