<?xml version="1.0" encoding="utf-8"?>
<!-- Generator: Adobe Illustrator 27.1.0, SVG Export Plug-In . SVG Version: 6.00 Build 0)  -->
<svg version="1.1" id="Capa_1" xmlns="http://www.w3.org/2000/svg" xmlns:xlink="http://www.w3.org/1999/xlink" x="0px" y="0px"
	 viewBox="0 0 683 768" style="enable-background:new 0 0 683 768;" xml:space="preserve">
<style type="text/css">
	.st0{fill:#002E6D;}
	.st1{fill-rule:evenodd;clip-rule:evenodd;fill:#002E6D;}
	.st2{fill-rule:evenodd;clip-rule:evenodd;}
	.st3{fill:#FFFFFF;}
	.st4{fill-rule:evenodd;clip-rule:evenodd;fill:#FFFFFF;}
</style>
<g>
	<g>
		<g>
			<g>
				<path class="st0" d="M589,650.13H94c-11.1,0-20.15-9.03-20.15-20.15V138.03c0-11.11,9.04-20.15,20.15-20.15h495
					c11.12,0,20.15,9.04,20.15,20.15v491.95C609.15,641.09,600.12,650.13,589,650.13z M94,129.38c-4.77,0-8.64,3.88-8.64,8.65
					v491.95c0,4.75,3.87,8.64,8.64,8.64h495c4.77,0,8.64-3.89,8.64-8.64V138.03c0-4.77-3.87-8.65-8.64-8.65H94z"/>
			</g>
			<g>
				<g>
					<path class="st0" d="M147.68,572.62h4.17v24.69h-4.17V572.62z"/>
					<path class="st0" d="M179.34,572.62v25.84c-0.16-0.2-0.51-0.58-1.05-1.12c-0.54-0.54-1.21-1.19-2-1.95
						c-0.79-0.76-1.66-1.59-2.62-2.51c-0.96-0.91-1.94-1.84-2.93-2.78c-0.99-0.94-1.96-1.86-2.91-2.76
						c-0.95-0.9-1.81-1.73-2.59-2.49c-0.78-0.76-1.43-1.4-1.96-1.93c-0.53-0.53-0.88-0.9-1.03-1.1c-0.02-0.04-0.11-0.16-0.27-0.36
						c-0.16-0.19-0.29-0.37-0.41-0.52l0.1,1.08v15.28h-4.13V571.5c0.16,0.2,0.51,0.57,1.05,1.1c0.54,0.53,1.21,1.17,2,1.91
						c0.79,0.75,1.67,1.56,2.62,2.44c0.96,0.88,1.94,1.78,2.93,2.69c0.99,0.91,1.96,1.82,2.91,2.71c0.95,0.89,1.82,1.71,2.61,2.44
						c0.79,0.73,1.45,1.36,1.98,1.88c0.53,0.52,0.88,0.88,1.03,1.08l0.64,0.95l-0.1-1.15v-14.94H179.34z"/>
					<path class="st0" d="M203.7,585.32v10.5c-0.95,0.56-2.09,1-3.44,1.3c-1.34,0.3-2.72,0.46-4.12,0.46c-1.94,0-3.7-0.3-5.27-0.91
						c-1.57-0.61-2.91-1.44-4.01-2.51c-1.11-1.06-1.95-2.33-2.54-3.79c-0.59-1.47-0.88-3.07-0.88-4.81c0-1.96,0.35-3.75,1.05-5.37
						c0.7-1.61,1.64-3,2.83-4.17c1.18-1.16,2.56-2.07,4.13-2.71c1.57-0.64,3.22-0.97,4.96-0.97c0.59,0,1.2,0.04,1.85,0.12
						c0.64,0.08,1.28,0.2,1.91,0.36c0.63,0.16,1.24,0.34,1.83,0.56c0.59,0.21,1.12,0.47,1.59,0.76l-2.03,3.39
						c-0.32-0.2-0.69-0.38-1.13-0.53c-0.44-0.15-0.9-0.28-1.37-0.39c-0.47-0.11-0.94-0.2-1.41-0.25c-0.46-0.06-0.9-0.08-1.3-0.08
						c-1.15,0-2.25,0.23-3.3,0.69c-1.05,0.46-1.98,1.09-2.79,1.88c-0.81,0.79-1.46,1.73-1.95,2.83c-0.49,1.09-0.73,2.26-0.73,3.5
						c0,1.13,0.21,2.2,0.64,3.22c0.43,1.02,1.03,1.91,1.79,2.69c0.77,0.78,1.68,1.4,2.74,1.86c1.06,0.46,2.22,0.69,3.49,0.69
						c0.45,0,1.02-0.04,1.69-0.12c0.68-0.08,1.32-0.22,1.93-0.42v-4.2h-4.61v-3.59H203.7z"/>
					<path class="st0" d="M208.34,597.31v-24.69h16.39v3.76h-12.26v6.64h10.91v3.86h-10.91v6.57h12.74v3.86H208.34z"/>
					<path class="st0" d="M251.12,572.62v25.84c-0.16-0.2-0.51-0.58-1.05-1.12c-0.54-0.54-1.21-1.19-2-1.95
						c-0.79-0.76-1.67-1.59-2.62-2.51c-0.96-0.91-1.94-1.84-2.93-2.78c-0.99-0.94-1.96-1.86-2.91-2.76
						c-0.95-0.9-1.81-1.73-2.59-2.49c-0.78-0.76-1.43-1.4-1.96-1.93c-0.53-0.53-0.88-0.9-1.03-1.1c-0.02-0.04-0.11-0.16-0.27-0.36
						c-0.16-0.19-0.29-0.37-0.41-0.52l0.1,1.08v15.28h-4.13V571.5c0.16,0.2,0.51,0.57,1.05,1.1c0.54,0.53,1.21,1.17,2,1.91
						c0.79,0.75,1.67,1.56,2.62,2.44c0.96,0.88,1.94,1.78,2.93,2.69c0.99,0.91,1.96,1.82,2.91,2.71c0.95,0.89,1.82,1.71,2.61,2.44
						c0.79,0.73,1.45,1.36,1.98,1.88c0.53,0.52,0.88,0.88,1.03,1.08l0.64,0.95l-0.1-1.15v-14.94H251.12z"/>
					<path class="st0" d="M256.81,572.62h4.17v24.69h-4.17V572.62z"/>
					<path class="st0" d="M266.66,597.31v-24.69h16.39v3.76h-12.26v6.64h10.91v3.86h-10.91v6.57h12.74v3.86H266.66z"/>
					<path class="st0" d="M287.63,597.31v-24.69h6.98c1.36,0,2.59,0.18,3.71,0.54c1.12,0.36,2.07,0.88,2.84,1.56
						c0.78,0.68,1.38,1.51,1.81,2.51c0.43,0.99,0.64,2.11,0.64,3.35c0,0.68-0.07,1.36-0.2,2.03c-0.14,0.68-0.35,1.33-0.64,1.96
						c-0.29,0.63-0.68,1.21-1.15,1.74c-0.47,0.53-1.04,0.99-1.69,1.37c0.5,0.79,0.98,1.56,1.46,2.32c0.47,0.76,0.95,1.52,1.44,2.29
						c0.49,0.77,0.99,1.56,1.51,2.37c0.52,0.81,1.08,1.69,1.69,2.64h-4.98c-1.02-1.58-1.98-3.08-2.88-4.49
						c-0.9-1.41-1.77-2.75-2.61-4.01h-0.34h-3.46v8.5H287.63z M291.76,584.92h3.32c0.86,0,1.57-0.15,2.13-0.44
						c0.56-0.29,1.02-0.65,1.35-1.07c0.34-0.42,0.58-0.87,0.71-1.35c0.13-0.49,0.2-0.93,0.2-1.34c0-0.38-0.06-0.82-0.19-1.3
						c-0.12-0.49-0.35-0.94-0.68-1.37c-0.33-0.43-0.77-0.79-1.34-1.08c-0.56-0.29-1.29-0.44-2.17-0.44h-3.35V584.92z"/>
					<path class="st0" d="M309.17,572.62h4.17v24.69h-4.17V572.62z M309.51,571.23c0.52-0.75,1.03-1.5,1.54-2.27
						c0.51-0.77,1.02-1.54,1.54-2.3h3.49c-0.68,0.77-1.37,1.54-2.07,2.3c-0.7,0.77-1.4,1.52-2.1,2.27H309.51z"/>
					<path class="st0" d="M334.2,597.31c-0.07-0.16-0.19-0.44-0.36-0.85c-0.17-0.41-0.38-0.9-0.63-1.49
						c-0.25-0.59-0.52-1.24-0.81-1.95c-0.29-0.71-0.6-1.45-0.91-2.22h-8.5l-2.71,6.5h-4.1c0.09-0.2,0.3-0.71,0.64-1.51
						c0.34-0.8,0.76-1.8,1.27-2.98c0.51-1.18,1.07-2.51,1.69-3.96c0.62-1.46,1.26-2.94,1.91-4.45c0.66-1.51,1.29-3,1.91-4.45
						c0.62-1.46,1.19-2.78,1.69-3.96c0.51-1.19,0.93-2.18,1.27-2.98c0.34-0.8,0.55-1.3,0.64-1.51c0.09,0.2,0.31,0.71,0.66,1.51
						c0.35,0.8,0.78,1.79,1.29,2.98c0.51,1.19,1.07,2.51,1.69,3.96c0.62,1.46,1.26,2.94,1.91,4.45c0.65,1.51,1.29,3,1.91,4.45
						c0.62,1.46,1.18,2.78,1.69,3.96c0.51,1.19,0.93,2.18,1.27,2.98c0.34,0.8,0.55,1.3,0.64,1.51H334.2z M324.41,587.32h5.62
						l-2.44-5.89c-0.02-0.02-0.08-0.17-0.17-0.46c-0.09-0.28-0.16-0.54-0.2-0.76c-0.05,0.23-0.11,0.48-0.2,0.76
						c-0.09,0.28-0.14,0.44-0.14,0.46L324.41,587.32z"/>
					<path class="st0" d="M347.88,572.62h4.17v24.69h-4.17V572.62z"/>
					<path class="st0" d="M379.55,572.62v25.84c-0.16-0.2-0.51-0.58-1.05-1.12s-1.21-1.19-2-1.95c-0.79-0.76-1.67-1.59-2.62-2.51
						c-0.96-0.91-1.94-1.84-2.93-2.78c-0.99-0.94-1.96-1.86-2.91-2.76c-0.95-0.9-1.81-1.73-2.59-2.49c-0.78-0.76-1.43-1.4-1.96-1.93
						c-0.53-0.53-0.88-0.9-1.03-1.1c-0.02-0.04-0.11-0.16-0.27-0.36c-0.16-0.19-0.29-0.37-0.41-0.52l0.1,1.08v15.28h-4.13V571.5
						c0.16,0.2,0.51,0.57,1.05,1.1c0.54,0.53,1.21,1.17,2,1.91c0.79,0.75,1.67,1.56,2.62,2.44c0.96,0.88,1.94,1.78,2.93,2.69
						c0.99,0.91,1.96,1.82,2.91,2.71c0.95,0.89,1.82,1.71,2.61,2.44c0.79,0.73,1.45,1.36,1.98,1.88c0.53,0.52,0.88,0.88,1.03,1.08
						l0.64,0.95l-0.1-1.15v-14.94H379.55z"/>
					<path class="st0" d="M385.24,572.62h6.4c2.48,0,4.59,0.38,6.32,1.13c1.73,0.76,3.13,1.73,4.22,2.93
						c1.08,1.2,1.87,2.56,2.35,4.08c0.49,1.52,0.73,3.04,0.73,4.56c0,1.85-0.33,3.52-1,5c-0.67,1.48-1.56,2.74-2.69,3.78
						c-1.13,1.04-2.44,1.83-3.95,2.39c-1.5,0.55-3.09,0.83-4.76,0.83h-7.62V572.62z M392.22,593.38c1.29,0,2.47-0.18,3.56-0.54
						c1.08-0.36,2.02-0.9,2.81-1.61c0.79-0.71,1.41-1.58,1.85-2.61c0.44-1.03,0.66-2.22,0.66-3.57c0-1.54-0.27-2.84-0.8-3.91
						c-0.53-1.07-1.2-1.94-2.01-2.61c-0.81-0.67-1.72-1.15-2.71-1.46c-0.99-0.31-1.94-0.46-2.85-0.46h-3.32v16.77H392.22z"/>
					<path class="st0" d="M418.7,597.58c-1.33,0-2.58-0.22-3.74-0.66c-1.16-0.44-2.17-1.05-3.03-1.85
						c-0.86-0.79-1.54-1.74-2.03-2.86c-0.5-1.12-0.75-2.35-0.75-3.71v-15.88h4.13v15.78c0,0.72,0.14,1.4,0.42,2.03
						c0.28,0.63,0.67,1.19,1.15,1.66c0.49,0.47,1.05,0.85,1.71,1.13c0.66,0.28,1.37,0.42,2.13,0.42c0.77,0,1.49-0.14,2.15-0.42
						c0.67-0.28,1.25-0.66,1.74-1.13c0.5-0.47,0.89-1.03,1.17-1.66c0.28-0.63,0.42-1.31,0.42-2.03v-15.78h4.13v15.88
						c0,1.36-0.25,2.59-0.75,3.71c-0.5,1.12-1.18,2.07-2.05,2.86c-0.87,0.79-1.89,1.41-3.07,1.85
						C421.29,597.36,420.03,597.58,418.7,597.58z"/>
					<path class="st0" d="M448.34,574.01l-1.49,3.39c-0.95-0.34-1.89-0.61-2.81-0.81c-0.93-0.2-1.78-0.3-2.57-0.3
						c-1.38,0-2.47,0.27-3.27,0.81c-0.8,0.54-1.2,1.23-1.2,2.07c0,0.72,0.3,1.31,0.9,1.76c0.6,0.45,1.35,0.86,2.25,1.22
						c0.9,0.36,1.88,0.73,2.93,1.1c1.05,0.37,2.03,0.85,2.93,1.44c0.9,0.59,1.65,1.33,2.25,2.24c0.6,0.9,0.9,2.05,0.9,3.46
						c0,1.08-0.2,2.07-0.59,2.95c-0.4,0.88-0.99,1.64-1.78,2.27c-0.79,0.63-1.79,1.12-3,1.47c-1.21,0.35-2.62,0.52-4.25,0.52
						c-0.99,0-1.9-0.07-2.71-0.2c-0.81-0.13-1.54-0.3-2.18-0.51c-0.64-0.2-1.21-0.42-1.71-0.66c-0.5-0.24-0.93-0.47-1.29-0.69
						l1.8-3.62c0.95,0.52,1.96,0.92,3.05,1.2c1.08,0.28,2.04,0.42,2.88,0.42c0.41,0,0.93-0.04,1.58-0.13
						c0.64-0.09,1.27-0.26,1.88-0.51c0.61-0.25,1.13-0.59,1.58-1.02c0.44-0.43,0.66-0.98,0.66-1.66c0-0.79-0.3-1.44-0.9-1.95
						c-0.6-0.51-1.35-0.96-2.25-1.35c-0.9-0.39-1.88-0.78-2.93-1.17c-1.05-0.38-2.03-0.84-2.93-1.37c-0.9-0.53-1.65-1.19-2.25-1.96
						c-0.6-0.78-0.9-1.77-0.9-2.96c0-0.86,0.17-1.7,0.51-2.52c0.34-0.82,0.85-1.56,1.54-2.22c0.69-0.65,1.55-1.19,2.57-1.59
						c1.03-0.41,2.24-0.61,3.64-0.61c0.88,0,1.73,0.07,2.56,0.22c0.82,0.15,1.56,0.31,2.22,0.49c0.65,0.18,1.2,0.36,1.63,0.53
						C447.99,573.89,448.25,573.99,448.34,574.01z"/>
					<path class="st0" d="M467.92,572.62v3.96h-6.1v20.73h-4.17v-20.73h-5.96v-3.96H467.92z"/>
					<path class="st0" d="M472.18,597.31v-24.69h6.98c1.36,0,2.59,0.18,3.71,0.54c1.12,0.36,2.07,0.88,2.84,1.56
						c0.78,0.68,1.38,1.51,1.81,2.51c0.43,0.99,0.64,2.11,0.64,3.35c0,0.68-0.07,1.36-0.2,2.03c-0.14,0.68-0.35,1.33-0.64,1.96
						c-0.29,0.63-0.68,1.21-1.15,1.74c-0.47,0.53-1.04,0.99-1.69,1.37c0.5,0.79,0.98,1.56,1.46,2.32c0.47,0.76,0.95,1.52,1.44,2.29
						c0.49,0.77,0.99,1.56,1.51,2.37c0.52,0.81,1.08,1.69,1.69,2.64h-4.98c-1.02-1.58-1.98-3.08-2.88-4.49
						c-0.9-1.41-1.77-2.75-2.61-4.01h-0.34h-3.46v8.5H472.18z M476.32,584.92h3.32c0.86,0,1.57-0.15,2.13-0.44
						c0.56-0.29,1.02-0.65,1.35-1.07c0.34-0.42,0.58-0.87,0.71-1.35c0.13-0.49,0.2-0.93,0.2-1.34c0-0.38-0.06-0.82-0.19-1.3
						c-0.12-0.49-0.35-0.94-0.68-1.37c-0.33-0.43-0.77-0.79-1.34-1.08c-0.56-0.29-1.29-0.44-2.17-0.44h-3.35V584.92z"/>
					<path class="st0" d="M493.72,572.62h4.17v24.69h-4.17V572.62z"/>
					<path class="st0" d="M518.75,597.31c-0.07-0.16-0.19-0.44-0.36-0.85c-0.17-0.41-0.38-0.9-0.63-1.49
						c-0.25-0.59-0.52-1.24-0.81-1.95c-0.29-0.71-0.6-1.45-0.91-2.22h-8.5l-2.71,6.5h-4.1c0.09-0.2,0.3-0.71,0.64-1.51
						c0.34-0.8,0.76-1.8,1.27-2.98c0.51-1.18,1.07-2.51,1.69-3.96c0.62-1.46,1.26-2.94,1.91-4.45c0.66-1.51,1.29-3,1.91-4.45
						c0.62-1.46,1.19-2.78,1.69-3.96c0.51-1.19,0.93-2.18,1.27-2.98c0.34-0.8,0.55-1.3,0.64-1.51c0.09,0.2,0.31,0.71,0.66,1.51
						c0.35,0.8,0.78,1.79,1.29,2.98c0.51,1.19,1.07,2.51,1.69,3.96c0.62,1.46,1.26,2.94,1.91,4.45c0.65,1.51,1.29,3,1.91,4.45
						c0.62,1.46,1.18,2.78,1.69,3.96c0.51,1.19,0.93,2.18,1.27,2.98c0.34,0.8,0.55,1.3,0.64,1.51H518.75z M508.97,587.32h5.62
						l-2.44-5.89c-0.02-0.02-0.08-0.17-0.17-0.46c-0.09-0.28-0.16-0.54-0.2-0.76c-0.05,0.23-0.11,0.48-0.2,0.76
						c-0.09,0.28-0.14,0.44-0.14,0.46L508.97,587.32z"/>
					<path class="st0" d="M525.7,597.31v-24.69h4.13v20.76h11.99v3.93H525.7z"/>
				</g>
			</g>
		</g>
		<g>
			<path class="st0" d="M386.05,381.21v34.35l-1.93,2.35c-4.37,2.25-8.89,4.07-13.51,5.46c-1.27-11.32-10.88-20.11-22.54-20.11
				c-11.76,0-21.43,8.93-22.58,20.39c-4.95-1.43-9.79-3.34-14.45-5.74l-1.93-2.6v-62.73l7.33,5.12v-31.05c0,0,2.61-0.84,5.8-0.84
				c3.23,0,5.86,0.84,5.86,0.84v39.19l5.02,3.52v-10.52l26.48,16.64v-8.66L386.05,381.21z"/>
			<path class="st0" d="M458.36,374.5c1.35-10.16,1.37-20.52-0.14-30.88l51.33-37.06l-13.28-29.28l-60.18,13.85
				c-6.39-8.33-13.76-15.67-21.95-21.77l10.08-62.45l-30.1-11.31l-32.78,52.39c-10.15-1.35-20.5-1.33-30.86,0.17l-37.06-51.31
				l-29.28,13.27l13.84,60.16c-8.33,6.39-15.67,13.74-21.79,21.94l-62.46-10.08l-11.31,30.1l52.39,32.77
				c-1.35,10.15-1.37,20.51,0.14,30.88l-51.34,37.06l13.28,29.28l60.19-13.85c6.34,8.28,20.78,19.89,20.78,19.89l45.8,0.04
				c15.09,6.83,19,19.13,19.98,24.1c0.01,0.03,0.01,0.05,0.02,0.08c2.49,0.08,4.99,0.07,7.5-0.03c0.01-0.03,0.01-0.06,0.02-0.09
				c0.98-4.96,4.89-17.25,19.97-24.07l0.16-0.04h45.19c7.8-6.14,14.68-13.18,20.49-20.95l62.45,10.08l11.31-30.1L458.36,374.5z
				 M411.57,402.84l9.55,7.96l-21.98,6.52l-0.01,0.01c-8.42,7.72-18.5,13.65-29.63,17.19c-0.04,0.1-0.08,0.21-0.12,0.32
				c-3.6,8.64-11.96,14.22-21.32,14.22c-8.72,0-16.6-4.82-20.56-12.59c-0.05-0.1-0.1-0.21-0.15-0.31
				c-16.36-3.82-30.78-12.7-41.53-24.9l-9.32,6.28l-1.04-21.16c-6.04-11.2-9.47-23.99-9.47-37.59c0-18.32,6.23-35.22,16.69-48.67
				l-7.52-7.6l20.99-6c13.55-10.77,30.7-17.2,49.32-17.2c21.32,0,40.7,8.43,54.98,22.14l9.25-7.02l2.89,21.85v-0.02
				c7.83,12.31,12.36,26.89,12.36,42.52C424.93,375.06,420,390.21,411.57,402.84z"/>
			<g>
				<path class="st1" d="M340.25,477.49v58.3l-24.09-18.85c0,0,0-24.96,0-30.37c0-5.41-7.86-7.85-7.86-7.85h-12.04l-12.92-22.41
					l-0.86-1.5h39.98c13.41,6.07,16.77,17.16,17.57,21.18C340.21,476.93,340.25,477.49,340.25,477.49z"/>
			</g>
			<g>
				<path class="st1" d="M412.95,454.8l-13.79,23.92h-12.04c0,0-7.86,2.44-7.86,7.85c0,5.41,0,30.37,0,30.37l-24.09,18.85v-58.3
					c0,0,0.04-0.56,0.24-1.54c0.8-4.05,4.18-15.1,17.56-21.16H412.95z"/>
			</g>
			<g>
				<path class="st0" d="M367.18,426.47c0,2.55-0.51,4.99-1.44,7.2c-2.82,6.77-9.5,11.53-17.29,11.53
					c-7.27,0-13.58-4.15-16.68-10.21c-1.32-2.55-2.06-5.45-2.06-8.52c0-0.64,0.03-1.27,0.1-1.9c0.95-9.46,8.93-16.83,18.63-16.83
					c9.62,0,17.55,7.25,18.6,16.6C367.14,425.03,367.18,425.74,367.18,426.47z"/>
			</g>
			<g>
				<polygon class="st0" points="293.71,321.03 274.13,302.9 275.5,301.42 292.24,316.93 295.34,294.62 297.34,294.9 				"/>
			</g>
			<g>
				<polygon class="st0" points="413.88,317.72 388.68,309.92 409.73,293.52 410.97,295.12 392.97,309.14 414.48,315.79 				"/>
			</g>
			<g>
				<polygon class="st0" points="400.87,420.48 398.86,420.3 401.21,394.02 421.65,411.18 420.35,412.72 402.87,398.05 				"/>
			</g>
			<g>
				<polygon class="st0" points="276.5,418.74 275.35,417.07 294.16,404.16 273.09,396.22 273.8,394.33 298.49,403.63 				"/>
			</g>
		</g>
	</g>
</g>
</svg>
