<?xml version="1.0" encoding="utf-8"?>
<!-- Generator: Adobe Illustrator 27.1.0, SVG Export Plug-In . SVG Version: 6.00 Build 0)  -->
<svg version="1.1" id="Capa_1" xmlns="http://www.w3.org/2000/svg" xmlns:xlink="http://www.w3.org/1999/xlink" x="0px" y="0px"
	 viewBox="0 0 683 768" style="enable-background:new 0 0 683 768;" xml:space="preserve">
<style type="text/css">
	.st0{fill:#002E6D;}
	.st1{fill:#FFFFFF;}
</style>
<g>
	<g>
		<g>
			<g>
				<g>
					<path class="st0" d="M586.55,647.5H96.45c-10.99,0-19.95-8.94-19.95-19.95V140.46c0-11,8.95-19.95,19.95-19.95h490.1
						c11.01,0,19.95,8.95,19.95,19.95v487.09C606.5,638.55,597.57,647.5,586.55,647.5z M96.45,131.9c-4.72,0-8.55,3.84-8.55,8.56
						v487.09c0,4.7,3.83,8.55,8.55,8.55h490.1c4.72,0,8.55-3.85,8.55-8.55V140.46c0-4.72-3.83-8.56-8.55-8.56H96.45z"/>
				</g>
				<g>
					<g>
						<path class="st0" d="M137.12,568.58h4.61v27.35h-4.61V568.58z"/>
						<path class="st0" d="M172.21,568.58v28.63c-0.18-0.22-0.56-0.64-1.16-1.24c-0.6-0.6-1.34-1.32-2.21-2.16
							c-0.88-0.84-1.85-1.76-2.91-2.78c-1.06-1.01-2.15-2.04-3.25-3.08c-1.1-1.04-2.18-2.06-3.23-3.06c-1.05-1-2.01-1.92-2.87-2.76
							c-0.86-0.84-1.59-1.55-2.18-2.14c-0.59-0.59-0.97-1-1.14-1.22c-0.03-0.05-0.12-0.18-0.3-0.39c-0.18-0.21-0.33-0.41-0.45-0.58
							l0.11,1.2v16.92h-4.58v-28.59c0.17,0.22,0.56,0.63,1.16,1.22c0.6,0.59,1.34,1.29,2.21,2.12c0.88,0.83,1.84,1.73,2.91,2.7
							c1.06,0.98,2.14,1.97,3.25,2.98c1.1,1.01,2.18,2.01,3.23,3c1.05,0.99,2.01,1.89,2.89,2.7c0.88,0.81,1.61,1.51,2.19,2.08
							c0.59,0.58,0.97,0.98,1.14,1.2l0.71,1.05l-0.11-1.28v-16.55H172.21z"/>
						<path class="st0" d="M199.18,582.65v11.63c-1.05,0.63-2.32,1.11-3.81,1.45c-1.49,0.34-3.01,0.51-4.56,0.51
							c-2.15,0-4.1-0.34-5.84-1.01c-1.74-0.68-3.22-1.6-4.45-2.78c-1.23-1.18-2.16-2.58-2.81-4.2c-0.65-1.62-0.98-3.4-0.98-5.33
							c0-2.18,0.39-4.16,1.16-5.95c0.77-1.79,1.82-3.33,3.13-4.62c1.31-1.29,2.84-2.29,4.58-3c1.74-0.71,3.57-1.07,5.5-1.07
							c0.65,0,1.33,0.04,2.04,0.13c0.71,0.09,1.42,0.22,2.12,0.39c0.7,0.18,1.38,0.38,2.03,0.62c0.65,0.24,1.24,0.52,1.76,0.84
							l-2.25,3.75c-0.35-0.22-0.77-0.42-1.26-0.58c-0.49-0.16-1-0.31-1.52-0.43c-0.52-0.12-1.04-0.22-1.56-0.28
							c-0.51-0.06-0.99-0.09-1.44-0.09c-1.28,0-2.5,0.26-3.66,0.77c-1.16,0.51-2.19,1.21-3.09,2.08c-0.9,0.88-1.62,1.92-2.16,3.13
							c-0.54,1.21-0.81,2.51-0.81,3.88c0,1.25,0.24,2.44,0.71,3.56c0.48,1.13,1.14,2.12,1.99,2.98c0.85,0.86,1.86,1.55,3.04,2.06
							s2.46,0.77,3.86,0.77c0.5,0,1.13-0.04,1.88-0.13c0.75-0.09,1.46-0.24,2.14-0.47v-4.65h-5.1v-3.98H199.18z"/>
						<path class="st0" d="M204.33,595.93v-27.35h18.16v4.17H208.9v7.35h12.08v4.28H208.9v7.28h14.11v4.28H204.33z"/>
						<path class="st0" d="M251.71,568.58v28.63c-0.18-0.22-0.56-0.64-1.16-1.24c-0.6-0.6-1.34-1.32-2.21-2.16
							c-0.88-0.84-1.85-1.76-2.91-2.78c-1.06-1.01-2.15-2.04-3.25-3.08c-1.1-1.04-2.18-2.06-3.23-3.06c-1.05-1-2.01-1.92-2.87-2.76
							c-0.86-0.84-1.59-1.55-2.18-2.14c-0.59-0.59-0.97-1-1.14-1.22c-0.03-0.05-0.12-0.18-0.3-0.39c-0.18-0.21-0.33-0.41-0.45-0.58
							l0.11,1.2v16.92h-4.58v-28.59c0.17,0.22,0.56,0.63,1.16,1.22c0.6,0.59,1.34,1.29,2.21,2.12c0.88,0.83,1.84,1.73,2.91,2.7
							c1.06,0.98,2.14,1.97,3.25,2.98c1.1,1.01,2.18,2.01,3.23,3c1.05,0.99,2.01,1.89,2.89,2.7c0.88,0.81,1.61,1.51,2.19,2.08
							c0.59,0.58,0.97,0.98,1.14,1.2l0.71,1.05l-0.11-1.28v-16.55H251.71z"/>
						<path class="st0" d="M258.02,568.58h4.61v27.35h-4.61V568.58z"/>
						<path class="st0" d="M268.94,595.93v-27.35h18.16v4.17h-13.58v7.35h12.08v4.28h-12.08v7.28h14.11v4.28H268.94z"/>
						<path class="st0" d="M292.16,595.93v-27.35h7.73c1.5,0,2.87,0.2,4.11,0.6c1.24,0.4,2.29,0.98,3.15,1.73
							c0.86,0.75,1.53,1.68,2.01,2.78c0.47,1.1,0.71,2.34,0.71,3.71c0,0.75-0.08,1.5-0.23,2.25c-0.15,0.75-0.39,1.48-0.71,2.18
							c-0.33,0.7-0.75,1.34-1.28,1.93c-0.53,0.59-1.15,1.09-1.88,1.52c0.55,0.88,1.09,1.73,1.61,2.57c0.53,0.84,1.06,1.68,1.59,2.53
							c0.54,0.85,1.09,1.73,1.67,2.63c0.58,0.9,1.2,1.88,1.88,2.93h-5.52c-1.13-1.75-2.19-3.41-3.19-4.97
							c-1-1.56-1.96-3.04-2.89-4.45h-0.38h-3.83v9.42H292.16z M296.74,582.2h3.68c0.95,0,1.74-0.16,2.36-0.49s1.13-0.72,1.5-1.18
							c0.38-0.46,0.64-0.96,0.79-1.5s0.22-1.03,0.22-1.48c0-0.42-0.07-0.91-0.21-1.44c-0.14-0.54-0.39-1.04-0.75-1.52
							c-0.36-0.48-0.86-0.88-1.48-1.2c-0.63-0.33-1.43-0.49-2.4-0.49h-3.71V582.2z"/>
						<path class="st0" d="M316.03,568.58h4.61v27.35h-4.61V568.58z M316.4,567.04c0.58-0.83,1.14-1.66,1.71-2.51
							c0.56-0.85,1.13-1.7,1.71-2.55h3.87c-0.75,0.85-1.51,1.7-2.29,2.55c-0.78,0.85-1.55,1.69-2.33,2.51H316.4z"/>
						<path class="st0" d="M343.75,595.93c-0.08-0.17-0.21-0.49-0.39-0.94c-0.19-0.45-0.42-1-0.69-1.65
							c-0.28-0.65-0.58-1.37-0.9-2.16c-0.33-0.79-0.66-1.61-1.01-2.46h-9.42l-3,7.2h-4.54c0.1-0.23,0.34-0.78,0.71-1.67
							c0.38-0.89,0.84-1.99,1.41-3.3c0.56-1.31,1.19-2.78,1.88-4.39c0.69-1.61,1.39-3.26,2.12-4.93c0.73-1.68,1.43-3.32,2.12-4.93
							c0.69-1.61,1.31-3.08,1.88-4.39c0.56-1.31,1.03-2.41,1.41-3.3c0.38-0.89,0.61-1.45,0.71-1.67c0.1,0.22,0.34,0.78,0.73,1.67
							c0.39,0.89,0.86,1.99,1.43,3.3c0.56,1.31,1.19,2.78,1.88,4.39c0.69,1.61,1.39,3.26,2.12,4.93c0.73,1.68,1.43,3.32,2.12,4.93
							c0.69,1.61,1.31,3.08,1.88,4.39c0.56,1.31,1.03,2.41,1.41,3.3c0.38,0.89,0.61,1.44,0.71,1.67H343.75z M332.91,584.86h6.23
							l-2.7-6.53c-0.02-0.02-0.09-0.19-0.19-0.51c-0.1-0.31-0.17-0.59-0.22-0.84c-0.05,0.25-0.13,0.53-0.23,0.84
							c-0.1,0.31-0.15,0.48-0.15,0.51L332.91,584.86z"/>
						<path class="st0" d="M358.91,567.38c0.12,0.18,0.4,0.57,0.83,1.18c0.42,0.61,0.96,1.36,1.59,2.25
							c0.64,0.89,1.35,1.87,2.14,2.95c0.79,1.08,1.59,2.17,2.4,3.28c0.81,1.11,1.61,2.2,2.38,3.26c0.77,1.06,1.48,2.03,2.1,2.91
							c0.62,0.88,1.16,1.61,1.59,2.19c0.44,0.59,0.71,0.96,0.81,1.11c0.05-0.08,0.28-0.39,0.68-0.96s0.91-1.27,1.52-2.12
							c0.61-0.85,1.31-1.82,2.08-2.91c0.77-1.09,1.58-2.19,2.4-3.32c0.83-1.13,1.63-2.24,2.42-3.34c0.79-1.1,1.51-2.1,2.18-3
							c0.66-0.9,1.22-1.66,1.67-2.29c0.45-0.62,0.74-1.03,0.86-1.2v28.55h-4.92v-13.96c0-0.2,0.02-0.41,0.07-0.64
							c0.05-0.23,0.08-0.36,0.08-0.41l-9.04,13.02c-0.12-0.15-0.43-0.56-0.92-1.24c-0.49-0.68-1.07-1.48-1.75-2.4
							c-0.67-0.93-1.39-1.92-2.14-2.98c-0.75-1.06-1.46-2.05-2.12-2.96c-0.66-0.91-1.23-1.69-1.69-2.33
							c-0.46-0.64-0.72-1.01-0.77-1.11c0,0.05,0.02,0.19,0.08,0.41c0.05,0.22,0.07,0.44,0.07,0.64v13.96h-4.61V567.38z"/>
						<path class="st0" d="M392.87,595.93v-27.35h18.16v4.17h-13.58v7.35h12.08v4.28h-12.08v7.28h14.11v4.28H392.87z"/>
						<path class="st0" d="M436.21,593.91c-0.3,0.2-0.72,0.44-1.26,0.71c-0.54,0.28-1.18,0.53-1.91,0.77
							c-0.74,0.24-1.57,0.44-2.5,0.6c-0.93,0.16-1.91,0.24-2.96,0.24c-2.15,0-4.08-0.37-5.78-1.11c-1.7-0.74-3.14-1.73-4.31-2.98
							c-1.18-1.25-2.08-2.71-2.7-4.39c-0.62-1.68-0.94-3.44-0.94-5.29c0-2.05,0.38-3.95,1.12-5.68c0.75-1.74,1.77-3.24,3.06-4.5
							c1.29-1.26,2.79-2.25,4.5-2.95c1.71-0.7,3.55-1.05,5.5-1.05c0.75,0,1.51,0.06,2.27,0.17c0.76,0.11,1.48,0.26,2.16,0.43
							c0.68,0.18,1.27,0.38,1.78,0.6c0.51,0.23,0.88,0.46,1.11,0.71c-0.23,0.35-0.4,0.64-0.53,0.86c-0.13,0.22-0.26,0.46-0.39,0.69
							c-0.14,0.24-0.29,0.51-0.45,0.81c-0.16,0.3-0.39,0.71-0.69,1.24c-0.3-0.2-0.66-0.38-1.09-0.53c-0.43-0.15-0.87-0.27-1.33-0.36
							c-0.46-0.09-0.93-0.16-1.41-0.21c-0.47-0.05-0.9-0.07-1.28-0.07c-1.4,0-2.7,0.26-3.88,0.79c-1.19,0.53-2.21,1.22-3.08,2.08
							c-0.86,0.86-1.54,1.87-2.03,3.02c-0.49,1.15-0.73,2.34-0.73,3.56c0,1.2,0.23,2.37,0.69,3.51c0.46,1.14,1.11,2.14,1.95,3.02
							c0.84,0.88,1.83,1.58,2.98,2.12c1.15,0.54,2.43,0.81,3.83,0.81c0.8,0,1.58-0.08,2.33-0.24c0.75-0.16,1.41-0.34,1.99-0.54
							c0.58-0.2,1.04-0.4,1.41-0.6c0.36-0.2,0.56-0.34,0.58-0.41L436.21,593.91z"/>
						<path class="st0" d="M456.43,595.93c-0.08-0.17-0.21-0.49-0.39-0.94c-0.19-0.45-0.42-1-0.69-1.65
							c-0.28-0.65-0.58-1.37-0.9-2.16c-0.33-0.79-0.66-1.61-1.01-2.46h-9.42l-3,7.2h-4.54c0.1-0.23,0.34-0.78,0.71-1.67
							c0.38-0.89,0.84-1.99,1.41-3.3c0.56-1.31,1.19-2.78,1.88-4.39c0.69-1.61,1.39-3.26,2.12-4.93c0.73-1.68,1.43-3.32,2.12-4.93
							c0.69-1.61,1.31-3.08,1.88-4.39c0.56-1.31,1.03-2.41,1.41-3.3c0.38-0.89,0.61-1.45,0.71-1.67c0.1,0.22,0.34,0.78,0.73,1.67
							c0.39,0.89,0.86,1.99,1.43,3.3c0.56,1.31,1.19,2.78,1.88,4.39c0.69,1.61,1.39,3.26,2.12,4.93c0.73,1.68,1.43,3.32,2.12,4.93
							c0.69,1.61,1.31,3.08,1.88,4.39c0.56,1.31,1.03,2.41,1.41,3.3c0.38,0.89,0.61,1.44,0.71,1.67H456.43z M445.59,584.86h6.23
							l-2.7-6.53c-0.02-0.02-0.09-0.19-0.19-0.51c-0.1-0.31-0.17-0.59-0.22-0.84c-0.05,0.25-0.13,0.53-0.23,0.84
							c-0.1,0.31-0.15,0.48-0.15,0.51L445.59,584.86z M449.45,567.04c0.78-0.83,1.55-1.66,2.33-2.51c0.78-0.85,1.54-1.7,2.29-2.55
							h-3.86c-0.58,0.85-1.14,1.7-1.71,2.55c-0.56,0.85-1.13,1.69-1.71,2.51H449.45z"/>
						<path class="st0" d="M488.29,568.58v28.63c-0.18-0.22-0.56-0.64-1.16-1.24c-0.6-0.6-1.34-1.32-2.21-2.16
							c-0.88-0.84-1.85-1.76-2.91-2.78c-1.06-1.01-2.15-2.04-3.25-3.08c-1.1-1.04-2.18-2.06-3.23-3.06c-1.05-1-2.01-1.92-2.87-2.76
							c-0.86-0.84-1.59-1.55-2.18-2.14c-0.59-0.59-0.97-1-1.14-1.22c-0.03-0.05-0.12-0.18-0.3-0.39c-0.18-0.21-0.33-0.41-0.45-0.58
							l0.11,1.2v16.92h-4.58v-28.59c0.17,0.22,0.56,0.63,1.16,1.22c0.6,0.59,1.34,1.29,2.21,2.12c0.88,0.83,1.84,1.73,2.91,2.7
							c1.06,0.98,2.14,1.97,3.25,2.98c1.1,1.01,2.18,2.01,3.23,3c1.05,0.99,2.01,1.89,2.89,2.7c0.88,0.81,1.61,1.51,2.19,2.08
							c0.59,0.58,0.97,0.98,1.14,1.2l0.71,1.05l-0.11-1.28v-16.55H488.29z"/>
						<path class="st0" d="M494.59,568.58h4.61v27.35h-4.61V568.58z"/>
						<path class="st0" d="M526.11,593.91c-0.3,0.2-0.72,0.44-1.26,0.71c-0.54,0.28-1.18,0.53-1.91,0.77
							c-0.74,0.24-1.57,0.44-2.5,0.6c-0.93,0.16-1.91,0.24-2.96,0.24c-2.15,0-4.08-0.37-5.78-1.11c-1.7-0.74-3.14-1.73-4.31-2.98
							c-1.18-1.25-2.08-2.71-2.7-4.39c-0.62-1.68-0.94-3.44-0.94-5.29c0-2.05,0.38-3.95,1.12-5.68c0.75-1.74,1.77-3.24,3.06-4.5
							c1.29-1.26,2.79-2.25,4.5-2.95c1.71-0.7,3.55-1.05,5.5-1.05c0.75,0,1.51,0.06,2.27,0.17c0.76,0.11,1.48,0.26,2.16,0.43
							c0.68,0.18,1.27,0.38,1.78,0.6c0.51,0.23,0.88,0.46,1.11,0.71c-0.23,0.35-0.4,0.64-0.53,0.86c-0.13,0.22-0.26,0.46-0.39,0.69
							c-0.14,0.24-0.29,0.51-0.45,0.81c-0.16,0.3-0.39,0.71-0.69,1.24c-0.3-0.2-0.66-0.38-1.09-0.53c-0.43-0.15-0.87-0.27-1.33-0.36
							c-0.46-0.09-0.93-0.16-1.41-0.21c-0.47-0.05-0.9-0.07-1.28-0.07c-1.4,0-2.7,0.26-3.88,0.79c-1.19,0.53-2.21,1.22-3.08,2.08
							c-0.86,0.86-1.54,1.87-2.03,3.02c-0.49,1.15-0.73,2.34-0.73,3.56c0,1.2,0.23,2.37,0.69,3.51c0.46,1.14,1.11,2.14,1.95,3.02
							c0.84,0.88,1.83,1.58,2.98,2.12c1.15,0.54,2.43,0.81,3.83,0.81c0.8,0,1.58-0.08,2.33-0.24c0.75-0.16,1.41-0.34,1.99-0.54
							c0.58-0.2,1.04-0.4,1.41-0.6c0.36-0.2,0.56-0.34,0.58-0.41L526.11,593.91z"/>
						<path class="st0" d="M546.33,595.93c-0.08-0.17-0.21-0.49-0.39-0.94c-0.19-0.45-0.42-1-0.69-1.65
							c-0.28-0.65-0.58-1.37-0.9-2.16c-0.33-0.79-0.66-1.61-1.01-2.46h-9.42l-3,7.2h-4.54c0.1-0.23,0.34-0.78,0.71-1.67
							c0.38-0.89,0.84-1.99,1.41-3.3c0.56-1.31,1.19-2.78,1.88-4.39c0.69-1.61,1.39-3.26,2.12-4.93c0.73-1.68,1.43-3.32,2.12-4.93
							c0.69-1.61,1.31-3.08,1.88-4.39c0.56-1.31,1.03-2.41,1.41-3.3c0.38-0.89,0.61-1.45,0.71-1.67c0.1,0.22,0.34,0.78,0.73,1.67
							c0.39,0.89,0.86,1.99,1.43,3.3c0.56,1.31,1.19,2.78,1.88,4.39c0.69,1.61,1.39,3.26,2.12,4.93c0.73,1.68,1.43,3.32,2.12,4.93
							c0.69,1.61,1.31,3.08,1.88,4.39c0.56,1.31,1.03,2.41,1.41,3.3c0.38,0.89,0.61,1.44,0.71,1.67H546.33z M535.49,584.86h6.23
							l-2.7-6.53c-0.02-0.02-0.09-0.19-0.19-0.51c-0.1-0.31-0.17-0.59-0.22-0.84c-0.05,0.25-0.13,0.53-0.23,0.84
							c-0.1,0.31-0.15,0.48-0.15,0.51L535.49,584.86z"/>
					</g>
				</g>
			</g>
		</g>
	</g>
	<g>
		<path class="st0" d="M457.49,260.86l15.24-23.06l-9.98-9.95l-22.54,14.95c-3.8-2.37-7.94-4.44-12.33-5.71l-5.49-27.33h-14.07
			l-5.36,26.67c-4.48,1.03-8.73,2.74-12.65,4.9l-23.06-15.25l-9.95,9.97l14.95,22.53c-2.37,3.8-4.01,7.94-5.28,12.33l-26.9,5.49
			v14.07l26.24,5.36c1.03,4.48,2.53,8.73,4.69,12.64l-15.36,23.06l9.92,9.95l22.51-14.95c3.8,2.37,7.92,4.06,12.32,5.34l5.48,26.95
			h14.07l5.36-26.29c4.48-1.03,8.73-2.55,12.65-4.72L461,343.15l9.95-9.92L456,310.72c2.37-3.8,4.49-7.92,5.76-12.32l27.38-5.48
			v-14.07l-26.72-5.36C461.39,269.02,459.66,264.78,457.49,260.86z M414.13,305.87c-11.71,0-21.21-9.5-21.21-21.21
			c0-11.71,9.5-21.21,21.21-21.21c11.71,0,21.21,9.5,21.21,21.21C435.34,296.37,425.84,305.87,414.13,305.87z"/>
		<path class="st0" d="M318.05,416.73l-7.09-29.96c4.14-3.2,7.76-6.9,10.79-11.01l31.15,4.84l5.55-15.03l-26.2-16.18
			c0.65-5.06,0.62-10.23-0.16-15.39l25.47-18.62l-6.7-14.55l-29.95,7.08c-3.21-4.14-6.9-7.77-11-10.79l4.84-31.15l-15.03-5.55
			l-16.18,26.2c-5.06-0.65-10.22-0.61-15.38,0.17l-18.61-25.46l-14.55,6.7l7.07,29.94c-4.14,3.21-7.77,6.89-10.8,11l-31.16-4.84
			l-5.55,15.03l26.2,16.18c-0.65,5.06-0.62,10.23,0.16,15.39l-25.47,18.62l6.7,14.55l29.95-7.08c3.21,4.14,6.9,7.77,11,10.79
			l-4.84,31.15l15.03,5.55l16.18-26.2c5.06,0.64,10.23,0.63,15.39-0.14l18.63,25.49L318.05,416.73z M286.62,364.29
			c-12.12,5.59-26.47,0.28-32.06-11.84c-5.59-12.12-0.28-26.47,11.84-32.06c12.12-5.59,26.47-0.28,32.06,11.84
			C304.03,344.36,298.74,358.71,286.62,364.29z"/>
		<path class="st0" d="M448.19,515.3l-5.46-30.3c4.3-2.98,8.12-6.48,11.37-10.41l30.84,6.51l6.35-14.71L466,448.82
			c0.92-5.02,1.17-10.18,0.67-15.37l26.44-17.22l-5.91-14.89l-30.29,5.46c-2.98-4.3-6.47-8.13-10.4-11.37l6.52-30.84l-14.71-6.35
			l-17.57,25.29c-5.02-0.92-10.17-1.15-15.37-0.66l-17.21-26.43l-14.89,5.91l5.45,30.28c-4.3,2.98-8.13,6.46-11.37,10.4l-30.85-6.52
			l-6.35,14.71l25.29,17.56c-0.92,5.02-1.17,10.18-0.67,15.37l-26.44,17.22l5.91,14.89l30.29-5.46c2.98,4.3,6.47,8.13,10.4,11.37
			l-6.52,30.84l14.71,6.35l17.57-25.29c5.02,0.92,10.18,1.18,15.38,0.68l17.23,26.45L448.19,515.3z M419.62,461.25
			c-12.4,4.92-26.45-1.14-31.37-13.55c-4.92-12.4,1.14-26.45,13.55-31.37c12.4-4.92,26.45,1.14,31.37,13.55
			C438.09,442.28,432.03,456.33,419.62,461.25z"/>
	</g>
</g>
<g>
	<g>
		<g>
			<g>
				<g>
					<path d="M586.55,647.5H96.45c-10.99,0-19.95-8.94-19.95-19.95V140.46c0-11,8.95-19.95,19.95-19.95h490.1
						c11.01,0,19.95,8.95,19.95,19.95v487.09C606.5,638.55,597.57,647.5,586.55,647.5z M96.45,131.9c-4.72,0-8.55,3.84-8.55,8.56
						v487.09c0,4.7,3.83,8.55,8.55,8.55h490.1c4.72,0,8.55-3.85,8.55-8.55V140.46c0-4.72-3.83-8.56-8.55-8.56H96.45z"/>
				</g>
				<g>
					<g>
						<path d="M137.12,568.58h4.61v27.35h-4.61V568.58z"/>
						<path d="M172.21,568.58v28.63c-0.18-0.22-0.56-0.64-1.16-1.24c-0.6-0.6-1.34-1.32-2.21-2.16c-0.88-0.84-1.85-1.76-2.91-2.78
							c-1.06-1.01-2.15-2.04-3.25-3.08c-1.1-1.04-2.18-2.06-3.23-3.06c-1.05-1-2.01-1.92-2.87-2.76c-0.86-0.84-1.59-1.55-2.18-2.14
							c-0.59-0.59-0.97-1-1.14-1.22c-0.03-0.05-0.12-0.18-0.3-0.39c-0.18-0.21-0.33-0.41-0.45-0.58l0.11,1.2v16.92h-4.58v-28.59
							c0.17,0.22,0.56,0.63,1.16,1.22c0.6,0.59,1.34,1.29,2.21,2.12c0.88,0.83,1.84,1.73,2.91,2.7c1.06,0.98,2.14,1.97,3.25,2.98
							c1.1,1.01,2.18,2.01,3.23,3c1.05,0.99,2.01,1.89,2.89,2.7c0.88,0.81,1.61,1.51,2.19,2.08c0.59,0.58,0.97,0.98,1.14,1.2
							l0.71,1.05l-0.11-1.28v-16.55H172.21z"/>
						<path d="M199.18,582.65v11.63c-1.05,0.63-2.32,1.11-3.81,1.45c-1.49,0.34-3.01,0.51-4.56,0.51c-2.15,0-4.1-0.34-5.84-1.01
							c-1.74-0.68-3.22-1.6-4.45-2.78c-1.23-1.18-2.16-2.58-2.81-4.2c-0.65-1.62-0.98-3.4-0.98-5.33c0-2.18,0.39-4.16,1.16-5.95
							c0.77-1.79,1.82-3.33,3.13-4.62c1.31-1.29,2.84-2.29,4.58-3c1.74-0.71,3.57-1.07,5.5-1.07c0.65,0,1.33,0.04,2.04,0.13
							c0.71,0.09,1.42,0.22,2.12,0.39c0.7,0.18,1.38,0.38,2.03,0.62c0.65,0.24,1.24,0.52,1.76,0.84l-2.25,3.75
							c-0.35-0.22-0.77-0.42-1.26-0.58c-0.49-0.16-1-0.31-1.52-0.43c-0.52-0.12-1.04-0.22-1.56-0.28c-0.51-0.06-0.99-0.09-1.44-0.09
							c-1.28,0-2.5,0.26-3.66,0.77c-1.16,0.51-2.19,1.21-3.09,2.08c-0.9,0.88-1.62,1.92-2.16,3.13c-0.54,1.21-0.81,2.51-0.81,3.88
							c0,1.25,0.24,2.44,0.71,3.56c0.48,1.13,1.14,2.12,1.99,2.98c0.85,0.86,1.86,1.55,3.04,2.06s2.46,0.77,3.86,0.77
							c0.5,0,1.13-0.04,1.88-0.13c0.75-0.09,1.46-0.24,2.14-0.47v-4.65h-5.1v-3.98H199.18z"/>
						<path d="M204.33,595.93v-27.35h18.16v4.17H208.9v7.35h12.08v4.28H208.9v7.28h14.11v4.28H204.33z"/>
						<path d="M251.71,568.58v28.63c-0.18-0.22-0.56-0.64-1.16-1.24c-0.6-0.6-1.34-1.32-2.21-2.16c-0.88-0.84-1.85-1.76-2.91-2.78
							c-1.06-1.01-2.15-2.04-3.25-3.08c-1.1-1.04-2.18-2.06-3.23-3.06c-1.05-1-2.01-1.92-2.87-2.76c-0.86-0.84-1.59-1.55-2.18-2.14
							c-0.59-0.59-0.97-1-1.14-1.22c-0.03-0.05-0.12-0.18-0.3-0.39c-0.18-0.21-0.33-0.41-0.45-0.58l0.11,1.2v16.92h-4.58v-28.59
							c0.17,0.22,0.56,0.63,1.16,1.22c0.6,0.59,1.34,1.29,2.21,2.12c0.88,0.83,1.84,1.73,2.91,2.7c1.06,0.98,2.14,1.97,3.25,2.98
							c1.1,1.01,2.18,2.01,3.23,3c1.05,0.99,2.01,1.89,2.89,2.7c0.88,0.81,1.61,1.51,2.19,2.08c0.59,0.58,0.97,0.98,1.14,1.2
							l0.71,1.05l-0.11-1.28v-16.55H251.71z"/>
						<path d="M258.02,568.58h4.61v27.35h-4.61V568.58z"/>
						<path d="M268.94,595.93v-27.35h18.16v4.17h-13.58v7.35h12.08v4.28h-12.08v7.28h14.11v4.28H268.94z"/>
						<path d="M292.16,595.93v-27.35h7.73c1.5,0,2.87,0.2,4.11,0.6c1.24,0.4,2.29,0.98,3.15,1.73c0.86,0.75,1.53,1.68,2.01,2.78
							c0.47,1.1,0.71,2.34,0.71,3.71c0,0.75-0.08,1.5-0.23,2.25c-0.15,0.75-0.39,1.48-0.71,2.18c-0.33,0.7-0.75,1.34-1.28,1.93
							c-0.53,0.59-1.15,1.09-1.88,1.52c0.55,0.88,1.09,1.73,1.61,2.57c0.53,0.84,1.06,1.68,1.59,2.53c0.54,0.85,1.09,1.73,1.67,2.63
							c0.58,0.9,1.2,1.88,1.88,2.93h-5.52c-1.13-1.75-2.19-3.41-3.19-4.97c-1-1.56-1.96-3.04-2.89-4.45h-0.38h-3.83v9.42H292.16z
							 M296.74,582.2h3.68c0.95,0,1.74-0.16,2.36-0.49s1.13-0.72,1.5-1.18c0.38-0.46,0.64-0.96,0.79-1.5s0.22-1.03,0.22-1.48
							c0-0.42-0.07-0.91-0.21-1.44c-0.14-0.54-0.39-1.04-0.75-1.52c-0.36-0.48-0.86-0.88-1.48-1.2c-0.63-0.33-1.43-0.49-2.4-0.49
							h-3.71V582.2z"/>
						<path d="M316.03,568.58h4.61v27.35h-4.61V568.58z M316.4,567.04c0.58-0.83,1.14-1.66,1.71-2.51c0.56-0.85,1.13-1.7,1.71-2.55
							h3.87c-0.75,0.85-1.51,1.7-2.29,2.55c-0.78,0.85-1.55,1.69-2.33,2.51H316.4z"/>
						<path d="M343.75,595.93c-0.08-0.17-0.21-0.49-0.39-0.94c-0.19-0.45-0.42-1-0.69-1.65c-0.28-0.65-0.58-1.37-0.9-2.16
							c-0.33-0.79-0.66-1.61-1.01-2.46h-9.42l-3,7.2h-4.54c0.1-0.23,0.34-0.78,0.71-1.67c0.38-0.89,0.84-1.99,1.41-3.3
							c0.56-1.31,1.19-2.78,1.88-4.39c0.69-1.61,1.39-3.26,2.12-4.93c0.73-1.68,1.43-3.32,2.12-4.93c0.69-1.61,1.31-3.08,1.88-4.39
							c0.56-1.31,1.03-2.41,1.41-3.3c0.38-0.89,0.61-1.45,0.71-1.67c0.1,0.22,0.34,0.78,0.73,1.67c0.39,0.89,0.86,1.99,1.43,3.3
							c0.56,1.31,1.19,2.78,1.88,4.39c0.69,1.61,1.39,3.26,2.12,4.93c0.73,1.68,1.43,3.32,2.12,4.93c0.69,1.61,1.31,3.08,1.88,4.39
							c0.56,1.31,1.03,2.41,1.41,3.3c0.38,0.89,0.61,1.44,0.71,1.67H343.75z M332.91,584.86h6.23l-2.7-6.53
							c-0.02-0.02-0.09-0.19-0.19-0.51c-0.1-0.31-0.17-0.59-0.22-0.84c-0.05,0.25-0.13,0.53-0.23,0.84
							c-0.1,0.31-0.15,0.48-0.15,0.51L332.91,584.86z"/>
						<path d="M358.91,567.38c0.12,0.18,0.4,0.57,0.83,1.18c0.42,0.61,0.96,1.36,1.59,2.25c0.64,0.89,1.35,1.87,2.14,2.95
							c0.79,1.08,1.59,2.17,2.4,3.28c0.81,1.11,1.61,2.2,2.38,3.26c0.77,1.06,1.48,2.03,2.1,2.91c0.62,0.88,1.16,1.61,1.59,2.19
							c0.44,0.59,0.71,0.96,0.81,1.11c0.05-0.08,0.28-0.39,0.68-0.96s0.91-1.27,1.52-2.12c0.61-0.85,1.31-1.82,2.08-2.91
							c0.77-1.09,1.58-2.19,2.4-3.32c0.83-1.13,1.63-2.24,2.42-3.34c0.79-1.1,1.51-2.1,2.18-3c0.66-0.9,1.22-1.66,1.67-2.29
							c0.45-0.62,0.74-1.03,0.86-1.2v28.55h-4.92v-13.96c0-0.2,0.02-0.41,0.07-0.64c0.05-0.23,0.08-0.36,0.08-0.41l-9.04,13.02
							c-0.12-0.15-0.43-0.56-0.92-1.24c-0.49-0.68-1.07-1.48-1.75-2.4c-0.67-0.93-1.39-1.92-2.14-2.98
							c-0.75-1.06-1.46-2.05-2.12-2.96c-0.66-0.91-1.23-1.69-1.69-2.33c-0.46-0.64-0.72-1.01-0.77-1.11c0,0.05,0.02,0.19,0.08,0.41
							c0.05,0.22,0.07,0.44,0.07,0.64v13.96h-4.61V567.38z"/>
						<path d="M392.87,595.93v-27.35h18.16v4.17h-13.58v7.35h12.08v4.28h-12.08v7.28h14.11v4.28H392.87z"/>
						<path d="M436.21,593.91c-0.3,0.2-0.72,0.44-1.26,0.71c-0.54,0.28-1.18,0.53-1.91,0.77c-0.74,0.24-1.57,0.44-2.5,0.6
							c-0.93,0.16-1.91,0.24-2.96,0.24c-2.15,0-4.08-0.37-5.78-1.11c-1.7-0.74-3.14-1.73-4.31-2.98c-1.18-1.25-2.08-2.71-2.7-4.39
							c-0.62-1.68-0.94-3.44-0.94-5.29c0-2.05,0.38-3.95,1.12-5.68c0.75-1.74,1.77-3.24,3.06-4.5c1.29-1.26,2.79-2.25,4.5-2.95
							c1.71-0.7,3.55-1.05,5.5-1.05c0.75,0,1.51,0.06,2.27,0.17c0.76,0.11,1.48,0.26,2.16,0.43c0.68,0.18,1.27,0.38,1.78,0.6
							c0.51,0.23,0.88,0.46,1.11,0.71c-0.23,0.35-0.4,0.64-0.53,0.86c-0.13,0.22-0.26,0.46-0.39,0.69
							c-0.14,0.24-0.29,0.51-0.45,0.81c-0.16,0.3-0.39,0.71-0.69,1.24c-0.3-0.2-0.66-0.38-1.09-0.53c-0.43-0.15-0.87-0.27-1.33-0.36
							c-0.46-0.09-0.93-0.16-1.41-0.21c-0.47-0.05-0.9-0.07-1.28-0.07c-1.4,0-2.7,0.26-3.88,0.79c-1.19,0.53-2.21,1.22-3.08,2.08
							c-0.86,0.86-1.54,1.87-2.03,3.02c-0.49,1.15-0.73,2.34-0.73,3.56c0,1.2,0.23,2.37,0.69,3.51c0.46,1.14,1.11,2.14,1.95,3.02
							c0.84,0.88,1.83,1.58,2.98,2.12c1.15,0.54,2.43,0.81,3.83,0.81c0.8,0,1.58-0.08,2.33-0.24c0.75-0.16,1.41-0.34,1.99-0.54
							c0.58-0.2,1.04-0.4,1.41-0.6c0.36-0.2,0.56-0.34,0.58-0.41L436.21,593.91z"/>
						<path d="M456.43,595.93c-0.08-0.17-0.21-0.49-0.39-0.94c-0.19-0.45-0.42-1-0.69-1.65c-0.28-0.65-0.58-1.37-0.9-2.16
							c-0.33-0.79-0.66-1.61-1.01-2.46h-9.42l-3,7.2h-4.54c0.1-0.23,0.34-0.78,0.71-1.67c0.38-0.89,0.84-1.99,1.41-3.3
							c0.56-1.31,1.19-2.78,1.88-4.39c0.69-1.61,1.39-3.26,2.12-4.93c0.73-1.68,1.43-3.32,2.12-4.93c0.69-1.61,1.31-3.08,1.88-4.39
							c0.56-1.31,1.03-2.41,1.41-3.3c0.38-0.89,0.61-1.45,0.71-1.67c0.1,0.22,0.34,0.78,0.73,1.67c0.39,0.89,0.86,1.99,1.43,3.3
							c0.56,1.31,1.19,2.78,1.88,4.39c0.69,1.61,1.39,3.26,2.12,4.93c0.73,1.68,1.43,3.32,2.12,4.93c0.69,1.61,1.31,3.08,1.88,4.39
							c0.56,1.31,1.03,2.41,1.41,3.3c0.38,0.89,0.61,1.44,0.71,1.67H456.43z M445.59,584.86h6.23l-2.7-6.53
							c-0.02-0.02-0.09-0.19-0.19-0.51c-0.1-0.31-0.17-0.59-0.22-0.84c-0.05,0.25-0.13,0.53-0.23,0.84
							c-0.1,0.31-0.15,0.48-0.15,0.51L445.59,584.86z M449.45,567.04c0.78-0.83,1.55-1.66,2.33-2.51c0.78-0.85,1.54-1.7,2.29-2.55
							h-3.86c-0.58,0.85-1.14,1.7-1.71,2.55c-0.56,0.85-1.13,1.69-1.71,2.51H449.45z"/>
						<path d="M488.29,568.58v28.63c-0.18-0.22-0.56-0.64-1.16-1.24c-0.6-0.6-1.34-1.32-2.21-2.16c-0.88-0.84-1.85-1.76-2.91-2.78
							c-1.06-1.01-2.15-2.04-3.25-3.08c-1.1-1.04-2.18-2.06-3.23-3.06c-1.05-1-2.01-1.92-2.87-2.76c-0.86-0.84-1.59-1.55-2.18-2.14
							c-0.59-0.59-0.97-1-1.14-1.22c-0.03-0.05-0.12-0.18-0.3-0.39c-0.18-0.21-0.33-0.41-0.45-0.58l0.11,1.2v16.92h-4.58v-28.59
							c0.17,0.22,0.56,0.63,1.16,1.22c0.6,0.59,1.34,1.29,2.21,2.12c0.88,0.83,1.84,1.73,2.91,2.7c1.06,0.98,2.14,1.97,3.25,2.98
							c1.1,1.01,2.18,2.01,3.23,3c1.05,0.99,2.01,1.89,2.89,2.7c0.88,0.81,1.61,1.51,2.19,2.08c0.59,0.58,0.97,0.98,1.14,1.2
							l0.71,1.05l-0.11-1.28v-16.55H488.29z"/>
						<path d="M494.59,568.58h4.61v27.35h-4.61V568.58z"/>
						<path d="M526.11,593.91c-0.3,0.2-0.72,0.44-1.26,0.71c-0.54,0.28-1.18,0.53-1.91,0.77c-0.74,0.24-1.57,0.44-2.5,0.6
							c-0.93,0.16-1.91,0.24-2.96,0.24c-2.15,0-4.08-0.37-5.78-1.11c-1.7-0.74-3.14-1.73-4.31-2.98c-1.18-1.25-2.08-2.71-2.7-4.39
							c-0.62-1.68-0.94-3.44-0.94-5.29c0-2.05,0.38-3.95,1.12-5.68c0.75-1.74,1.77-3.24,3.06-4.5c1.29-1.26,2.79-2.25,4.5-2.95
							c1.71-0.7,3.55-1.05,5.5-1.05c0.75,0,1.51,0.06,2.27,0.17c0.76,0.11,1.48,0.26,2.16,0.43c0.68,0.18,1.27,0.38,1.78,0.6
							c0.51,0.23,0.88,0.46,1.11,0.71c-0.23,0.35-0.4,0.64-0.53,0.86c-0.13,0.22-0.26,0.46-0.39,0.69
							c-0.14,0.24-0.29,0.51-0.45,0.81c-0.16,0.3-0.39,0.71-0.69,1.24c-0.3-0.2-0.66-0.38-1.09-0.53c-0.43-0.15-0.87-0.27-1.33-0.36
							c-0.46-0.09-0.93-0.16-1.41-0.21c-0.47-0.05-0.9-0.07-1.28-0.07c-1.4,0-2.7,0.26-3.88,0.79c-1.19,0.53-2.21,1.22-3.08,2.08
							c-0.86,0.86-1.54,1.87-2.03,3.02c-0.49,1.15-0.73,2.34-0.73,3.56c0,1.2,0.23,2.37,0.69,3.51c0.46,1.14,1.11,2.14,1.95,3.02
							c0.84,0.88,1.83,1.58,2.98,2.12c1.15,0.54,2.43,0.81,3.83,0.81c0.8,0,1.58-0.08,2.33-0.24c0.75-0.16,1.41-0.34,1.99-0.54
							c0.58-0.2,1.04-0.4,1.41-0.6c0.36-0.2,0.56-0.34,0.58-0.41L526.11,593.91z"/>
						<path d="M546.33,595.93c-0.08-0.17-0.21-0.49-0.39-0.94c-0.19-0.45-0.42-1-0.69-1.65c-0.28-0.65-0.58-1.37-0.9-2.16
							c-0.33-0.79-0.66-1.61-1.01-2.46h-9.42l-3,7.2h-4.54c0.1-0.23,0.34-0.78,0.71-1.67c0.38-0.89,0.84-1.99,1.41-3.3
							c0.56-1.31,1.19-2.78,1.88-4.39c0.69-1.61,1.39-3.26,2.12-4.93c0.73-1.68,1.43-3.32,2.12-4.93c0.69-1.61,1.31-3.08,1.88-4.39
							c0.56-1.31,1.03-2.41,1.41-3.3c0.38-0.89,0.61-1.45,0.71-1.67c0.1,0.22,0.34,0.78,0.73,1.67c0.39,0.89,0.86,1.99,1.43,3.3
							c0.56,1.31,1.19,2.78,1.88,4.39c0.69,1.61,1.39,3.26,2.12,4.93c0.73,1.68,1.43,3.32,2.12,4.93c0.69,1.61,1.31,3.08,1.88,4.39
							c0.56,1.31,1.03,2.41,1.41,3.3c0.38,0.89,0.61,1.44,0.71,1.67H546.33z M535.49,584.86h6.23l-2.7-6.53
							c-0.02-0.02-0.09-0.19-0.19-0.51c-0.1-0.31-0.17-0.59-0.22-0.84c-0.05,0.25-0.13,0.53-0.23,0.84
							c-0.1,0.31-0.15,0.48-0.15,0.51L535.49,584.86z"/>
					</g>
				</g>
			</g>
		</g>
	</g>
	<g>
		<path d="M457.49,260.86l15.24-23.06l-9.98-9.95l-22.54,14.95c-3.8-2.37-7.94-4.44-12.33-5.71l-5.49-27.33h-14.07l-5.36,26.67
			c-4.48,1.03-8.73,2.74-12.65,4.9l-23.06-15.25l-9.95,9.97l14.95,22.53c-2.37,3.8-4.01,7.94-5.28,12.33l-26.9,5.49v14.07
			l26.24,5.36c1.03,4.48,2.53,8.73,4.69,12.64l-15.36,23.06l9.92,9.95l22.51-14.95c3.8,2.37,7.92,4.06,12.32,5.34l5.48,26.95h14.07
			l5.36-26.29c4.48-1.03,8.73-2.55,12.65-4.72L461,343.15l9.95-9.92L456,310.72c2.37-3.8,4.49-7.92,5.76-12.32l27.38-5.48v-14.07
			l-26.72-5.36C461.39,269.02,459.66,264.78,457.49,260.86z M414.13,305.87c-11.71,0-21.21-9.5-21.21-21.21
			c0-11.71,9.5-21.21,21.21-21.21c11.71,0,21.21,9.5,21.21,21.21C435.34,296.37,425.84,305.87,414.13,305.87z"/>
		<path d="M318.05,416.73l-7.09-29.96c4.14-3.2,7.76-6.9,10.79-11.01l31.15,4.84l5.55-15.03l-26.2-16.18
			c0.65-5.06,0.62-10.23-0.16-15.39l25.47-18.62l-6.7-14.55l-29.95,7.08c-3.21-4.14-6.9-7.77-11-10.79l4.84-31.15l-15.03-5.55
			l-16.18,26.2c-5.06-0.65-10.22-0.61-15.38,0.17l-18.61-25.46l-14.55,6.7l7.07,29.94c-4.14,3.21-7.77,6.89-10.8,11l-31.16-4.84
			l-5.55,15.03l26.2,16.18c-0.65,5.06-0.62,10.23,0.16,15.39l-25.47,18.62l6.7,14.55l29.95-7.08c3.21,4.14,6.9,7.77,11,10.79
			l-4.84,31.15l15.03,5.55l16.18-26.2c5.06,0.64,10.23,0.63,15.39-0.14l18.63,25.49L318.05,416.73z M286.62,364.29
			c-12.12,5.59-26.47,0.28-32.06-11.84c-5.59-12.12-0.28-26.47,11.84-32.06c12.12-5.59,26.47-0.28,32.06,11.84
			C304.03,344.36,298.74,358.71,286.62,364.29z"/>
		<path d="M448.19,515.3l-5.46-30.3c4.3-2.98,8.12-6.48,11.37-10.41l30.84,6.51l6.35-14.71L466,448.82
			c0.92-5.02,1.17-10.18,0.67-15.37l26.44-17.22l-5.91-14.89l-30.29,5.46c-2.98-4.3-6.47-8.13-10.4-11.37l6.52-30.84l-14.71-6.35
			l-17.57,25.29c-5.02-0.92-10.17-1.15-15.37-0.66l-17.21-26.43l-14.89,5.91l5.45,30.28c-4.3,2.98-8.13,6.46-11.37,10.4l-30.85-6.52
			l-6.35,14.71l25.29,17.56c-0.92,5.02-1.17,10.18-0.67,15.37l-26.44,17.22l5.91,14.89l30.29-5.46c2.98,4.3,6.47,8.13,10.4,11.37
			l-6.52,30.84l14.71,6.35l17.57-25.29c5.02,0.92,10.18,1.18,15.38,0.68l17.23,26.45L448.19,515.3z M419.62,461.25
			c-12.4,4.92-26.45-1.14-31.37-13.55c-4.92-12.4,1.14-26.45,13.55-31.37c12.4-4.92,26.45,1.14,31.37,13.55
			C438.09,442.28,432.03,456.33,419.62,461.25z"/>
	</g>
</g>
</svg>
