<?xml version="1.0" encoding="utf-8"?>
<!-- Generator: Adobe Illustrator 27.1.0, SVG Export Plug-In . SVG Version: 6.00 Build 0)  -->
<svg version="1.1" id="Capa_1" xmlns="http://www.w3.org/2000/svg" xmlns:xlink="http://www.w3.org/1999/xlink" x="0px" y="0px"
	 viewBox="0 0 683 768" style="enable-background:new 0 0 683 768;" xml:space="preserve">
<style type="text/css">
	.st0{fill:#002E6D;}
	.st1{fill:#FFFFFF;}
</style>
<g>
	<g>
		<g>
			<path class="st0" d="M585.1,645.93H97.9c-10.93,0-19.83-8.89-19.83-19.83V141.9c0-10.94,8.9-19.83,19.83-19.83h487.2
				c10.95,0,19.83,8.89,19.83,19.83v484.2C604.93,637.04,596.05,645.93,585.1,645.93z M97.9,133.39c-4.69,0-8.5,3.82-8.5,8.51v484.2
				c0,4.68,3.81,8.5,8.5,8.5h487.2c4.7,0,8.5-3.83,8.5-8.5V141.9c0-4.69-3.81-8.51-8.5-8.51H97.9z"/>
		</g>
		<g>
			<g>
				<path class="st0" d="M152.8,557.85h5.65v33.5h-5.65V557.85z"/>
				<path class="st0" d="M195.77,557.85v35.06c-0.21-0.28-0.69-0.78-1.42-1.52c-0.74-0.74-1.64-1.62-2.71-2.64
					c-1.07-1.03-2.26-2.16-3.56-3.4c-1.3-1.24-2.63-2.5-3.98-3.77c-1.35-1.27-2.67-2.52-3.95-3.75c-1.29-1.23-2.46-2.35-3.52-3.38
					c-1.06-1.03-1.95-1.9-2.66-2.62c-0.72-0.72-1.19-1.22-1.4-1.49c-0.03-0.06-0.15-0.22-0.37-0.48c-0.21-0.26-0.4-0.5-0.55-0.71
					l0.14,1.47v20.72h-5.61v-35.02c0.21,0.28,0.69,0.77,1.42,1.49c0.74,0.72,1.64,1.59,2.71,2.6c1.07,1.01,2.26,2.11,3.56,3.31
					c1.3,1.2,2.63,2.41,3.97,3.65c1.35,1.24,2.67,2.47,3.95,3.68c1.29,1.21,2.47,2.31,3.54,3.31c1.07,1,1.97,1.85,2.69,2.55
					c0.72,0.71,1.19,1.2,1.4,1.47l0.87,1.29l-0.14-1.56v-20.27H195.77z"/>
				<path class="st0" d="M228.81,575.08v14.25c-1.29,0.77-2.84,1.36-4.66,1.77c-1.82,0.41-3.68,0.62-5.58,0.62
					c-2.63,0-5.02-0.41-7.15-1.24c-2.13-0.83-3.95-1.96-5.45-3.4c-1.5-1.44-2.65-3.16-3.45-5.15c-0.8-1.99-1.2-4.17-1.2-6.53
					c0-2.67,0.47-5.09,1.42-7.28c0.95-2.19,2.23-4.07,3.84-5.65c1.61-1.58,3.48-2.8,5.61-3.68c2.13-0.87,4.37-1.31,6.73-1.31
					c0.8,0,1.63,0.05,2.5,0.16c0.87,0.11,1.74,0.27,2.6,0.48c0.86,0.21,1.68,0.47,2.48,0.76c0.8,0.29,1.52,0.64,2.16,1.03
					l-2.76,4.59c-0.43-0.28-0.94-0.51-1.54-0.71c-0.6-0.2-1.22-0.38-1.86-0.53c-0.64-0.15-1.28-0.27-1.91-0.34
					c-0.63-0.08-1.22-0.12-1.77-0.12c-1.56,0-3.06,0.31-4.48,0.94c-1.42,0.63-2.69,1.48-3.79,2.55c-1.1,1.07-1.98,2.35-2.64,3.84
					c-0.66,1.49-0.99,3.07-0.99,4.76c0,1.53,0.29,2.99,0.87,4.37c0.58,1.38,1.39,2.6,2.44,3.65c1.04,1.06,2.28,1.9,3.72,2.53
					c1.44,0.63,3.02,0.94,4.73,0.94c0.61,0,1.38-0.05,2.3-0.16c0.92-0.11,1.79-0.3,2.62-0.57v-5.7h-6.25v-4.87H228.81z"/>
				<path class="st0" d="M235.11,591.35v-33.5h22.24v5.1h-16.63v9.01h14.8v5.24h-14.8v8.91h17.28v5.24H235.11z"/>
				<path class="st0" d="M293.14,557.85v35.06c-0.21-0.28-0.69-0.78-1.42-1.52c-0.74-0.74-1.64-1.62-2.71-2.64
					c-1.07-1.03-2.26-2.16-3.56-3.4c-1.3-1.24-2.63-2.5-3.98-3.77c-1.35-1.27-2.67-2.52-3.95-3.75c-1.29-1.23-2.46-2.35-3.52-3.38
					c-1.06-1.03-1.95-1.9-2.67-2.62c-0.72-0.72-1.19-1.22-1.4-1.49c-0.03-0.06-0.15-0.22-0.37-0.48c-0.21-0.26-0.4-0.5-0.55-0.71
					l0.14,1.47v20.72h-5.61v-35.02c0.21,0.28,0.69,0.77,1.42,1.49c0.74,0.72,1.64,1.59,2.71,2.6c1.07,1.01,2.26,2.11,3.56,3.31
					c1.3,1.2,2.63,2.41,3.97,3.65c1.35,1.24,2.67,2.47,3.95,3.68c1.29,1.21,2.47,2.31,3.54,3.31c1.07,1,1.97,1.85,2.69,2.55
					c0.72,0.71,1.19,1.2,1.4,1.47l0.87,1.29l-0.14-1.56v-20.27H293.14z"/>
				<path class="st0" d="M300.86,557.85h5.65v33.5h-5.65V557.85z"/>
				<path class="st0" d="M314.24,591.35v-33.5h22.24v5.1h-16.63v9.01h14.8v5.24h-14.8v8.91h17.28v5.24H314.24z"/>
				<path class="st0" d="M342.68,591.35v-33.5h9.47c1.84,0,3.52,0.25,5.03,0.74c1.52,0.49,2.8,1.2,3.86,2.11
					c1.06,0.92,1.88,2.05,2.46,3.4c0.58,1.35,0.87,2.87,0.87,4.55c0,0.92-0.09,1.84-0.28,2.76c-0.18,0.92-0.48,1.81-0.87,2.67
					c-0.4,0.86-0.92,1.65-1.56,2.37c-0.64,0.72-1.41,1.34-2.3,1.86c0.67,1.07,1.33,2.12,1.98,3.15c0.64,1.03,1.29,2.06,1.95,3.1
					c0.66,1.04,1.34,2.11,2.05,3.22c0.7,1.1,1.47,2.3,2.3,3.58h-6.75c-1.38-2.14-2.68-4.17-3.91-6.09
					c-1.23-1.91-2.41-3.73-3.54-5.45h-0.46h-4.69v11.53H342.68z M348.29,574.53h4.5c1.16,0,2.13-0.2,2.9-0.6
					c0.76-0.4,1.38-0.88,1.84-1.45c0.46-0.57,0.78-1.18,0.96-1.84c0.18-0.66,0.28-1.26,0.28-1.81c0-0.52-0.08-1.11-0.25-1.77
					c-0.17-0.66-0.47-1.28-0.92-1.86c-0.44-0.58-1.05-1.07-1.81-1.47c-0.77-0.4-1.75-0.6-2.94-0.6h-4.55V574.53z"/>
				<path class="st0" d="M371.91,557.85h5.65v33.5h-5.65V557.85z M372.36,555.96c0.71-1.01,1.4-2.04,2.09-3.08
					c0.69-1.04,1.39-2.08,2.09-3.12h4.73c-0.92,1.04-1.85,2.08-2.8,3.12c-0.95,1.04-1.9,2.07-2.85,3.08H372.36z"/>
				<path class="st0" d="M405.86,591.35c-0.09-0.21-0.25-0.6-0.48-1.15c-0.23-0.55-0.51-1.23-0.85-2.02
					c-0.34-0.8-0.71-1.68-1.1-2.64c-0.4-0.96-0.81-1.97-1.24-3.01h-11.53l-3.68,8.82h-5.56c0.12-0.28,0.41-0.96,0.87-2.04
					c0.46-1.09,1.03-2.44,1.72-4.04c0.69-1.61,1.45-3.4,2.3-5.38c0.84-1.98,1.71-3.99,2.6-6.04c0.89-2.05,1.75-4.07,2.6-6.04
					c0.84-1.98,1.61-3.77,2.3-5.38c0.69-1.61,1.26-2.96,1.72-4.04c0.46-1.09,0.75-1.77,0.87-2.04c0.12,0.28,0.42,0.96,0.9,2.04
					c0.47,1.09,1.06,2.44,1.75,4.04c0.69,1.61,1.46,3.4,2.3,5.38c0.84,1.98,1.71,3.99,2.6,6.04c0.89,2.05,1.75,4.07,2.6,6.04
					c0.84,1.98,1.61,3.77,2.3,5.38c0.69,1.61,1.26,2.96,1.72,4.04c0.46,1.09,0.75,1.77,0.87,2.04H405.86z M392.58,577.79h7.63
					l-3.31-8c-0.03-0.03-0.11-0.24-0.23-0.62c-0.12-0.38-0.21-0.73-0.28-1.03c-0.06,0.31-0.15,0.65-0.28,1.03
					c-0.12,0.38-0.18,0.59-0.18,0.62L392.58,577.79z"/>
				<path class="st0" d="M449.66,588.87c-0.37,0.25-0.88,0.54-1.54,0.87c-0.66,0.34-1.44,0.65-2.34,0.94
					c-0.9,0.29-1.92,0.54-3.06,0.74c-1.13,0.2-2.34,0.3-3.63,0.3c-2.64,0-4.99-0.45-7.08-1.36c-2.08-0.9-3.84-2.12-5.29-3.65
					c-1.44-1.53-2.54-3.32-3.31-5.38c-0.77-2.05-1.15-4.21-1.15-6.48c0-2.51,0.46-4.83,1.38-6.96c0.92-2.13,2.17-3.97,3.75-5.51
					c1.58-1.55,3.42-2.75,5.51-3.61c2.1-0.86,4.34-1.29,6.73-1.29c0.92,0,1.85,0.07,2.78,0.21c0.93,0.14,1.82,0.31,2.64,0.53
					c0.83,0.21,1.55,0.46,2.18,0.74c0.63,0.28,1.08,0.57,1.36,0.87c-0.28,0.43-0.49,0.78-0.64,1.06c-0.15,0.28-0.31,0.56-0.48,0.85
					c-0.17,0.29-0.35,0.62-0.55,0.99c-0.2,0.37-0.48,0.87-0.85,1.52c-0.37-0.25-0.81-0.46-1.33-0.64s-1.06-0.33-1.63-0.44
					c-0.57-0.11-1.14-0.19-1.72-0.25c-0.58-0.06-1.1-0.09-1.56-0.09c-1.72,0-3.3,0.32-4.76,0.96c-1.46,0.64-2.71,1.49-3.77,2.55
					c-1.06,1.06-1.88,2.29-2.48,3.7c-0.6,1.41-0.9,2.87-0.9,4.37c0,1.47,0.28,2.9,0.85,4.3c0.57,1.39,1.36,2.63,2.39,3.7
					c1.03,1.07,2.24,1.94,3.65,2.6c1.41,0.66,2.97,0.99,4.69,0.99c0.98,0,1.93-0.1,2.85-0.3c0.92-0.2,1.73-0.42,2.44-0.67
					c0.71-0.24,1.28-0.49,1.72-0.74c0.44-0.24,0.68-0.41,0.71-0.5L449.66,588.87z"/>
				<path class="st0" d="M453.84,557.85h5.65v33.5h-5.65V557.85z"/>
				<path class="st0" d="M468.91,557.85l8.96,21.55c0,0.03,0.06,0.24,0.18,0.62c0.12,0.38,0.21,0.74,0.28,1.08
					c0.06-0.34,0.15-0.7,0.28-1.08c0.12-0.38,0.2-0.59,0.23-0.62l8.96-21.55h5.56c-0.12,0.28-0.41,0.96-0.87,2.07
					c-0.46,1.1-1.03,2.46-1.72,4.07c-0.69,1.61-1.46,3.4-2.3,5.38c-0.84,1.98-1.71,3.98-2.6,6.02c-0.89,2.04-1.75,4.05-2.6,6.04
					c-0.84,1.99-1.61,3.79-2.3,5.4c-0.69,1.61-1.27,2.96-1.75,4.04c-0.48,1.09-0.77,1.77-0.9,2.04c-0.12-0.28-0.41-0.96-0.87-2.04
					c-0.46-1.09-1.03-2.44-1.72-4.04c-0.69-1.61-1.46-3.41-2.3-5.4c-0.84-1.99-1.71-4-2.6-6.04c-0.89-2.04-1.75-4.04-2.6-6.02
					c-0.84-1.98-1.61-3.77-2.3-5.38c-0.69-1.61-1.26-2.96-1.72-4.07c-0.46-1.1-0.75-1.79-0.87-2.07H468.91z"/>
				<path class="st0" d="M497.22,557.85h5.65v33.5h-5.65V557.85z"/>
				<path class="st0" d="M510.59,591.35v-33.5h5.61v28.17h16.27v5.33H510.59z"/>
			</g>
		</g>
	</g>
	<g>
		<g>
			<polygon class="st0" points="524.33,488.54 309.09,488.54 301.01,507.86 532.41,507.86 			"/>
			<g>
				<path class="st0" d="M455.16,371.48c0.24,10.69-10.83,23.78-15.74,37.18c-6.51,17.75-11.34,36.4-11.34,55.21h-4.13
					c0.05-18.94,4.67-38.22,11.07-56.08c4.64-12.94,24.79-34.58,10.52-44.26c-7.24-4.91-18.48-8.38-27.56-8.57l0,0
					c-0.41-0.02-0.85,0.01-1.27,0c-0.42,0.01-0.86-0.02-1.27,0l0,0c-9.08,0.19-20.32,3.66-27.56,8.57
					c-14.27,9.68,5.88,31.32,10.52,44.26c6.4,17.87,11.03,37.14,11.07,56.08h-4.02c0-18.81-4.96-37.41-11.34-55.21
					c-4.2-11.7-16.55-26.24-15.74-37.18c-36.15,17.65-61.11,58.89-63.13,110.83h202.94C516.17,430.37,491.31,389.13,455.16,371.48z"
					/>
			</g>
		</g>
		<path class="st0" d="M348.93,378.83c17.71-19.76,42.04-31.95,68.9-31.95c30.49,0,57.72,15.71,75.71,40.36l-0.1-81.74
			c0.24-5.19-1.86-13.98-7.46-14.38l-97.89,0.75c-4.72,0.18-3.19,4.55-3.33,12.04l0.74,28.26l-29.08-32.39
			c-0.65-0.7-2.17-0.37-3.41,0.75l-0.33,0.29l-8.13-9.05c-0.12-0.14-0.6,0.09-1.17,0.52l-26.01-28.96c0.74-1.22,1.2-2.28,1.18-2.95
			c-0.03-0.74-0.15-1.48-0.35-2.18c-0.45-1.56-1.31-2.97-2.49-4.05l-23.08-18.08c0.43-4.85,0.56-8.55,0.05-9.16
			c-1.32-1.58-3.11-2.41-4.95-2.52c-2.46-0.8-5.26-0.2-7.35,1.89l-25.92,22.23c-1.13,1.14-1.92,2.59-2.3,4.16
			c-0.17,0.71-0.26,1.45-0.25,2.19c0,0.29,0.1,0.66,0.27,1.07l-25.96,34.56c-0.37,0.49,0.03,1.41,0.89,2.06l0.23,0.17l-4.7,6.27
			c-0.07,0.09,0.14,0.36,0.48,0.67l-16.48,21.92c-1.09-0.19-2.22-0.14-3.34,0.21c-2.34,0.74-4.27,2.64-5.17,5.13l-11.47,31.66
			c-7.33-1.34-17.03,3.63-19.33,9.2c0,0-15.81,38.29-15.78,39.07c-0.43,2.55-1.15,7.88-0.02,10.11c7.13,27.31,58.06,43.5,58.06,43.5
			l1.92-6.47l-14.62-9.42c0,0,3.4-10.14,5.91-16.23l17.89-43.4c2.29-5.56,3.5-10.42-0.91-13.13l45.58-68.73l0.16,0.42l16.66-25.12
			c0.01,0.05,0.03,0.11,0.04,0.17c0.29,1,0.75,1.93,1.36,2.78l65.07,97.41L348.93,378.83z M213.96,325.55
			c-1.23-1.09-2.28-2.02-2.28-2.02c-0.19-0.17-0.39-0.32-0.6-0.46l15.62-20.79c0.23,0.12,0.42,0.17,0.47,0.1l4.76-6.33
			c0.65,0.28,1.28,0.26,1.55-0.11l24.42-32.5c1.33,1.4,2.64,2.68,3.72,3.62C253.86,276.33,222.15,315.67,213.96,325.55z
			 M314.35,270.28l23.94,26.67c-0.24,0.33-0.37,0.6-0.29,0.69l8.22,9.15c-0.62,0.92-0.78,1.87-0.3,2.41l32.07,35.71
			c-0.77,0.33-1.49,0.8-2.12,1.4c0,0-1.73,1.68-3.3,3.19c-7.21-7.9-50.43-61.88-61.71-74.85
			C312.08,273.24,313.32,271.71,314.35,270.28z"/>
	</g>
</g>
<g>
	<g>
		<g>
			<path d="M585.1,645.93H97.9c-10.93,0-19.83-8.89-19.83-19.83V141.9c0-10.94,8.9-19.83,19.83-19.83h487.2
				c10.95,0,19.83,8.89,19.83,19.83v484.2C604.93,637.04,596.05,645.93,585.1,645.93z M97.9,133.39c-4.69,0-8.5,3.82-8.5,8.51v484.2
				c0,4.68,3.81,8.5,8.5,8.5h487.2c4.7,0,8.5-3.83,8.5-8.5V141.9c0-4.69-3.81-8.51-8.5-8.51H97.9z"/>
		</g>
		<g>
			<g>
				<path d="M152.8,557.85h5.65v33.5h-5.65V557.85z"/>
				<path d="M195.77,557.85v35.06c-0.21-0.28-0.69-0.78-1.42-1.52c-0.74-0.74-1.64-1.62-2.71-2.64c-1.07-1.03-2.26-2.16-3.56-3.4
					c-1.3-1.24-2.63-2.5-3.98-3.77c-1.35-1.27-2.67-2.52-3.95-3.75c-1.29-1.23-2.46-2.35-3.52-3.38c-1.06-1.03-1.95-1.9-2.66-2.62
					c-0.72-0.72-1.19-1.22-1.4-1.49c-0.03-0.06-0.15-0.22-0.37-0.48c-0.21-0.26-0.4-0.5-0.55-0.71l0.14,1.47v20.72h-5.61v-35.02
					c0.21,0.28,0.69,0.77,1.42,1.49c0.74,0.72,1.64,1.59,2.71,2.6c1.07,1.01,2.26,2.11,3.56,3.31c1.3,1.2,2.63,2.41,3.97,3.65
					c1.35,1.24,2.67,2.47,3.95,3.68c1.29,1.21,2.47,2.31,3.54,3.31c1.07,1,1.97,1.85,2.69,2.55c0.72,0.71,1.19,1.2,1.4,1.47
					l0.87,1.29l-0.14-1.56v-20.27H195.77z"/>
				<path d="M228.81,575.08v14.25c-1.29,0.77-2.84,1.36-4.66,1.77c-1.82,0.41-3.68,0.62-5.58,0.62c-2.63,0-5.02-0.41-7.15-1.24
					c-2.13-0.83-3.95-1.96-5.45-3.4c-1.5-1.44-2.65-3.16-3.45-5.15c-0.8-1.99-1.2-4.17-1.2-6.53c0-2.67,0.47-5.09,1.42-7.28
					c0.95-2.19,2.23-4.07,3.84-5.65c1.61-1.58,3.48-2.8,5.61-3.68c2.13-0.87,4.37-1.31,6.73-1.31c0.8,0,1.63,0.05,2.5,0.16
					c0.87,0.11,1.74,0.27,2.6,0.48c0.86,0.21,1.68,0.47,2.48,0.76c0.8,0.29,1.52,0.64,2.16,1.03l-2.76,4.59
					c-0.43-0.28-0.94-0.51-1.54-0.71c-0.6-0.2-1.22-0.38-1.86-0.53c-0.64-0.15-1.28-0.27-1.91-0.34c-0.63-0.08-1.22-0.12-1.77-0.12
					c-1.56,0-3.06,0.31-4.48,0.94c-1.42,0.63-2.69,1.48-3.79,2.55c-1.1,1.07-1.98,2.35-2.64,3.84c-0.66,1.49-0.99,3.07-0.99,4.76
					c0,1.53,0.29,2.99,0.87,4.37c0.58,1.38,1.39,2.6,2.44,3.65c1.04,1.06,2.28,1.9,3.72,2.53c1.44,0.63,3.02,0.94,4.73,0.94
					c0.61,0,1.38-0.05,2.3-0.16c0.92-0.11,1.79-0.3,2.62-0.57v-5.7h-6.25v-4.87H228.81z"/>
				<path d="M235.11,591.35v-33.5h22.24v5.1h-16.63v9.01h14.8v5.24h-14.8v8.91h17.28v5.24H235.11z"/>
				<path d="M293.14,557.85v35.06c-0.21-0.28-0.69-0.78-1.42-1.52c-0.74-0.74-1.64-1.62-2.71-2.64c-1.07-1.03-2.26-2.16-3.56-3.4
					c-1.3-1.24-2.63-2.5-3.98-3.77c-1.35-1.27-2.67-2.52-3.95-3.75c-1.29-1.23-2.46-2.35-3.52-3.38c-1.06-1.03-1.95-1.9-2.67-2.62
					c-0.72-0.72-1.19-1.22-1.4-1.49c-0.03-0.06-0.15-0.22-0.37-0.48c-0.21-0.26-0.4-0.5-0.55-0.71l0.14,1.47v20.72h-5.61v-35.02
					c0.21,0.28,0.69,0.77,1.42,1.49c0.74,0.72,1.64,1.59,2.71,2.6c1.07,1.01,2.26,2.11,3.56,3.31c1.3,1.2,2.63,2.41,3.97,3.65
					c1.35,1.24,2.67,2.47,3.95,3.68c1.29,1.21,2.47,2.31,3.54,3.31c1.07,1,1.97,1.85,2.69,2.55c0.72,0.71,1.19,1.2,1.4,1.47
					l0.87,1.29l-0.14-1.56v-20.27H293.14z"/>
				<path d="M300.86,557.85h5.65v33.5h-5.65V557.85z"/>
				<path d="M314.24,591.35v-33.5h22.24v5.1h-16.63v9.01h14.8v5.24h-14.8v8.91h17.28v5.24H314.24z"/>
				<path d="M342.68,591.35v-33.5h9.47c1.84,0,3.52,0.25,5.03,0.74c1.52,0.49,2.8,1.2,3.86,2.11c1.06,0.92,1.88,2.05,2.46,3.4
					c0.58,1.35,0.87,2.87,0.87,4.55c0,0.92-0.09,1.84-0.28,2.76c-0.18,0.92-0.48,1.81-0.87,2.67c-0.4,0.86-0.92,1.65-1.56,2.37
					c-0.64,0.72-1.41,1.34-2.3,1.86c0.67,1.07,1.33,2.12,1.98,3.15c0.64,1.03,1.29,2.06,1.95,3.1c0.66,1.04,1.34,2.11,2.05,3.22
					c0.7,1.1,1.47,2.3,2.3,3.58h-6.75c-1.38-2.14-2.68-4.17-3.91-6.09c-1.23-1.91-2.41-3.73-3.54-5.45h-0.46h-4.69v11.53H342.68z
					 M348.29,574.53h4.5c1.16,0,2.13-0.2,2.9-0.6c0.76-0.4,1.38-0.88,1.84-1.45c0.46-0.57,0.78-1.18,0.96-1.84
					c0.18-0.66,0.28-1.26,0.28-1.81c0-0.52-0.08-1.11-0.25-1.77c-0.17-0.66-0.47-1.28-0.92-1.86c-0.44-0.58-1.05-1.07-1.81-1.47
					c-0.77-0.4-1.75-0.6-2.94-0.6h-4.55V574.53z"/>
				<path d="M371.91,557.85h5.65v33.5h-5.65V557.85z M372.36,555.96c0.71-1.01,1.4-2.04,2.09-3.08c0.69-1.04,1.39-2.08,2.09-3.12
					h4.73c-0.92,1.04-1.85,2.08-2.8,3.12c-0.95,1.04-1.9,2.07-2.85,3.08H372.36z"/>
				<path d="M405.86,591.35c-0.09-0.21-0.25-0.6-0.48-1.15c-0.23-0.55-0.51-1.23-0.85-2.02c-0.34-0.8-0.71-1.68-1.1-2.64
					c-0.4-0.96-0.81-1.97-1.24-3.01h-11.53l-3.68,8.82h-5.56c0.12-0.28,0.41-0.96,0.87-2.04c0.46-1.09,1.03-2.44,1.72-4.04
					c0.69-1.61,1.45-3.4,2.3-5.38c0.84-1.98,1.71-3.99,2.6-6.04c0.89-2.05,1.75-4.07,2.6-6.04c0.84-1.98,1.61-3.77,2.3-5.38
					c0.69-1.61,1.26-2.96,1.72-4.04c0.46-1.09,0.75-1.77,0.87-2.04c0.12,0.28,0.42,0.96,0.9,2.04c0.47,1.09,1.06,2.44,1.75,4.04
					c0.69,1.61,1.46,3.4,2.3,5.38c0.84,1.98,1.71,3.99,2.6,6.04c0.89,2.05,1.75,4.07,2.6,6.04c0.84,1.98,1.61,3.77,2.3,5.38
					c0.69,1.61,1.26,2.96,1.72,4.04c0.46,1.09,0.75,1.77,0.87,2.04H405.86z M392.58,577.79h7.63l-3.31-8
					c-0.03-0.03-0.11-0.24-0.23-0.62c-0.12-0.38-0.21-0.73-0.28-1.03c-0.06,0.31-0.15,0.65-0.28,1.03
					c-0.12,0.38-0.18,0.59-0.18,0.62L392.58,577.79z"/>
				<path d="M449.66,588.87c-0.37,0.25-0.88,0.54-1.54,0.87c-0.66,0.34-1.44,0.65-2.34,0.94c-0.9,0.29-1.92,0.54-3.06,0.74
					c-1.13,0.2-2.34,0.3-3.63,0.3c-2.64,0-4.99-0.45-7.08-1.36c-2.08-0.9-3.84-2.12-5.29-3.65c-1.44-1.53-2.54-3.32-3.31-5.38
					c-0.77-2.05-1.15-4.21-1.15-6.48c0-2.51,0.46-4.83,1.38-6.96c0.92-2.13,2.17-3.97,3.75-5.51c1.58-1.55,3.42-2.75,5.51-3.61
					c2.1-0.86,4.34-1.29,6.73-1.29c0.92,0,1.85,0.07,2.78,0.21c0.93,0.14,1.82,0.31,2.64,0.53c0.83,0.21,1.55,0.46,2.18,0.74
					c0.63,0.28,1.08,0.57,1.36,0.87c-0.28,0.43-0.49,0.78-0.64,1.06c-0.15,0.28-0.31,0.56-0.48,0.85c-0.17,0.29-0.35,0.62-0.55,0.99
					c-0.2,0.37-0.48,0.87-0.85,1.52c-0.37-0.25-0.81-0.46-1.33-0.64s-1.06-0.33-1.63-0.44c-0.57-0.11-1.14-0.19-1.72-0.25
					c-0.58-0.06-1.1-0.09-1.56-0.09c-1.72,0-3.3,0.32-4.76,0.96c-1.46,0.64-2.71,1.49-3.77,2.55c-1.06,1.06-1.88,2.29-2.48,3.7
					c-0.6,1.41-0.9,2.87-0.9,4.37c0,1.47,0.28,2.9,0.85,4.3c0.57,1.39,1.36,2.63,2.39,3.7c1.03,1.07,2.24,1.94,3.65,2.6
					c1.41,0.66,2.97,0.99,4.69,0.99c0.98,0,1.93-0.1,2.85-0.3c0.92-0.2,1.73-0.42,2.44-0.67c0.71-0.24,1.28-0.49,1.72-0.74
					c0.44-0.24,0.68-0.41,0.71-0.5L449.66,588.87z"/>
				<path d="M453.84,557.85h5.65v33.5h-5.65V557.85z"/>
				<path d="M468.91,557.85l8.96,21.55c0,0.03,0.06,0.24,0.18,0.62c0.12,0.38,0.21,0.74,0.28,1.08c0.06-0.34,0.15-0.7,0.28-1.08
					c0.12-0.38,0.2-0.59,0.23-0.62l8.96-21.55h5.56c-0.12,0.28-0.41,0.96-0.87,2.07c-0.46,1.1-1.03,2.46-1.72,4.07
					c-0.69,1.61-1.46,3.4-2.3,5.38c-0.84,1.98-1.71,3.98-2.6,6.02c-0.89,2.04-1.75,4.05-2.6,6.04c-0.84,1.99-1.61,3.79-2.3,5.4
					c-0.69,1.61-1.27,2.96-1.75,4.04c-0.48,1.09-0.77,1.77-0.9,2.04c-0.12-0.28-0.41-0.96-0.87-2.04c-0.46-1.09-1.03-2.44-1.72-4.04
					c-0.69-1.61-1.46-3.41-2.3-5.4c-0.84-1.99-1.71-4-2.6-6.04c-0.89-2.04-1.75-4.04-2.6-6.02c-0.84-1.98-1.61-3.77-2.3-5.38
					c-0.69-1.61-1.26-2.96-1.72-4.07c-0.46-1.1-0.75-1.79-0.87-2.07H468.91z"/>
				<path d="M497.22,557.85h5.65v33.5h-5.65V557.85z"/>
				<path d="M510.59,591.35v-33.5h5.61v28.17h16.27v5.33H510.59z"/>
			</g>
		</g>
	</g>
	<g>
		<g>
			<polygon points="524.33,488.54 309.09,488.54 301.01,507.86 532.41,507.86 			"/>
			<g>
				<path d="M455.16,371.48c0.24,10.69-10.83,23.78-15.74,37.18c-6.51,17.75-11.34,36.4-11.34,55.21h-4.13
					c0.05-18.94,4.67-38.22,11.07-56.08c4.64-12.94,24.79-34.58,10.52-44.26c-7.24-4.91-18.48-8.38-27.56-8.57l0,0
					c-0.41-0.02-0.85,0.01-1.27,0c-0.42,0.01-0.86-0.02-1.27,0l0,0c-9.08,0.19-20.32,3.66-27.56,8.57
					c-14.27,9.68,5.88,31.32,10.52,44.26c6.4,17.87,11.03,37.14,11.07,56.08h-4.02c0-18.81-4.96-37.41-11.34-55.21
					c-4.2-11.7-16.55-26.24-15.74-37.18c-36.15,17.65-61.11,58.89-63.13,110.83h202.94C516.17,430.37,491.31,389.13,455.16,371.48z"
					/>
			</g>
		</g>
		<path d="M348.93,378.83c17.71-19.76,42.04-31.95,68.9-31.95c30.49,0,57.72,15.71,75.71,40.36l-0.1-81.74
			c0.24-5.19-1.86-13.98-7.46-14.38l-97.89,0.75c-4.72,0.18-3.19,4.55-3.33,12.04l0.74,28.26l-29.08-32.39
			c-0.65-0.7-2.17-0.37-3.41,0.75l-0.33,0.29l-8.13-9.05c-0.12-0.14-0.6,0.09-1.17,0.52l-26.01-28.96c0.74-1.22,1.2-2.28,1.18-2.95
			c-0.03-0.74-0.15-1.48-0.35-2.18c-0.45-1.56-1.31-2.97-2.49-4.05l-23.08-18.08c0.43-4.85,0.56-8.55,0.05-9.16
			c-1.32-1.58-3.11-2.41-4.95-2.52c-2.46-0.8-5.26-0.2-7.35,1.89l-25.92,22.23c-1.13,1.14-1.92,2.59-2.3,4.16
			c-0.17,0.71-0.26,1.45-0.25,2.19c0,0.29,0.1,0.66,0.27,1.07l-25.96,34.56c-0.37,0.49,0.03,1.41,0.89,2.06l0.23,0.17l-4.7,6.27
			c-0.07,0.09,0.14,0.36,0.48,0.67l-16.48,21.92c-1.09-0.19-2.22-0.14-3.34,0.21c-2.34,0.74-4.27,2.64-5.17,5.13l-11.47,31.66
			c-7.33-1.34-17.03,3.63-19.33,9.2c0,0-15.81,38.29-15.78,39.07c-0.43,2.55-1.15,7.88-0.02,10.11c7.13,27.31,58.06,43.5,58.06,43.5
			l1.92-6.47l-14.62-9.42c0,0,3.4-10.14,5.91-16.23l17.89-43.4c2.29-5.56,3.5-10.42-0.91-13.13l45.58-68.73l0.16,0.42l16.66-25.12
			c0.01,0.05,0.03,0.11,0.04,0.17c0.29,1,0.75,1.93,1.36,2.78l65.07,97.41L348.93,378.83z M213.96,325.55
			c-1.23-1.09-2.28-2.02-2.28-2.02c-0.19-0.17-0.39-0.32-0.6-0.46l15.62-20.79c0.23,0.12,0.42,0.17,0.47,0.1l4.76-6.33
			c0.65,0.28,1.28,0.26,1.55-0.11l24.42-32.5c1.33,1.4,2.64,2.68,3.72,3.62C253.86,276.33,222.15,315.67,213.96,325.55z
			 M314.35,270.28l23.94,26.67c-0.24,0.33-0.37,0.6-0.29,0.69l8.22,9.15c-0.62,0.92-0.78,1.87-0.3,2.41l32.07,35.71
			c-0.77,0.33-1.49,0.8-2.12,1.4c0,0-1.73,1.68-3.3,3.19c-7.21-7.9-50.43-61.88-61.71-74.85
			C312.08,273.24,313.32,271.71,314.35,270.28z"/>
	</g>
</g>
</svg>
